<svg width="122" height="147" viewBox="0 0 122 147" fill="none" xmlns="http://www.w3.org/2000/svg">
<g filter="url(#filter0_d_678_29)">
<circle cx="65" cy="76" r="50" fill="white"/>
<circle cx="65" cy="76" r="48.5" stroke="black" stroke-width="3"/>
</g>
<path d="M93 40H38.642H36C35.4477 40 35 39.5523 35 39V9.29659C35 8.40021 36.0885 7.95656 36.7151 8.59754L46.6676 18.7783C47.0599 19.1796 47.7055 19.1796 48.0978 18.7783L63.7849 2.73147C64.1772 2.3302 64.8228 2.3302 65.2151 2.73147L80.9022 18.7783C81.2945 19.1796 81.9401 19.1796 82.3324 18.7783L92.2849 8.59754C92.9115 7.95656 94 8.40021 94 9.29659V39C94 39.5523 93.5523 40 93 40Z" fill="#FFF27E" stroke="black" stroke-width="3" stroke-linejoin="round"/>
<path d="M105.484 71.4375H97.0469L82.9844 80.6562V88.8594L96.5 80.0312H96.8125V128H105.484V71.4375Z" fill="#FFF27E"/>
<path d="M105.484 71.4375H107.484C107.484 70.3329 106.589 69.4375 105.484 69.4375V71.4375ZM97.0469 71.4375V69.4375C96.6573 69.4375 96.2762 69.5513 95.9504 69.7649L97.0469 71.4375ZM82.9844 80.6562L81.8879 78.9836C81.324 79.3532 80.9844 79.9821 80.9844 80.6562H82.9844ZM82.9844 88.8594H80.9844C80.9844 89.5936 81.3867 90.2688 82.0324 90.6183C82.6781 90.9678 83.4634 90.9353 84.0781 90.5338L82.9844 88.8594ZM96.5 80.0312V78.0312C96.1115 78.0312 95.7315 78.1444 95.4063 78.3568L96.5 80.0312ZM96.8125 80.0312H98.8125C98.8125 78.9267 97.9171 78.0312 96.8125 78.0312V80.0312ZM96.8125 128H94.8125C94.8125 129.105 95.7079 130 96.8125 130V128ZM105.484 128V130C106.589 130 107.484 129.105 107.484 128H105.484ZM105.484 69.4375H97.0469V73.4375H105.484V69.4375ZM95.9504 69.7649L81.8879 78.9836L84.0809 82.3289L98.1434 73.1101L95.9504 69.7649ZM80.9844 80.6562V88.8594H84.9844V80.6562H80.9844ZM84.0781 90.5338L97.5937 81.7057L95.4063 78.3568L81.8907 87.1849L84.0781 90.5338ZM96.5 82.0312H96.8125V78.0312H96.5V82.0312ZM94.8125 80.0312V128H98.8125V80.0312H94.8125ZM96.8125 130H105.484V126H96.8125V130ZM107.484 128V71.4375H103.484V128H107.484Z" fill="black"/>
<defs>
<filter id="filter0_d_678_29" x="0" y="19" width="122" height="122" filterUnits="userSpaceOnUse" color-interpolation-filters="sRGB">
<feFlood flood-opacity="0" result="BackgroundImageFix"/>
<feColorMatrix in="SourceAlpha" type="matrix" values="0 0 0 0 0 0 0 0 0 0 0 0 0 0 0 0 0 0 127 0" result="hardAlpha"/>
<feMorphology radius="3" operator="dilate" in="SourceAlpha" result="effect1_dropShadow_678_29"/>
<feOffset dx="-4" dy="4"/>
<feGaussianBlur stdDeviation="4"/>
<feComposite in2="hardAlpha" operator="out"/>
<feColorMatrix type="matrix" values="0 0 0 0 0.823529 0 0 0 0 0.705882 0 0 0 0 0.564706 0 0 0 0.25 0"/>
<feBlend mode="normal" in2="BackgroundImageFix" result="effect1_dropShadow_678_29"/>
<feBlend mode="normal" in="SourceGraphic" in2="effect1_dropShadow_678_29" result="shape"/>
</filter>
</defs>
</svg>
