<svg width="122" height="145" viewBox="0 0 122 145" fill="none" xmlns="http://www.w3.org/2000/svg">
<g filter="url(#filter0_d_678_31)">
<circle cx="65" cy="76" r="50" fill="white"/>
<circle cx="65" cy="76" r="48.5" stroke="black" stroke-width="3"/>
</g>
<path d="M93 40H38.642H36C35.4477 40 35 39.5523 35 39V9.29659C35 8.40021 36.0885 7.95656 36.7151 8.59754L46.6676 18.7783C47.0599 19.1796 47.7055 19.1796 48.0978 18.7783L63.7849 2.73147C64.1772 2.3302 64.8228 2.3302 65.2151 2.73147L80.9022 18.7783C81.2945 19.1796 81.9401 19.1796 82.3324 18.7783L92.2849 8.59754C92.9115 7.95656 94 8.40021 94 9.29659V39C94 39.5523 93.5523 40 93 40Z" fill="#B3B3B3" stroke="black" stroke-width="3" stroke-linejoin="round"/>
<path d="M75 126H113.047V118.656H86.9531V118.188L98.4375 106.547C109.062 96.1172 112.031 91.0781 112.109 84.75C112.031 75.5703 104.492 68.6562 93.5938 68.6562C82.8125 68.6562 74.9219 75.4922 75 85.8438H83.125C83.1641 79.8281 87.1484 75.8438 93.4375 75.8438C99.375 75.8438 103.906 79.3984 103.906 84.9844C103.906 89.9453 100.82 93.5391 94.6094 99.9844L75 119.75V126Z" fill="#B2B2B2"/>
<path d="M75 126H73C73 127.105 73.8954 128 75 128V126ZM113.047 126V128C114.151 128 115.047 127.105 115.047 126H113.047ZM113.047 118.656H115.047C115.047 117.552 114.151 116.656 113.047 116.656V118.656ZM86.9531 118.656H84.9531C84.9531 119.761 85.8486 120.656 86.9531 120.656V118.656ZM86.9531 118.188L85.5294 116.783C85.1601 117.157 84.9531 117.662 84.9531 118.188H86.9531ZM98.4375 106.547L97.0365 105.12C97.0288 105.127 97.0213 105.135 97.0138 105.142L98.4375 106.547ZM112.109 84.75L114.109 84.7747C114.109 84.7608 114.109 84.7469 114.109 84.733L112.109 84.75ZM75 85.8438L73.0001 85.8588C73.0083 86.9575 73.9013 87.8438 75 87.8438V85.8438ZM83.125 85.8438V87.8438C84.2245 87.8438 85.1178 86.9562 85.125 85.8567L83.125 85.8438ZM94.6094 99.9844L96.0292 101.393C96.036 101.386 96.0428 101.379 96.0495 101.372L94.6094 99.9844ZM75 119.75L73.5802 118.341C73.2085 118.716 73 119.222 73 119.75H75ZM75 128H113.047V124H75V128ZM115.047 126V118.656H111.047V126H115.047ZM113.047 116.656H86.9531V120.656H113.047V116.656ZM88.9531 118.656V118.188H84.9531V118.656H88.9531ZM88.3769 119.592L99.8612 107.952L97.0138 105.142L85.5294 116.783L88.3769 119.592ZM99.8385 107.974C110.473 97.5356 114.02 91.9864 114.109 84.7747L110.11 84.7253C110.042 90.1699 107.652 94.6988 97.0365 105.12L99.8385 107.974ZM114.109 84.733C114.02 74.2449 105.367 66.6562 93.5938 66.6562V70.6562C103.617 70.6562 110.042 76.8957 110.109 84.767L114.109 84.733ZM93.5938 66.6562C87.7843 66.6562 82.6133 68.5012 78.8809 71.8868C75.1294 75.2897 72.9569 80.1398 73.0001 85.8588L76.9999 85.8287C76.965 81.1961 78.6987 77.4525 81.5683 74.8495C84.457 72.2292 88.622 70.6562 93.5938 70.6562V66.6562ZM75 87.8438H83.125V83.8438H75V87.8438ZM85.125 85.8567C85.1416 83.2976 85.987 81.3372 87.336 80.0176C88.6871 78.6961 90.7216 77.8438 93.4375 77.8438V73.8438C89.8644 73.8438 86.7621 74.9836 84.539 77.1581C82.3138 79.3347 81.1475 82.3742 81.125 85.8308L85.125 85.8567ZM93.4375 77.8438C96.0187 77.8438 98.1529 78.6158 99.6064 79.846C101.03 81.0511 101.906 82.777 101.906 84.9844H105.906C105.906 81.6058 104.517 78.7614 102.191 76.7927C99.894 74.8491 96.7938 73.8438 93.4375 73.8438V77.8438ZM101.906 84.9844C101.906 88.9929 99.528 91.9979 93.1692 98.5966L96.0495 101.372C102.113 95.0803 105.906 90.8978 105.906 84.9844H101.906ZM93.1896 98.5758L73.5802 118.341L76.4198 121.159L96.0292 101.393L93.1896 98.5758ZM73 119.75V126H77V119.75H73Z" fill="black"/>
<defs>
<filter id="filter0_d_678_31" x="0" y="19" width="122" height="122" filterUnits="userSpaceOnUse" color-interpolation-filters="sRGB">
<feFlood flood-opacity="0" result="BackgroundImageFix"/>
<feColorMatrix in="SourceAlpha" type="matrix" values="0 0 0 0 0 0 0 0 0 0 0 0 0 0 0 0 0 0 127 0" result="hardAlpha"/>
<feMorphology radius="3" operator="dilate" in="SourceAlpha" result="effect1_dropShadow_678_31"/>
<feOffset dx="-4" dy="4"/>
<feGaussianBlur stdDeviation="4"/>
<feComposite in2="hardAlpha" operator="out"/>
<feColorMatrix type="matrix" values="0 0 0 0 0.823529 0 0 0 0 0.705882 0 0 0 0 0.564706 0 0 0 0.25 0"/>
<feBlend mode="normal" in2="BackgroundImageFix" result="effect1_dropShadow_678_31"/>
<feBlend mode="normal" in="SourceGraphic" in2="effect1_dropShadow_678_31" result="shape"/>
</filter>
</defs>
</svg>
