<svg width="122" height="145" viewBox="0 0 122 145" fill="none" xmlns="http://www.w3.org/2000/svg">
<g filter="url(#filter0_d_678_32)">
<circle cx="65" cy="76" r="50" fill="white"/>
<circle cx="65" cy="76" r="48.5" stroke="black" stroke-width="3"/>
</g>
<path d="M93 40H38.642H36C35.4477 40 35 39.5523 35 39V9.29659C35 8.40021 36.0885 7.95656 36.7151 8.59754L46.6676 18.7783C47.0599 19.1796 47.7055 19.1796 48.0978 18.7783L63.7849 2.73147C64.1772 2.3302 64.8228 2.3302 65.2151 2.73147L80.9022 18.7783C81.2945 19.1796 81.9401 19.1796 82.3324 18.7783L92.2849 8.59754C92.9115 7.95656 94 8.40021 94 9.29659V39C94 39.5523 93.5523 40 93 40Z" fill="#D3AB6F" stroke="black" stroke-width="3" stroke-linejoin="round"/>
<path d="M94.0781 126.781C105.797 126.781 114.508 119.867 114.469 110.453C114.508 103.305 110.016 98.1094 102.281 97.0156V96.625C108.375 95.1016 112.359 90.4922 112.281 84.0469C112.359 75.6875 105.367 68.6562 94.2344 68.6562C83.6875 68.6562 75.1719 74.9062 74.9375 84.125H83.2188C83.4141 79.0078 88.4922 75.8438 94.1562 75.8438C100.133 75.8438 104 79.3594 104 84.5156C104 89.9453 99.5078 93.5391 93.0625 93.5H88.2188V100.531H93.0625C101.148 100.57 105.797 104.555 105.797 110.141C105.797 115.648 100.836 119.359 94 119.359C87.6719 119.359 82.75 116.195 82.4375 111.234H73.6875C74.0391 120.492 82.3594 126.781 94.0781 126.781Z" fill="#D3AB6F"/>
<path d="M114.469 110.453L112.469 110.442C112.469 110.449 112.469 110.455 112.469 110.461L114.469 110.453ZM102.281 97.0156H100.281C100.281 98.012 101.015 98.8564 102.001 98.9959L102.281 97.0156ZM102.281 96.625L101.796 94.6847C100.906 94.9073 100.281 95.7073 100.281 96.625H102.281ZM112.281 84.0469L110.281 84.0282C110.281 84.0425 110.281 84.0568 110.281 84.0711L112.281 84.0469ZM74.9375 84.125L72.9381 84.0742C72.9244 84.6132 73.129 85.135 73.5054 85.5211C73.8819 85.9072 74.3983 86.125 74.9375 86.125V84.125ZM83.2188 84.125V86.125C84.2936 86.125 85.1763 85.2754 85.2173 84.2013L83.2188 84.125ZM93.0625 93.5L93.0746 91.5H93.0625V93.5ZM88.2188 93.5V91.5C87.1142 91.5 86.2188 92.3954 86.2188 93.5H88.2188ZM88.2188 100.531H86.2188C86.2188 101.636 87.1142 102.531 88.2188 102.531V100.531ZM93.0625 100.531L93.0722 98.5312H93.0625V100.531ZM82.4375 111.234L84.4335 111.109C84.3672 110.055 83.4932 109.234 82.4375 109.234V111.234ZM73.6875 111.234V109.234C73.1439 109.234 72.6237 109.456 72.2467 109.847C71.8697 110.239 71.6683 110.767 71.6889 111.31L73.6875 111.234ZM94.0781 128.781C106.452 128.781 116.514 121.371 116.469 110.445L112.469 110.461C112.502 118.364 105.141 124.781 94.0781 124.781V128.781ZM116.469 110.464C116.491 106.455 115.235 102.872 112.78 100.13C110.33 97.393 106.815 95.6368 102.561 95.0353L102.001 98.9959C105.482 99.4882 108.08 100.877 109.8 102.798C111.515 104.714 112.486 107.303 112.469 110.442L116.469 110.464ZM104.281 97.0156V96.625H100.281V97.0156H104.281ZM102.766 98.5653C109.672 96.839 114.372 91.4821 114.281 84.0226L110.281 84.0711C110.347 89.5023 107.078 93.3641 101.796 94.6847L102.766 98.5653ZM114.281 84.0656C114.372 74.3748 106.246 66.6562 94.2344 66.6562V70.6562C104.488 70.6562 110.347 77.0002 110.281 84.0282L114.281 84.0656ZM94.2344 66.6562C83.0334 66.6562 73.2099 73.3863 72.9381 84.0742L76.9369 84.1758C77.1339 76.4262 84.3416 70.6562 94.2344 70.6562V66.6562ZM74.9375 86.125H83.2188V82.125H74.9375V86.125ZM85.2173 84.2013C85.2877 82.3565 86.218 80.8229 87.7996 79.6926C89.4114 78.5408 91.674 77.8438 94.1562 77.8438V73.8438C90.9745 73.8438 87.866 74.7287 85.4739 76.4382C83.0515 78.1693 81.3451 80.7763 81.2202 84.0487L85.2173 84.2013ZM94.1562 77.8438C96.7583 77.8438 98.7135 78.6057 99.9906 79.7409C101.247 80.858 102 82.4671 102 84.5156H106C106 81.4079 104.819 78.6811 102.648 76.7513C100.497 74.8396 97.5308 73.8438 94.1562 73.8438V77.8438ZM102 84.5156C102 86.6306 101.146 88.3167 99.6845 89.5084C98.1892 90.7274 95.9369 91.5174 93.0746 91.5L93.0504 95.5C96.6334 95.5217 99.8498 94.5343 102.212 92.6088C104.608 90.6559 106 87.8304 106 84.5156H102ZM93.0625 91.5H88.2188V95.5H93.0625V91.5ZM86.2188 93.5V100.531H90.2188V93.5H86.2188ZM88.2188 102.531H93.0625V98.5312H88.2188V102.531ZM93.0528 102.531C96.791 102.549 99.5015 103.48 101.23 104.831C102.913 106.147 103.797 107.956 103.797 110.141H107.797C107.797 106.739 106.357 103.763 103.694 101.68C101.077 99.6336 97.4199 98.5523 93.0722 98.5313L93.0528 102.531ZM103.797 110.141C103.797 112.232 102.879 113.968 101.24 115.232C99.566 116.524 97.0741 117.359 94 117.359V121.359C97.7619 121.359 101.168 120.34 103.684 118.399C106.235 116.431 107.797 113.557 107.797 110.141H103.797ZM94 117.359C88.1226 117.359 84.6474 114.504 84.4335 111.109L80.4415 111.36C80.8526 117.887 87.2211 121.359 94 121.359V117.359ZM82.4375 109.234H73.6875V113.234H82.4375V109.234ZM71.6889 111.31C72.0966 122.045 81.7394 128.781 94.0781 128.781V124.781C82.9793 124.781 75.9815 118.939 75.6861 111.158L71.6889 111.31Z" fill="black"/>
<defs>
<filter id="filter0_d_678_32" x="0" y="19" width="122" height="122" filterUnits="userSpaceOnUse" color-interpolation-filters="sRGB">
<feFlood flood-opacity="0" result="BackgroundImageFix"/>
<feColorMatrix in="SourceAlpha" type="matrix" values="0 0 0 0 0 0 0 0 0 0 0 0 0 0 0 0 0 0 127 0" result="hardAlpha"/>
<feMorphology radius="3" operator="dilate" in="SourceAlpha" result="effect1_dropShadow_678_32"/>
<feOffset dx="-4" dy="4"/>
<feGaussianBlur stdDeviation="4"/>
<feComposite in2="hardAlpha" operator="out"/>
<feColorMatrix type="matrix" values="0 0 0 0 0.823529 0 0 0 0 0.705882 0 0 0 0 0.564706 0 0 0 0.25 0"/>
<feBlend mode="normal" in2="BackgroundImageFix" result="effect1_dropShadow_678_32"/>
<feBlend mode="normal" in="SourceGraphic" in2="effect1_dropShadow_678_32" result="shape"/>
</filter>
</defs>
</svg>
