<svg width="163" height="125" viewBox="0 0 163 125" fill="none" xmlns="http://www.w3.org/2000/svg">
<g filter="url(#filter0_d_395_785)">
<mask id="path-1-inside-1_395_785" fill="white">
<path fill-rule="evenodd" clip-rule="evenodd" d="M74.1965 8.20478L79.5 29.4189L94.5 23.9189L96.5 32.9189H103.5L108.5 45.4189L118.082 39.7409C120.608 45.6686 122 52.1516 122 58.9446C122 87.1252 98.0472 109.97 68.5 109.97C38.9528 109.97 15 87.1252 15 58.9446C15 30.7639 38.9528 7.91895 68.5 7.91895C70.4242 7.91895 72.3247 8.01583 74.1965 8.20478Z"/>
</mask>
<path fill-rule="evenodd" clip-rule="evenodd" d="M74.1965 8.20478L79.5 29.4189L94.5 23.9189L96.5 32.9189H103.5L108.5 45.4189L118.082 39.7409C120.608 45.6686 122 52.1516 122 58.9446C122 87.1252 98.0472 109.97 68.5 109.97C38.9528 109.97 15 87.1252 15 58.9446C15 30.7639 38.9528 7.91895 68.5 7.91895C70.4242 7.91895 72.3247 8.01583 74.1965 8.20478Z" fill="#5B5B5B"/>
<path d="M79.5 29.4189L76.5896 30.1466L77.3991 33.3846L80.5328 32.2356L79.5 29.4189ZM74.1965 8.20478L77.1069 7.47717L76.5955 5.4317L74.4978 5.21994L74.1965 8.20478ZM94.5 23.9189L97.4286 23.2682L96.6851 19.9224L93.4672 21.1023L94.5 23.9189ZM96.5 32.9189L93.5714 33.5697L94.0935 35.9189H96.5V32.9189ZM103.5 32.9189L106.285 31.8048L105.531 29.9189H103.5V32.9189ZM108.5 45.4189L105.715 46.5331L107.016 49.7858L110.029 47.9998L108.5 45.4189ZM118.082 39.7409L120.842 38.5646L119.499 35.414L116.552 37.16L118.082 39.7409ZM82.4104 28.6913L77.1069 7.47717L71.286 8.93238L76.5896 30.1466L82.4104 28.6913ZM93.4672 21.1023L78.4672 26.6023L80.5328 32.2356L95.5328 26.7356L93.4672 21.1023ZM99.4286 32.2682L97.4286 23.2682L91.5714 24.5697L93.5714 33.5697L99.4286 32.2682ZM103.5 29.9189H96.5V35.9189H103.5V29.9189ZM111.285 44.3048L106.285 31.8048L100.715 34.0331L105.715 46.5331L111.285 44.3048ZM116.552 37.16L106.971 42.8381L110.029 47.9998L119.611 42.3218L116.552 37.16ZM115.322 40.9171C117.694 46.482 119 52.5656 119 58.9446H125C125 51.7375 123.523 44.8551 120.842 38.5646L115.322 40.9171ZM119 58.9446C119 85.3361 96.5258 106.97 68.5 106.97V112.97C99.5686 112.97 125 88.9144 125 58.9446H119ZM68.5 106.97C40.4742 106.97 18 85.3361 18 58.9446H12C12 88.9144 37.4314 112.97 68.5 112.97V106.97ZM18 58.9446C18 32.553 40.4742 10.9189 68.5 10.9189V4.91895C37.4314 4.91895 12 28.9747 12 58.9446H18ZM68.5 10.9189C70.3235 10.9189 72.1234 11.0108 73.8951 11.1896L74.4978 5.21994C72.5261 5.02091 70.525 4.91895 68.5 4.91895V10.9189Z" fill="black" mask="url(#path-1-inside-1_395_785)"/>
</g>
<path fill-rule="evenodd" clip-rule="evenodd" d="M122 104.701L135.539 112.975L140.156 102.702L145.776 106.337L149.251 102.862L158.159 106.807L159.995 99.1323C147.614 93.97 132.932 95.8385 122 104.701Z" fill="#5B5B5B"/>
<path d="M135.539 112.975L134.757 114.255C135.124 114.48 135.57 114.536 135.982 114.408C136.393 114.281 136.73 113.983 136.907 113.59L135.539 112.975ZM122 104.701L121.055 103.536C120.677 103.843 120.471 104.314 120.503 104.801C120.536 105.287 120.802 105.727 121.218 105.981L122 104.701ZM140.156 102.702L140.971 101.443C140.604 101.205 140.151 101.14 139.732 101.264C139.312 101.388 138.968 101.689 138.788 102.088L140.156 102.702ZM145.776 106.337L144.962 107.596C145.555 107.98 146.337 107.898 146.837 107.398L145.776 106.337ZM149.251 102.862L149.858 101.491C149.291 101.24 148.628 101.363 148.19 101.802L149.251 102.862ZM158.159 106.807L157.551 108.179C157.959 108.359 158.425 108.349 158.824 108.152C159.223 107.954 159.514 107.589 159.618 107.156L158.159 106.807ZM159.995 99.1323L161.454 99.4814C161.625 98.7655 161.252 98.0311 160.573 97.7478L159.995 99.1323ZM136.321 111.695L122.782 103.421L121.218 105.981L134.757 114.255L136.321 111.695ZM138.788 102.088L134.171 112.36L136.907 113.59L141.524 103.317L138.788 102.088ZM146.591 105.077L140.971 101.443L139.342 103.962L144.962 107.596L146.591 105.077ZM148.19 101.802L144.715 105.276L146.837 107.398L150.311 103.923L148.19 101.802ZM158.766 105.436L149.858 101.491L148.643 104.234L157.551 108.179L158.766 105.436ZM158.537 98.7832L156.7 106.458L159.618 107.156L161.454 99.4814L158.537 98.7832ZM122.945 105.866C133.444 97.3552 147.54 95.5641 159.418 100.517L160.573 97.7478C147.689 92.3758 132.421 94.3219 121.055 103.536L122.945 105.866Z" fill="black"/>
<circle cx="55" cy="58.9189" r="3" fill="#BCBCBC"/>
<circle cx="83" cy="58.9189" r="3" fill="#BCBCBC"/>
<path d="M81 78.9189C77.2424 75.1458 67.1818 69.8635 57 78.9189" stroke="#BCBCBC" stroke-width="3" stroke-linecap="round" stroke-linejoin="round"/>
<path d="M31.8548 47.9676C30.513 47.6098 29.7079 46.2289 30.1474 44.9117C32.0511 39.2069 35.1935 33.9817 39.3608 29.617C43.5282 25.2523 48.6025 21.8717 54.2132 19.7062C55.5087 19.2062 56.9253 19.9467 57.3447 21.2704C57.7642 22.5942 57.0269 23.999 55.7358 24.5102C50.9294 26.413 46.5814 29.3365 42.9979 33.0896C39.4145 36.8428 36.6952 41.3213 35.0167 46.2106C34.5658 47.524 33.1965 48.3254 31.8548 47.9676Z" fill="#C4C4C4" fill-opacity="0.4"/>
<defs>
<filter id="filter0_d_395_785" x="0" y="0.918945" width="129" height="124.051" filterUnits="userSpaceOnUse" color-interpolation-filters="sRGB">
<feFlood flood-opacity="0" result="BackgroundImageFix"/>
<feColorMatrix in="SourceAlpha" type="matrix" values="0 0 0 0 0 0 0 0 0 0 0 0 0 0 0 0 0 0 127 0" result="hardAlpha"/>
<feMorphology radius="3" operator="dilate" in="SourceAlpha" result="effect1_dropShadow_395_785"/>
<feOffset dx="-4" dy="4"/>
<feGaussianBlur stdDeviation="4"/>
<feComposite in2="hardAlpha" operator="out"/>
<feColorMatrix type="matrix" values="0 0 0 0 0.823529 0 0 0 0 0.705882 0 0 0 0 0.564706 0 0 0 0.25 0"/>
<feBlend mode="normal" in2="BackgroundImageFix" result="effect1_dropShadow_395_785"/>
<feBlend mode="normal" in="SourceGraphic" in2="effect1_dropShadow_395_785" result="shape"/>
</filter>
</defs>
</svg>
