<svg width="100" height="100" viewBox="0 0 100 100" fill="none" xmlns="http://www.w3.org/2000/svg">
<path d="M100 50C100 77.6142 77.6142 100 50 100C22.3858 100 0 77.6142 0 50C0 22.3858 22.3858 0 50 0C77.6142 0 100 22.3858 100 50Z" fill="white"/>
<path fill-rule="evenodd" clip-rule="evenodd" d="M50 97.1963C76.0658 97.1963 97.1963 76.0658 97.1963 50C97.1963 23.9342 76.0658 2.80374 50 2.80374C23.9342 2.80374 2.80374 23.9342 2.80374 50C2.80374 76.0658 23.9342 97.1963 50 97.1963ZM50 100C77.6142 100 100 77.6142 100 50C100 22.3858 77.6142 0 50 0C22.3858 0 0 22.3858 0 50C0 77.6142 22.3858 100 50 100Z" fill="black"/>
<path d="M40.1866 58.878C40.1866 60.4264 38.9313 61.6817 37.3828 61.6817C35.8344 61.6817 34.5791 60.4264 34.5791 58.878C34.5791 57.3295 35.8344 56.0742 37.3828 56.0742C38.9313 56.0742 40.1866 57.3295 40.1866 58.878Z" fill="black"/>
<path d="M66.355 58.878C66.355 60.4264 65.0998 61.6817 63.5513 61.6817C62.0028 61.6817 60.7476 60.4264 60.7476 58.878C60.7476 57.3295 62.0028 56.0742 63.5513 56.0742C65.0998 56.0742 66.355 57.3295 66.355 58.878Z" fill="black"/>
<path fill-rule="evenodd" clip-rule="evenodd" d="M38.571 73.1924C38.7477 73.0042 38.9943 72.8975 39.2525 72.8975H60.7478C61.2639 72.8975 61.6824 73.3159 61.6824 73.832C61.6824 75.5963 61.12 78.3674 59.4215 80.7235C57.6886 83.1273 54.8051 85.047 50.3258 85.047C45.8609 85.047 42.8812 83.1947 41.0118 80.8381C39.1729 78.52 38.438 75.7573 38.3197 73.8911C38.3034 73.6335 38.3944 73.3806 38.571 73.1924ZM40.3063 74.7666C40.5651 76.2423 41.2201 78.0931 42.4761 79.6765C44.0047 81.6034 46.4531 83.1778 50.3258 83.1778C54.1841 83.1778 56.5116 81.5636 57.9053 79.6304C59.057 78.0327 59.592 76.1826 59.7559 74.7666H40.3063Z" fill="black"/>
<path d="M14.6447 14.6447C5.26785 24.0215 8.78869e-06 36.7392 7.62939e-06 50L16.8224 50L19.1589 36.9159L22.4299 50L50 50L78.5047 50L80.3738 45.3271L82.7103 50L100 50C100 36.7392 94.7322 24.0215 85.3553 14.6447C75.9785 5.26784 63.2608 6.02857e-07 50 -5.56442e-07C36.7392 -1.71574e-06 24.0215 5.26784 14.6447 14.6447Z" fill="#474747"/>
<path fill-rule="evenodd" clip-rule="evenodd" d="M82.7103 50L100 50C100 49.3756 99.9883 48.7525 99.9651 48.1308C99.4948 35.549 94.2907 23.58 85.3553 14.6447C75.9785 5.26784 63.2608 6.02857e-07 50 -5.56442e-07C36.7392 -1.71574e-06 24.0215 5.26784 14.6447 14.6447C5.70934 23.58 0.505159 35.549 0.0349199 48.1308C0.0116807 48.7525 7.68398e-06 49.3756 7.62939e-06 50L16.8224 50L19.1589 36.9159L22.4299 50L78.5047 50L80.3738 45.3271L82.7103 50ZM77.2392 48.1308L78.6384 44.6329C78.9117 43.9495 79.5607 43.4901 80.2962 43.4596C81.0316 43.429 81.7165 43.8328 82.0457 44.4912L83.8655 48.1308L98.0946 48.1308C97.6253 36.0449 92.6184 24.5511 84.0336 15.9664C75.0074 6.94007 62.7651 1.86916 50 1.86916C37.2349 1.86916 24.9926 6.94008 15.9664 15.9664C7.38159 24.5511 2.37473 36.0449 1.90544 48.1308L15.2575 48.1308L17.3188 36.5873C17.4738 35.7195 18.2141 35.0779 19.0951 35.0478C19.9761 35.0177 20.7584 35.6073 20.9722 36.4626L23.8893 48.1308L77.2392 48.1308Z" fill="black"/>
</svg>
