<svg width="384" height="359" viewBox="0 0 384 359" fill="none" xmlns="http://www.w3.org/2000/svg">
<path d="M54.0488 195.65C50.1328 195.65 47.1445 197.691 47.1543 200.728C47.1445 203.472 49.3613 205.328 52.4863 205.777V208.424H45.8066V210.963H62.3105V208.424H55.5918V205.787C58.7168 205.338 60.9629 203.482 60.9629 200.728C60.9629 197.691 57.9551 195.65 54.0488 195.65ZM50.2598 200.728C50.25 199.078 51.7734 198.131 54.0488 198.131C56.334 198.131 57.8379 199.078 57.8574 200.728C57.8379 202.525 56.334 203.414 54.0488 203.404C51.7734 203.414 50.25 202.525 50.2598 200.728ZM77.5059 195.572H65.084V202.095H69.7129V203.443H63.0918V205.943H79.5762V203.443H72.877V202.095H77.5059V195.572ZM64.9277 209.361H74.459V212.935H77.584V206.92H64.9277V209.361ZM68.1309 199.654V197.994H74.4199V199.654H68.1309ZM96.8809 208.463H90.2012V204.693H87.0371V208.463H80.377V210.982H96.8809V208.463ZM80.9434 203.111L82.1543 205.592C85.416 205.025 87.5059 203.59 88.6191 201.636C89.752 203.541 91.8809 204.918 95.1816 205.455L96.3926 202.994C92.3203 202.427 90.6797 200.562 90.3184 198.58H95.416V196.08H81.7637V198.58H86.8613C86.5 200.582 84.8789 202.506 80.9434 203.111ZM112.076 195.572H99.6543V202.095H104.283V203.443H97.6621V205.943H114.146V203.443H107.447V202.095H112.076V195.572ZM99.498 209.361H109.029V212.935H112.154V206.92H99.498V209.361ZM102.701 199.654V197.994H108.99V199.654H102.701ZM130.357 195.084H128.268V212.74H130.357V195.084ZM115.299 202.72C115.299 206.617 116.803 209.039 119.107 209.029C121.295 209.039 122.77 206.929 122.975 203.482H124.654V211.881H126.725V195.396H124.654V201.724H122.955C122.701 198.424 121.246 196.422 119.107 196.431C116.803 196.422 115.299 198.834 115.299 202.72ZM117.311 202.72C117.301 199.967 117.984 198.472 119.107 198.482C120.279 198.472 120.973 199.967 120.982 202.72C120.973 205.484 120.279 206.969 119.107 206.959C117.984 206.969 117.301 205.484 117.311 202.72ZM145.182 196.08C141.422 196.09 138.629 197.974 138.639 200.845C138.629 203.492 140.904 205.26 144.107 205.582V208.814H137.154V210.592H153.287V208.814H146.256V205.582C149.498 205.26 151.773 203.492 151.764 200.845C151.773 197.974 148.971 196.09 145.182 196.08ZM140.768 200.845C140.758 199 142.604 197.828 145.182 197.838C147.799 197.828 149.635 199 149.635 200.845C149.635 202.75 147.799 203.892 145.182 203.892C142.604 203.892 140.758 202.75 140.768 200.845ZM169.146 195.103H166.959V207.994H169.146V195.103ZM154.459 203.834L155.592 205.552C157.672 204.801 159.137 203.258 159.918 201.324C160.699 203.131 162.135 204.537 164.146 205.24L165.26 203.521C162.457 202.584 161.012 200.26 161.021 197.799V196.08H158.775V197.799C158.785 200.338 157.32 202.828 154.459 203.834ZM157.467 212.388H169.635V210.631H159.654V206.763H157.467V212.388ZM181.295 196.373C178.639 196.373 176.754 198.795 176.764 202.603C176.754 206.441 178.639 208.853 181.295 208.853C182.994 208.853 184.381 207.838 185.152 206.08H189.127V212.76H191.275V195.084H189.127V198.814H184.996C184.205 197.261 182.887 196.373 181.295 196.373ZM178.854 202.603C178.844 199.908 179.84 198.326 181.295 198.326C182.76 198.326 183.746 199.908 183.756 202.603C183.746 205.318 182.76 206.89 181.295 206.9C179.84 206.89 178.844 205.318 178.854 202.603ZM185.611 200.592H189.127V204.322H185.66C185.758 203.785 185.807 203.209 185.807 202.603C185.807 201.881 185.738 201.207 185.611 200.592ZM208.541 195.084H206.373V201.588H203.346V203.365H206.373V212.76H208.541V195.084ZM194.342 198.385H200.201V201.334H194.4V208.619H195.807C198.844 208.609 201.207 208.511 203.834 208.052L203.658 206.275C201.285 206.705 199.176 206.793 196.549 206.802V203.092H202.33V196.627H194.342V198.385ZM227.154 204.224H211.021V205.963H218.189V209.01H220.338V205.963H227.154V204.224ZM212.975 212.388H225.377V210.631H215.123V207.525H212.975V212.388ZM213.131 202.838H225.045V195.65H222.896V197.642H215.279V195.65H213.131V202.838ZM215.279 201.119V199.263H222.896V201.119H215.279ZM247.057 195.084H244.889V208.873H247.057V202.799H249.439V201.002H247.057V195.084ZM232.916 205.338L233.15 207.037C236.197 207.008 240.406 206.959 244.146 206.256L243.971 204.732C242.555 204.947 241.041 205.084 239.537 205.172V204.156C241.471 203.892 242.682 202.935 242.682 201.529C242.682 199.801 240.992 198.775 238.424 198.795C235.865 198.775 234.156 199.801 234.166 201.529C234.156 202.945 235.406 203.912 237.369 204.156V205.279C235.768 205.328 234.234 205.338 232.916 205.338ZM233.365 198.209H243.502V196.627H239.537V195.025H237.369V196.627H233.365V198.209ZM235.455 212.388H247.682V210.631H237.623V207.955H235.455V212.388ZM236.256 201.529C236.236 200.699 237.057 200.25 238.424 200.26C239.791 200.25 240.611 200.699 240.611 201.529C240.611 202.291 239.791 202.74 238.424 202.74C237.057 202.74 236.236 202.291 236.256 201.529ZM255.26 196.08C252.594 196.07 250.592 197.857 250.592 200.357C250.592 202.838 252.594 204.625 255.26 204.615C256.676 204.625 257.906 204.097 258.746 203.228H262.975V205.474H265.143V195.084H262.975V197.486H258.756C257.926 196.597 256.686 196.07 255.26 196.08ZM252.662 200.357C252.662 198.863 253.746 197.935 255.26 197.935C256.725 197.935 257.809 198.863 257.818 200.357C257.809 201.802 256.725 202.779 255.26 202.779C253.746 202.779 252.662 201.802 252.662 200.357ZM253.17 209.283C253.15 211.451 255.465 212.72 259.166 212.72C262.877 212.72 265.191 211.451 265.201 209.283C265.191 207.105 262.877 205.836 259.166 205.845C255.465 205.836 253.15 207.105 253.17 209.283ZM255.299 209.283C255.279 208.131 256.715 207.515 259.166 207.506C261.666 207.515 263.072 208.131 263.072 209.283C263.072 210.406 261.666 211.011 259.166 211.021C256.715 211.011 255.279 210.406 255.299 209.283ZM259.732 199.224H262.975V201.47H259.742C259.83 201.119 259.889 200.748 259.889 200.357C259.889 199.957 259.83 199.586 259.732 199.224ZM281.568 195.084H279.4V205.396H281.568V201.236H284.029V199.439H281.568V195.084ZM267.662 198.463H278.131V196.724H273.99V194.947H271.822V196.724H267.662V198.463ZM268.561 202.174C268.561 204.049 270.318 205.289 272.896 205.279C275.445 205.289 277.203 204.049 277.213 202.174C277.203 200.299 275.445 199.068 272.896 199.068C270.318 199.068 268.561 200.299 268.561 202.174ZM270.162 212.525H281.568V206.099H279.4V207.623H272.311V206.099H270.162V212.525ZM270.67 202.174C270.66 201.246 271.559 200.67 272.896 200.67C274.234 200.67 275.143 201.246 275.143 202.174C275.143 203.131 274.234 203.677 272.896 203.677C271.559 203.677 270.66 203.131 270.67 202.174ZM272.311 210.806V209.302H279.4V210.806H272.311ZM299.654 195.084H297.506V212.74H299.654V195.084ZM285.943 208.306H287.467C290.211 208.316 293.092 208.111 296.197 207.467L295.924 205.65C293.199 206.197 290.562 206.412 288.092 206.451V196.802H285.943V208.306ZM316.041 195.084H313.873V212.76H316.041V203.56H318.756V201.783H316.041V195.084ZM302.936 208.443H304.4C307.584 208.443 309.957 208.365 312.701 207.896L312.447 206.06C310.025 206.48 307.848 206.617 305.104 206.627V198.521H311.197V196.763H302.936V208.443ZM320.338 207.056H322.33C322.311 205.885 322.818 205.416 323.502 205.416C323.98 205.416 324.244 205.64 324.869 206.158C325.846 207.027 326.549 207.398 327.467 207.388C329.156 207.398 330.445 206.148 330.377 203.638H328.385C328.404 204.752 327.906 205.269 327.213 205.279C326.725 205.269 326.422 205.025 325.846 204.517C324.83 203.638 324.137 203.306 323.229 203.306C321.529 203.306 320.279 204.547 320.338 207.056ZM336.021 196.861H333.365L333.6 206.842H335.807L336.021 196.861ZM333.189 209.635C333.18 210.474 333.873 211.158 334.713 211.158C335.523 211.158 336.217 210.474 336.217 209.635C336.217 208.814 335.523 208.14 334.713 208.131C333.873 208.14 333.18 208.814 333.189 209.635Z" fill="black"/>
<path d="M47.5234 266.345H34.8047V267.377H40.5234V272.267H41.7266V267.377H47.5234V266.345ZM36.2422 262.002C36.25 263.853 38.2109 265.025 41.1328 265.017C44.0469 265.025 46.0234 263.853 46.0234 262.002C46.0234 260.119 44.0469 258.947 41.1328 258.939C38.2109 258.947 36.25 260.119 36.2422 262.002ZM37.5078 262.002C37.4922 260.744 38.9688 259.939 41.1328 259.939C43.2969 259.939 44.7656 260.744 44.7734 262.002C44.7656 263.236 43.2969 264.033 41.1328 264.033C38.9688 264.033 37.4922 263.236 37.5078 262.002ZM60.1172 258.377H58.8984V272.299H60.1172V258.377ZM49.4297 260.689H54.6641V263.611H49.4609V268.924H50.6172C53.0156 268.924 55.125 268.822 57.6797 268.424L57.5547 267.392C55.0703 267.791 53.0156 267.9 50.7109 267.892V264.611H55.8984V259.674H49.4297V260.689ZM72.8359 258.955C69.7812 258.955 67.4922 260.502 67.4922 262.845C67.4922 264.986 69.2969 266.424 71.8359 266.713V269.142H66.3516V270.783H79.3672V269.142H73.8203V266.713C76.375 266.431 78.1875 264.994 78.1953 262.845C78.1875 260.502 75.8906 258.955 72.8359 258.955ZM69.4609 262.845C69.4609 261.424 70.8438 260.541 72.8359 260.549C74.8359 260.541 76.2188 261.424 76.2266 262.845C76.2188 264.345 74.8359 265.181 72.8359 265.189C70.8438 265.181 69.4609 264.345 69.4609 262.845ZM91.5078 258.783H81.7891V263.783H85.6484V265.142H80.1797V266.752H93.1484V265.142H87.6484V263.783H91.5078V258.783ZM81.6172 269.361H89.5859V272.439H91.5703V267.799H81.6172V269.361ZM83.7422 262.22V260.33H89.5547V262.22H83.7422ZM107.023 269.174H101.508V266.002H99.5078V269.174H94.0078V270.783H107.023V269.174ZM94.5391 265.049L95.3203 266.627C97.7734 266.181 99.6016 264.924 100.5 263.213C101.422 264.9 103.266 266.111 105.758 266.549L106.539 264.97C103.492 264.525 101.711 262.783 101.555 260.908H105.883V259.299H95.0859V260.908H99.4297C99.2578 262.791 97.4922 264.572 94.5391 265.049ZM119.164 258.783H109.445V263.783H113.305V265.142H107.836V266.752H120.805V265.142H115.305V263.783H119.164V258.783ZM109.273 269.361H117.242V272.439H119.227V267.799H109.273V269.361ZM111.398 262.22V260.33H117.211V262.22H111.398ZM134.461 265.705H121.805V266.705H134.461V265.705ZM123.211 261.627C123.211 263.353 125.117 264.392 128.133 264.392C131.117 264.392 133.031 263.353 133.039 261.627C133.031 259.885 131.117 258.861 128.133 258.877C125.117 258.861 123.211 259.885 123.211 261.627ZM123.445 271.97H133.055V270.939H124.68V267.924H123.445V271.97ZM124.477 261.627C124.469 260.541 125.891 259.861 128.133 259.861C130.359 259.861 131.781 260.541 131.789 261.627C131.781 262.728 130.359 263.392 128.133 263.392C125.891 263.392 124.469 262.728 124.477 261.627ZM145.977 259.283C143.031 259.299 140.898 260.736 140.898 262.924C140.898 264.986 142.742 266.353 145.367 266.541V269.455H139.648V270.486H152.367V269.455H146.57V266.541C149.211 266.361 151.055 264.994 151.055 262.924C151.055 260.736 148.93 259.299 145.977 259.283ZM142.086 262.924C142.078 261.353 143.727 260.291 145.977 260.299C148.227 260.291 149.867 261.353 149.867 262.924C149.867 264.525 148.227 265.564 145.977 265.58C143.727 265.564 142.078 264.525 142.086 262.924ZM164.523 258.97H155.117V263.658H159.195V265.439H153.477V266.439H166.133V265.439H160.414V263.658H164.523V258.97ZM154.883 268.877H163.336V272.267H164.57V267.892H154.883V268.877ZM156.32 262.674V259.955H163.305V262.674H156.32ZM173.633 258.627C170.531 258.627 168.711 259.478 168.711 261.017C168.711 262.595 170.531 263.447 173.633 263.455C176.719 263.447 178.531 262.595 178.539 261.017C178.531 259.478 176.719 258.627 173.633 258.627ZM167.305 265.392H179.961V264.392H167.305V265.392ZM168.836 267.533H177.133V268.799H168.867V272.111H178.758V271.142H170.086V269.705H178.336V266.595H168.836V267.533ZM169.992 261.017C169.977 260.103 171.328 259.556 173.633 259.549C175.938 259.556 177.281 260.103 177.289 261.017C177.281 261.986 175.938 262.517 173.633 262.517C171.328 262.517 169.977 261.986 169.992 261.017ZM195.898 258.377H194.68V272.267H195.898V265.127H198.227V264.111H195.898V258.377ZM185.07 261.627H193.336V260.611H189.867V258.549H188.648V260.611H185.07V261.627ZM185.867 265.97C185.859 267.853 187.297 269.158 189.273 269.158C191.234 269.158 192.664 267.853 192.68 265.97C192.664 264.095 191.234 262.783 189.273 262.783C187.297 262.783 185.859 264.095 185.867 265.97ZM187.039 265.97C187.031 264.713 187.977 263.806 189.273 263.814C190.555 263.806 191.492 264.713 191.508 265.97C191.492 267.236 190.555 268.127 189.273 268.111C187.977 268.127 187.031 267.236 187.039 265.97ZM210.211 262.595H201.914V258.892H200.695V263.58H210.211V262.595ZM198.961 266.47H211.68V265.47H198.961V266.47ZM200.617 271.924H210.289V270.908H201.836V267.892H200.617V271.924ZM228.492 258.611H217.82V260.095H219.664V261.97H217.914V263.455H228.398V261.97H226.633V260.095H228.492V258.611ZM216.68 265.767H229.648V264.205H216.68V265.767ZM218.18 268.017H226.102V268.736H218.195V272.345H228.445V270.877H220.148V270.095H228.07V266.58H218.18V268.017ZM221.664 261.97V260.095H224.633V261.97H221.664ZM235.945 259.642H230.898V261.22H234.023V263.455H230.914V269.111H231.914C233.703 269.095 235.297 269.064 237.164 268.72L236.992 267.095C235.516 267.369 234.211 267.439 232.82 267.455V265.033H235.945V259.642ZM236.539 264.689H237.992V271.752H239.852V258.486H237.992V263.08H236.539V264.689ZM240.914 272.439H242.805V258.22H240.914V272.439ZM256.242 258.22H254.227V272.47H256.242V258.22ZM244.758 264.283C244.75 267.408 246.336 269.361 248.523 269.361C250.664 269.361 252.258 267.408 252.258 264.283C252.258 261.181 250.664 259.22 248.523 259.22C246.336 259.22 244.75 261.181 244.758 264.283ZM246.68 264.283C246.672 262.174 247.414 261.017 248.523 261.017C249.602 261.017 250.328 262.174 250.336 264.283C250.328 266.4 249.602 267.556 248.523 267.549C247.414 267.556 246.672 266.4 246.68 264.283ZM262.086 259.22C259.93 259.22 258.383 261.181 258.398 264.283C258.383 267.408 259.93 269.361 262.086 269.361C264.07 269.361 265.539 267.689 265.75 264.955H268.195V272.47H270.164V258.22H268.195V263.361H265.727C265.445 260.799 264.008 259.22 262.086 259.22ZM260.305 264.283C260.297 262.174 261.023 261.017 262.086 261.017C263.156 261.017 263.867 262.174 263.867 264.283C263.867 266.4 263.156 267.556 262.086 267.549C261.023 267.556 260.297 266.4 260.305 264.283ZM278.508 258.83H277.336V264.392H281.945V258.83H280.773V260.595H278.508V258.83ZM276.133 266.783H281.977V269.517H283.195V266.783H288.852V265.783H276.133V266.783ZM277.758 272.049H287.43V271.049H278.977V268.283H277.758V272.049ZM278.508 263.392V261.549H280.773V263.392H278.508ZM283.023 264.392H287.633V258.83H286.461V260.595H284.211V258.83H283.023V264.392ZM284.211 263.392V261.549H286.461V263.392H284.211ZM296.992 259.642H290.57V266.033H296.992V259.642ZM291.773 265.049V260.642H295.805V265.049H291.773ZM292.148 271.97H301.477V270.939H293.352V267.595H292.148V271.97ZM299.617 268.564H300.836V263.642H302.93V262.611H300.836V258.377H299.617V268.564ZM311.539 259.455C309.477 259.463 308.031 261.345 308.039 264.299C308.031 267.26 309.477 269.135 311.539 269.127C313.586 269.135 315.039 267.26 315.055 264.299C315.039 261.345 313.586 259.463 311.539 259.455ZM309.195 264.299C309.203 262.041 310.164 260.556 311.539 260.549C312.93 260.556 313.867 262.041 313.867 264.299C313.867 266.556 312.93 268.041 311.539 268.033C310.164 268.041 309.203 266.556 309.195 264.299ZM317.352 272.267H318.57V264.986H320.898V263.924H318.57V258.377H317.352V272.267ZM333.102 258.377H331.883V272.267H333.102V258.377ZM322.555 268.689H323.68C325.906 268.689 328.102 268.517 330.57 268.002L330.398 266.955C328.07 267.447 325.883 267.611 323.758 267.627V259.752H322.555V268.689ZM346.227 258.377H345.008V272.299H346.227V264.939H348.555V263.908H346.227V258.377ZM336.023 260.689H341.117V263.627H336.055V268.939H337.164C339.844 268.924 341.695 268.822 343.883 268.424L343.758 267.408C341.656 267.799 339.852 267.9 337.273 267.892V264.642H342.336V259.674H336.023V260.689ZM74.4844 282.252H67.1719V283.877H72.5391C72.5234 284.728 72.4609 285.767 72.2031 287.127L74.1562 287.314C74.4844 285.549 74.4844 284.127 74.4844 283.142V282.252ZM66.3281 288.345L66.5 289.939C68.9766 289.931 72.3047 289.877 75.2656 289.33L75.1562 287.892C73.8203 288.088 72.375 288.197 70.9531 288.26V285.533H68.9688V288.322C68.0234 288.345 67.125 288.345 66.3281 288.345ZM68.4219 295.189H78.4062V293.595H70.4219V290.908H68.4219V295.189ZM75.9219 291.861H77.9688V287.22H79.6875V285.549H77.9688V281.22H75.9219V291.861ZM92.3281 281.236H90.3438V284.908H88.0156V286.517H90.3438V291.611H92.3281V281.236ZM80.2656 288.408L81.2812 290.033C82.9609 289.478 84.0938 288.33 84.7266 286.916C85.3438 288.189 86.4297 289.22 88 289.736L88.9844 288.158C86.7266 287.424 85.7109 285.666 85.7188 284.017V283.783H88.5469V282.189H80.8281V283.783H83.6875V284.002C83.6797 285.822 82.6172 287.674 80.2656 288.408ZM82.8906 295.189H92.6719V293.595H84.8906V290.705H82.8906V295.189ZM99.4219 285.095V284.22H102.281V282.595H94.4062V284.22H97.4219V285.095C97.4062 287.447 96.2109 290.088 93.8438 291.189L95 292.767C96.6406 291.994 97.8125 290.4 98.4453 288.525C99.0859 290.228 100.211 291.681 101.797 292.408L102.906 290.845C100.57 289.76 99.4141 287.26 99.4219 285.095ZM103.391 295.439H105.391V288.314H107.484V286.642H105.391V281.22H103.391V295.439ZM119.359 287.892H111V283.517H119.219V282.517H109.766V288.892H113.859V292.486H108.141V293.517H120.859V292.486H115.062V288.892H119.359V287.892ZM136.844 281.377H135.625V289.752H136.844V286.127H138.938V285.08H136.844V281.377ZM126.016 283.877H134.297V282.861H130.766V281.267H129.547V282.861H126.016V283.877ZM126.812 287.033C126.805 288.541 128.141 289.517 130.156 289.517C132.148 289.517 133.484 288.541 133.5 287.033C133.484 285.549 132.148 284.564 130.156 284.564C128.141 284.564 126.805 285.549 126.812 287.033ZM127.984 287.033C127.977 286.127 128.844 285.517 130.156 285.517C131.453 285.517 132.328 286.127 132.344 287.033C132.328 287.978 131.453 288.564 130.156 288.58C128.844 288.564 127.977 287.978 127.984 287.033ZM128.078 295.08H136.844V290.549H128.078V295.08ZM129.281 294.08V291.533H135.625V294.08H129.281ZM143.266 283.064H140.125V284.08H142.195C142.094 286.635 141.578 289.22 139.844 291.392L140.812 291.955C142.844 289.26 143.25 285.978 143.266 283.064ZM142.969 292.299L143.922 292.877C145.055 291.353 145.656 289.595 145.977 287.861H147.984V294.564H149.156V281.752H147.984V286.845H146.141C146.312 285.502 146.344 284.197 146.344 283.064H143.703V284.08H145.273C145.219 286.674 144.883 289.845 142.969 292.299ZM150.578 295.267H151.766V281.377H150.578V295.267ZM162.391 284.267V284.017H165.531V283.033H162.422V281.314H161.188V283.033H158.047V284.017H161.188V284.267C161.18 286.127 159.727 287.736 157.656 288.361L158.266 289.33C159.922 288.799 161.203 287.658 161.805 286.189C162.422 287.525 163.664 288.564 165.266 289.064L165.844 288.095C163.789 287.486 162.398 285.97 162.391 284.267ZM159.75 295.08H168.516V290.252H159.75V295.08ZM160.953 294.08V291.22H167.297V294.08H160.953ZM167.297 289.611H168.516V285.939H170.609V284.908H168.516V281.377H167.297V289.611ZM175.219 282.455C173.164 282.463 171.727 284.345 171.734 287.299C171.727 290.26 173.164 292.135 175.219 292.127C176.562 292.135 177.641 291.314 178.219 289.908H181.781V295.299H183V281.377H181.781V284.486H178.133C177.531 283.205 176.492 282.463 175.219 282.455ZM172.906 287.299C172.914 285.041 173.852 283.556 175.219 283.549C176.578 283.556 177.531 285.041 177.531 287.299C177.531 289.556 176.578 291.041 175.219 291.033C173.852 291.041 172.914 289.556 172.906 287.299ZM178.484 285.517H181.781V288.892H178.531C178.633 288.408 178.688 287.869 178.688 287.299C178.688 286.65 178.617 286.056 178.484 285.517ZM196.062 281.377H194.844V295.267H196.062V288.127H198.391V287.111H196.062V281.377ZM185.234 284.627H193.5V283.611H190.031V281.549H188.812V283.611H185.234V284.627ZM186.031 288.97C186.023 290.853 187.461 292.158 189.438 292.158C191.398 292.158 192.828 290.853 192.844 288.97C192.828 287.095 191.398 285.783 189.438 285.783C187.461 285.783 186.023 287.095 186.031 288.97ZM187.203 288.97C187.195 287.713 188.141 286.806 189.438 286.814C190.719 286.806 191.656 287.713 191.672 288.97C191.656 290.236 190.719 291.127 189.438 291.111C188.141 291.127 187.195 290.236 187.203 288.97ZM210.375 285.595H202.078V281.892H200.859V286.58H210.375V285.595ZM199.125 289.47H211.844V288.47H199.125V289.47ZM200.781 294.924H210.453V293.908H202V290.892H200.781V294.924ZM229.812 289.205H216.844V290.767H222.516V292.517H224.484V290.767H229.812V289.205ZM217.469 283.908H229.141V282.408H224.328V281.142H222.328V282.408H217.469V283.908ZM218.359 295.189H228.406V293.627H220.344V291.642H218.359V295.189ZM218.547 286.455C218.531 287.877 220.281 288.65 223.328 288.658C226.359 288.65 228.102 287.877 228.109 286.455C228.102 285.041 226.359 284.291 223.328 284.299C220.281 284.291 218.531 285.041 218.547 286.455ZM220.578 286.455C220.57 285.916 221.422 285.681 223.328 285.689C225.211 285.681 226.07 285.916 226.062 286.455C226.07 287.002 225.211 287.228 223.328 287.236C221.422 287.228 220.57 287.002 220.578 286.455ZM238.219 282.33V281.642H236.125V282.33C236.117 284.01 234.406 285.861 231.172 286.267L231.969 287.877C234.422 287.517 236.234 286.361 237.172 284.83C238.102 286.369 239.922 287.517 242.406 287.877L243.188 286.267C239.93 285.861 238.211 284.01 238.219 282.33ZM230.672 290.58H236.141V295.439H238.109V290.58H243.641V288.955H230.672V290.58ZM254.672 281.955C251.617 281.955 249.328 283.502 249.328 285.845C249.328 287.986 251.133 289.424 253.672 289.713V292.142H248.188V293.783H261.203V292.142H255.656V289.713C258.211 289.431 260.023 287.994 260.031 285.845C260.023 283.502 257.727 281.955 254.672 281.955ZM251.297 285.845C251.297 284.424 252.68 283.541 254.672 283.549C256.672 283.541 258.055 284.424 258.062 285.845C258.055 287.345 256.672 288.181 254.672 288.189C252.68 288.181 251.297 287.345 251.297 285.845ZM273.344 281.783H263.625V286.783H267.484V288.142H262.016V289.752H274.984V288.142H269.484V286.783H273.344V281.783ZM263.453 292.361H271.422V295.439H273.406V290.799H263.453V292.361ZM265.578 285.22V283.33H271.391V285.22H265.578ZM287.453 281.377H286.234V288.83H287.453V281.377ZM276.312 285.252C276.305 287.142 277.844 288.447 279.953 288.439C282.062 288.447 283.586 287.142 283.594 285.252C283.586 283.353 282.062 282.049 279.953 282.064C277.844 282.049 276.305 283.353 276.312 285.252ZM277.516 285.252C277.5 283.978 278.523 283.088 279.953 283.095C281.367 283.088 282.391 283.978 282.391 285.252C282.391 286.517 281.367 287.416 279.953 287.424C278.523 287.416 277.5 286.517 277.516 285.252ZM278.453 295.08H287.453V289.533H286.234V291.22H279.672V289.533H278.453V295.08ZM279.672 294.08V292.205H286.234V294.08H279.672ZM301.266 281.377H300.047V295.267H301.266V281.377ZM290.719 291.689H291.844C294.07 291.689 296.266 291.517 298.734 291.002L298.562 289.955C296.234 290.447 294.047 290.611 291.922 290.627V282.752H290.719V291.689ZM314.391 281.377H313.172V295.299H314.391V287.908H316.719V286.877H314.391V281.377ZM304.25 291.814H305.344C307.984 291.814 309.805 291.736 311.984 291.345L311.828 290.283C309.758 290.666 307.984 290.775 305.469 290.783V283.752H310.734V282.736H304.25V291.814ZM96.0547 305.455C94 305.463 92.5625 307.345 92.5703 310.299C92.5625 313.26 94 315.135 96.0547 315.127C97.9922 315.135 99.3828 313.431 99.5156 310.705H102.617V318.299H103.836V304.377H102.617V309.689H99.5C99.3125 307.088 97.9453 305.463 96.0547 305.455ZM93.7422 310.299C93.75 308.041 94.6875 306.556 96.0547 306.549C97.4141 306.556 98.3672 308.041 98.3672 310.299C98.3672 312.556 97.4141 314.041 96.0547 314.033C94.6875 314.041 93.75 312.556 93.7422 310.299ZM118.164 316.939H109.711V313.658H108.492V317.97H118.164V316.939ZM106.539 312.236H107.133C108.016 312.236 109.047 312.236 110.336 311.955L110.211 310.939C109.289 311.15 108.453 311.213 107.742 311.236V306.549H110.055V305.533H106.539V312.236ZM110.82 312.236H111.523C113.031 312.236 114.062 312.205 115.352 311.924L115.227 310.908C114.164 311.158 113.242 311.228 112.055 311.244V306.549H114.695V305.533H110.82V312.236ZM114.023 309.236H116.586V314.486H117.789V304.392H116.586V308.22H114.023V309.236ZM136.648 312.314H123.992V313.314H129.82V315.408H131.039V313.314H136.648V312.314ZM124.648 306.658H135.914V305.705H130.93V304.22H129.711V305.705H124.648V306.658ZM125.602 317.97H135.273V316.955H126.836V314.47H125.602V317.97ZM125.805 309.361C125.805 310.736 127.453 311.486 130.32 311.47C133.164 311.486 134.82 310.736 134.82 309.361C134.82 307.986 133.164 307.26 130.32 307.252C127.453 307.26 125.805 307.986 125.805 309.361ZM127.055 309.361C127.039 308.58 128.211 308.15 130.32 308.158C132.398 308.15 133.586 308.58 133.586 309.361C133.586 310.142 132.398 310.572 130.32 310.564C128.211 310.572 127.039 310.142 127.055 309.361ZM144.789 305.674V304.877H143.523V305.674C143.523 307.666 140.984 309.322 138.477 309.674L138.977 310.674C141.141 310.314 143.273 309.135 144.164 307.416C145.055 309.119 147.195 310.314 149.352 310.674L149.852 309.674C147.344 309.322 144.797 307.635 144.789 305.674ZM137.82 313.236H143.523V318.267H144.727V313.236H150.477V312.205H137.82V313.236ZM162.398 304.377H161.18V318.267H162.398V311.064H164.648V310.033H162.398V304.377ZM151.742 314.658L152.43 315.627C156.953 313.392 158.797 309.806 158.805 305.877H152.383V306.908H157.562C157.281 310.197 155.328 312.877 151.742 314.658ZM174.195 313.705V312.939H173.008V313.705C172.992 315.033 171.938 316.517 170.18 317.174L170.805 318.08C172.133 317.58 173.086 316.611 173.586 315.494C174 316.658 174.859 317.674 176.211 318.189C177.492 317.65 178.344 316.58 178.773 315.455C179.258 316.619 180.227 317.588 181.617 318.08L182.227 317.174C180.445 316.556 179.391 315.135 179.398 313.705V312.939H178.195V313.705C178.203 314.775 177.5 316.166 176.172 316.986C174.852 316.236 174.188 314.931 174.195 313.705ZM169.82 308.455C169.812 310.361 171.352 311.674 173.461 311.674C175.57 311.674 177.094 310.361 177.102 308.455C177.094 306.517 175.57 305.197 173.461 305.205C171.352 305.197 169.812 306.517 169.82 308.455ZM171.023 308.455C171.008 307.158 172.031 306.236 173.461 306.252C174.875 306.236 175.898 307.158 175.898 308.455C175.898 309.744 174.875 310.65 173.461 310.658C172.031 310.65 171.008 309.744 171.023 308.455ZM179.742 312.33H180.961V304.392H179.742V312.33ZM194.555 308.595H186.258V304.892H185.039V309.58H194.555V308.595ZM183.305 312.47H196.023V311.47H183.305V312.47ZM184.961 317.924H194.633V316.908H186.18V313.892H184.961V317.924ZM202.117 308.642V306.83H205.43V305.814H197.602V306.83H200.883V308.642C200.875 311.049 199.141 313.674 197.148 314.627L197.883 315.595C199.469 314.799 200.875 313.033 201.523 310.994C202.172 312.916 203.57 314.517 205.195 315.252L205.883 314.283C203.836 313.4 202.125 311.002 202.117 308.642ZM207.367 318.267H208.602V304.377H207.367V318.267ZM225.852 304.377H224.633V311.455H225.852V308.424H227.945V307.392H225.852V304.377ZM215.258 307.97C215.25 309.799 216.781 311.056 218.867 311.064C220.961 311.056 222.477 309.799 222.477 307.97C222.477 306.15 220.961 304.9 218.867 304.892C216.781 304.9 215.25 306.15 215.258 307.97ZM216.461 307.97C216.453 306.767 217.477 305.908 218.867 305.924C220.25 305.908 221.281 306.767 221.273 307.97C221.281 309.189 220.25 310.064 218.867 310.064C217.477 310.064 216.453 309.189 216.461 307.97ZM216.992 313.095H224.633V314.564H217.023V318.08H226.367V317.095H218.227V315.502H225.852V312.111H216.992V313.095ZM232.539 305.455C230.477 305.463 229.031 307.345 229.039 310.299C229.031 313.26 230.477 315.135 232.539 315.127C234.586 315.135 236.039 313.26 236.055 310.299C236.039 307.345 234.586 305.463 232.539 305.455ZM230.195 310.299C230.203 308.041 231.164 306.556 232.539 306.549C233.93 306.556 234.867 308.041 234.867 310.299C234.867 312.556 233.93 314.041 232.539 314.033C231.164 314.041 230.203 312.556 230.195 310.299ZM238.352 318.267H239.57V310.986H241.898V309.924H239.57V304.377H238.352V318.267ZM245.555 304.611H244.336V309.174H248.352V310.549H242.648V311.549H255.305V310.549H249.555V309.174H253.648V304.611H252.43V305.939H245.555V304.611ZM244.18 313.642H252.477V314.877H244.211V318.111H254.102V317.142H245.43V315.783H253.68V312.705H244.18V313.642ZM245.555 308.22V306.877H252.43V308.22H245.555ZM267.477 304.377H266.242V318.267H267.477V311.142H269.586V310.111H267.477V304.377ZM256.43 314.424L257.414 315.127C259.938 312.463 260.68 309.197 260.695 305.892H256.867V306.924H259.531C259.375 309.689 258.523 312.275 256.43 314.424ZM260.414 315.361L261.414 316.049C264.016 313.025 264.5 309.189 264.508 305.892H261.133V306.924H263.352C263.234 309.822 262.586 312.908 260.414 315.361ZM283.023 315.455H279.867V311.674C281.016 311.056 281.711 310.072 281.711 308.83C281.711 306.681 279.602 305.267 276.633 305.252C273.664 305.267 271.555 306.681 271.555 308.83C271.555 310.095 272.273 311.095 273.461 311.713V315.455H270.305V316.486H283.023V315.455ZM272.742 308.83C272.734 307.275 274.352 306.252 276.633 306.267C278.891 306.252 280.523 307.275 280.523 308.83C280.523 310.385 278.891 311.424 276.633 311.424C274.352 311.424 272.734 310.385 272.742 308.83ZM274.664 315.455V312.158C275.258 312.314 275.922 312.392 276.633 312.392C277.359 312.392 278.031 312.306 278.633 312.15V315.455H274.664ZM286.352 313.736V313.814H287.695V313.736C287.727 312.385 288.078 311.783 289.055 311.189C290.023 310.595 290.602 309.744 290.602 308.517C290.602 306.791 289.328 305.533 287.367 305.533C285.578 305.533 284.148 306.635 284.07 308.533H285.492C285.578 307.244 286.477 306.713 287.367 306.72C288.398 306.713 289.227 307.392 289.227 308.455C289.227 309.33 288.734 309.955 288.086 310.345C287.008 311.002 286.367 311.642 286.352 313.736ZM286.07 316.08C286.055 316.635 286.523 317.088 287.07 317.095C287.625 317.088 288.078 316.635 288.07 316.08C288.078 315.533 287.625 315.08 287.07 315.08C286.523 315.08 286.055 315.533 286.07 316.08Z" fill="black"/>
<g filter="url(#filter0_d_607_33)">
<g filter="url(#filter1_d_607_33)">
<mask id="path-3-inside-1_607_33" fill="white">
<path fill-rule="evenodd" clip-rule="evenodd" d="M158.86 28.2857L164.044 49.907L178.705 44.3016L180.66 53.4741H187.502L192.389 66.2137L201.754 60.427C204.224 66.4681 205.584 73.0751 205.584 79.998C205.584 108.719 182.172 132.002 153.292 132.002C124.412 132.002 101 108.719 101 79.998C101 51.2772 124.412 27.9944 153.292 27.9944C155.173 27.9944 157.031 28.0931 158.86 28.2857Z"/>
</mask>
<path fill-rule="evenodd" clip-rule="evenodd" d="M158.86 28.2857L164.044 49.907L178.705 44.3016L180.66 53.4741H187.502L192.389 66.2137L201.754 60.427C204.224 66.4681 205.584 73.0751 205.584 79.998C205.584 108.719 182.172 132.002 153.292 132.002C124.412 132.002 101 108.719 101 79.998C101 51.2772 124.412 27.9944 153.292 27.9944C155.173 27.9944 157.031 28.0931 158.86 28.2857Z" fill="#5B5B5B"/>
<path d="M164.044 49.907L162.099 50.3733L162.63 52.5887L164.758 51.7752L164.044 49.907ZM158.86 28.2857L160.805 27.8194L160.476 26.4447L159.07 26.2967L158.86 28.2857ZM178.705 44.3016L180.662 43.8847L180.174 41.5988L177.991 42.4335L178.705 44.3016ZM180.66 53.4741L178.704 53.891L179.042 55.4741H180.66V53.4741ZM187.502 53.4741L189.37 52.7578L188.877 51.4741H187.502V53.4741ZM192.389 66.2137L190.522 66.93L191.387 69.1842L193.441 67.9151L192.389 66.2137ZM201.754 60.427L203.606 59.6703L202.712 57.4841L200.703 58.7256L201.754 60.427ZM165.989 49.4407L160.805 27.8194L156.915 28.752L162.099 50.3733L165.989 49.4407ZM177.991 42.4335L163.33 48.0389L164.758 51.7752L179.42 46.1697L177.991 42.4335ZM182.616 53.0572L180.662 43.8847L176.749 44.7185L178.704 53.891L182.616 53.0572ZM187.502 51.4741H180.66V55.4741H187.502V51.4741ZM194.257 65.4974L189.37 52.7578L185.635 54.1905L190.522 66.93L194.257 65.4974ZM200.703 58.7256L191.338 64.5123L193.441 67.9151L202.806 62.1284L200.703 58.7256ZM199.903 61.1837C202.276 66.9889 203.584 73.3392 203.584 79.998H207.584C207.584 72.811 206.171 65.9473 203.606 59.6703L199.903 61.1837ZM203.584 79.998C203.584 107.604 181.078 130.002 153.292 130.002V134.002C183.266 134.002 207.584 109.834 207.584 79.998H203.584ZM153.292 130.002C125.506 130.002 103 107.604 103 79.998H99C99 109.834 123.318 134.002 153.292 134.002V130.002ZM103 79.998C103 52.3922 125.506 29.9944 153.292 29.9944V25.9944C123.318 25.9944 99 50.1622 99 79.998H103ZM153.292 29.9944C155.103 29.9944 156.891 30.0895 158.651 30.2747L159.07 26.2967C157.171 26.0968 155.243 25.9944 153.292 25.9944V29.9944Z" fill="black" mask="url(#path-3-inside-1_607_33)"/>
</g>
<ellipse cx="137.847" cy="79.9706" rx="2.93226" ry="3.0575" fill="#BCBCBC"/>
<ellipse cx="165.214" cy="79.9706" rx="2.93226" ry="3.0575" fill="#BCBCBC"/>
<path d="M139.802 95.2588C143.474 99.1042 153.308 104.488 163.26 95.2588" stroke="#BCBCBC" stroke-width="2" stroke-linecap="round" stroke-linejoin="round"/>
<path d="M118.89 64.8142C117.689 64.4801 116.957 63.2111 117.339 62.014C119.032 56.7029 121.834 51.8384 125.553 47.7767C129.247 43.7431 133.741 40.6149 138.709 38.604C139.886 38.1276 141.2 38.8396 141.581 40.0923C141.947 41.2961 141.311 42.5514 140.182 43.0149C135.883 44.7805 131.994 47.502 128.791 50.9999C125.583 54.5033 123.153 58.6878 121.661 63.2561C121.276 64.4359 120.077 65.1443 118.89 64.8142Z" fill="#C4C4C4" fill-opacity="0.4"/>
<mask id="path-9-inside-2_607_33" fill="white">
<path d="M281 79.1251C281 108.327 257.327 132 228.125 132C198.923 132 175.25 108.327 175.25 79.1251C175.25 49.9231 198.923 26.2502 228.125 26.2502C257.327 26.2502 281 49.9231 281 79.1251Z"/>
</mask>
<path d="M281 79.1251C281 108.327 257.327 132 228.125 132C198.923 132 175.25 108.327 175.25 79.1251C175.25 49.9231 198.923 26.2502 228.125 26.2502C257.327 26.2502 281 49.9231 281 79.1251Z" fill="white"/>
<path d="M279 79.1251C279 107.223 256.223 130 228.125 130V134C258.432 134 283 109.432 283 79.1251H279ZM228.125 130C200.028 130 177.25 107.223 177.25 79.1251H173.25C173.25 109.432 197.819 134 228.125 134V130ZM177.25 79.1251C177.25 51.0277 200.028 28.2502 228.125 28.2502V24.2502C197.819 24.2502 173.25 48.8186 173.25 79.1251H177.25ZM228.125 28.2502C256.223 28.2502 279 51.0277 279 79.1251H283C283 48.8186 258.432 24.2502 228.125 24.2502V28.2502Z" fill="black" mask="url(#path-9-inside-2_607_33)"/>
<circle cx="214.783" cy="76.087" r="2.96495" fill="black"/>
<circle cx="242.456" cy="76.087" r="2.96495" fill="black"/>
<g filter="url(#filter2_f_607_33)">
<circle cx="197.488" cy="87.4516" r="6.42405" fill="#FFCACA"/>
</g>
<g filter="url(#filter3_f_607_33)">
<circle cx="258.764" cy="87.4516" r="6.42405" fill="#FFCACA"/>
</g>
<path d="M215.75 91.5002C219.625 98.2918 230 107.8 240.5 91.5002" stroke="black" stroke-width="2" stroke-linecap="round" stroke-linejoin="round"/>
</g>
<defs>
<filter id="filter0_d_607_33" x="89" y="22.2502" width="196" height="121.751" filterUnits="userSpaceOnUse" color-interpolation-filters="sRGB">
<feFlood flood-opacity="0" result="BackgroundImageFix"/>
<feColorMatrix in="SourceAlpha" type="matrix" values="0 0 0 0 0 0 0 0 0 0 0 0 0 0 0 0 0 0 127 0" result="hardAlpha"/>
<feOffset dx="-4" dy="4"/>
<feGaussianBlur stdDeviation="4"/>
<feComposite in2="hardAlpha" operator="out"/>
<feColorMatrix type="matrix" values="0 0 0 0 0 0 0 0 0 0 0 0 0 0 0 0 0 0 0.25 0"/>
<feBlend mode="normal" in2="BackgroundImageFix" result="effect1_dropShadow_607_33"/>
<feBlend mode="normal" in="SourceGraphic" in2="effect1_dropShadow_607_33" result="shape"/>
</filter>
<filter id="filter1_d_607_33" x="86" y="20.9944" width="126.584" height="126.007" filterUnits="userSpaceOnUse" color-interpolation-filters="sRGB">
<feFlood flood-opacity="0" result="BackgroundImageFix"/>
<feColorMatrix in="SourceAlpha" type="matrix" values="0 0 0 0 0 0 0 0 0 0 0 0 0 0 0 0 0 0 127 0" result="hardAlpha"/>
<feMorphology radius="3" operator="dilate" in="SourceAlpha" result="effect1_dropShadow_607_33"/>
<feOffset dx="-4" dy="4"/>
<feGaussianBlur stdDeviation="4"/>
<feComposite in2="hardAlpha" operator="out"/>
<feColorMatrix type="matrix" values="0 0 0 0 0.823529 0 0 0 0 0.705882 0 0 0 0 0.564706 0 0 0 0.25 0"/>
<feBlend mode="normal" in2="BackgroundImageFix" result="effect1_dropShadow_607_33"/>
<feBlend mode="normal" in="SourceGraphic" in2="effect1_dropShadow_607_33" result="shape"/>
</filter>
<filter id="filter2_f_607_33" x="187.064" y="77.0276" width="20.8481" height="20.8481" filterUnits="userSpaceOnUse" color-interpolation-filters="sRGB">
<feFlood flood-opacity="0" result="BackgroundImageFix"/>
<feBlend mode="normal" in="SourceGraphic" in2="BackgroundImageFix" result="shape"/>
<feGaussianBlur stdDeviation="2" result="effect1_foregroundBlur_607_33"/>
</filter>
<filter id="filter3_f_607_33" x="248.34" y="77.0276" width="20.8481" height="20.8481" filterUnits="userSpaceOnUse" color-interpolation-filters="sRGB">
<feFlood flood-opacity="0" result="BackgroundImageFix"/>
<feBlend mode="normal" in="SourceGraphic" in2="BackgroundImageFix" result="shape"/>
<feGaussianBlur stdDeviation="2" result="effect1_foregroundBlur_607_33"/>
</filter>
</defs>
</svg>
