<svg width="432" height="475" viewBox="0 0 432 475" fill="none" xmlns="http://www.w3.org/2000/svg">
<g opacity="0.4">
<g filter="url(#filter0_d_607_35)">
<path d="M99 47C99 39.268 105.268 33 113 33H318C325.732 33 332 39.268 332 47V308C332 315.732 325.732 322 318 322H113C105.268 322 99 315.732 99 308V47Z" fill="white"/>
</g>
<path d="M99.5 47C99.5 39.5442 105.544 33.5 113 33.5H317.8C325.256 33.5 331.3 39.5442 331.3 47V68.948H99.5V47Z" fill="#94D7BB" stroke="black"/>
<path d="M115.369 240.904H261.175C266.698 240.904 271.175 245.381 271.175 250.904V259.04C271.175 264.562 266.698 269.04 261.175 269.04H125.369C119.846 269.04 115.369 264.562 115.369 259.04V240.904Z" fill="#94D7BB"/>
<path d="M163.262 143C163.262 137.477 167.74 133 173.262 133H319.069V151.135C319.069 156.658 314.592 161.135 309.069 161.135H173.262C167.74 161.135 163.262 156.658 163.262 151.135V143Z" fill="#F0F0F0"/>
<path d="M163.262 182C163.262 176.477 167.74 172 173.262 172H319.069V206.761C319.069 212.284 314.592 216.761 309.069 216.761H173.262C167.74 216.761 163.262 212.284 163.262 206.761V182Z" fill="#F0F0F0"/>
<path d="M137.572 85.5176H132.9V86.0332H136.962V88.1035H137.572V85.5176ZM132.275 84.6035H132.837C133.939 84.6035 135.037 84.5215 136.267 84.2832L136.173 83.7676C135.017 84.002 133.939 84.0801 132.892 84.0879V81.541H132.275V84.6035ZM136.962 85.166H137.572V81.1504H136.962V85.166ZM139.705 81.9004H139.095V86.3301H139.533C140.38 86.3262 141.162 86.291 142.087 86.0957L142.001 85.5645C141.169 85.7402 140.458 85.7832 139.705 85.791V81.9004ZM141.041 83.9941H142.626V87.7363H143.212V81.3145H142.626V83.4863H141.041V83.9941ZM144.111 88.0879H144.697V81.1426H144.111V88.0879ZM151.4 81.1504H150.791V85.1191H151.4V81.1504ZM145.83 83.1426C145.826 84.0957 146.595 84.7598 147.65 84.7598C148.705 84.7598 149.466 84.0957 149.47 83.1426C149.466 82.1738 148.705 81.5176 147.65 81.5176C146.595 81.5176 145.826 82.1738 145.83 83.1426ZM146.431 83.1426C146.423 82.4941 146.935 82.0371 147.65 82.041C148.357 82.0371 148.869 82.4941 148.869 83.1426C148.869 83.7871 148.357 84.2402 147.65 84.2363C146.935 84.2402 146.423 83.7871 146.431 83.1426ZM146.884 87.9941H151.4V85.4941H146.884V87.9941ZM147.486 87.4941V85.9941H150.798V87.4941H147.486ZM156.837 81.7988H156.126L154.72 82.7363V83.4473L156.095 82.5332H156.126V87.4551H156.837V81.7988ZM158.345 87.4551H162.017V86.8301H159.322V86.7832L160.619 85.4473C161.619 84.416 161.912 83.9238 161.916 83.291C161.912 82.4121 161.185 81.7207 160.158 81.7207C159.134 81.7207 158.361 82.3926 158.369 83.3926H159.033C159.037 82.7598 159.458 82.334 160.134 82.3301C160.771 82.334 161.255 82.709 161.259 83.291C161.255 83.8145 160.935 84.1973 160.267 84.9082L158.337 86.9395L158.345 87.4551ZM164.994 87.5332C166.123 87.5332 166.966 86.8457 166.962 85.916C166.966 85.1973 166.521 84.6699 165.783 84.5566V84.5176C166.376 84.3496 166.751 83.8809 166.744 83.2363C166.751 82.4277 166.095 81.7207 165.017 81.7207C164.013 81.7207 163.177 82.3223 163.142 83.2207H163.822C163.853 82.666 164.404 82.334 165.009 82.3301C165.654 82.334 166.068 82.709 166.064 83.2754C166.068 83.8574 165.587 84.2441 164.9 84.2441H164.439V84.8613H164.9C165.779 84.8652 166.271 85.2988 166.275 85.916C166.271 86.5059 165.732 86.9082 164.986 86.9082C164.31 86.9082 163.775 86.5723 163.736 86.0332H163.025C163.06 86.9316 163.869 87.5332 164.994 87.5332Z" fill="black"/>
<ellipse cx="121.431" cy="84.1551" rx="6.0625" ry="6.39439" fill="#C4C4C4"/>
<path d="M137.572 85.5176H132.9V86.0332H136.962V88.1035H137.572V85.5176ZM132.275 84.6035H132.837C133.939 84.6035 135.037 84.5215 136.267 84.2832L136.173 83.7676C135.017 84.002 133.939 84.0801 132.892 84.0879V81.541H132.275V84.6035ZM136.962 85.166H137.572V81.1504H136.962V85.166ZM139.705 81.9004H139.095V86.3301H139.533C140.38 86.3262 141.162 86.291 142.087 86.0957L142.001 85.5645C141.169 85.7402 140.458 85.7832 139.705 85.791V81.9004ZM141.041 83.9941H142.626V87.7363H143.212V81.3145H142.626V83.4863H141.041V83.9941ZM144.111 88.0879H144.697V81.1426H144.111V88.0879ZM151.4 81.1504H150.791V85.1191H151.4V81.1504ZM145.83 83.1426C145.826 84.0957 146.595 84.7598 147.65 84.7598C148.705 84.7598 149.466 84.0957 149.47 83.1426C149.466 82.1738 148.705 81.5176 147.65 81.5176C146.595 81.5176 145.826 82.1738 145.83 83.1426ZM146.431 83.1426C146.423 82.4941 146.935 82.0371 147.65 82.041C148.357 82.0371 148.869 82.4941 148.869 83.1426C148.869 83.7871 148.357 84.2402 147.65 84.2363C146.935 84.2402 146.423 83.7871 146.431 83.1426ZM146.884 87.9941H151.4V85.4941H146.884V87.9941ZM147.486 87.4941V85.9941H150.798V87.4941H147.486ZM156.837 81.7988H156.126L154.72 82.7363V83.4473L156.095 82.5332H156.126V87.4551H156.837V81.7988ZM158.345 87.4551H162.017V86.8301H159.322V86.7832L160.619 85.4473C161.619 84.416 161.912 83.9238 161.916 83.291C161.912 82.4121 161.185 81.7207 160.158 81.7207C159.134 81.7207 158.361 82.3926 158.369 83.3926H159.033C159.037 82.7598 159.458 82.334 160.134 82.3301C160.771 82.334 161.255 82.709 161.259 83.291C161.255 83.8145 160.935 84.1973 160.267 84.9082L158.337 86.9395L158.345 87.4551ZM164.994 87.5332C166.123 87.5332 166.966 86.8457 166.962 85.916C166.966 85.1973 166.521 84.6699 165.783 84.5566V84.5176C166.376 84.3496 166.751 83.8809 166.744 83.2363C166.751 82.4277 166.095 81.7207 165.017 81.7207C164.013 81.7207 163.177 82.3223 163.142 83.2207H163.822C163.853 82.666 164.404 82.334 165.009 82.3301C165.654 82.334 166.068 82.709 166.064 83.2754C166.068 83.8574 165.587 84.2441 164.9 84.2441H164.439V84.8613H164.9C165.779 84.8652 166.271 85.2988 166.275 85.916C166.271 86.5059 165.732 86.9082 164.986 86.9082C164.31 86.9082 163.775 86.5723 163.736 86.0332H163.025C163.06 86.9316 163.869 87.5332 164.994 87.5332Z" fill="black"/>
<path d="M137.572 230.757H132.9V231.272H136.962V233.343H137.572V230.757ZM132.275 229.843H132.837C133.939 229.843 135.037 229.761 136.267 229.522L136.173 229.007C135.017 229.241 133.939 229.319 132.892 229.327V226.78H132.275V229.843ZM136.962 230.405H137.572V226.39H136.962V230.405ZM139.705 227.14H139.095V231.569H139.533C140.38 231.565 141.162 231.53 142.087 231.335L142.001 230.804C141.169 230.979 140.458 231.022 139.705 231.03V227.14ZM141.041 229.233H142.626V232.976H143.212V226.554H142.626V228.726H141.041V229.233ZM144.111 233.327H144.697V226.382H144.111V233.327ZM151.4 226.39H150.791V230.358H151.4V226.39ZM145.83 228.382C145.826 229.335 146.595 229.999 147.65 229.999C148.705 229.999 149.466 229.335 149.47 228.382C149.466 227.413 148.705 226.757 147.65 226.757C146.595 226.757 145.826 227.413 145.83 228.382ZM146.431 228.382C146.423 227.733 146.935 227.276 147.65 227.28C148.357 227.276 148.869 227.733 148.869 228.382C148.869 229.026 148.357 229.479 147.65 229.476C146.935 229.479 146.423 229.026 146.431 228.382ZM146.884 233.233H151.4V230.733H146.884V233.233ZM147.486 232.733V231.233H150.798V232.733H147.486ZM156.837 227.038H156.126L154.72 227.976V228.687L156.095 227.772H156.126V232.694H156.837V227.038ZM158.345 232.694H162.017V232.069H159.322V232.022L160.619 230.687C161.619 229.655 161.912 229.163 161.916 228.53C161.912 227.651 161.185 226.96 160.158 226.96C159.134 226.96 158.361 227.632 158.369 228.632H159.033C159.037 227.999 159.458 227.573 160.134 227.569C160.771 227.573 161.255 227.948 161.259 228.53C161.255 229.054 160.935 229.437 160.267 230.147L158.337 232.179L158.345 232.694ZM164.994 232.772C166.123 232.772 166.966 232.085 166.962 231.155C166.966 230.437 166.521 229.909 165.783 229.796V229.757C166.376 229.589 166.751 229.12 166.744 228.476C166.751 227.667 166.095 226.96 165.017 226.96C164.013 226.96 163.177 227.562 163.142 228.46H163.822C163.853 227.905 164.404 227.573 165.009 227.569C165.654 227.573 166.068 227.948 166.064 228.515C166.068 229.097 165.587 229.483 164.9 229.483H164.439V230.101H164.9C165.779 230.104 166.271 230.538 166.275 231.155C166.271 231.745 165.732 232.147 164.986 232.147C164.31 232.147 163.775 231.812 163.736 231.272H163.025C163.06 232.171 163.869 232.772 164.994 232.772Z" fill="black"/>
<ellipse cx="121.431" cy="84.1551" rx="6.0625" ry="6.39439" fill="#C4C4C4"/>
<ellipse cx="121.431" cy="229.394" rx="6.0625" ry="6.39439" fill="#C4C4C4"/>
<path d="M124.109 43.7661H122.641V50.9692H124.109V43.7661ZM112.562 49.7192L113.312 50.8911C114.984 50.3208 116.234 49.1021 116.867 47.5708C117.5 48.9927 118.727 50.0942 120.359 50.6255L121.094 49.4692C118.945 48.7974 117.602 47.0942 117.609 45.2192V44.1411H116.094V45.2192C116.086 47.1567 114.75 48.9927 112.562 49.7192ZM114.922 52.813H122.656V54.0161H114.969V57.6255H124.594V56.438H116.406V55.1411H124.125V51.6411H114.922V52.813ZM131.484 47.3286V44.938H129.984V47.3286C129.984 50.0005 128.438 52.6802 126.234 53.6567L127.141 54.9067C128.82 54.0864 130.109 52.3989 130.758 50.3442C131.414 52.2583 132.688 53.8286 134.297 54.5942L135.188 53.4224C133.016 52.4614 131.469 49.8833 131.484 47.3286ZM136.453 57.7974H137.938V43.7661H136.453V57.7974ZM151.172 43.7661H149.672V53.938H151.172V49.1411H153.203V47.9067H151.172V43.7661ZM140.156 51.2192L140.781 52.4067C144.875 51.1646 147.375 48.5005 147.375 44.8286H140.75V46.063H145.758C145.469 48.3677 143.438 50.2349 140.156 51.2192ZM142.281 57.4692H151.75V56.2661H143.781V52.8911H142.281V57.4692ZM162.094 48.0474V47.5317H164.641V46.2974H162.094V44.2661H160.703V46.2974H158.109V47.5317H160.703V48.0474C160.688 50.3052 159.68 52.688 157.75 53.813L158.625 54.9067C159.977 54.1255 160.914 52.6646 161.406 50.9771C161.914 52.5552 162.859 53.8911 164.219 54.6099L165.062 53.5005C163.109 52.4771 162.094 50.2271 162.094 48.0474ZM165.5 57.0786H166.906V50.5786H168.578V57.7661H170V43.7661H168.578V49.3286H166.906V44.0317H165.5V57.0786ZM179.266 44.7817H172.531V51.5005H173.688C176.75 51.5083 178.492 51.4536 180.516 51.1255L180.359 49.9224C178.461 50.2505 176.828 50.2974 174.031 50.2817V48.688H178.875V47.5161H174.031V45.9692H179.266V44.7817ZM173.891 55.1567C173.891 56.8052 175.68 57.7427 178.656 57.7349C181.586 57.7427 183.414 56.8052 183.422 55.1567C183.414 53.5239 181.586 52.5786 178.656 52.5786C175.68 52.5786 173.891 53.5239 173.891 55.1567ZM175.375 55.1567C175.367 54.2661 176.57 53.7427 178.656 53.7505C180.703 53.7427 181.945 54.2661 181.938 55.1567C181.945 56.0708 180.703 56.5864 178.656 56.5942C176.57 56.5864 175.367 56.0708 175.375 55.1567ZM181.859 52.3911H183.344V43.7817H181.859V52.3911Z" fill="white"/>
<path d="M99.0001 69.4478L331.8 69.4478" stroke="black" stroke-width="2"/>
<path d="M99.0001 278L331.8 278" stroke="black" stroke-width="2"/>
<path d="M114.63 296.859H115.286C115.2 296.172 114.649 295.703 113.77 295.703C112.837 295.703 112.2 296.227 112.2 296.953C112.2 297.52 112.594 297.922 113.333 298.094L113.973 298.242C114.454 298.355 114.669 298.551 114.669 298.852C114.669 299.25 114.29 299.504 113.684 299.5C113.149 299.504 112.848 299.305 112.77 298.891H112.067C112.18 299.664 112.747 300.09 113.7 300.086C114.762 300.09 115.36 299.547 115.364 298.812C115.36 298.223 114.989 297.844 114.231 297.664L113.598 297.508C113.102 297.387 112.876 297.195 112.872 296.914C112.876 296.559 113.247 296.277 113.77 296.273C114.266 296.277 114.536 296.508 114.63 296.859ZM116.036 298.797C116.036 299.625 116.677 300.098 117.481 300.102C118.219 300.098 118.606 299.707 118.747 299.422H118.778V300H119.442V297.203C119.446 295.867 118.403 295.703 117.848 295.703C116.911 295.703 116.247 296.176 116.161 296.859H116.864C116.958 296.535 117.282 296.289 117.817 296.289C118.458 296.289 118.778 296.602 118.778 297.141V297.484C118.587 297.488 117.903 297.527 117.63 297.547C116.895 297.602 116.036 297.824 116.036 298.797ZM116.708 298.828C116.712 298.363 117.098 298.148 117.708 298.109C117.911 298.098 118.579 298.047 118.778 298.035V298.461C118.778 298.996 118.356 299.504 117.598 299.5C117.083 299.504 116.712 299.277 116.708 298.828ZM120.794 301.594C121.395 301.59 121.809 301.277 122.059 300.609L123.856 295.758H123.122L121.966 299.125H121.919L120.762 295.758H120.028L121.598 300.031L121.473 300.352C121.251 300.973 121.02 300.988 120.747 300.992C120.641 300.988 120.489 300.984 120.419 300.977V301.578C120.505 301.586 120.649 301.59 120.794 301.594ZM128.966 296.859H129.622C129.536 296.172 128.985 295.703 128.106 295.703C127.173 295.703 126.536 296.227 126.536 296.953C126.536 297.52 126.93 297.922 127.669 298.094L128.309 298.242C128.79 298.355 129.005 298.551 129.005 298.852C129.005 299.25 128.626 299.504 128.02 299.5C127.485 299.504 127.184 299.305 127.106 298.891H126.403C126.516 299.664 127.083 300.09 128.036 300.086C129.098 300.09 129.696 299.547 129.7 298.812C129.696 298.223 129.325 297.844 128.567 297.664L127.934 297.508C127.438 297.387 127.212 297.195 127.208 296.914C127.212 296.559 127.583 296.277 128.106 296.273C128.602 296.277 128.872 296.508 128.966 296.859ZM132.309 300.086C133.462 300.09 134.235 299.215 134.231 297.898C134.235 296.574 133.462 295.703 132.309 295.703C131.153 295.703 130.372 296.574 130.372 297.898C130.372 299.215 131.153 300.09 132.309 300.086ZM131.044 297.898C131.048 297.055 131.446 296.297 132.309 296.297C133.165 296.297 133.559 297.055 133.559 297.898C133.559 298.746 133.165 299.492 132.309 299.492C131.446 299.492 131.048 298.746 131.044 297.898ZM135.114 300H135.786V297.352C135.786 296.734 136.231 296.305 136.739 296.305C137.227 296.305 137.571 296.625 137.567 297.102V300H138.247V297.242C138.251 296.703 138.587 296.305 139.177 296.305C139.641 296.305 140.032 296.547 140.036 297.172V300H140.708V297.164C140.708 296.164 140.165 295.703 139.411 295.703C138.802 295.703 138.352 295.984 138.137 296.422H138.091C137.891 295.969 137.512 295.703 136.958 295.703C136.403 295.703 135.993 295.969 135.817 296.422H135.762V295.758H135.114V300ZM143.567 300.086C144.442 300.09 145.071 299.652 145.27 299.008H144.552C144.395 299.27 144.075 299.492 143.567 299.492C142.813 299.492 142.29 299 142.255 298.102H145.333V297.82C145.337 296.25 144.395 295.703 143.505 295.703C142.352 295.703 141.583 296.609 141.583 297.914C141.583 299.215 142.341 300.09 143.567 300.086ZM142.259 297.531C142.305 296.875 142.77 296.297 143.505 296.297C144.204 296.297 144.649 296.824 144.653 297.531H142.259ZM148.059 295.758H147.169V294.742H146.489V295.758H145.848V296.32H146.489V298.953C146.493 299.703 147.087 300.055 147.653 300.055C147.852 300.055 148.016 300.039 148.122 300.023V299.398C148.024 299.402 147.844 299.414 147.723 299.414C147.438 299.414 147.165 299.324 147.169 298.781V296.32H148.059V295.758ZM149.692 297.453C149.692 296.719 150.161 296.305 150.794 296.305C151.403 296.305 151.77 296.684 151.77 297.352V300H152.442V297.305C152.442 296.215 151.864 295.703 150.997 295.703C150.325 295.703 149.946 295.984 149.747 296.422H149.692V294.344H149.02V300H149.692V297.453ZM153.52 300H154.192V295.758H153.52V300ZM153.387 294.609C153.384 294.855 153.598 295.055 153.856 295.055C154.114 295.055 154.329 294.855 154.333 294.609C154.329 294.359 154.114 294.16 153.856 294.164C153.598 294.16 153.384 294.359 153.387 294.609ZM155.934 297.453C155.934 296.719 156.387 296.305 157.005 296.305C157.606 296.305 157.966 296.695 157.966 297.352V300H158.637V297.305C158.641 296.227 158.067 295.703 157.208 295.703C156.563 295.703 156.165 295.988 155.966 296.422H155.911V295.758H155.262V300H155.934V297.453ZM161.434 301.68C162.469 301.68 163.274 301.211 163.278 300.117V295.758H162.622V296.43H162.567C162.415 296.203 162.149 295.703 161.325 295.703C160.259 295.703 159.512 296.516 159.512 297.82C159.512 299.156 160.286 299.934 161.317 299.938C162.137 299.934 162.407 299.453 162.552 299.219H162.606V300.078C162.606 300.777 162.161 301.094 161.434 301.094C160.833 301.094 160.43 300.879 160.341 300.445H159.637C159.712 301.23 160.407 301.68 161.434 301.68ZM160.192 297.844C160.192 296.988 160.594 296.305 161.411 296.305C162.2 296.305 162.618 296.934 162.622 297.844C162.618 298.777 162.188 299.336 161.411 299.336C160.606 299.336 160.192 298.723 160.192 297.844ZM164.825 300.047C165.102 300.043 165.329 299.816 165.325 299.539C165.329 299.266 165.102 299.039 164.825 299.039C164.552 299.039 164.317 299.266 164.325 299.539C164.317 299.816 164.552 300.043 164.825 300.047ZM166.856 300.047C167.134 300.043 167.36 299.816 167.356 299.539C167.36 299.266 167.134 299.039 166.856 299.039C166.583 299.039 166.348 299.266 166.356 299.539C166.348 299.816 166.583 300.043 166.856 300.047ZM168.887 300.047C169.165 300.043 169.391 299.816 169.387 299.539C169.391 299.266 169.165 299.039 168.887 299.039C168.614 299.039 168.38 299.266 168.387 299.539C168.38 299.816 168.614 300.043 168.887 300.047Z" fill="black" fill-opacity="0.5"/>
<g filter="url(#filter1_d_607_35)">
<path d="M100 47C100 39.8203 105.82 34 113 34H318C325.18 34 331 39.8203 331 47V308C331 315.18 325.18 321 318 321H113C105.82 321 100 315.18 100 308V47Z" stroke="black" stroke-width="2" shape-rendering="crispEdges"/>
</g>
</g>
<path d="M186.738 396.004H170.527V397.957H177.617V400.145H180.078V397.957H186.738V396.004ZM171.309 389.383H185.898V387.508H179.883V385.926H177.383V387.508H171.309V389.383ZM172.422 403.484H184.98V401.531H174.902V399.051H172.422V403.484ZM172.656 392.566C172.637 394.344 174.824 395.311 178.633 395.32C182.422 395.311 184.6 394.344 184.609 392.566C184.6 390.799 182.422 389.861 178.633 389.871C174.824 389.861 172.637 390.799 172.656 392.566ZM175.195 392.566C175.186 391.893 176.25 391.6 178.633 391.609C180.986 391.6 182.061 391.893 182.051 392.566C182.061 393.25 180.986 393.533 178.633 393.543C176.25 393.533 175.186 393.25 175.195 392.566ZM197.246 387.41V386.551H194.629V387.41C194.619 389.51 192.48 391.824 188.438 392.332L189.434 394.344C192.5 393.895 194.766 392.449 195.938 390.535C197.1 392.459 199.375 393.895 202.48 394.344L203.457 392.332C199.385 391.824 197.236 389.51 197.246 387.41ZM187.812 397.723H194.648V403.797H197.109V397.723H204.023V395.691H187.812V397.723ZM217.988 396.902C214.229 396.902 211.885 398.172 211.895 400.34C211.885 402.537 214.229 403.816 217.988 403.816C221.689 403.816 223.975 402.537 223.984 400.34C223.975 398.172 221.689 396.902 217.988 396.902ZM210.234 395.496H218.848V387.137H216.348V389.383H212.715V387.137H210.234V395.496ZM212.715 393.523V391.316H216.348V393.523H212.715ZM214.395 400.34C214.375 399.324 215.654 398.846 217.988 398.836C220.293 398.846 221.523 399.324 221.523 400.34C221.523 401.355 220.293 401.883 217.988 401.883C215.654 401.883 214.375 401.355 214.395 400.34ZM221.309 396.512H223.809V392.234H226.211V390.145H223.809V386.023H221.309V396.512ZM230.254 386.922H227.754V395.242H236.211V392.117H239.492V395.75H241.973V386.023H239.492V390.086H236.211V386.922H233.75V389.207H230.254V386.922ZM230.117 403.562H241.973V396.492H239.492V398.133H232.578V396.492H230.117V403.562ZM230.254 393.25V391.121H233.75V393.25H230.254ZM232.578 401.57V400.047H239.492V401.57H232.578ZM249.473 402H259.59V399.578H253.555V399.5L255.703 397.41C258.613 394.773 259.395 393.455 259.395 391.844C259.395 389.393 257.383 387.664 254.355 387.664C251.377 387.664 249.326 389.432 249.336 392.195H252.129C252.119 390.838 252.988 389.998 254.316 390.008C255.615 389.998 256.562 390.779 256.562 392.039C256.562 393.162 255.85 393.943 254.531 395.203L249.453 399.871L249.473 402Z" fill="black"/>
<g filter="url(#filter2_d_607_35)">
<mask id="path-18-inside-1_607_35" fill="white">
<path fill-rule="evenodd" clip-rule="evenodd" d="M92.2114 200.801C108.11 200.801 120.999 187.912 120.999 172.013C120.999 165.925 119.109 160.278 115.884 155.627L119.214 147.197C119.908 145.44 118.003 143.789 116.362 144.726L109.233 148.795C104.466 145.294 98.58 143.226 92.2114 143.226C76.3125 143.226 63.4238 156.114 63.4238 172.013C63.4238 187.912 76.3125 200.801 92.2114 200.801Z"/>
</mask>
<path fill-rule="evenodd" clip-rule="evenodd" d="M92.2114 200.801C108.11 200.801 120.999 187.912 120.999 172.013C120.999 165.925 119.109 160.278 115.884 155.627L119.214 147.197C119.908 145.44 118.003 143.789 116.362 144.726L109.233 148.795C104.466 145.294 98.58 143.226 92.2114 143.226C76.3125 143.226 63.4238 156.114 63.4238 172.013C63.4238 187.912 76.3125 200.801 92.2114 200.801Z" fill="white"/>
<path d="M115.884 155.627L114.023 154.892L113.63 155.888L114.24 156.767L115.884 155.627ZM119.214 147.197L117.354 146.463V146.463L119.214 147.197ZM116.362 144.726L115.371 142.989V142.989L116.362 144.726ZM109.233 148.795L108.049 150.407L109.096 151.176L110.225 150.532L109.233 148.795ZM118.999 172.013C118.999 186.808 107.006 198.801 92.2114 198.801V202.801C109.215 202.801 122.999 189.017 122.999 172.013H118.999ZM114.24 156.767C117.241 161.094 118.999 166.345 118.999 172.013H122.999C122.999 165.504 120.977 159.462 117.527 154.487L114.24 156.767ZM117.354 146.463L114.023 154.892L117.744 156.362L121.074 147.932L117.354 146.463ZM117.354 146.463C117.365 146.456 117.372 146.453 117.374 146.453C117.376 146.452 117.375 146.452 117.372 146.453C117.369 146.454 117.364 146.454 117.359 146.454C117.354 146.454 117.35 146.454 117.346 146.454C117.338 146.453 117.336 146.451 117.338 146.452C117.341 146.454 117.347 146.457 117.354 146.463C117.36 146.468 117.364 146.473 117.366 146.476C117.367 146.479 117.366 146.476 117.363 146.469C117.362 146.465 117.362 146.461 117.361 146.456C117.36 146.451 117.36 146.446 117.361 146.443C117.361 146.44 117.361 146.439 117.361 146.441C117.36 146.443 117.358 146.451 117.354 146.463L121.074 147.932C122.462 144.418 118.652 141.115 115.371 142.989L117.354 146.463ZM110.225 150.532L117.354 146.463L115.371 142.989L108.242 147.058L110.225 150.532ZM92.2114 145.226C98.1399 145.226 103.613 147.149 108.049 150.407L110.417 147.183C105.318 143.438 99.02 141.226 92.2114 141.226V145.226ZM65.4238 172.013C65.4238 157.219 77.417 145.226 92.2114 145.226V141.226C75.2079 141.226 61.4238 155.01 61.4238 172.013H65.4238ZM92.2114 198.801C77.417 198.801 65.4238 186.808 65.4238 172.013H61.4238C61.4238 189.017 75.2079 202.801 92.2114 202.801V198.801Z" fill="black" mask="url(#path-18-inside-1_607_35)"/>
<circle cx="84.947" cy="170.359" r="1.61426" fill="black"/>
<circle cx="100.014" cy="170.359" r="1.61426" fill="black"/>
<g filter="url(#filter3_f_607_35)">
<circle cx="75.5312" cy="176.545" r="3.49756" fill="#FFCACA"/>
</g>
<g filter="url(#filter4_f_607_35)">
<circle cx="108.892" cy="176.545" r="3.49756" fill="#FFCACA"/>
</g>
<path d="M85.4734 178.75C87.5831 182.448 93.2317 187.625 98.9484 178.75" stroke="black" stroke-width="2" stroke-linecap="round" stroke-linejoin="round"/>
</g>
<g filter="url(#filter5_d_607_35)">
<path d="M121 100H346C351.523 100 356 104.477 356 110V132C356 137.523 351.523 142 346 142H131C125.477 142 121 137.523 121 132V100Z" fill="#94D7BB"/>
<path d="M122 101H346C350.971 101 355 105.029 355 110V132C355 136.971 350.971 141 346 141H131C126.029 141 122 136.971 122 132V101Z" stroke="black" stroke-width="2"/>
</g>
<path d="M150.414 112.16H148.539V122.492H150.414V118.117H152.934V116.594H150.414V112.16ZM137.387 121.223H138.773C142.562 121.223 144.652 121.135 146.996 120.656L146.82 119.152C144.613 119.602 142.67 119.699 139.223 119.719V114.953H145.199V113.449H137.387V121.223ZM138.871 126.223C138.871 128.381 141.137 129.631 144.75 129.621C148.324 129.631 150.551 128.381 150.551 126.223C150.551 124.084 148.324 122.834 144.75 122.824C141.137 122.834 138.871 124.084 138.871 126.223ZM140.707 126.223C140.697 125.012 142.221 124.318 144.75 124.328C147.23 124.318 148.764 125.012 148.773 126.223C148.764 127.434 147.23 128.146 144.75 128.137C142.221 128.146 140.697 127.434 140.707 126.223ZM168.441 112.18H166.586V124.992H168.441V112.18ZM154.027 121.047L155.023 122.512C157.074 121.721 158.588 120.1 159.359 118.068C160.141 119.963 161.635 121.447 163.656 122.199L164.613 120.715C161.908 119.777 160.287 117.434 160.297 114.875V113.137H158.402V114.875C158.393 117.512 156.771 120.031 154.027 121.047ZM156.996 129.289H168.969V127.785H158.871V123.781H156.996V129.289ZM176.918 113.41C174.164 113.4 172.143 115.109 172.152 117.57C172.143 120.031 174.164 121.74 176.918 121.75C179.682 121.74 181.674 120.031 181.684 117.57C181.674 115.109 179.682 113.4 176.918 113.41ZM171.312 124.387L171.547 125.93C174.672 125.93 178.92 125.91 182.875 125.148L182.738 123.801C178.91 124.357 174.496 124.387 171.312 124.387ZM173.988 117.57C173.969 116.037 175.219 115.012 176.918 115.012C178.617 115.012 179.867 116.037 179.867 117.57C179.867 119.123 178.617 120.129 176.918 120.129C175.219 120.129 173.969 119.123 173.988 117.57ZM183.832 129.699H185.688V112.16H183.832V129.699ZM209.34 122.102H193.383V123.586H200.59V126.066H202.426V123.586H209.34V122.102ZM194.203 115.168H208.441V113.742H202.289V111.984H200.434V113.742H194.203V115.168ZM195.355 129.289H207.602V127.805H197.211V124.914H195.355V129.289ZM195.609 118.488C195.6 120.227 197.699 121.174 201.352 121.164C204.994 121.174 207.104 120.227 207.094 118.488C207.104 116.75 204.994 115.832 201.352 115.832C197.699 115.832 195.6 116.75 195.609 118.488ZM197.484 118.488C197.475 117.609 198.803 117.16 201.352 117.16C203.881 117.16 205.219 117.609 205.219 118.488C205.219 119.367 203.881 119.816 201.352 119.816C198.803 119.816 197.475 119.367 197.484 118.488ZM219.633 113.703V112.746H217.699V113.703C217.689 116.057 214.857 118.205 211.43 118.664L212.172 120.188C215.014 119.729 217.523 118.244 218.666 116.184C219.809 118.244 222.318 119.729 225.18 120.188L225.902 118.664C222.465 118.205 219.623 116.027 219.633 113.703ZM210.668 123.43H217.699V129.66H219.516V123.43H226.625V121.906H210.668V123.43ZM243.949 120.188H227.934V121.613H243.949V120.188ZM229.828 124.172H240.141V125.461H229.848V129.445H242.523V128.137H231.703V126.691H241.977V122.844H229.828V124.172ZM229.945 113.918H240.082V115.168H229.984V119.035H242.23V117.727H231.82V116.398H241.938V112.609H229.945V113.918ZM266.137 125.949H259.008V122.355H264.242V113.352H262.406V116.359H253.812V113.352H251.957V122.355H257.172V125.949H250.121V127.492H266.137V125.949ZM253.812 120.852V117.863H262.406V120.852H253.812ZM272.152 113.469C269.545 113.479 267.699 115.861 267.719 119.602C267.699 123.381 269.545 125.764 272.152 125.754C273.842 125.764 275.209 124.738 275.961 122.98H280.16V129.699H281.996V112.16H280.16V115.969H275.834C275.062 114.387 273.754 113.479 272.152 113.469ZM269.477 119.602C269.486 116.857 270.57 115.139 272.152 115.129C273.734 115.139 274.818 116.857 274.828 119.602C274.818 122.385 273.734 124.094 272.152 124.094C270.57 124.094 269.486 122.385 269.477 119.602ZM276.361 117.492H280.16V121.457H276.41C276.527 120.881 276.586 120.266 276.586 119.602C276.586 118.84 276.498 118.137 276.361 117.492ZM300.648 122.023H284.691V123.527H291.723V129.641H293.539V123.527H300.648V122.023ZM285.59 119.23L286.293 120.695C289.125 120.246 291.596 118.83 292.67 116.838C293.734 118.83 296.215 120.246 299.086 120.695L299.77 119.23C296.459 118.781 293.764 116.838 293.734 114.68H299.145V113.195H286.176V114.68H291.625C291.566 116.838 288.852 118.781 285.59 119.23ZM307.309 116.945V113.762H305.512V117.023C305.521 120.002 304.213 123.098 301.742 124.582L302.895 125.969C304.594 124.934 305.805 123.039 306.439 120.822C307.045 122.844 308.148 124.592 309.789 125.578L310.824 124.152C308.48 122.717 307.309 119.738 307.309 116.945ZM308.93 119.855H311.645V128.801H313.402V112.492H311.645V118.312H308.93V119.855ZM315.258 129.66H317.035V112.16H315.258V129.66ZM335.277 125.93H331.449V121.32C332.855 120.529 333.695 119.289 333.695 117.746C333.695 114.992 330.99 113.186 327.23 113.176C323.48 113.186 320.775 114.992 320.785 117.746C320.775 119.318 321.654 120.568 323.09 121.359V125.93H319.262V127.473H335.277V125.93ZM322.582 117.746C322.582 115.861 324.486 114.66 327.23 114.66C329.955 114.66 331.889 115.861 331.898 117.746C331.889 119.621 329.955 120.842 327.23 120.852C324.486 120.842 322.582 119.621 322.582 117.746ZM324.926 125.93V122.043C325.629 122.209 326.41 122.297 327.23 122.297C328.07 122.297 328.861 122.209 329.574 122.043V125.93H324.926ZM339.77 113.859H337.484L337.66 123.918H339.594L339.77 113.859ZM337.25 126.75C337.24 127.512 337.875 128.127 338.637 128.137C339.389 128.127 340.014 127.512 340.023 126.75C340.014 125.988 339.389 125.363 338.637 125.363C337.875 125.363 337.24 125.988 337.25 126.75Z" fill="white"/>
<rect x="236" y="442" width="133" height="14" fill="#94D7BB" fill-opacity="0.3"/>
<rect x="75" y="442" width="115" height="14" fill="#94D7BB" fill-opacity="0.3"/>
<path d="M85.4062 445.875H72.4375V447.438H85.4062V445.875ZM73.7344 442.312C73.7344 444.047 75.7734 445.094 78.9219 445.094C82.0469 445.094 84.0859 444.047 84.0938 442.312C84.0859 440.594 82.0469 439.523 78.9219 439.516C75.7734 439.523 73.7344 440.594 73.7344 442.312ZM73.9219 450.844C73.9219 452.523 75.7891 453.461 78.9062 453.453C81.9766 453.461 83.8438 452.523 83.8594 450.844C83.8438 449.164 81.9766 448.227 78.9062 448.234C75.7891 448.227 73.9219 449.164 73.9219 450.844ZM75.8125 442.312C75.7969 441.477 76.9297 441.078 78.9219 441.078C80.8828 441.078 82.0312 441.477 82.0312 442.312C82.0312 443.141 80.8828 443.547 78.9219 443.547C76.9297 443.547 75.7969 443.141 75.8125 442.312ZM75.9531 450.844C75.9453 450.094 76.9375 449.742 78.9062 449.734C80.8359 449.742 81.8516 450.094 81.8594 450.844C81.8516 451.578 80.8359 451.93 78.9062 451.938C76.9375 451.93 75.9453 451.578 75.9531 450.844ZM98.3125 439.234H96.3125V447.484H93.5938V448.844H96.3125V449.969H98.3125V439.234ZM86.2188 445.531L86.4531 447.109C87.5312 447.109 88.7422 447.102 90.0156 447.055V448.938H88.0312V453.188H98.625V451.594H90.0156V449.641H92.0156V446.938C93.1641 446.852 94.3281 446.719 95.4531 446.531L95.3438 445.109C92.3359 445.477 88.8203 445.516 86.2188 445.531ZM87.2656 442.266C87.2656 443.789 88.7266 444.773 90.8438 444.766C92.9062 444.773 94.3828 443.789 94.3906 442.266C94.3828 440.75 92.9062 439.711 90.8438 439.719C88.7266 439.711 87.2656 440.75 87.2656 442.266ZM89.1562 442.266C89.1484 441.562 89.8281 441.172 90.8438 441.172C91.7969 441.172 92.4844 441.562 92.5 442.266C92.4844 442.953 91.7969 443.336 90.8438 443.328C89.8281 443.336 89.1484 442.953 89.1562 442.266ZM111.312 439.219H109.344V453.438H111.312V446.422H113.406V444.781H111.312V439.219ZM100.016 442.938H108.375V441.344H105.234V439.438H103.234V441.344H100.016V442.938ZM100.594 447.125C100.586 449.109 102.133 450.508 104.234 450.516C106.305 450.508 107.859 449.109 107.859 447.125C107.859 445.141 106.305 443.727 104.234 443.734C102.133 443.727 100.586 445.141 100.594 447.125ZM102.5 447.125C102.5 446.031 103.227 445.359 104.234 445.344C105.227 445.359 105.953 446.031 105.953 447.125C105.953 448.227 105.227 448.883 104.234 448.875C103.227 448.883 102.5 448.227 102.5 447.125ZM125.469 443.094H117.516V439.719H115.531V444.656H125.469V443.094ZM113.906 447.75H126.922V446.188H113.906V447.75ZM115.406 453.125H125.562V451.531H117.406V448.906H115.406V453.125ZM143.25 439.609H132.578V441.094H134.422V442.969H132.672V444.453H143.156V442.969H141.391V441.094H143.25V439.609ZM131.438 446.766H144.406V445.203H131.438V446.766ZM132.938 449.016H140.859V449.734H132.953V453.344H143.203V451.875H134.906V451.094H142.828V447.578H132.938V449.016ZM136.422 442.969V441.094H139.391V442.969H136.422ZM150.703 440.641H145.656V442.219H148.781V444.453H145.672V450.109H146.672C148.461 450.094 150.055 450.062 151.922 449.719L151.75 448.094C150.273 448.367 148.969 448.438 147.578 448.453V446.031H150.703V440.641ZM151.297 445.688H152.75V452.75H154.609V439.484H152.75V444.078H151.297V445.688ZM155.672 453.438H157.562V439.219H155.672V453.438ZM171 439.219H168.984V453.469H171V439.219ZM159.516 445.281C159.508 448.406 161.094 450.359 163.281 450.359C165.422 450.359 167.016 448.406 167.016 445.281C167.016 442.18 165.422 440.219 163.281 440.219C161.094 440.219 159.508 442.18 159.516 445.281ZM161.438 445.281C161.43 443.172 162.172 442.016 163.281 442.016C164.359 442.016 165.086 443.172 165.094 445.281C165.086 447.398 164.359 448.555 163.281 448.547C162.172 448.555 161.43 447.398 161.438 445.281ZM176.844 440.219C174.688 440.219 173.141 442.18 173.156 445.281C173.141 448.406 174.688 450.359 176.844 450.359C178.828 450.359 180.297 448.688 180.508 445.953H182.953V453.469H184.922V439.219H182.953V444.359H180.484C180.203 441.797 178.766 440.219 176.844 440.219ZM175.062 445.281C175.055 443.172 175.781 442.016 176.844 442.016C177.914 442.016 178.625 443.172 178.625 445.281C178.625 447.398 177.914 448.555 176.844 448.547C175.781 448.555 175.055 447.398 175.062 445.281ZM198.797 439.375H197.609V453.266H198.797V439.375ZM187.062 445.375C187.07 448.328 188.242 450.211 190.047 450.203C191.758 450.211 192.922 448.516 193.039 445.812H194.828V452.562H196V439.672H194.828V444.797H193.031C192.875 442.18 191.734 440.555 190.047 440.547C188.242 440.555 187.07 442.422 187.062 445.375ZM188.219 445.375C188.203 443.117 188.922 441.703 190.047 441.703C191.18 441.703 191.898 443.117 191.891 445.375C191.898 447.625 191.18 449.047 190.047 449.031C188.922 449.047 188.203 447.625 188.219 445.375ZM212.609 439.375H211.438V453.266H212.609V439.375ZM200.734 449.375L201.453 450.266C203.391 449.125 204.734 447.695 205.57 446.078H208.516V452.562H209.688V439.75H208.516V445.078H206.023C206.5 443.844 206.719 442.523 206.719 441.156H201.328V442.172H205.5C205.266 445.078 203.75 447.586 200.734 449.375ZM221.562 440.641H215.141V447.031H221.562V440.641ZM216.344 446.047V441.641H220.375V446.047H216.344ZM216.719 452.969H226.047V451.938H217.922V448.594H216.719V452.969ZM224.188 449.562H225.406V444.641H227.5V443.609H225.406V439.375H224.188V449.562ZM238.312 440.688H232.656V449.859H238.312V445.984H239.734V452.781H241.609V439.422H239.734V444.391H238.312V440.688ZM234.516 448.297V442.266H236.453V448.297H234.516ZM242.672 453.438H244.578V439.219H242.672V453.438ZM250.641 442.797V440.438H248.703V442.891C248.703 445.297 247.922 447.805 245.812 449.109L247.031 450.578C248.32 449.797 249.172 448.445 249.68 446.836C250.133 448.289 250.906 449.523 252.141 450.266L253.219 448.719C251.273 447.477 250.633 445.102 250.641 442.797ZM251.719 445.641H253.562V452.781H255.422V439.422H253.562V444.016H251.719V445.641ZM256.5 453.438H258.406V439.219H256.5V453.438ZM265.422 443.094V442.219H268.391V440.594H260.359V442.219H263.375V443.094C263.375 445.5 262.156 448.133 259.797 449.188L260.938 450.766C262.617 449.992 263.797 448.43 264.438 446.562C265.078 448.281 266.234 449.695 267.906 450.406L268.984 448.844C266.602 447.852 265.414 445.391 265.422 443.094ZM269.797 453.438H271.812V439.219H269.797V453.438ZM286.578 445.828H273.859V446.797H286.578V445.828ZM275.391 448.828H283.766V450.016H275.406V453.078H285.438V452.188H276.641V450.859H284.984V447.906H275.391V448.828ZM275.469 440.688H283.703V441.828H275.516V444.781H285.188V443.891H276.734V442.672H284.938V439.797H275.469V440.688ZM304.594 450.156H299.047V447.531H303.141V440.125H301.156V442.328H294.953V440.125H292.953V447.531H297.062V450.156H291.578V451.781H304.594V450.156ZM294.953 445.938V443.922H301.156V445.938H294.953ZM317.672 439.219H315.75V444.719H314.422V439.453H312.547V452.75H314.422V446.328H315.75V453.438H317.672V439.219ZM305.984 449.969H306.953C308.422 449.977 310.047 449.875 311.953 449.547L311.75 447.828C310.383 448.094 309.125 448.195 307.984 448.227V440.797H305.984V449.969ZM330.781 443.094H322.828V439.719H320.844V444.656H330.781V443.094ZM319.219 447.75H332.234V446.188H319.219V447.75ZM320.719 453.125H330.875V451.531H322.719V448.906H320.719V453.125ZM343.375 447.922C340.367 447.922 338.492 448.938 338.5 450.672C338.492 452.43 340.367 453.453 343.375 453.453C346.336 453.453 348.164 452.43 348.172 450.672C348.164 448.938 346.336 447.922 343.375 447.922ZM337.172 446.797H344.062V440.109H342.062V441.906H339.156V440.109H337.172V446.797ZM339.156 445.219V443.453H342.062V445.219H339.156ZM340.5 450.672C340.484 449.859 341.508 449.477 343.375 449.469C345.219 449.477 346.203 449.859 346.203 450.672C346.203 451.484 345.219 451.906 343.375 451.906C341.508 451.906 340.484 451.484 340.5 450.672ZM346.031 447.609H348.031V444.188H349.953V442.516H348.031V439.219H346.031V447.609ZM353.188 439.938H351.188V446.594H357.953V444.094H360.578V447H362.562V439.219H360.578V442.469H357.953V439.938H355.984V441.766H353.188V439.938ZM353.078 453.25H362.562V447.594H360.578V448.906H355.047V447.594H353.078V453.25ZM353.188 445V443.297H355.984V445H353.188ZM355.047 451.656V450.438H360.578V451.656H355.047Z" fill="black"/>
<path d="M243 306L251 315L259 306" stroke="black"/>
<path d="M275.867 306.902H278.68C278.641 304.402 276.58 302.664 273.445 302.664C270.35 302.664 268.084 304.373 268.094 306.941C268.094 309.012 269.559 310.203 271.941 310.789L273.484 311.16C275.027 311.541 275.906 311.99 275.906 312.957C275.906 314.012 274.91 314.734 273.367 314.734C271.805 314.734 270.672 314.012 270.574 312.586H267.723C267.811 315.623 269.988 317.205 273.406 317.195C276.854 317.205 278.865 315.545 278.875 312.957C278.865 310.604 277.059 309.373 274.637 308.816L273.367 308.504C272.146 308.23 271.092 307.771 271.102 306.746C271.111 305.809 271.941 305.125 273.426 305.125C274.861 305.125 275.75 305.779 275.867 306.902ZM280.789 317H290.301V314.578H283.719V311.141H289.793V308.719H283.719V305.281H290.281V302.859H280.789V317ZM304.363 302.859H301.453V311.844H301.316L295.145 302.859H292.566V317H295.496V308.016H295.613L301.824 317H304.363V302.859ZM311.727 317C316.043 317 318.65 314.334 318.641 309.91C318.65 305.506 316.043 302.859 311.785 302.859H306.746V317H311.727ZM309.676 314.48V305.379H311.629C314.305 305.379 315.711 306.766 315.711 309.91C315.711 313.084 314.305 314.48 311.609 314.48H309.676Z" fill="#6DB6DF"/>
<mask id="path-33-inside-2_607_35" fill="white">
<path fill-rule="evenodd" clip-rule="evenodd" d="M342.979 241.107L340.156 229.334C339.161 229.23 338.149 229.176 337.126 229.176C321.402 229.176 308.655 241.852 308.655 257.489C308.655 262.335 309.88 266.897 312.038 270.886L307.205 280.957C306.387 282.66 308.17 284.442 309.873 283.625L318.939 279.274C323.872 283.351 330.211 285.802 337.126 285.802C352.849 285.802 365.596 273.126 365.596 257.489C365.596 253.72 364.855 250.123 363.511 246.834L358.411 249.985L355.751 243.049H352.026L350.961 238.055L342.979 241.107Z"/>
</mask>
<path fill-rule="evenodd" clip-rule="evenodd" d="M342.979 241.107L340.156 229.334C339.161 229.23 338.149 229.176 337.126 229.176C321.402 229.176 308.655 241.852 308.655 257.489C308.655 262.335 309.88 266.897 312.038 270.886L307.205 280.957C306.387 282.66 308.17 284.442 309.873 283.625L318.939 279.274C323.872 283.351 330.211 285.802 337.126 285.802C352.849 285.802 365.596 273.126 365.596 257.489C365.596 253.72 364.855 250.123 363.511 246.834L358.411 249.985L355.751 243.049H352.026L350.961 238.055L342.979 241.107Z" fill="#5B5B5B"/>
<path d="M340.156 229.334L342.101 228.868L341.772 227.493L340.366 227.345L340.156 229.334ZM342.979 241.107L341.034 241.573L341.565 243.788L343.693 242.975L342.979 241.107ZM312.038 270.886L313.841 271.751L314.282 270.831L313.797 269.934L312.038 270.886ZM307.205 280.957L305.402 280.091H305.402L307.205 280.957ZM309.873 283.625L310.738 285.428H310.738L309.873 283.625ZM318.939 279.274L320.214 277.732L319.228 276.917L318.074 277.471L318.939 279.274ZM363.511 246.834L365.362 246.077L364.469 243.891L362.46 245.132L363.511 246.834ZM358.411 249.985L356.544 250.701L357.409 252.955L359.463 251.686L358.411 249.985ZM355.751 243.049L357.618 242.332L357.125 241.049H355.751V243.049ZM352.026 243.049L350.069 243.465L350.407 245.049H352.026V243.049ZM350.961 238.055L352.917 237.638L352.43 235.352L350.247 236.187L350.961 238.055ZM338.212 229.801L341.034 241.573L344.924 240.64L342.101 228.868L338.212 229.801ZM337.126 231.176C338.079 231.176 339.021 231.226 339.947 231.323L340.366 227.345C339.3 227.233 338.219 227.176 337.126 227.176V231.176ZM310.655 257.489C310.655 242.967 322.496 231.176 337.126 231.176V227.176C320.308 227.176 306.655 240.737 306.655 257.489H310.655ZM313.797 269.934C311.793 266.23 310.655 261.995 310.655 257.489H306.655C306.655 262.676 307.967 267.564 310.279 271.838L313.797 269.934ZM309.008 281.822L313.841 271.751L310.235 270.02L305.402 280.091L309.008 281.822ZM309.008 281.822C308.996 281.827 308.989 281.83 308.987 281.83C308.985 281.831 308.985 281.831 308.989 281.83C308.992 281.83 308.997 281.83 309.002 281.83C309.007 281.83 309.011 281.83 309.015 281.831C309.022 281.833 309.025 281.834 309.022 281.833C309.019 281.832 309.014 281.828 309.008 281.822C309.002 281.816 308.998 281.81 308.997 281.807C308.995 281.805 308.997 281.807 308.998 281.815C308.999 281.819 309 281.823 309 281.828C309 281.833 309 281.838 308.999 281.841C308.999 281.844 308.999 281.845 308.999 281.843C309 281.84 309.002 281.833 309.008 281.822L305.402 280.091C303.767 283.498 307.332 287.063 310.738 285.428L309.008 281.822ZM318.074 277.471L309.008 281.822L310.738 285.428L319.805 281.077L318.074 277.471ZM337.126 283.802C330.692 283.802 324.8 281.523 320.214 277.732L317.665 280.815C322.944 285.178 329.73 287.802 337.126 287.802V283.802ZM363.596 257.489C363.596 272.011 351.755 283.802 337.126 283.802V287.802C353.943 287.802 367.596 274.241 367.596 257.489H363.596ZM361.66 247.59C362.907 250.644 363.596 253.984 363.596 257.489H367.596C367.596 253.456 366.803 249.602 365.362 246.077L361.66 247.59ZM359.463 251.686L364.562 248.535L362.46 245.132L357.36 248.283L359.463 251.686ZM353.883 243.765L356.544 250.701L360.279 249.268L357.618 242.332L353.883 243.765ZM352.026 245.049H355.751V241.049H352.026V245.049ZM349.005 238.472L350.069 243.465L353.982 242.632L352.917 237.638L349.005 238.472ZM343.693 242.975L351.675 239.923L350.247 236.187L342.265 239.238L343.693 242.975Z" fill="black" mask="url(#path-33-inside-2_607_35)"/>
<ellipse cx="329.46" cy="258.474" rx="1.59646" ry="1.66465" fill="#BCBCBC"/>
<ellipse cx="344.36" cy="258.474" rx="1.59646" ry="1.66465" fill="#BCBCBC"/>
<path d="M330.525 266.797C332.524 268.891 337.878 271.822 343.296 266.797" stroke="#BCBCBC" stroke-width="2" stroke-linecap="round" stroke-linejoin="round"/>
<path d="M319.139 250.221C318.485 250.039 318.087 249.348 318.294 248.697C319.216 245.805 320.742 243.156 322.767 240.945C324.778 238.749 327.224 237.046 329.93 235.951C330.57 235.692 331.286 236.079 331.493 236.761C331.692 237.417 331.346 238.1 330.732 238.353C328.391 239.314 326.273 240.796 324.53 242.7C322.783 244.607 321.46 246.886 320.648 249.373C320.438 250.015 319.785 250.401 319.139 250.221Z" fill="#C4C4C4" fill-opacity="0.4"/>
<defs>
<filter id="filter0_d_607_35" x="90" y="30" width="245" height="301" filterUnits="userSpaceOnUse" color-interpolation-filters="sRGB">
<feFlood flood-opacity="0" result="BackgroundImageFix"/>
<feColorMatrix in="SourceAlpha" type="matrix" values="0 0 0 0 0 0 0 0 0 0 0 0 0 0 0 0 0 0 127 0" result="hardAlpha"/>
<feOffset dx="-3" dy="3"/>
<feGaussianBlur stdDeviation="3"/>
<feComposite in2="hardAlpha" operator="out"/>
<feColorMatrix type="matrix" values="0 0 0 0 0.658333 0 0 0 0 0.576042 0 0 0 0 0.452604 0 0 0 0.25 0"/>
<feBlend mode="normal" in2="BackgroundImageFix" result="effect1_dropShadow_607_35"/>
<feBlend mode="normal" in="SourceGraphic" in2="effect1_dropShadow_607_35" result="shape"/>
</filter>
<filter id="filter1_d_607_35" x="90" y="30" width="245" height="301" filterUnits="userSpaceOnUse" color-interpolation-filters="sRGB">
<feFlood flood-opacity="0" result="BackgroundImageFix"/>
<feColorMatrix in="SourceAlpha" type="matrix" values="0 0 0 0 0 0 0 0 0 0 0 0 0 0 0 0 0 0 127 0" result="hardAlpha"/>
<feOffset dx="-3" dy="3"/>
<feGaussianBlur stdDeviation="3"/>
<feComposite in2="hardAlpha" operator="out"/>
<feColorMatrix type="matrix" values="0 0 0 0 0.658333 0 0 0 0 0.576042 0 0 0 0 0.452604 0 0 0 0.25 0"/>
<feBlend mode="normal" in2="BackgroundImageFix" result="effect1_dropShadow_607_35"/>
<feBlend mode="normal" in="SourceGraphic" in2="effect1_dropShadow_607_35" result="shape"/>
</filter>
<filter id="filter2_d_607_35" x="57.4238" y="141.226" width="65.5752" height="65.5752" filterUnits="userSpaceOnUse" color-interpolation-filters="sRGB">
<feFlood flood-opacity="0" result="BackgroundImageFix"/>
<feColorMatrix in="SourceAlpha" type="matrix" values="0 0 0 0 0 0 0 0 0 0 0 0 0 0 0 0 0 0 127 0" result="hardAlpha"/>
<feOffset dx="-2" dy="2"/>
<feGaussianBlur stdDeviation="2"/>
<feComposite in2="hardAlpha" operator="out"/>
<feColorMatrix type="matrix" values="0 0 0 0 0 0 0 0 0 0 0 0 0 0 0 0 0 0 0.25 0"/>
<feBlend mode="normal" in2="BackgroundImageFix" result="effect1_dropShadow_607_35"/>
<feBlend mode="normal" in="SourceGraphic" in2="effect1_dropShadow_607_35" result="shape"/>
</filter>
<filter id="filter3_f_607_35" x="68.0337" y="169.047" width="14.9951" height="14.9951" filterUnits="userSpaceOnUse" color-interpolation-filters="sRGB">
<feFlood flood-opacity="0" result="BackgroundImageFix"/>
<feBlend mode="normal" in="SourceGraphic" in2="BackgroundImageFix" result="shape"/>
<feGaussianBlur stdDeviation="2" result="effect1_foregroundBlur_607_35"/>
</filter>
<filter id="filter4_f_607_35" x="101.395" y="169.047" width="14.9951" height="14.9951" filterUnits="userSpaceOnUse" color-interpolation-filters="sRGB">
<feFlood flood-opacity="0" result="BackgroundImageFix"/>
<feBlend mode="normal" in="SourceGraphic" in2="BackgroundImageFix" result="shape"/>
<feGaussianBlur stdDeviation="2" result="effect1_foregroundBlur_607_35"/>
</filter>
<filter id="filter5_d_607_35" x="112" y="95" width="249" height="56" filterUnits="userSpaceOnUse" color-interpolation-filters="sRGB">
<feFlood flood-opacity="0" result="BackgroundImageFix"/>
<feColorMatrix in="SourceAlpha" type="matrix" values="0 0 0 0 0 0 0 0 0 0 0 0 0 0 0 0 0 0 127 0" result="hardAlpha"/>
<feMorphology radius="3" operator="dilate" in="SourceAlpha" result="effect1_dropShadow_607_35"/>
<feOffset dx="-2" dy="2"/>
<feGaussianBlur stdDeviation="2"/>
<feComposite in2="hardAlpha" operator="out"/>
<feColorMatrix type="matrix" values="0 0 0 0 0.8625 0 0 0 0 0.772944 0 0 0 0 0.542656 0 0 0 0.25 0"/>
<feBlend mode="normal" in2="BackgroundImageFix" result="effect1_dropShadow_607_35"/>
<feBlend mode="normal" in="SourceGraphic" in2="effect1_dropShadow_607_35" result="shape"/>
</filter>
</defs>
</svg>
