<svg width="599" height="451" viewBox="0 0 599 451" fill="none" xmlns="http://www.w3.org/2000/svg">
<path d="M196.43 412.273C193.734 412.273 191.801 414.725 191.82 418.602C191.801 422.508 193.734 424.949 196.43 424.949C198.148 424.949 199.564 423.934 200.355 422.176H204.066V428.836H206.527V411.023H204.066V414.676H200.17C199.359 413.143 198.031 412.273 196.43 412.273ZM194.203 418.602C194.193 415.965 195.102 414.52 196.43 414.52C197.768 414.52 198.656 415.965 198.656 418.602C198.656 421.248 197.768 422.693 196.43 422.684C195.102 422.693 194.193 421.248 194.203 418.602ZM200.863 416.688H204.066V420.184H200.922C201 419.686 201.039 419.158 201.039 418.602C201.039 417.918 200.98 417.273 200.863 416.688ZM223.793 411.023H221.312V417.43H218.441V419.461H221.312V428.836H223.793V411.023ZM209.398 414.52H215.023V417.195H209.438V424.695H210.902C213.881 424.705 216.293 424.607 218.93 424.168L218.734 422.137C216.439 422.537 214.369 422.625 211.918 422.645V419.168H217.445V412.508H209.398V414.52ZM242.348 420.145H226.078V422.098H233.188V424.969H235.648V422.098H242.348V420.145ZM227.992 428.484H240.551V426.492H230.453V423.562H227.992V428.484ZM228.168 418.895H240.238V411.59H237.758V413.445H230.629V411.59H228.168V418.895ZM230.629 416.922V415.301H237.758V416.922H230.629ZM249.145 412.215C246.342 412.205 244.193 414.021 244.203 416.57C244.193 419.129 246.342 420.936 249.145 420.945C251.967 420.936 254.057 419.129 254.066 416.57C254.057 414.021 251.967 412.205 249.145 412.215ZM243.461 423.172L243.754 425.203C246.859 425.203 251.078 425.174 255.023 424.402L254.828 422.605C251.029 423.143 246.635 423.182 243.461 423.172ZM246.684 416.57C246.674 415.184 247.738 414.363 249.145 414.363C250.561 414.363 251.635 415.184 251.645 416.57C251.635 417.977 250.561 418.787 249.145 418.777C247.738 418.787 246.674 417.977 246.684 416.57ZM255.844 428.836H258.324V411.023H255.844V428.836ZM275.414 412.801H271.859V410.945H269.34V412.801H265.766V414.754H269.34C269.301 416.717 267.973 418.621 265.141 419.402L266.312 421.316C268.412 420.74 269.828 419.5 270.609 417.918C271.41 419.354 272.816 420.477 274.848 421.004L275.98 419.09C273.148 418.328 271.879 416.541 271.82 414.754H275.414V412.801ZM267.758 428.602H279.379V422.176H267.758V428.602ZM270.219 426.609V424.148H276.918V426.609H270.219ZM276.879 421.434H279.379V417.234H281.781V415.203H279.379V411.023H276.879V421.434ZM287.465 412.273C284.77 412.273 282.836 414.725 282.855 418.602C282.836 422.508 284.77 424.949 287.465 424.949C289.184 424.949 290.6 423.934 291.391 422.176H295.102V428.836H297.562V411.023H295.102V414.676H291.205C290.395 413.143 289.066 412.273 287.465 412.273ZM285.238 418.602C285.229 415.965 286.137 414.52 287.465 414.52C288.803 414.52 289.691 415.965 289.691 418.602C289.691 421.248 288.803 422.693 287.465 422.684C286.137 422.693 285.229 421.248 285.238 418.602ZM291.898 416.688H295.102V420.184H291.957C292.035 419.686 292.074 419.158 292.074 418.602C292.074 417.918 292.016 417.273 291.898 416.688ZM319.398 411.023H316.879V428.797H319.398V411.023ZM304.516 423.758L305.824 425.75C312.172 422.752 314.057 418.27 314.066 412.879H305.473V414.832H311.527C311.127 418.777 309.105 421.59 304.516 423.758ZM337.113 411.023H334.75V417.879H333.031V411.316H330.746V427.938H333.031V419.871H334.75V428.797H337.113V411.023ZM322.25 424.773H323.48C325.824 424.764 327.719 424.695 329.887 424.285L329.711 422.254C327.992 422.557 326.469 422.654 324.75 422.684V415.086H328.871V413.074H322.25V424.773ZM353.129 410.984H350.629V420.613H353.129V416.844H355.531V414.852H353.129V410.984ZM339.027 414.246H349.574V412.352H345.551V410.906H343.07V412.352H339.027V414.246ZM339.887 417.586C339.887 419.402 341.654 420.486 344.301 420.496C346.967 420.486 348.676 419.402 348.676 417.586C348.676 415.809 346.967 414.686 344.301 414.676C341.654 414.686 339.887 415.809 339.887 417.586ZM341.332 423.133H350.648V424.129H341.371V428.68H353.637V426.844H343.812V425.828H353.129V421.336H341.332V423.133ZM342.328 417.586C342.318 416.834 343.07 416.424 344.301 416.434C345.541 416.424 346.312 416.834 346.312 417.586C346.312 418.348 345.541 418.709 344.301 418.719C343.07 418.709 342.318 418.348 342.328 417.586ZM371.723 411.023H369.379V428.797H371.723V411.023ZM356.098 423.348L357.504 425.105C360.033 423.641 361.684 421.883 362.699 419.852H365.609V428.016H367.934V411.414H365.609V417.879H363.471C363.9 416.414 364.086 414.832 364.086 413.133H357.074V415.145H361.615C361.273 418.631 359.691 421.219 356.098 423.348ZM389.867 424.676H386.254V420.271C387.592 419.441 388.393 418.201 388.402 416.668C388.393 413.787 385.551 411.893 381.703 411.883C377.836 411.893 375.023 413.787 375.023 416.668C375.023 418.23 375.854 419.49 377.23 420.32V424.676H373.598V426.727H389.867V424.676ZM377.484 416.668C377.484 414.881 379.154 413.846 381.703 413.855C384.213 413.846 385.932 414.881 385.941 416.668C385.932 418.406 384.213 419.48 381.703 419.48C379.154 419.48 377.484 418.406 377.484 416.668ZM379.691 424.676V421.229C380.316 421.346 380.99 421.414 381.703 421.414C382.416 421.414 383.1 421.346 383.734 421.219V424.676H379.691ZM394.926 412.859H391.918L392.172 422.762H394.672L394.926 412.859ZM391.801 425.535C391.781 426.443 392.523 427.176 393.441 427.176C394.311 427.176 395.062 426.443 395.062 425.535C395.062 424.637 394.311 423.904 393.441 423.914C392.523 423.904 391.781 424.637 391.801 425.535Z" fill="black"/>
<path d="M378.844 54.6152H381.529V50.5977H385.547V47.9121H381.529V43.8945H378.844V47.9121H374.826V50.5977H378.844V54.6152ZM395.301 41.4453H392.25L388.404 43.8945V46.752L391.971 44.5176H392.057V57H395.301V41.4453ZM404.947 57.2148C408.836 57.2148 411.199 54.3359 411.199 49.2227C411.199 44.1416 408.825 41.2305 404.947 41.2305C401.069 41.2305 398.695 44.1416 398.695 49.2227C398.695 54.3145 401.048 57.2148 404.947 57.2148ZM402.004 49.2227C402.004 45.667 403.153 43.8838 404.947 43.873C406.741 43.8838 407.901 45.667 407.891 49.2227C407.901 52.8105 406.752 54.5508 404.947 54.5508C403.143 54.5508 401.982 52.8105 402.004 49.2227ZM419.471 57.2148C423.359 57.2148 425.723 54.3359 425.723 49.2227C425.723 44.1416 423.349 41.2305 419.471 41.2305C415.593 41.2305 413.219 44.1416 413.219 49.2227C413.219 54.3145 415.571 57.2148 419.471 57.2148ZM416.527 49.2227C416.527 45.667 417.677 43.8838 419.471 43.873C421.265 43.8838 422.425 45.667 422.414 49.2227C422.425 52.8105 421.275 54.5508 419.471 54.5508C417.666 54.5508 416.506 52.8105 416.527 49.2227ZM428.043 57H431.266V51.9297H434.059C437.646 51.9297 439.709 49.792 439.709 46.6875C439.709 43.626 437.679 41.4453 434.145 41.4453H428.043V57ZM431.266 49.3301V44.0879H433.543C435.455 44.0986 436.39 45.1406 436.379 46.6875C436.39 48.2559 435.455 49.3301 433.543 49.3301H431.266Z" fill="black"/>
<g filter="url(#filter0_d_607_38)">
<g filter="url(#filter1_d_607_38)">
<ellipse cx="293.812" cy="87.492" rx="49.8119" ry="47.5081" fill="white"/>
<path d="M342.124 87.492C342.124 112.835 320.562 133.5 293.812 133.5C267.062 133.5 245.5 112.835 245.5 87.492C245.5 62.1486 267.062 41.4839 293.812 41.4839C320.562 41.4839 342.124 62.1486 342.124 87.492Z" stroke="black" stroke-width="3"/>
</g>
<path d="M331.451 59.0017H259.069H255.242C254.689 59.0017 254.242 58.554 254.242 58.0017V19.1426C254.242 18.2558 255.31 17.8078 255.943 18.4295L269.955 32.2061C270.344 32.5887 270.968 32.5887 271.357 32.2061L292.645 11.2757C293.034 10.8932 293.658 10.8932 294.047 11.2757L315.336 32.2061C315.725 32.5887 316.349 32.5887 316.738 32.2061L330.75 18.4295C331.382 17.8078 332.451 18.2558 332.451 19.1426V58.0017C332.451 58.554 332.003 59.0017 331.451 59.0017Z" fill="#FFF27E" stroke="black" stroke-width="3" stroke-linejoin="round"/>
<circle cx="281.242" cy="84.1404" r="2.79319" fill="black"/>
<circle cx="307.312" cy="84.1404" r="2.79319" fill="black"/>
<g filter="url(#filter2_f_607_38)">
<circle cx="264.949" cy="94.8468" r="6.05191" fill="#FFCACA"/>
</g>
<g filter="url(#filter3_f_607_38)">
<circle cx="322.675" cy="94.8468" r="6.05191" fill="#FFCACA"/>
</g>
<path d="M283.105 98.1064C286.603 104.43 295.97 113.283 305.45 98.1064" stroke="black" stroke-width="3" stroke-linecap="round" stroke-linejoin="round"/>
<circle cx="255.638" cy="15.7073" r="4.12085" fill="#FFF27E" stroke="black" stroke-width="2"/>
<circle cx="293.812" cy="10.1208" r="4.12085" fill="#FFF27E" stroke="black" stroke-width="2"/>
<path d="M257.966 24.5522L257.966 56.2084" stroke="#F8D000" stroke-width="3" stroke-linecap="round" stroke-linejoin="round"/>
<path d="M328.727 61.7949L257.035 61.7949" stroke="#F8D000" stroke-opacity="0.3" stroke-width="3" stroke-linecap="round" stroke-linejoin="round"/>
<path d="M290.36 18.0347L274.725 33.8627" stroke="#F8D000" stroke-width="3" stroke-linecap="round" stroke-linejoin="round"/>
<circle cx="331.054" cy="15.7073" r="4.12085" fill="#FFF27E" stroke="black" stroke-width="2"/>
<path d="M328.534 25.4834L320.347 33.863" stroke="#F8D000" stroke-width="3" stroke-linecap="round" stroke-linejoin="round"/>
</g>
<g opacity="0.95">
<path d="M171 205.5C171 228.972 151.972 248 128.5 248C105.028 248 86 228.972 86 205.5C86 182.028 105.028 163 128.5 163C151.972 163 171 182.028 171 205.5Z" fill="white"/>
<path fill-rule="evenodd" clip-rule="evenodd" d="M128.5 245.617C150.656 245.617 168.617 227.656 168.617 205.5C168.617 183.344 150.656 165.383 128.5 165.383C106.344 165.383 88.3832 183.344 88.3832 205.5C88.3832 227.656 106.344 245.617 128.5 245.617ZM128.5 248C151.972 248 171 228.972 171 205.5C171 182.028 151.972 163 128.5 163C105.028 163 86 182.028 86 205.5C86 228.972 105.028 248 128.5 248Z" fill="black"/>
<circle cx="117.776" cy="203.057" r="2.38318" fill="black"/>
<circle cx="140.019" cy="203.057" r="2.38318" fill="black"/>
<g filter="url(#filter4_f_607_38)">
<circle cx="103.874" cy="212.192" r="5.16355" fill="#FFCACA"/>
</g>
<g filter="url(#filter5_f_607_38)">
<circle cx="153.127" cy="212.192" r="5.16355" fill="#FFCACA"/>
</g>
<path d="M119.365 214.974C122.349 220.369 130.342 227.922 138.43 214.974" stroke="black" stroke-width="3" stroke-linecap="round" stroke-linejoin="round"/>
</g>
<path d="M281 205.5C281 228.972 261.972 248 238.5 248C215.028 248 196 228.972 196 205.5C196 182.028 215.028 163 238.5 163C261.972 163 281 182.028 281 205.5Z" fill="white"/>
<g filter="url(#filter6_d_607_38)">
<path fill-rule="evenodd" clip-rule="evenodd" d="M238.5 245.617C260.656 245.617 278.617 227.656 278.617 205.5C278.617 183.344 260.656 165.383 238.5 165.383C216.344 165.383 198.383 183.344 198.383 205.5C198.383 227.656 216.344 245.617 238.5 245.617ZM238.5 248C261.972 248 281 228.972 281 205.5C281 182.028 261.972 163 238.5 163C215.028 163 196 182.028 196 205.5C196 228.972 215.028 248 238.5 248Z" fill="black"/>
</g>
<path d="M230.158 203.057C230.158 204.373 229.091 205.44 227.775 205.44C226.459 205.44 225.392 204.373 225.392 203.057C225.392 201.741 226.459 200.674 227.775 200.674C229.091 200.674 230.158 201.741 230.158 203.057Z" fill="black"/>
<path d="M252.402 203.057C252.402 204.373 251.335 205.44 250.018 205.44C248.702 205.44 247.635 204.373 247.635 203.057C247.635 201.741 248.702 200.674 250.018 200.674C251.335 200.674 252.402 201.741 252.402 203.057Z" fill="black"/>
<g filter="url(#filter7_f_607_38)">
<path d="M219.038 213.782C219.038 216.634 216.726 218.946 213.874 218.946C211.022 218.946 208.71 216.634 208.71 213.782C208.71 210.93 211.022 208.619 213.874 208.619C216.726 208.619 219.038 210.93 219.038 213.782Z" fill="#FFCACA"/>
</g>
<g filter="url(#filter8_f_607_38)">
<path d="M268.29 213.782C268.29 216.634 265.978 218.946 263.127 218.946C260.275 218.946 257.963 216.634 257.963 213.782C257.963 210.93 260.275 208.619 263.127 208.619C265.978 208.619 268.29 210.93 268.29 213.782Z" fill="#FFCACA"/>
</g>
<path fill-rule="evenodd" clip-rule="evenodd" d="M228.735 215.213C229.294 214.865 230.028 215.036 230.376 215.595C231.791 217.868 234.317 220.45 237.271 221.183C238.707 221.539 240.275 221.469 241.949 220.677C243.643 219.876 245.513 218.303 247.455 215.539C247.833 215.001 248.577 214.871 249.115 215.25C249.654 215.628 249.783 216.371 249.405 216.91C247.303 219.901 245.141 221.804 242.968 222.832C240.775 223.869 238.642 223.978 236.697 223.496C232.886 222.55 229.923 219.377 228.353 216.854C228.005 216.295 228.176 215.561 228.735 215.213Z" fill="black"/>
<path d="M248.712 179.799C250.859 181.31 250.35 184.625 247.85 185.424L236.006 189.207C233.759 189.925 231.54 188.03 231.898 185.698L233.577 174.756C233.934 172.424 236.618 171.282 238.547 172.64L248.712 179.799Z" fill="#FFBDBD"/>
<path fill-rule="evenodd" clip-rule="evenodd" d="M235.522 187.693L247.366 183.91C248.617 183.511 248.871 181.854 247.798 181.098L237.632 173.939C236.668 173.26 235.326 173.831 235.147 174.997L233.469 185.939C233.29 187.105 234.399 188.052 235.522 187.693ZM247.85 185.424C250.35 184.625 250.859 181.31 248.712 179.799L238.547 172.64C236.618 171.282 233.934 172.424 233.577 174.756L231.898 185.698C231.54 188.03 233.759 189.925 236.006 189.207L247.85 185.424Z" fill="black"/>
<path d="M254.06 186.376C251.914 184.864 252.422 181.55 254.923 180.751L266.767 176.968C269.014 176.25 271.232 178.145 270.874 180.477L269.196 191.419C268.838 193.751 266.154 194.893 264.225 193.535L254.06 186.376Z" fill="#FFBDBD"/>
<path fill-rule="evenodd" clip-rule="evenodd" d="M267.25 178.481L255.406 182.264C254.156 182.664 253.902 184.321 254.975 185.077L265.14 192.236C266.105 192.915 267.447 192.344 267.625 191.178L269.304 180.236C269.483 179.07 268.374 178.123 267.25 178.481ZM254.923 180.751C252.422 181.55 251.914 184.864 254.06 186.376L264.225 193.535C266.154 194.893 268.838 193.751 269.196 191.419L270.874 180.477C271.232 178.145 269.014 176.25 266.767 176.968L254.923 180.751Z" fill="black"/>
<path d="M257.532 183.628C257.033 186.881 253.992 189.113 250.739 188.614C247.487 188.115 245.255 185.074 245.754 181.822C246.253 178.569 249.294 176.337 252.546 176.836C255.798 177.335 258.031 180.376 257.532 183.628Z" fill="#FFBDBD"/>
<path fill-rule="evenodd" clip-rule="evenodd" d="M250.98 187.044C253.365 187.41 255.596 185.773 255.961 183.387C256.327 181.002 254.69 178.772 252.305 178.406C249.92 178.041 247.69 179.677 247.324 182.063C246.958 184.448 248.595 186.678 250.98 187.044ZM250.739 188.614C253.992 189.113 257.033 186.881 257.532 183.628C258.031 180.376 255.798 177.335 252.546 176.836C249.294 176.337 246.253 178.569 245.754 181.822C245.255 185.074 247.487 188.115 250.739 188.614Z" fill="black"/>
<path d="M391 205.5C391 228.972 371.972 248 348.5 248C325.028 248 306 228.972 306 205.5C306 182.028 325.028 163 348.5 163C371.972 163 391 182.028 391 205.5Z" fill="white"/>
<g filter="url(#filter9_d_607_38)">
<path fill-rule="evenodd" clip-rule="evenodd" d="M348.5 245.617C370.656 245.617 388.617 227.656 388.617 205.5C388.617 183.344 370.656 165.383 348.5 165.383C326.344 165.383 308.383 183.344 308.383 205.5C308.383 227.656 326.344 245.617 348.5 245.617ZM348.5 248C371.972 248 391 228.972 391 205.5C391 182.028 371.972 163 348.5 163C325.028 163 306 182.028 306 205.5C306 228.972 325.028 248 348.5 248Z" fill="black"/>
</g>
<path d="M340.159 213.046C340.159 214.362 339.092 215.429 337.776 215.429C336.459 215.429 335.392 214.362 335.392 213.046C335.392 211.73 336.459 210.663 337.776 210.663C339.092 210.663 340.159 211.73 340.159 213.046Z" fill="black"/>
<path d="M362.402 213.046C362.402 214.362 361.335 215.429 360.019 215.429C358.702 215.429 357.635 214.362 357.635 213.046C357.635 211.73 358.702 210.663 360.019 210.663C361.335 210.663 362.402 211.73 362.402 213.046Z" fill="black"/>
<path fill-rule="evenodd" clip-rule="evenodd" d="M338.785 225.214C338.935 225.054 339.145 224.963 339.364 224.963H357.635C358.074 224.963 358.43 225.319 358.43 225.757C358.43 227.257 357.952 229.612 356.508 231.615C355.035 233.658 352.584 235.29 348.777 235.29C344.982 235.29 342.449 233.716 340.86 231.712C339.297 229.742 338.672 227.394 338.572 225.808C338.558 225.589 338.635 225.374 338.785 225.214ZM340.26 226.552C340.48 227.806 341.037 229.379 342.105 230.725C343.404 232.363 345.485 233.701 348.777 233.701C352.056 233.701 354.035 232.329 355.219 230.686C356.198 229.328 356.653 227.755 356.792 226.552H340.26Z" fill="black"/>
<path d="M318.448 175.448C310.478 183.418 306 194.228 306 205.5L320.299 205.5L322.285 194.379L325.065 205.5L348.5 205.5L372.729 205.5L374.318 201.528L376.304 205.5L391 205.5C391 194.228 386.522 183.418 378.552 175.448C370.582 167.478 359.772 163 348.5 163C337.228 163 326.418 167.478 318.448 175.448Z" fill="#474747"/>
<path fill-rule="evenodd" clip-rule="evenodd" d="M376.304 205.5L391 205.5C391 204.969 390.99 204.44 390.97 203.911C390.571 193.217 386.147 183.043 378.552 175.448C370.582 167.478 359.772 163 348.5 163C337.228 163 326.418 167.478 318.448 175.448C310.853 183.043 306.429 193.217 306.03 203.911C306.01 204.44 306 204.969 306 205.5L320.299 205.5L322.285 194.379L325.065 205.5L372.729 205.5L374.318 201.528L376.304 205.5ZM371.653 203.911L372.843 200.938C373.075 200.357 373.627 199.967 374.252 199.941C374.877 199.915 375.459 200.258 375.739 200.818L377.286 203.911L389.38 203.911C388.981 193.638 384.726 183.868 377.429 176.571C369.756 168.899 359.35 164.589 348.5 164.589C337.65 164.589 327.244 168.899 319.571 176.571C312.274 183.868 308.019 193.638 307.62 203.911L318.969 203.911L320.721 194.099C320.853 193.362 321.482 192.816 322.231 192.791C322.98 192.765 323.645 193.266 323.826 193.993L326.306 203.911L371.653 203.911Z" fill="black"/>
<path d="M501 204.706C501 227.739 481.972 246.411 458.5 246.411C435.028 246.411 416 227.739 416 204.706C416 181.672 435.028 163 458.5 163C481.972 163 501 181.672 501 204.706Z" fill="white"/>
<g filter="url(#filter10_d_607_38)">
<path fill-rule="evenodd" clip-rule="evenodd" d="M458.5 245.617C480.656 245.617 498.617 227.656 498.617 205.5C498.617 183.344 480.656 165.383 458.5 165.383C436.344 165.383 418.383 183.344 418.383 205.5C418.383 227.656 436.344 245.617 458.5 245.617ZM458.5 248C481.972 248 501 228.972 501 205.5C501 182.028 481.972 163 458.5 163C435.028 163 416 182.028 416 205.5C416 228.972 435.028 248 458.5 248Z" fill="black"/>
</g>
<path d="M450.158 201.977C450.158 203.269 449.091 204.316 447.775 204.316C446.459 204.316 445.392 203.269 445.392 201.977C445.392 200.686 446.459 199.639 447.775 199.639C449.091 199.639 450.158 200.686 450.158 201.977Z" fill="black"/>
<path d="M472.401 201.977C472.401 203.269 471.335 204.316 470.018 204.316C468.702 204.316 467.635 203.269 467.635 201.977C467.635 200.686 468.702 199.639 470.018 199.639C471.335 199.639 472.401 200.686 472.401 201.977Z" fill="black"/>
<path fill-rule="evenodd" clip-rule="evenodd" d="M463.61 221.183C463.768 221.585 463.565 222.036 463.156 222.192C459.207 223.696 455.321 222.828 453.812 222.179C453.41 222.007 453.227 221.547 453.403 221.152C453.579 220.758 454.048 220.579 454.449 220.751C455.676 221.279 459.117 222.058 462.582 220.739C462.991 220.583 463.451 220.782 463.61 221.183Z" fill="black"/>
<path fill-rule="evenodd" clip-rule="evenodd" d="M470.377 215.613C470.161 216.668 469.114 217.352 468.039 217.14C465.242 216.589 457.506 215.787 449.712 217.148C448.632 217.336 447.601 216.63 447.409 215.57C447.217 214.511 447.937 213.499 449.017 213.31C457.4 211.847 465.648 212.693 468.821 213.318C469.896 213.53 470.593 214.557 470.377 215.613Z" fill="black"/>
<path d="M426.147 194.936C425.081 194.657 424.442 193.58 424.791 192.554C426.303 188.106 428.8 184.033 432.11 180.631C435.421 177.228 439.451 174.593 443.909 172.905C444.938 172.515 446.063 173.092 446.396 174.124C446.729 175.156 446.144 176.251 445.118 176.65C441.3 178.133 437.846 180.412 434.999 183.338C432.153 186.263 429.992 189.755 428.659 193.566C428.301 194.59 427.213 195.215 426.147 194.936Z" fill="#C4C4C4" fill-opacity="0.4"/>
<mask id="path-52-inside-1_607_38" fill="white">
<path fill-rule="evenodd" clip-rule="evenodd" d="M376 26C368.268 26 362 32.268 362 40V58C362 64.7265 366.744 70.3451 373.068 71.6926L371.805 79.065C371.654 79.9431 372.641 80.5648 373.368 80.0503L384.748 72H441C448.732 72 455 65.732 455 58V40C455 32.268 448.732 26 441 26H376Z"/>
</mask>
<path d="M373.068 71.6926L375.04 72.0305L375.364 70.1368L373.485 69.7365L373.068 71.6926ZM371.805 79.065L373.776 79.4028L371.805 79.065ZM373.368 80.0503L374.523 81.683L374.523 81.683L373.368 80.0503ZM384.748 72V70H384.112L383.593 70.3673L384.748 72ZM364 40C364 33.3726 369.373 28 376 28V24C367.163 24 360 31.1634 360 40H364ZM364 58V40H360V58H364ZM373.485 69.7365C368.065 68.5816 364 63.7632 364 58H360C360 65.6899 365.423 72.1085 372.652 73.6487L373.485 69.7365ZM373.776 79.4028L375.04 72.0305L371.097 71.3547L369.834 78.7271L373.776 79.4028ZM372.213 78.4175C372.94 77.903 373.927 78.5247 373.776 79.4028L369.834 78.7271C369.382 81.3614 372.341 83.2266 374.523 81.683L372.213 78.4175ZM383.593 70.3673L372.213 78.4175L374.523 81.683L385.903 73.6327L383.593 70.3673ZM441 70H384.748V74H441V70ZM453 58C453 64.6274 447.627 70 441 70V74C449.837 74 457 66.8366 457 58H453ZM453 40V58H457V40H453ZM441 28C447.627 28 453 33.3726 453 40H457C457 31.1634 449.837 24 441 24V28ZM376 28H441V24H376V28Z" fill="black" mask="url(#path-52-inside-1_607_38)"/>
<path d="M272.984 270.161H274.815V267.422H277.555V265.591H274.815V262.852H272.984V265.591H270.245V267.422H272.984V270.161ZM284.205 261.182H282.125L279.503 262.852V264.8L281.935 263.276H281.993V271.787H284.205V261.182ZM290.782 271.934C293.434 271.934 295.045 269.971 295.045 266.484C295.045 263.02 293.426 261.035 290.782 261.035C288.138 261.035 286.52 263.02 286.52 266.484C286.52 269.956 288.124 271.934 290.782 271.934ZM288.775 266.484C288.775 264.06 289.559 262.844 290.782 262.837C292.005 262.844 292.796 264.06 292.789 266.484C292.796 268.931 292.013 270.117 290.782 270.117C289.552 270.117 288.761 268.931 288.775 266.484ZM296.627 271.787H298.824V268.33H300.729C303.175 268.33 304.581 266.873 304.581 264.756C304.581 262.668 303.197 261.182 300.787 261.182H296.627V271.787ZM298.824 266.558V262.983H300.377C301.681 262.991 302.318 263.701 302.311 264.756C302.318 265.825 301.681 266.558 300.377 266.558H298.824Z" fill="#575757"/>
<mask id="path-55-inside-2_607_38" fill="white">
<path fill-rule="evenodd" clip-rule="evenodd" d="M271.521 248.331C270.821 247.675 269.676 248.058 269.751 248.922L270.088 252.838C266.099 253.291 263 256.677 263 260.787V272.775C263 277.193 266.582 280.775 271 280.775H303C307.418 280.775 311 277.193 311 272.775V260.787C311 256.369 307.418 252.787 303 252.787H276.27L271.521 248.331Z"/>
</mask>
<path d="M269.751 248.922L271.744 248.751V248.751L269.751 248.922ZM271.521 248.331L272.889 246.872V246.872L271.521 248.331ZM270.088 252.838L270.314 254.825L272.248 254.606L272.081 252.666L270.088 252.838ZM276.27 252.787L274.902 254.245L275.479 254.787H276.27V252.787ZM271.744 248.751C271.766 249.011 271.693 249.306 271.512 249.554C271.344 249.783 271.138 249.9 270.98 249.953C270.673 250.056 270.359 249.983 270.152 249.79L272.889 246.872C271.983 246.023 270.747 245.813 269.712 246.16C268.639 246.518 267.627 247.575 267.758 249.094L271.744 248.751ZM272.081 252.666L271.744 248.751L267.758 249.094L268.096 253.01L272.081 252.666ZM265 260.787C265 257.706 267.324 255.165 270.314 254.825L269.863 250.851C264.875 251.417 261 255.648 261 260.787H265ZM265 272.775V260.787H261V272.775H265ZM271 278.775C267.686 278.775 265 276.089 265 272.775H261C261 278.298 265.477 282.775 271 282.775V278.775ZM303 278.775H271V282.775H303V278.775ZM309 272.775C309 276.089 306.314 278.775 303 278.775V282.775C308.523 282.775 313 278.298 313 272.775H309ZM309 260.787V272.775H313V260.787H309ZM303 254.787C306.314 254.787 309 257.473 309 260.787H313C313 255.264 308.523 250.787 303 250.787V254.787ZM276.27 254.787H303V250.787H276.27V254.787ZM270.152 249.79L274.902 254.245L277.638 251.328L272.889 246.872L270.152 249.79Z" fill="#373737" mask="url(#path-55-inside-2_607_38)"/>
<path d="M158.984 270.161H160.815V267.422H163.555V265.591H160.815V262.852H158.984V265.591H156.245V267.422H158.984V270.161ZM170.205 261.182H168.125L165.503 262.852V264.8L167.935 263.276H167.993V271.787H170.205V261.182ZM176.782 271.934C179.434 271.934 181.045 269.971 181.045 266.484C181.045 263.02 179.426 261.035 176.782 261.035C174.138 261.035 172.52 263.02 172.52 266.484C172.52 269.956 174.124 271.934 176.782 271.934ZM174.775 266.484C174.775 264.06 175.559 262.844 176.782 262.837C178.005 262.844 178.796 264.06 178.789 266.484C178.796 268.931 178.013 270.117 176.782 270.117C175.552 270.117 174.761 268.931 174.775 266.484ZM182.627 271.787H184.824V268.33H186.729C189.175 268.33 190.581 266.873 190.581 264.756C190.581 262.668 189.197 261.182 186.787 261.182H182.627V271.787ZM184.824 266.558V262.983H186.377C187.681 262.991 188.318 263.701 188.311 264.756C188.318 265.825 187.681 266.558 186.377 266.558H184.824Z" fill="#575757"/>
<mask id="path-58-inside-3_607_38" fill="white">
<path fill-rule="evenodd" clip-rule="evenodd" d="M157.521 248.331C156.821 247.675 155.676 248.058 155.751 248.922L156.088 252.838C152.099 253.291 149 256.677 149 260.787V272.775C149 277.193 152.582 280.775 157 280.775H189C193.418 280.775 197 277.193 197 272.775V260.787C197 256.369 193.418 252.787 189 252.787H162.27L157.521 248.331Z"/>
</mask>
<path d="M155.751 248.922L157.744 248.751V248.751L155.751 248.922ZM157.521 248.331L158.889 246.872V246.872L157.521 248.331ZM156.088 252.838L156.314 254.825L158.248 254.606L158.081 252.666L156.088 252.838ZM162.27 252.787L160.902 254.245L161.479 254.787H162.27V252.787ZM157.744 248.751C157.766 249.011 157.693 249.306 157.512 249.554C157.344 249.783 157.138 249.9 156.98 249.953C156.673 250.056 156.359 249.983 156.152 249.79L158.889 246.872C157.983 246.023 156.747 245.813 155.712 246.16C154.639 246.518 153.627 247.575 153.758 249.094L157.744 248.751ZM158.081 252.666L157.744 248.751L153.758 249.094L154.096 253.01L158.081 252.666ZM151 260.787C151 257.706 153.324 255.165 156.314 254.825L155.863 250.851C150.875 251.417 147 255.648 147 260.787H151ZM151 272.775V260.787H147V272.775H151ZM157 278.775C153.686 278.775 151 276.089 151 272.775H147C147 278.298 151.477 282.775 157 282.775V278.775ZM189 278.775H157V282.775H189V278.775ZM195 272.775C195 276.089 192.314 278.775 189 278.775V282.775C194.523 282.775 199 278.298 199 272.775H195ZM195 260.787V272.775H199V260.787H195ZM189 254.787C192.314 254.787 195 257.473 195 260.787H199C199 255.264 194.523 250.787 189 250.787V254.787ZM162.27 254.787H189V250.787H162.27V254.787ZM156.152 249.79L160.902 254.245L163.638 251.328L158.889 246.872L156.152 249.79Z" fill="#373737" mask="url(#path-58-inside-3_607_38)"/>
<path d="M497.984 270.161H499.815V267.422H502.555V265.591H499.815V262.852H497.984V265.591H495.245V267.422H497.984V270.161ZM509.205 261.182H507.125L504.503 262.852V264.8L506.935 263.276H506.993V271.787H509.205V261.182ZM515.782 271.934C518.434 271.934 520.045 269.971 520.045 266.484C520.045 263.02 518.426 261.035 515.782 261.035C513.138 261.035 511.52 263.02 511.52 266.484C511.52 269.956 513.124 271.934 515.782 271.934ZM513.775 266.484C513.775 264.06 514.559 262.844 515.782 262.837C517.005 262.844 517.796 264.06 517.789 266.484C517.796 268.931 517.013 270.117 515.782 270.117C514.552 270.117 513.761 268.931 513.775 266.484ZM521.627 271.787H523.824V268.33H525.729C528.175 268.33 529.581 266.873 529.581 264.756C529.581 262.668 528.197 261.182 525.787 261.182H521.627V271.787ZM523.824 266.558V262.983H525.377C526.681 262.991 527.318 263.701 527.311 264.756C527.318 265.825 526.681 266.558 525.377 266.558H523.824Z" fill="#575757"/>
<mask id="path-61-inside-4_607_38" fill="white">
<path fill-rule="evenodd" clip-rule="evenodd" d="M496.521 248.331C495.821 247.675 494.676 248.058 494.751 248.922L495.088 252.838C491.099 253.291 488 256.677 488 260.787V272.775C488 277.193 491.582 280.775 496 280.775H528C532.418 280.775 536 277.193 536 272.775V260.787C536 256.369 532.418 252.787 528 252.787H501.27L496.521 248.331Z"/>
</mask>
<path d="M494.751 248.922L496.744 248.751V248.751L494.751 248.922ZM496.521 248.331L497.889 246.872V246.872L496.521 248.331ZM495.088 252.838L495.314 254.825L497.248 254.606L497.081 252.666L495.088 252.838ZM501.27 252.787L499.902 254.245L500.479 254.787H501.27V252.787ZM496.744 248.751C496.766 249.011 496.693 249.306 496.512 249.554C496.344 249.783 496.138 249.9 495.98 249.953C495.673 250.056 495.359 249.983 495.152 249.79L497.889 246.872C496.983 246.023 495.747 245.813 494.712 246.16C493.639 246.518 492.627 247.575 492.758 249.094L496.744 248.751ZM497.081 252.666L496.744 248.751L492.758 249.094L493.096 253.01L497.081 252.666ZM490 260.787C490 257.706 492.324 255.165 495.314 254.825L494.863 250.851C489.875 251.417 486 255.648 486 260.787H490ZM490 272.775V260.787H486V272.775H490ZM496 278.775C492.686 278.775 490 276.089 490 272.775H486C486 278.298 490.477 282.775 496 282.775V278.775ZM528 278.775H496V282.775H528V278.775ZM534 272.775C534 276.089 531.314 278.775 528 278.775V282.775C533.523 282.775 538 278.298 538 272.775H534ZM534 260.787V272.775H538V260.787H534ZM528 254.787C531.314 254.787 534 257.473 534 260.787H538C538 255.264 533.523 250.787 528 250.787V254.787ZM501.27 254.787H528V250.787H501.27V254.787ZM495.152 249.79L499.902 254.245L502.638 251.328L497.889 246.872L495.152 249.79Z" fill="#373737" mask="url(#path-61-inside-4_607_38)"/>
<path d="M386.984 270.161H388.815V267.422H391.555V265.591H388.815V262.852H386.984V265.591H384.245V267.422H386.984V270.161ZM398.205 261.182H396.125L393.503 262.852V264.8L395.935 263.276H395.993V271.787H398.205V261.182ZM404.782 271.934C407.434 271.934 409.045 269.971 409.045 266.484C409.045 263.02 407.426 261.035 404.782 261.035C402.138 261.035 400.52 263.02 400.52 266.484C400.52 269.956 402.124 271.934 404.782 271.934ZM402.775 266.484C402.775 264.06 403.559 262.844 404.782 262.837C406.005 262.844 406.796 264.06 406.789 266.484C406.796 268.931 406.013 270.117 404.782 270.117C403.552 270.117 402.761 268.931 402.775 266.484ZM410.627 271.787H412.824V268.33H414.729C417.175 268.33 418.581 266.873 418.581 264.756C418.581 262.668 417.197 261.182 414.787 261.182H410.627V271.787ZM412.824 266.558V262.983H414.377C415.681 262.991 416.318 263.701 416.311 264.756C416.318 265.825 415.681 266.558 414.377 266.558H412.824Z" fill="#575757"/>
<mask id="path-64-inside-5_607_38" fill="white">
<path fill-rule="evenodd" clip-rule="evenodd" d="M385.521 248.331C384.821 247.675 383.676 248.058 383.751 248.922L384.088 252.838C380.099 253.291 377 256.677 377 260.787V272.775C377 277.193 380.582 280.775 385 280.775H417C421.418 280.775 425 277.193 425 272.775V260.787C425 256.369 421.418 252.787 417 252.787H390.27L385.521 248.331Z"/>
</mask>
<path d="M383.751 248.922L385.744 248.751V248.751L383.751 248.922ZM385.521 248.331L386.889 246.872V246.872L385.521 248.331ZM384.088 252.838L384.314 254.825L386.248 254.606L386.081 252.666L384.088 252.838ZM390.27 252.787L388.902 254.245L389.479 254.787H390.27V252.787ZM385.744 248.751C385.766 249.011 385.693 249.306 385.512 249.554C385.344 249.783 385.138 249.9 384.98 249.953C384.673 250.056 384.359 249.983 384.152 249.79L386.889 246.872C385.983 246.023 384.747 245.813 383.712 246.16C382.639 246.518 381.627 247.575 381.758 249.094L385.744 248.751ZM386.081 252.666L385.744 248.751L381.758 249.094L382.096 253.01L386.081 252.666ZM379 260.787C379 257.706 381.324 255.165 384.314 254.825L383.863 250.851C378.875 251.417 375 255.648 375 260.787H379ZM379 272.775V260.787H375V272.775H379ZM385 278.775C381.686 278.775 379 276.089 379 272.775H375C375 278.298 379.477 282.775 385 282.775V278.775ZM417 278.775H385V282.775H417V278.775ZM423 272.775C423 276.089 420.314 278.775 417 278.775V282.775C422.523 282.775 427 278.298 427 272.775H423ZM423 260.787V272.775H427V260.787H423ZM417 254.787C420.314 254.787 423 257.473 423 260.787H427C427 255.264 422.523 250.787 417 250.787V254.787ZM390.27 254.787H417V250.787H390.27V254.787ZM384.152 249.79L388.902 254.245L391.638 251.328L386.889 246.872L384.152 249.79Z" fill="#373737" mask="url(#path-64-inside-5_607_38)"/>
<rect x="102" y="341" width="98" height="14" fill="#94D7BB" fill-opacity="0.3"/>
<rect x="219" y="341" width="90" height="14" fill="#94D7BB" fill-opacity="0.3"/>
<rect x="327" y="341" width="41" height="14" fill="#94D7BB" fill-opacity="0.3"/>
<rect x="219" y="364" width="72" height="14" fill="#94D7BB" fill-opacity="0.3"/>
<path d="M106.102 338.906V338.438H104.055V338.906C104.039 340.406 102.383 342.055 99.2266 342.422L99.9766 343.984C102.398 343.664 104.164 342.625 105.078 341.227C105.992 342.625 107.766 343.664 110.18 343.984L110.898 342.422C107.758 342.055 106.102 340.398 106.102 338.906ZM98.5859 346.328H111.555V344.766H98.5859V346.328ZM100.07 349.875C100.07 351.523 101.938 352.453 105.055 352.453C108.125 352.453 109.992 351.523 110.008 349.875C109.992 348.203 108.125 347.289 105.055 347.297C101.938 347.289 100.07 348.203 100.07 349.875ZM102.102 349.875C102.094 349.141 103.086 348.805 105.055 348.797C106.984 348.805 108 349.141 108.008 349.875C108 350.602 106.984 350.938 105.055 350.938C103.086 350.938 102.094 350.602 102.102 349.875ZM124.336 338.219H122.352V352.469H124.336V338.219ZM113.164 341.016H117.898V343.312H113.18V349.141H114.461C117.055 349.141 119.172 349.055 121.508 348.641L121.336 347.031C119.25 347.375 117.414 347.484 115.242 347.5V344.891H119.93V339.406H113.164V341.016ZM137.523 338.234H135.523V348.844H137.523V344.219H139.445V342.594H137.523V338.234ZM126.242 341.297H134.68V339.719H131.461V338.203H129.477V339.719H126.242V341.297ZM126.93 344.547C126.93 346.188 128.391 347.266 130.461 347.266C132.523 347.266 133.961 346.188 133.961 344.547C133.961 342.898 132.523 341.797 130.461 341.797C128.391 341.797 126.93 342.898 126.93 344.547ZM128.305 352.188H138.039V350.594H130.289V348.031H128.305V352.188ZM128.883 344.547C128.875 343.758 129.508 343.32 130.461 343.312C131.422 343.32 132.07 343.758 132.07 344.547C132.07 345.328 131.422 345.75 130.461 345.75C129.508 345.75 128.875 345.328 128.883 344.547ZM155.57 338.609H144.898V340.094H146.742V341.969H144.992V343.453H155.477V341.969H153.711V340.094H155.57V338.609ZM143.758 345.766H156.727V344.203H143.758V345.766ZM145.258 348.016H153.18V348.734H145.273V352.344H155.523V350.875H147.227V350.094H155.148V346.578H145.258V348.016ZM148.742 341.969V340.094H151.711V341.969H148.742ZM163.023 339.641H157.977V341.219H161.102V343.453H157.992V349.109H158.992C160.781 349.094 162.375 349.062 164.242 348.719L164.07 347.094C162.594 347.367 161.289 347.438 159.898 347.453V345.031H163.023V339.641ZM163.617 344.688H165.07V351.75H166.93V338.484H165.07V343.078H163.617V344.688ZM167.992 352.438H169.883V338.219H167.992V352.438ZM183.32 338.219H181.305V352.469H183.32V338.219ZM171.836 344.281C171.828 347.406 173.414 349.359 175.602 349.359C177.742 349.359 179.336 347.406 179.336 344.281C179.336 341.18 177.742 339.219 175.602 339.219C173.414 339.219 171.828 341.18 171.836 344.281ZM173.758 344.281C173.75 342.172 174.492 341.016 175.602 341.016C176.68 341.016 177.406 342.172 177.414 344.281C177.406 346.398 176.68 347.555 175.602 347.547C174.492 347.555 173.75 346.398 173.758 344.281ZM189.164 339.219C187.008 339.219 185.461 341.18 185.477 344.281C185.461 347.406 187.008 349.359 189.164 349.359C191.148 349.359 192.617 347.688 192.828 344.953H195.273V352.469H197.242V338.219H195.273V343.359H192.805C192.523 340.797 191.086 339.219 189.164 339.219ZM187.383 344.281C187.375 342.172 188.102 341.016 189.164 341.016C190.234 341.016 190.945 342.172 190.945 344.281C190.945 346.398 190.234 347.555 189.164 347.547C188.102 347.555 187.375 346.398 187.383 344.281ZM203.398 339.281C201.227 339.297 199.688 340.609 199.695 342.547C199.688 344.297 200.945 345.539 202.789 345.758V348.164C201.445 348.203 200.156 348.211 199.039 348.219L199.242 349.25C201.688 349.266 204.969 349.234 207.914 348.734L207.836 347.812C206.625 347.969 205.32 348.062 204.023 348.117V345.758C205.828 345.523 207.094 344.289 207.102 342.547C207.094 340.609 205.531 339.297 203.398 339.281ZM200.898 342.547C200.883 341.242 201.938 340.352 203.398 340.344C204.836 340.352 205.883 341.242 205.898 342.547C205.883 343.852 204.836 344.758 203.398 344.75C201.938 344.758 200.883 343.852 200.898 342.547ZM208.727 352.266H209.945V345.172H212.211V344.109H209.945V338.375H208.727V352.266ZM228.195 338.219H226.195V345.688H228.195V342.797H230.117V341.172H228.195V338.219ZM216.852 344.344L217.695 345.938C222.016 345.125 224.328 342.938 224.336 339.188H217.555V340.75H222.094C221.891 342.352 220.367 343.766 216.852 344.344ZM218.82 352.281H228.555V350.812H220.82V349.953H228.102V348.531H220.82V347.688H228.242V346.219H218.82V352.281ZM243.711 345.484H230.742V347.078H243.711V345.484ZM232.039 341.562C232.039 343.383 234.094 344.5 237.227 344.5C240.336 344.5 242.391 343.383 242.398 341.562C242.391 339.75 240.336 338.641 237.227 338.656C234.094 338.641 232.039 339.75 232.039 341.562ZM232.305 352.188H242.242V350.594H234.305V348.031H232.305V352.188ZM234.117 341.562C234.102 340.703 235.25 340.234 237.227 340.219C239.188 340.234 240.336 340.703 240.336 341.562C240.336 342.445 239.188 342.891 237.227 342.891C235.25 342.891 234.102 342.445 234.117 341.562ZM255.93 339.031H249.039V346.016H250.258C253.297 346.023 255.109 345.992 257.133 345.641L256.93 344.094C255.133 344.391 253.547 344.43 251.039 344.438V343.266H255.508V341.734H251.039V340.625H255.93V339.031ZM250.633 352.281H260.164V347.25H250.633V352.281ZM252.602 350.688V348.797H258.211V350.688H252.602ZM258.164 346.672H260.164V338.234H258.164V346.672ZM273.742 339.25H266.43V340.875H271.797C271.781 341.727 271.719 342.766 271.461 344.125L273.414 344.312C273.742 342.547 273.742 341.125 273.742 340.141V339.25ZM265.586 345.344L265.758 346.938C268.234 346.93 271.562 346.875 274.523 346.328L274.414 344.891C273.078 345.086 271.633 345.195 270.211 345.258V342.531H268.227V345.32C267.281 345.344 266.383 345.344 265.586 345.344ZM267.68 352.188H277.664V350.594H269.68V347.906H267.68V352.188ZM275.18 348.859H277.227V344.219H278.945V342.547H277.227V338.219H275.18V348.859ZM291.586 338.234H289.602V341.906H287.273V343.516H289.602V348.609H291.586V338.234ZM279.523 345.406L280.539 347.031C282.219 346.477 283.352 345.328 283.984 343.914C284.602 345.188 285.688 346.219 287.258 346.734L288.242 345.156C285.984 344.422 284.969 342.664 284.977 341.016V340.781H287.805V339.188H280.086V340.781H282.945V341C282.938 342.82 281.875 344.672 279.523 345.406ZM282.148 352.188H291.93V350.594H284.148V347.703H282.148V352.188ZM298.68 342.094V341.219H301.539V339.594H293.664V341.219H296.68V342.094C296.664 344.445 295.469 347.086 293.102 348.188L294.258 349.766C295.898 348.992 297.07 347.398 297.703 345.523C298.344 347.227 299.469 348.68 301.055 349.406L302.164 347.844C299.828 346.758 298.672 344.258 298.68 342.094ZM302.648 352.438H304.648V345.312H306.742V343.641H304.648V338.219H302.648V352.438ZM318.633 342.594H310.336V338.891H309.117V343.578H318.633V342.594ZM307.383 346.469H320.102V345.469H307.383V346.469ZM309.039 351.922H318.711V350.906H310.258V347.891H309.039V351.922ZM338.117 349.188H332.555V346.625H336.961V345.062H335.023V341H337.023V339.406H326.117V341H328.086V345.062H326.18V346.625H330.57V349.188H325.102V350.859H338.117V349.188ZM330.086 345.062V341H333.055V345.062H330.086ZM350.836 338.234H348.836V348.453H350.836V338.234ZM339.148 342.719C339.148 344.836 340.852 346.328 343.039 346.328C345.219 346.328 346.922 344.836 346.93 342.719C346.922 340.633 345.219 339.133 343.039 339.141C340.852 339.133 339.148 340.633 339.148 342.719ZM341.102 342.719C341.086 341.562 341.922 340.867 343.039 340.875C344.117 340.867 344.953 341.562 344.961 342.719C344.953 343.906 344.117 344.594 343.039 344.594C341.922 344.594 341.086 343.906 341.102 342.719ZM341.305 352.188H351.211V350.594H343.32V347.422H341.305V352.188ZM364.352 345.562H356.32V343.938H363.914V342.375H356.32V340.875H364.242V339.266H354.289V347.141H364.352V345.562ZM352.758 350.781H365.773V349.156H352.758V350.781ZM379.43 344.828H366.711V345.797H379.43V344.828ZM368.242 347.828H376.617V349.016H368.258V352.078H378.289V351.188H369.492V349.859H377.836V346.906H368.242V347.828ZM368.32 339.688H376.555V340.828H368.367V343.781H378.039V342.891H369.586V341.672H377.789V338.797H368.32V339.688ZM396.164 347.141H387.055V352.078H396.367V351.078H388.289V348.156H396.164V347.141ZM384.789 342.438C384.781 344.359 386.32 345.719 388.398 345.734C390.273 345.719 391.711 344.586 391.953 342.922H394.852V346.359H396.086V338.375H394.852V341.891H391.945C391.68 340.25 390.25 339.133 388.398 339.141C386.32 339.133 384.781 340.5 384.789 342.438ZM385.961 342.438C385.961 341.109 386.977 340.172 388.398 340.188C389.766 340.172 390.805 341.109 390.805 342.438C390.805 343.727 389.766 344.672 388.398 344.672C386.977 344.672 385.961 343.727 385.961 342.438ZM404.727 338.625C401.625 338.625 399.805 339.477 399.805 341.016C399.805 342.594 401.625 343.445 404.727 343.453C407.812 343.445 409.625 342.594 409.633 341.016C409.625 339.477 407.812 338.625 404.727 338.625ZM398.398 345.391H411.055V344.391H398.398V345.391ZM399.93 347.531H408.227V348.797H399.961V352.109H409.852V351.141H401.18V349.703H409.43V346.594H399.93V347.531ZM401.086 341.016C401.07 340.102 402.422 339.555 404.727 339.547C407.031 339.555 408.375 340.102 408.383 341.016C408.375 341.984 407.031 342.516 404.727 342.516C402.422 342.516 401.07 341.984 401.086 341.016ZM423.211 339.672V338.875H421.945V339.672C421.945 341.664 419.406 343.32 416.898 343.672L417.398 344.672C419.562 344.312 421.695 343.133 422.586 341.414C423.477 343.117 425.617 344.312 427.773 344.672L428.273 343.672C425.766 343.32 423.219 341.633 423.211 339.672ZM416.242 347.234H421.945V352.266H423.148V347.234H428.898V346.203H416.242V347.234ZM438.789 347.703V346.938H437.602V347.703C437.586 349.031 436.531 350.516 434.773 351.172L435.398 352.078C436.727 351.578 437.68 350.609 438.18 349.492C438.594 350.656 439.453 351.672 440.805 352.188C442.086 351.648 442.938 350.578 443.367 349.453C443.852 350.617 444.82 351.586 446.211 352.078L446.82 351.172C445.039 350.555 443.984 349.133 443.992 347.703V346.938H442.789V347.703C442.797 348.773 442.094 350.164 440.766 350.984C439.445 350.234 438.781 348.93 438.789 347.703ZM434.414 342.453C434.406 344.359 435.945 345.672 438.055 345.672C440.164 345.672 441.688 344.359 441.695 342.453C441.688 340.516 440.164 339.195 438.055 339.203C435.945 339.195 434.406 340.516 434.414 342.453ZM435.617 342.453C435.602 341.156 436.625 340.234 438.055 340.25C439.469 340.234 440.492 341.156 440.492 342.453C440.492 343.742 439.469 344.648 438.055 344.656C436.625 344.648 435.602 343.742 435.617 342.453ZM444.336 346.328H445.555V338.391H444.336V346.328ZM450.742 346.719H449.523V352.078H458.914V346.719H457.68V348.344H450.742V346.719ZM447.914 345.734H460.57V344.719H447.914V345.734ZM448.633 342.75L449.102 343.734C451.242 343.414 453.367 342.328 454.25 340.766C455.133 342.32 457.25 343.414 459.398 343.734L459.852 342.75C457.406 342.438 454.875 340.898 454.883 339.188V338.531H453.617V339.188C453.617 340.953 451.109 342.414 448.633 342.75ZM450.742 351.094V349.312H457.68V351.094H450.742ZM473.195 338.375H471.977V352.266H473.195V338.375ZM462.648 348.688H463.773C466 348.688 468.195 348.516 470.664 348L470.492 346.953C468.164 347.445 465.977 347.609 463.852 347.625V339.75H462.648V348.688ZM486.32 338.375H485.102V352.297H486.32V344.906H488.648V343.875H486.32V338.375ZM476.18 348.812H477.273C479.914 348.812 481.734 348.734 483.914 348.344L483.758 347.281C481.688 347.664 479.914 347.773 477.398 347.781V340.75H482.664V339.734H476.18V348.812ZM124.945 372.5H119.133V369.297H123.695V368.312H121.523V363.75H123.727V362.734H113.352V363.75H115.555V368.312H113.383V369.297H117.93V372.5H112.227V373.547H124.945V372.5ZM116.773 368.312V363.75H120.32V368.312H116.773ZM137.523 361.391H136.305V371.547H137.523V361.391ZM126.383 365.766C126.375 367.789 127.945 369.195 130.023 369.188C132.102 369.195 133.656 367.789 133.664 365.766C133.656 363.766 132.102 362.367 130.023 362.359C127.945 362.367 126.375 363.766 126.383 365.766ZM127.586 365.766C127.57 364.406 128.617 363.438 130.023 363.438C131.406 363.438 132.461 364.406 132.461 365.766C132.461 367.148 131.406 368.109 130.023 368.109C128.617 368.109 127.57 367.148 127.586 365.766ZM128.555 374.969H137.961V373.938H129.773V370.516H128.555V374.969ZM151.133 368.891H142.773V366.656H150.68V365.672H142.773V363.609H150.977V362.578H141.523V369.891H151.133V368.891ZM139.883 373.453H152.602V372.438H139.883V373.453ZM164.461 361.375H163.242V375.266H164.461V368.062H166.711V367.031H164.461V361.375ZM153.805 371.656L154.492 372.625C159.016 370.391 160.859 366.805 160.867 362.875H154.445V363.906H159.625C159.344 367.195 157.391 369.875 153.805 371.656ZM182.414 361.375H181.195V368.5H182.414V365.547H184.508V364.516H182.414V361.375ZM172.148 367.953H178.57V362.297H172.148V367.953ZM173.039 374.891H173.695C174.602 374.898 175.922 374.836 177.273 374.391L177.086 373.406C176.102 373.734 175.031 373.852 174.227 373.883V369.75H173.039V374.891ZM173.352 366.969V363.297H177.383V366.969H173.352ZM176.789 370.828H183.805V369.891H180.914V368.656H179.711V369.891H176.789V370.828ZM177.711 373.281C177.703 374.484 178.758 375.234 180.289 375.234C181.812 375.234 182.883 374.484 182.898 373.281C182.883 372.078 181.812 371.336 180.289 371.328C178.758 371.336 177.703 372.078 177.711 373.281ZM178.805 373.281C178.805 372.633 179.422 372.211 180.289 372.203C181.156 372.211 181.773 372.633 181.773 373.281C181.773 373.945 181.156 374.375 180.289 374.359C179.422 374.375 178.805 373.945 178.805 373.281ZM191.711 362.281C188.812 362.289 186.633 363.805 186.633 366.094C186.633 368.406 188.812 369.922 191.711 369.906C194.609 369.922 196.789 368.406 196.789 366.094C196.789 363.805 194.609 362.289 191.711 362.281ZM185.383 373.422H198.102V372.391H185.383V373.422ZM187.805 366.094C187.789 364.43 189.469 363.273 191.711 363.281C193.938 363.273 195.602 364.43 195.602 366.094C195.602 367.781 193.938 368.906 191.711 368.906C189.469 368.906 187.789 367.781 187.805 366.094ZM206.242 362.594H199.867V369.078H206.242V367.828H209.492V371.531H210.727V361.391H209.492V363.828H206.242V362.594ZM201.086 368.094V363.609H205.039V368.094H201.086ZM201.742 374.969H211.039V373.938H202.977V370.625H201.742V374.969ZM206.242 366.812V364.859H209.492V366.812H206.242ZM223.398 361.953C220.344 361.953 218.055 363.5 218.055 365.844C218.055 367.984 219.859 369.422 222.398 369.711V372.141H216.914V373.781H229.93V372.141H224.383V369.711C226.938 369.43 228.75 367.992 228.758 365.844C228.75 363.5 226.453 361.953 223.398 361.953ZM220.023 365.844C220.023 364.422 221.406 363.539 223.398 363.547C225.398 363.539 226.781 364.422 226.789 365.844C226.781 367.344 225.398 368.18 223.398 368.188C221.406 368.18 220.023 367.344 220.023 365.844ZM242.242 364.094H234.336V361.391H232.352V365.672H242.242V364.094ZM230.727 368.203H243.742V366.625H230.727V368.203ZM232.211 370.594H240.195V371.406H232.242V375.281H242.617V373.75H234.242V372.844H242.18V369.062H232.211V370.594ZM249.18 362.172C246.938 362.164 245.219 363.617 245.227 365.656C245.219 367.703 246.938 369.148 249.18 369.156C251.438 369.148 253.109 367.703 253.117 365.656C253.109 363.617 251.438 362.164 249.18 362.172ZM244.633 370.938L244.867 372.562C247.352 372.562 250.727 372.539 253.883 371.922L253.727 370.484C250.688 370.914 247.172 370.945 244.633 370.938ZM247.211 365.656C247.203 364.547 248.055 363.891 249.18 363.891C250.312 363.891 251.172 364.547 251.18 365.656C251.172 366.781 250.312 367.43 249.18 367.422C248.055 367.43 247.203 366.781 247.211 365.656ZM254.539 375.469H256.523V361.219H254.539V375.469ZM274.305 361.234H272.414V364.703H271.18V361.484H269.32V369.438H271.18V366.297H272.414V369.906H274.305V361.234ZM262.648 363.75H266.148V364.922H262.664V369.219H263.648C265.758 369.219 267.156 369.18 268.82 368.875L268.648 367.297C267.305 367.539 266.141 367.609 264.586 367.625V366.391H268.07V362.188H262.648V363.75ZM264.523 372.734C264.516 374.422 266.43 375.445 269.445 375.438C272.445 375.445 274.367 374.422 274.383 372.734C274.367 371.07 272.445 370.062 269.445 370.062C266.43 370.062 264.516 371.07 264.523 372.734ZM266.523 372.734C266.508 371.984 267.578 371.586 269.445 371.594C271.297 371.586 272.367 371.984 272.367 372.734C272.367 373.539 271.297 373.922 269.445 373.922C267.578 373.922 266.508 373.539 266.523 372.734ZM283.602 362.062H276.867V363.641H281.469C281.43 364.016 281.344 364.383 281.219 364.734L276.148 364.906L276.43 366.453L280.375 366.164C279.547 367.094 278.211 367.859 276.18 368.406L276.898 369.984C281.695 368.609 283.594 366 283.602 362.062ZM278.07 372.641C278.07 374.414 279.953 375.422 282.992 375.422C285.969 375.422 287.867 374.414 287.867 372.641C287.867 370.859 285.969 369.828 282.992 369.828C279.953 369.828 278.07 370.859 278.07 372.641ZM280.086 372.641C280.086 371.805 281.07 371.391 282.992 371.391C284.859 371.391 285.883 371.805 285.883 372.641C285.883 373.453 284.859 373.906 282.992 373.906C281.07 373.906 280.086 373.453 280.086 372.641ZM285.82 369.609H287.82V361.234H285.82V369.609ZM301.789 361.375H300.602V375.266H301.789V361.375ZM290.055 367.375C290.062 370.328 291.234 372.211 293.039 372.203C294.75 372.211 295.914 370.516 296.031 367.812H297.82V374.562H298.992V361.672H297.82V366.797H296.023C295.867 364.18 294.727 362.555 293.039 362.547C291.234 362.555 290.062 364.422 290.055 367.375ZM291.211 367.375C291.195 365.117 291.914 363.703 293.039 363.703C294.172 363.703 294.891 365.117 294.883 367.375C294.891 369.625 294.172 371.047 293.039 371.031C291.914 371.047 291.195 369.625 291.211 367.375ZM308.602 365.109V362.578H307.352V365.109C307.344 367.672 305.734 370.344 303.695 371.344L304.492 372.328C306.07 371.492 307.375 369.711 307.992 367.633C308.609 369.609 309.914 371.266 311.492 372.078L312.227 371.078C310.211 370.156 308.594 367.625 308.602 365.109ZM310.711 367.125H314.008V375.297H315.227V361.375H314.008V366.125H310.711V367.125ZM333.414 361.375H332.211V367.031H330.211V361.688H329.055V374.547H330.211V368.078H332.211V375.266H333.414V361.375ZM322.258 371.672H323.117C324.648 371.672 326.242 371.57 328.18 371.219L328.023 370.125C326.336 370.469 324.852 370.57 323.477 370.578V363.078H322.258V371.672ZM350.852 361.375H349.617V375.297H350.852V361.375ZM339.914 367.297C339.922 370.258 341.391 372.133 343.461 372.125C345.523 372.133 347.016 370.258 347.008 367.297C347.016 364.344 345.523 362.461 343.461 362.453C341.391 362.461 339.922 364.344 339.914 367.297ZM341.102 367.297C341.102 365.039 342.07 363.555 343.461 363.547C344.859 363.555 345.82 365.039 345.82 367.297C345.82 369.555 344.859 371.039 343.461 371.031C342.07 371.039 341.102 369.555 341.102 367.297ZM365.93 368.547H353.211V369.562H365.93V368.547ZM354.82 362.703H363.055V364.078H354.867V367.344H364.586V366.391H356.086V365H364.289V361.719H354.82V362.703ZM354.945 375.078H364.289V370.828H354.945V375.078ZM356.148 374.078V371.828H363.086V374.078H356.148ZM373.383 361.625C370.281 361.625 368.461 362.477 368.461 364.016C368.461 365.594 370.281 366.445 373.383 366.453C376.469 366.445 378.281 365.594 378.289 364.016C378.281 362.477 376.469 361.625 373.383 361.625ZM367.055 368.391H379.711V367.391H367.055V368.391ZM368.586 370.531H376.883V371.797H368.617V375.109H378.508V374.141H369.836V372.703H378.086V369.594H368.586V370.531ZM369.742 364.016C369.727 363.102 371.078 362.555 373.383 362.547C375.688 362.555 377.031 363.102 377.039 364.016C377.031 364.984 375.688 365.516 373.383 365.516C371.078 365.516 369.727 364.984 369.742 364.016ZM387.805 361.609H386.586V366.172H390.602V367.547H384.898V368.547H397.555V367.547H391.805V366.172H395.898V361.609H394.68V362.938H387.805V361.609ZM386.43 370.641H394.727V371.875H386.461V375.109H396.352V374.141H387.68V372.781H395.93V369.703H386.43V370.641ZM387.805 365.219V363.875H394.68V365.219H387.805ZM409.711 362.672V361.875H408.445V362.672C408.445 364.664 405.906 366.32 403.398 366.672L403.898 367.672C406.062 367.312 408.195 366.133 409.086 364.414C409.977 366.117 412.117 367.312 414.273 367.672L414.773 366.672C412.266 366.32 409.719 364.633 409.711 362.672ZM402.742 370.234H408.445V375.266H409.648V370.234H415.398V369.203H402.742V370.234ZM425.289 370.703V369.938H424.102V370.703C424.086 372.031 423.031 373.516 421.273 374.172L421.898 375.078C423.227 374.578 424.18 373.609 424.68 372.492C425.094 373.656 425.953 374.672 427.305 375.188C428.586 374.648 429.438 373.578 429.867 372.453C430.352 373.617 431.32 374.586 432.711 375.078L433.32 374.172C431.539 373.555 430.484 372.133 430.492 370.703V369.938H429.289V370.703C429.297 371.773 428.594 373.164 427.266 373.984C425.945 373.234 425.281 371.93 425.289 370.703ZM420.914 365.453C420.906 367.359 422.445 368.672 424.555 368.672C426.664 368.672 428.188 367.359 428.195 365.453C428.188 363.516 426.664 362.195 424.555 362.203C422.445 362.195 420.906 363.516 420.914 365.453ZM422.117 365.453C422.102 364.156 423.125 363.234 424.555 363.25C425.969 363.234 426.992 364.156 426.992 365.453C426.992 366.742 425.969 367.648 424.555 367.656C423.125 367.648 422.102 366.742 422.117 365.453ZM430.836 369.328H432.055V361.391H430.836V369.328ZM437.242 369.719H436.023V375.078H445.414V369.719H444.18V371.344H437.242V369.719ZM434.414 368.734H447.07V367.719H434.414V368.734ZM435.133 365.75L435.602 366.734C437.742 366.414 439.867 365.328 440.75 363.766C441.633 365.32 443.75 366.414 445.898 366.734L446.352 365.75C443.906 365.438 441.375 363.898 441.383 362.188V361.531H440.117V362.188C440.117 363.953 437.609 365.414 435.133 365.75ZM437.242 374.094V372.312H444.18V374.094H437.242ZM459.695 361.375H458.477V375.266H459.695V361.375ZM449.148 371.688H450.273C452.5 371.688 454.695 371.516 457.164 371L456.992 369.953C454.664 370.445 452.477 370.609 450.352 370.625V362.75H449.148V371.688ZM472.82 361.375H471.602V375.297H472.82V367.906H475.148V366.875H472.82V361.375ZM462.68 371.812H463.773C466.414 371.812 468.234 371.734 470.414 371.344L470.258 370.281C468.188 370.664 466.414 370.773 463.898 370.781V363.75H469.164V362.734H462.68V371.812Z" fill="black"/>
<defs>
<filter id="filter0_d_607_38" x="240" y="5" width="107.624" height="138" filterUnits="userSpaceOnUse" color-interpolation-filters="sRGB">
<feFlood flood-opacity="0" result="BackgroundImageFix"/>
<feColorMatrix in="SourceAlpha" type="matrix" values="0 0 0 0 0 0 0 0 0 0 0 0 0 0 0 0 0 0 127 0" result="hardAlpha"/>
<feOffset dy="4"/>
<feGaussianBlur stdDeviation="2"/>
<feComposite in2="hardAlpha" operator="out"/>
<feColorMatrix type="matrix" values="0 0 0 0 0 0 0 0 0 0 0 0 0 0 0 0 0 0 0.25 0"/>
<feBlend mode="normal" in2="BackgroundImageFix" result="effect1_dropShadow_607_38"/>
<feBlend mode="normal" in="SourceGraphic" in2="effect1_dropShadow_607_38" result="shape"/>
</filter>
<filter id="filter1_d_607_38" x="229" y="32.9839" width="121.624" height="117.016" filterUnits="userSpaceOnUse" color-interpolation-filters="sRGB">
<feFlood flood-opacity="0" result="BackgroundImageFix"/>
<feColorMatrix in="SourceAlpha" type="matrix" values="0 0 0 0 0 0 0 0 0 0 0 0 0 0 0 0 0 0 127 0" result="hardAlpha"/>
<feMorphology radius="3" operator="dilate" in="SourceAlpha" result="effect1_dropShadow_607_38"/>
<feOffset dx="-4" dy="4"/>
<feGaussianBlur stdDeviation="4"/>
<feComposite in2="hardAlpha" operator="out"/>
<feColorMatrix type="matrix" values="0 0 0 0 0.823529 0 0 0 0 0.705882 0 0 0 0 0.564706 0 0 0 0.25 0"/>
<feBlend mode="normal" in2="BackgroundImageFix" result="effect1_dropShadow_607_38"/>
<feBlend mode="normal" in="SourceGraphic" in2="effect1_dropShadow_607_38" result="shape"/>
</filter>
<filter id="filter2_f_607_38" x="254.897" y="84.7949" width="20.1038" height="20.104" filterUnits="userSpaceOnUse" color-interpolation-filters="sRGB">
<feFlood flood-opacity="0" result="BackgroundImageFix"/>
<feBlend mode="normal" in="SourceGraphic" in2="BackgroundImageFix" result="shape"/>
<feGaussianBlur stdDeviation="2" result="effect1_foregroundBlur_607_38"/>
</filter>
<filter id="filter3_f_607_38" x="312.623" y="84.7949" width="20.1039" height="20.104" filterUnits="userSpaceOnUse" color-interpolation-filters="sRGB">
<feFlood flood-opacity="0" result="BackgroundImageFix"/>
<feBlend mode="normal" in="SourceGraphic" in2="BackgroundImageFix" result="shape"/>
<feGaussianBlur stdDeviation="2" result="effect1_foregroundBlur_607_38"/>
</filter>
<filter id="filter4_f_607_38" x="94.7104" y="203.029" width="18.3271" height="18.3271" filterUnits="userSpaceOnUse" color-interpolation-filters="sRGB">
<feFlood flood-opacity="0" result="BackgroundImageFix"/>
<feBlend mode="normal" in="SourceGraphic" in2="BackgroundImageFix" result="shape"/>
<feGaussianBlur stdDeviation="2" result="effect1_foregroundBlur_607_38"/>
</filter>
<filter id="filter5_f_607_38" x="143.963" y="203.029" width="18.3271" height="18.3271" filterUnits="userSpaceOnUse" color-interpolation-filters="sRGB">
<feFlood flood-opacity="0" result="BackgroundImageFix"/>
<feBlend mode="normal" in="SourceGraphic" in2="BackgroundImageFix" result="shape"/>
<feGaussianBlur stdDeviation="2" result="effect1_foregroundBlur_607_38"/>
</filter>
<filter id="filter6_d_607_38" x="184" y="159" width="101" height="101" filterUnits="userSpaceOnUse" color-interpolation-filters="sRGB">
<feFlood flood-opacity="0" result="BackgroundImageFix"/>
<feColorMatrix in="SourceAlpha" type="matrix" values="0 0 0 0 0 0 0 0 0 0 0 0 0 0 0 0 0 0 127 0" result="hardAlpha"/>
<feOffset dx="-4" dy="4"/>
<feGaussianBlur stdDeviation="4"/>
<feComposite in2="hardAlpha" operator="out"/>
<feColorMatrix type="matrix" values="0 0 0 0 0.823529 0 0 0 0 0.705882 0 0 0 0 0.564706 0 0 0 0.25 0"/>
<feBlend mode="normal" in2="BackgroundImageFix" result="effect1_dropShadow_607_38"/>
<feBlend mode="normal" in="SourceGraphic" in2="effect1_dropShadow_607_38" result="shape"/>
</filter>
<filter id="filter7_f_607_38" x="204.71" y="204.619" width="18.3271" height="18.3271" filterUnits="userSpaceOnUse" color-interpolation-filters="sRGB">
<feFlood flood-opacity="0" result="BackgroundImageFix"/>
<feBlend mode="normal" in="SourceGraphic" in2="BackgroundImageFix" result="shape"/>
<feGaussianBlur stdDeviation="2" result="effect1_foregroundBlur_607_38"/>
</filter>
<filter id="filter8_f_607_38" x="253.963" y="204.619" width="18.3271" height="18.3271" filterUnits="userSpaceOnUse" color-interpolation-filters="sRGB">
<feFlood flood-opacity="0" result="BackgroundImageFix"/>
<feBlend mode="normal" in="SourceGraphic" in2="BackgroundImageFix" result="shape"/>
<feGaussianBlur stdDeviation="2" result="effect1_foregroundBlur_607_38"/>
</filter>
<filter id="filter9_d_607_38" x="294" y="159" width="101" height="101" filterUnits="userSpaceOnUse" color-interpolation-filters="sRGB">
<feFlood flood-opacity="0" result="BackgroundImageFix"/>
<feColorMatrix in="SourceAlpha" type="matrix" values="0 0 0 0 0 0 0 0 0 0 0 0 0 0 0 0 0 0 127 0" result="hardAlpha"/>
<feOffset dx="-4" dy="4"/>
<feGaussianBlur stdDeviation="4"/>
<feComposite in2="hardAlpha" operator="out"/>
<feColorMatrix type="matrix" values="0 0 0 0 0.823529 0 0 0 0 0.705882 0 0 0 0 0.564706 0 0 0 0.25 0"/>
<feBlend mode="normal" in2="BackgroundImageFix" result="effect1_dropShadow_607_38"/>
<feBlend mode="normal" in="SourceGraphic" in2="effect1_dropShadow_607_38" result="shape"/>
</filter>
<filter id="filter10_d_607_38" x="404" y="159" width="101" height="101" filterUnits="userSpaceOnUse" color-interpolation-filters="sRGB">
<feFlood flood-opacity="0" result="BackgroundImageFix"/>
<feColorMatrix in="SourceAlpha" type="matrix" values="0 0 0 0 0 0 0 0 0 0 0 0 0 0 0 0 0 0 127 0" result="hardAlpha"/>
<feOffset dx="-4" dy="4"/>
<feGaussianBlur stdDeviation="4"/>
<feComposite in2="hardAlpha" operator="out"/>
<feColorMatrix type="matrix" values="0 0 0 0 0.823529 0 0 0 0 0.705882 0 0 0 0 0.564706 0 0 0 0.25 0"/>
<feBlend mode="normal" in2="BackgroundImageFix" result="effect1_dropShadow_607_38"/>
<feBlend mode="normal" in="SourceGraphic" in2="effect1_dropShadow_607_38" result="shape"/>
</filter>
</defs>
</svg>
