<svg width="612" height="479" viewBox="0 0 612 479" fill="none" xmlns="http://www.w3.org/2000/svg">
<path d="M290.738 400.004H274.527V401.957H281.617V404.145H284.078V401.957H290.738V400.004ZM275.309 393.383H289.898V391.508H283.883V389.926H281.383V391.508H275.309V393.383ZM276.422 407.484H288.98V405.531H278.902V403.051H276.422V407.484ZM276.656 396.566C276.637 398.344 278.824 399.311 282.633 399.32C286.422 399.311 288.6 398.344 288.609 396.566C288.6 394.799 286.422 393.861 282.633 393.871C278.824 393.861 276.637 394.799 276.656 396.566ZM279.195 396.566C279.186 395.893 280.25 395.6 282.633 395.609C284.986 395.6 286.061 395.893 286.051 396.566C286.061 397.25 284.986 397.533 282.633 397.543C280.25 397.533 279.186 397.25 279.195 396.566ZM301.246 391.41V390.551H298.629V391.41C298.619 393.51 296.48 395.824 292.438 396.332L293.434 398.344C296.5 397.895 298.766 396.449 299.938 394.535C301.1 396.459 303.375 397.895 306.48 398.344L307.457 396.332C303.385 395.824 301.236 393.51 301.246 391.41ZM291.812 401.723H298.648V407.797H301.109V401.723H308.023V399.691H291.812V401.723ZM321.988 400.902C318.229 400.902 315.885 402.172 315.895 404.34C315.885 406.537 318.229 407.816 321.988 407.816C325.689 407.816 327.975 406.537 327.984 404.34C327.975 402.172 325.689 400.902 321.988 400.902ZM314.234 399.496H322.848V391.137H320.348V393.383H316.715V391.137H314.234V399.496ZM316.715 397.523V395.316H320.348V397.523H316.715ZM318.395 404.34C318.375 403.324 319.654 402.846 321.988 402.836C324.293 402.846 325.523 403.324 325.523 404.34C325.523 405.355 324.293 405.883 321.988 405.883C319.654 405.883 318.375 405.355 318.395 404.34ZM325.309 400.512H327.809V396.234H330.211V394.145H327.809V390.023H325.309V400.512ZM334.254 390.922H331.754V399.242H340.211V396.117H343.492V399.75H345.973V390.023H343.492V394.086H340.211V390.922H337.75V393.207H334.254V390.922ZM334.117 407.562H345.973V400.492H343.492V402.133H336.578V400.492H334.117V407.562ZM334.254 397.25V395.121H337.75V397.25H334.254ZM336.578 405.57V404.047H343.492V405.57H336.578ZM359.566 391.859H356.793L353.297 394.086V396.684L356.539 394.652H356.617V406H359.566V391.859Z" fill="black"/>
<g opacity="0.6">
<path d="M219.672 96.925C221.201 96.925 222.44 95.6859 222.44 94.1573C222.44 92.6288 221.201 91.3896 219.672 91.3896C218.143 91.3896 216.904 92.6288 216.904 94.1573C216.904 95.6859 218.143 96.925 219.672 96.925Z" fill="#719DC9"/>
<path d="M319.166 95.8102C320.695 95.8102 321.934 94.5711 321.934 93.0426C321.934 91.514 320.695 90.2749 319.166 90.2749C317.637 90.2749 316.398 91.514 316.398 93.0426C316.398 94.5711 317.637 95.8102 319.166 95.8102Z" fill="#719DC9"/>
<path d="M417.545 95.8102C419.074 95.8102 420.313 94.5711 420.313 93.0426C420.313 91.514 419.074 90.2749 417.545 90.2749C416.016 90.2749 414.777 91.514 414.777 93.0426C414.777 94.5711 416.016 95.8102 417.545 95.8102Z" fill="#719DC9"/>
<path d="M219.672 195.287C221.201 195.287 222.44 194.048 222.44 192.52C222.44 190.991 221.201 189.752 219.672 189.752C218.143 189.752 216.904 190.991 216.904 192.52C216.904 194.048 218.143 195.287 219.672 195.287Z" fill="#719DC9"/>
<path d="M417.545 294.764C419.074 294.764 420.313 293.525 420.313 291.997C420.313 290.468 419.074 289.229 417.545 289.229C416.016 289.229 414.777 290.468 414.777 291.997C414.777 293.525 416.016 294.764 417.545 294.764Z" fill="#719DC9"/>
<path d="M318.051 294.764C319.58 294.764 320.819 293.525 320.819 291.997C320.819 290.468 319.58 289.229 318.051 289.229C316.522 289.229 315.283 290.468 315.283 291.997C315.283 293.525 316.522 294.764 318.051 294.764Z" fill="#719DC9"/>
<path d="M219.672 294.764C221.201 294.764 222.44 293.525 222.44 291.997C222.44 290.468 221.201 289.229 219.672 289.229C218.143 289.229 216.904 290.468 216.904 291.997C216.904 293.525 218.143 294.764 219.672 294.764Z" fill="#719DC9"/>
<path d="M480 42H155V357H480V42Z" fill="#D3EAE0"/>
<path d="M466.184 51.4663H168.816V348.636H466.184V51.4663Z" stroke="#00858C" stroke-width="0.5" stroke-miterlimit="10"/>
<path d="M186.503 51.9438V349.162" stroke="#00858C" stroke-width="0.5" stroke-miterlimit="10"/>
<path d="M203.014 51.9438V349.162" stroke="#00858C" stroke-width="0.5" stroke-miterlimit="10"/>
<path d="M219.525 51.9438V349.162" stroke="#00858C" stroke-width="0.5" stroke-miterlimit="10"/>
<path d="M236.036 51.9438V349.162" stroke="#00858C" stroke-width="0.5" stroke-miterlimit="10"/>
<path d="M252.534 51.9438V349.162" stroke="#00858C" stroke-width="0.5" stroke-miterlimit="10"/>
<path d="M269.045 51.9438V349.162" stroke="#00858C" stroke-width="0.5" stroke-miterlimit="10"/>
<path d="M285.556 51.9438V349.162" stroke="#00858C" stroke-width="0.5" stroke-miterlimit="10"/>
<path d="M302.067 51.9438V349.162" stroke="#00858C" stroke-width="0.5" stroke-miterlimit="10"/>
<path d="M318.566 51.9438V349.162" stroke="#00858C" stroke-width="0.5" stroke-miterlimit="10"/>
<path d="M335.077 51.9438V349.162" stroke="#00858C" stroke-width="0.5" stroke-miterlimit="10"/>
<path d="M351.587 51.9438V349.162" stroke="#00858C" stroke-width="0.5" stroke-miterlimit="10"/>
<path d="M368.098 51.9438V349.162" stroke="#00858C" stroke-width="0.5" stroke-miterlimit="10"/>
<path d="M384.609 51.9438V349.162" stroke="#00858C" stroke-width="0.5" stroke-miterlimit="10"/>
<path d="M401.108 51.9438V349.162" stroke="#00858C" stroke-width="0.5" stroke-miterlimit="10"/>
<path d="M417.619 51.9438V349.162" stroke="#00858C" stroke-width="0.5" stroke-miterlimit="10"/>
<path d="M434.13 51.9438V349.162" stroke="#00858C" stroke-width="0.5" stroke-miterlimit="10"/>
<path d="M450.714 51.9438V349.162" stroke="#00858C" stroke-width="0.5" stroke-miterlimit="10"/>
<path d="M466.135 68.4766H168.865" stroke="#00858C" stroke-width="0.5" stroke-miterlimit="10"/>
<path d="M466.135 84.9844H168.865" stroke="#00858C" stroke-width="0.5" stroke-miterlimit="10"/>
<path d="M466.135 101.48H168.865" stroke="#00858C" stroke-width="0.5" stroke-miterlimit="10"/>
<path d="M466.135 117.988H168.865" stroke="#00858C" stroke-width="0.5" stroke-miterlimit="10"/>
<path d="M466.135 134.497H168.865" stroke="#00858C" stroke-width="0.5" stroke-miterlimit="10"/>
<path d="M466.135 151.004H168.865" stroke="#00858C" stroke-width="0.5" stroke-miterlimit="10"/>
<path d="M466.135 167.5H168.865" stroke="#00858C" stroke-width="0.5" stroke-miterlimit="10"/>
<path d="M466.135 184.008H168.865" stroke="#00858C" stroke-width="0.5" stroke-miterlimit="10"/>
<path d="M466.135 200.517H168.865" stroke="#00858C" stroke-width="0.5" stroke-miterlimit="10"/>
<path d="M466.135 217.024H168.865" stroke="#00858C" stroke-width="0.5" stroke-miterlimit="10"/>
<path d="M466.135 233.533H168.865" stroke="#00858C" stroke-width="0.5" stroke-miterlimit="10"/>
<path d="M466.135 250.028H168.865" stroke="#00858C" stroke-width="0.5" stroke-miterlimit="10"/>
<path d="M466.135 266.537H168.865" stroke="#00858C" stroke-width="0.5" stroke-miterlimit="10"/>
<path d="M466.135 283.044H168.865" stroke="#00858C" stroke-width="0.5" stroke-miterlimit="10"/>
<path d="M466.135 299.552H168.865" stroke="#00858C" stroke-width="0.5" stroke-miterlimit="10"/>
<path d="M466.135 316.048H168.865" stroke="#00858C" stroke-width="0.5" stroke-miterlimit="10"/>
<path d="M466.135 332.63H168.865" stroke="#00858C" stroke-width="0.5" stroke-miterlimit="10"/>
<path d="M319.166 203.37C320.695 203.37 321.934 202.131 321.934 200.602C321.934 199.074 320.695 197.834 319.166 197.834C317.637 197.834 316.398 199.074 316.398 200.602C316.398 202.131 317.637 203.37 319.166 203.37Z" fill="#00858C"/>
<path d="M219.5 105.399C221.029 105.399 222.268 104.182 222.268 102.681C222.268 101.179 221.029 99.9619 219.5 99.9619C217.972 99.9619 216.732 101.179 216.732 102.681C216.732 104.182 217.972 105.399 219.5 105.399Z" fill="#00858C"/>
<path d="M318.994 104.309C320.523 104.309 321.762 103.092 321.762 101.591C321.762 100.089 320.523 98.8721 318.994 98.8721C317.466 98.8721 316.226 100.089 316.226 101.591C316.226 103.092 317.466 104.309 318.994 104.309Z" fill="#00858C"/>
<path d="M417.374 104.309C418.903 104.309 420.142 103.092 420.142 101.591C420.142 100.089 418.903 98.8721 417.374 98.8721C415.845 98.8721 414.606 100.089 414.606 101.591C414.606 103.092 415.845 104.309 417.374 104.309Z" fill="#00858C"/>
<path d="M417.374 201.19C418.903 201.19 420.142 199.973 420.142 198.471C420.142 196.97 418.903 195.752 417.374 195.752C415.845 195.752 414.606 196.97 414.606 198.471C414.606 199.973 415.845 201.19 417.374 201.19Z" fill="#00858C"/>
<path d="M219.5 202.28C221.029 202.28 222.268 201.063 222.268 199.561C222.268 198.06 221.029 196.843 219.5 196.843C217.972 196.843 216.732 198.06 216.732 199.561C216.732 201.063 217.972 202.28 219.5 202.28Z" fill="#00858C"/>
<path d="M417.374 300.238C418.903 300.238 420.142 299.021 420.142 297.519C420.142 296.018 418.903 294.801 417.374 294.801C415.845 294.801 414.606 296.018 414.606 297.519C414.606 299.021 415.845 300.238 417.374 300.238Z" fill="#00858C"/>
<path d="M317.88 300.238C319.409 300.238 320.648 299.021 320.648 297.519C320.648 296.018 319.409 294.801 317.88 294.801C316.351 294.801 315.112 296.018 315.112 297.519C315.112 299.021 316.351 300.238 317.88 300.238Z" fill="#00858C"/>
<path d="M219.5 300.238C221.029 300.238 222.268 299.021 222.268 297.519C222.268 296.018 221.029 294.801 219.5 294.801C217.972 294.801 216.732 296.018 216.732 297.519C216.732 299.021 217.972 300.238 219.5 300.238Z" fill="#00858C"/>
<path d="M321.175 210.118C325.45 210.118 328.916 206.652 328.916 202.378C328.916 198.103 325.45 194.638 321.175 194.638C316.899 194.638 313.434 198.103 313.434 202.378C313.434 206.652 316.899 210.118 321.175 210.118Z" fill="white"/>
<path d="M338.861 193.181C343.136 193.181 346.602 189.716 346.602 185.441C346.602 181.167 343.136 177.702 338.861 177.702C334.586 177.702 331.12 181.167 331.12 185.441C331.12 189.716 334.586 193.181 338.861 193.181Z" fill="white"/>
<path d="M303.488 226.43C307.763 226.43 311.229 222.964 311.229 218.69C311.229 214.415 307.763 210.95 303.488 210.95C299.213 210.95 295.747 214.415 295.747 218.69C295.747 222.964 299.213 226.43 303.488 226.43Z" fill="white"/>
<path d="M286.903 241.076C291.179 241.076 294.644 237.611 294.644 233.336C294.644 229.062 291.179 225.597 286.903 225.597C282.628 225.597 279.162 229.062 279.162 233.336C279.162 237.611 282.628 241.076 286.903 241.076Z" fill="white"/>
<path d="M305.705 176.967C309.98 176.967 313.446 173.501 313.446 169.227C313.446 164.952 309.98 161.487 305.705 161.487C301.43 161.487 297.964 164.952 297.964 169.227C297.964 173.501 301.43 176.967 305.705 176.967Z" fill="white"/>
<path d="M372.03 193.181C376.305 193.181 379.771 189.716 379.771 185.441C379.771 181.167 376.305 177.702 372.03 177.702C367.755 177.702 364.289 181.167 364.289 185.441C364.289 189.716 367.755 193.181 372.03 193.181Z" fill="white"/>
<path d="M321.175 226.43C325.45 226.43 328.916 222.964 328.916 218.69C328.916 214.415 325.45 210.95 321.175 210.95C316.899 210.95 313.434 214.415 313.434 218.69C313.434 222.964 316.899 226.43 321.175 226.43Z" fill="white"/>
<path d="M321.175 193.181C325.45 193.181 328.916 189.716 328.916 185.441C328.916 181.167 325.45 177.702 321.175 177.702C316.899 177.702 313.434 181.167 313.434 185.441C313.434 189.716 316.899 193.181 321.175 193.181Z" fill="#035656"/>
<path d="M338.861 210.118C343.136 210.118 346.602 206.652 346.602 202.378C346.602 198.103 343.136 194.638 338.861 194.638C334.586 194.638 331.12 198.103 331.12 202.378C331.12 206.652 334.586 210.118 338.861 210.118Z" fill="#035656"/>
<path d="M338.861 226.43C343.136 226.43 346.602 222.964 346.602 218.69C346.602 214.415 343.136 210.95 338.861 210.95C334.586 210.95 331.12 214.415 331.12 218.69C331.12 222.964 334.586 226.43 338.861 226.43Z" fill="#035656"/>
<path d="M272.536 257.645C276.811 257.645 280.277 254.18 280.277 249.906C280.277 245.631 276.811 242.166 272.536 242.166C268.261 242.166 264.795 245.631 264.795 249.906C264.795 254.18 268.261 257.645 272.536 257.645Z" fill="#035656"/>
<path d="M355.813 210.118C360.088 210.118 363.554 206.652 363.554 202.378C363.554 198.103 360.088 194.638 355.813 194.638C351.538 194.638 348.072 198.103 348.072 202.378C348.072 206.652 351.538 210.118 355.813 210.118Z" fill="#035656"/>
<path d="M355.813 176.967C360.088 176.967 363.554 173.501 363.554 169.227C363.554 164.952 360.088 161.487 355.813 161.487C351.538 161.487 348.072 164.952 348.072 169.227C348.072 173.501 351.538 176.967 355.813 176.967Z" fill="#035656"/>
<path d="M355.813 226.43C360.088 226.43 363.554 222.964 363.554 218.69C363.554 214.415 360.088 210.95 355.813 210.95C351.538 210.95 348.072 214.415 348.072 218.69C348.072 222.964 351.538 226.43 355.813 226.43Z" fill="#035656"/>
</g>
<g filter="url(#filter0_d_607_34)">
<path d="M370.507 118.066L205.035 126.999C200.454 127.246 196.604 123.598 196.604 119.011L196.604 117.121C196.604 112.533 200.454 108.885 205.035 109.133L370.507 118.066Z" fill="white"/>
<path d="M204.981 110.131L351.957 118.066L204.981 126C200.973 126.217 197.604 123.025 197.604 119.011L197.604 117.121C197.604 113.107 200.973 109.915 204.981 110.131Z" stroke="#155375" stroke-width="2" stroke-linejoin="round"/>
</g>
<g filter="url(#filter1_f_607_34)">
<path d="M229.578 72.0337H239.816" stroke="#155375" stroke-width="3" stroke-linecap="round" stroke-linejoin="round"/>
</g>
<g filter="url(#filter2_f_607_34)">
<path d="M265.111 108.772H275.35" stroke="#155375" stroke-width="3" stroke-linecap="round" stroke-linejoin="round"/>
</g>
<g filter="url(#filter3_f_607_34)">
<path d="M254.873 99.1357H265.111" stroke="#155375" stroke-width="3" stroke-linecap="round" stroke-linejoin="round"/>
</g>
<g filter="url(#filter4_f_607_34)">
<path d="M251.861 89.4995H266.918" stroke="#155375" stroke-width="3" stroke-linecap="round" stroke-linejoin="round"/>
</g>
<g filter="url(#filter5_f_607_34)">
<path d="M234.998 80.4658H245.237" stroke="#155375" stroke-width="3" stroke-linecap="round" stroke-linejoin="round"/>
</g>
<g filter="url(#filter6_d_607_34)">
<mask id="path-75-inside-1_607_34" fill="white">
<path fill-rule="evenodd" clip-rule="evenodd" d="M177.811 80.1682C183.521 69.988 195.306 63 208.916 63C224.753 63 238.116 72.4601 242.317 85.4013C242.793 85.3683 243.274 85.3514 243.76 85.3514C253.906 85.3514 262.131 92.7018 262.131 101.769C262.131 102.459 262.084 103.139 261.991 103.807C266.899 105.047 270.532 109.491 270.532 114.784C270.532 124.163 262.929 131.765 253.55 131.765H150.527V131.744C138.545 131.253 129 122.417 129 111.589C129 100.446 139.109 91.4127 151.578 91.4127C153.59 91.4127 155.54 91.6478 157.397 92.089C158.919 85.0889 165.816 79.8044 174.095 79.8044C175.371 79.8044 176.615 79.93 177.811 80.1682Z"/>
</mask>
<path fill-rule="evenodd" clip-rule="evenodd" d="M177.811 80.1682C183.521 69.988 195.306 63 208.916 63C224.753 63 238.116 72.4601 242.317 85.4013C242.793 85.3683 243.274 85.3514 243.76 85.3514C253.906 85.3514 262.131 92.7018 262.131 101.769C262.131 102.459 262.084 103.139 261.991 103.807C266.899 105.047 270.532 109.491 270.532 114.784C270.532 124.163 262.929 131.765 253.55 131.765H150.527V131.744C138.545 131.253 129 122.417 129 111.589C129 100.446 139.109 91.4127 151.578 91.4127C153.59 91.4127 155.54 91.6478 157.397 92.089C158.919 85.0889 165.816 79.8044 174.095 79.8044C175.371 79.8044 176.615 79.93 177.811 80.1682Z" fill="#D5F3FA"/>
<path d="M177.811 80.1682L177.225 83.1105L179.362 83.5359L180.428 81.6359L177.811 80.1682ZM242.317 85.4013L239.463 86.3275L240.187 88.5564L242.525 88.3941L242.317 85.4013ZM261.991 103.807L259.02 103.396L258.651 106.058L261.257 106.716L261.991 103.807ZM150.527 131.765H147.527V134.765H150.527V131.765ZM150.527 131.744H153.527V128.864L150.65 128.746L150.527 131.744ZM157.397 92.089L156.703 95.0077L159.678 95.7148L160.328 92.7265L157.397 92.089ZM180.428 81.6359C185.569 72.4693 196.311 66 208.916 66V60C194.3 60 181.473 67.5068 175.195 78.7006L180.428 81.6359ZM208.916 66C223.606 66 235.71 74.7627 239.463 86.3275L245.17 84.4751C240.523 70.1575 225.899 60 208.916 60V66ZM243.76 82.3514C243.205 82.3514 242.654 82.3707 242.109 82.4085L242.525 88.3941C242.932 88.3659 243.343 88.3514 243.76 88.3514V82.3514ZM265.131 101.769C265.131 90.7365 255.237 82.3514 243.76 82.3514V88.3514C252.575 88.3514 259.131 94.667 259.131 101.769H265.131ZM264.963 104.219C265.074 103.415 265.131 102.597 265.131 101.769H259.131C259.131 102.321 259.093 102.864 259.02 103.396L264.963 104.219ZM273.532 114.784C273.532 108.085 268.934 102.466 262.726 100.899L261.257 106.716C264.865 107.627 267.532 110.898 267.532 114.784H273.532ZM253.55 134.765C264.586 134.765 273.532 125.82 273.532 114.784H267.532C267.532 122.506 261.272 128.765 253.55 128.765V134.765ZM150.527 134.765H253.55V128.765H150.527V134.765ZM147.527 131.744V131.765H153.527V131.744H147.527ZM126 111.589C126 124.323 137.129 134.198 150.404 134.741L150.65 128.746C139.962 128.309 132 120.511 132 111.589H126ZM151.578 88.4127C137.778 88.4127 126 98.4807 126 111.589H132C132 102.411 140.439 94.4127 151.578 94.4127V88.4127ZM158.09 89.1703C156.007 88.6752 153.824 88.4127 151.578 88.4127V94.4127C153.356 94.4127 155.073 94.6204 156.703 95.0077L158.09 89.1703ZM174.095 76.8044C164.606 76.8044 156.328 82.8848 154.465 91.4514L160.328 92.7265C161.51 87.293 167.026 82.8044 174.095 82.8044V76.8044ZM178.397 77.226C177.008 76.9495 175.568 76.8044 174.095 76.8044V82.8044C175.174 82.8044 176.222 82.9106 177.225 83.1105L178.397 77.226Z" fill="#155375" mask="url(#path-75-inside-1_607_34)"/>
</g>
<path opacity="0.5" d="M150.195 107.615C151.048 106.113 152.258 104.844 153.717 103.92C155.177 102.996 156.841 102.444 158.564 102.315C160.286 102.185 162.014 102.481 163.596 103.177C165.177 103.872 166.563 104.946 167.632 106.303" stroke="#155375" stroke-width="3" stroke-linejoin="round"/>
<path opacity="0.5" d="M243.219 94.6747C243.673 99.6039 242.835 104.566 240.789 109.074C238.744 113.581 235.56 117.479 231.551 120.382" stroke="#155375" stroke-opacity="0.3" stroke-width="5" stroke-linejoin="round"/>
<path opacity="0.5" d="M191.63 88.4996C192.665 86.6569 194.198 85.1429 196.053 84.1309C197.909 83.1189 200.011 82.6498 202.121 82.7774C204.231 82.905 206.262 83.624 207.981 84.8523C209.701 86.0805 211.041 87.7682 211.846 89.7222" stroke="#155375" stroke-width="3" stroke-linejoin="round"/>
<path opacity="0.5" d="M163.53 110.142C166.248 108.083 169.636 107.11 173.033 107.412C176.429 107.715 179.592 109.272 181.903 111.779C184.214 114.287 185.509 117.565 185.535 120.975C185.56 124.385 184.315 127.683 182.042 130.225" stroke="#155375" stroke-opacity="0.7" stroke-width="5" stroke-linejoin="round"/>
<g filter="url(#filter7_d_607_34)">
<path d="M151.928 72.0312H132.446V74.1406H136.284V78.6816H132.563V80.8203H151.811V78.6816H148.12V74.1406H151.928V72.0312ZM130.249 84.9512H154.184V82.7539H130.249V84.9512ZM133.12 89.082H148.413V91.0449H133.149V97.2266H151.899V95.1172H135.874V93.0078H151.167V87.002H133.12V89.082ZM139.038 78.6816V74.1406H145.336V78.6816H139.038ZM176.625 71.2402H173.872V97.5488H176.625V83.8379H180.844V81.4941H176.625V71.2402ZM157.202 75.8691H166.459V80.9961H157.26V91.2793H159.399C164.321 91.25 167.866 91.0742 171.967 90.3125L171.704 88.0566C167.866 88.7598 164.511 88.9209 160.014 88.9355V83.252H169.213V73.6133H157.202V75.8691ZM203.872 71.2695H201.088V86.7969H203.872V71.2695ZM182.631 79.0332C182.646 82.6807 185.605 85.2002 189.633 85.2148C193.647 85.2002 196.606 82.6807 196.606 79.0332C196.606 75.4004 193.647 72.8662 189.633 72.8516C185.605 72.8662 182.646 75.4004 182.631 79.0332ZM185.356 79.0332C185.341 76.7188 187.143 75.21 189.633 75.2246C192.094 75.21 193.881 76.7188 193.881 79.0332C193.881 81.3623 192.094 82.8564 189.633 82.8711C187.143 82.8564 185.341 81.3623 185.356 79.0332ZM186.118 92.3926C186.118 95.5859 189.501 97.4463 195.053 97.4316C200.532 97.4463 203.945 95.5859 203.959 92.3926C203.945 89.1846 200.532 87.3096 195.053 87.3242C189.501 87.3096 186.118 89.1846 186.118 92.3926ZM188.93 92.3926C188.93 90.5176 191.171 89.5068 195.053 89.5215C198.906 89.5068 201.22 90.5176 201.206 92.3926C201.22 94.1943 198.906 95.249 195.053 95.2344C191.171 95.249 188.93 94.1943 188.93 92.3926ZM239.292 86.1523H215.356V88.3789H226.167V92.0996H228.92V88.3789H239.292V86.1523ZM216.586 75.752H237.944V73.6133H228.715V70.9766H225.932V73.6133H216.586V75.752ZM218.315 96.9336H236.684V94.707H221.098V90.3711H218.315V96.9336ZM218.696 80.7324C218.681 83.3398 221.831 84.7607 227.309 84.7461C232.773 84.7607 235.937 83.3398 235.922 80.7324C235.937 78.125 232.773 76.748 227.309 76.748C221.831 76.748 218.681 78.125 218.696 80.7324ZM221.508 80.7324C221.494 79.4141 223.486 78.7402 227.309 78.7402C231.103 78.7402 233.11 79.4141 233.11 80.7324C233.11 82.0508 231.103 82.7246 227.309 82.7246C223.486 82.7246 221.494 82.0508 221.508 80.7324ZM254.731 73.5547V72.1191H251.831V73.5547C251.816 77.085 247.568 80.3076 242.426 80.9961L243.54 83.2812C247.802 82.5928 251.567 80.3662 253.281 77.2754C254.995 80.3662 258.759 82.5928 263.051 83.2812L264.135 80.9961C258.979 80.3076 254.716 77.041 254.731 73.5547ZM241.284 88.1445H251.831V97.4902H254.555V88.1445H265.219V85.8594H241.284V88.1445Z" fill="white"/>
<path d="M151.928 72.0312H154.928V69.0312H151.928V72.0312ZM132.446 72.0312V69.0312H129.446V72.0312H132.446ZM132.446 74.1406H129.446V77.1406H132.446V74.1406ZM136.284 74.1406H139.284V71.1406H136.284V74.1406ZM136.284 78.6816V81.6816H139.284V78.6816H136.284ZM132.563 78.6816V75.6816H129.563V78.6816H132.563ZM132.563 80.8203H129.563V83.8203H132.563V80.8203ZM151.811 80.8203V83.8203H154.811V80.8203H151.811ZM151.811 78.6816H154.811V75.6816H151.811V78.6816ZM148.12 78.6816H145.12V81.6816H148.12V78.6816ZM148.12 74.1406V71.1406H145.12V74.1406H148.12ZM151.928 74.1406V77.1406H154.928V74.1406H151.928ZM130.249 84.9512H127.249V87.9512H130.249V84.9512ZM154.184 84.9512V87.9512H157.184V84.9512H154.184ZM154.184 82.7539H157.184V79.7539H154.184V82.7539ZM130.249 82.7539V79.7539H127.249V82.7539H130.249ZM133.12 89.082H130.12V92.082H133.12V89.082ZM148.413 89.082H151.413V86.082H148.413V89.082ZM148.413 91.0449V94.0449H151.413V91.0449H148.413ZM133.149 91.0449V88.0449H130.149V91.0449H133.149ZM133.149 97.2266H130.149V100.227H133.149V97.2266ZM151.899 97.2266V100.227H154.899V97.2266H151.899ZM151.899 95.1172H154.899V92.1172H151.899V95.1172ZM135.874 95.1172H132.874V98.1172H135.874V95.1172ZM135.874 93.0078V90.0078H132.874V93.0078H135.874ZM151.167 93.0078V96.0078H154.167V93.0078H151.167ZM151.167 87.002H154.167V84.002H151.167V87.002ZM133.12 87.002V84.002H130.12V87.002H133.12ZM139.038 78.6816H136.038V81.6816H139.038V78.6816ZM139.038 74.1406V71.1406H136.038V74.1406H139.038ZM145.336 74.1406H148.336V71.1406H145.336V74.1406ZM145.336 78.6816V81.6816H148.336V78.6816H145.336ZM151.928 69.0312H132.446V75.0312H151.928V69.0312ZM129.446 72.0312V74.1406H135.446V72.0312H129.446ZM132.446 77.1406H136.284V71.1406H132.446V77.1406ZM133.284 74.1406V78.6816H139.284V74.1406H133.284ZM136.284 75.6816H132.563V81.6816H136.284V75.6816ZM129.563 78.6816V80.8203H135.563V78.6816H129.563ZM132.563 83.8203H151.811V77.8203H132.563V83.8203ZM154.811 80.8203V78.6816H148.811V80.8203H154.811ZM151.811 75.6816H148.12V81.6816H151.811V75.6816ZM151.12 78.6816V74.1406H145.12V78.6816H151.12ZM148.12 77.1406H151.928V71.1406H148.12V77.1406ZM154.928 74.1406V72.0312H148.928V74.1406H154.928ZM130.249 87.9512H154.184V81.9512H130.249V87.9512ZM157.184 84.9512V82.7539H151.184V84.9512H157.184ZM154.184 79.7539H130.249V85.7539H154.184V79.7539ZM127.249 82.7539V84.9512H133.249V82.7539H127.249ZM133.12 92.082H148.413V86.082H133.12V92.082ZM145.413 89.082V91.0449H151.413V89.082H145.413ZM148.413 88.0449H133.149V94.0449H148.413V88.0449ZM130.149 91.0449V97.2266H136.149V91.0449H130.149ZM133.149 100.227H151.899V94.2266H133.149V100.227ZM154.899 97.2266V95.1172H148.899V97.2266H154.899ZM151.899 92.1172H135.874V98.1172H151.899V92.1172ZM138.874 95.1172V93.0078H132.874V95.1172H138.874ZM135.874 96.0078H151.167V90.0078H135.874V96.0078ZM154.167 93.0078V87.002H148.167V93.0078H154.167ZM151.167 84.002H133.12V90.002H151.167V84.002ZM130.12 87.002V89.082H136.12V87.002H130.12ZM142.038 78.6816V74.1406H136.038V78.6816H142.038ZM139.038 77.1406H145.336V71.1406H139.038V77.1406ZM142.336 74.1406V78.6816H148.336V74.1406H142.336ZM145.336 75.6816H139.038V81.6816H145.336V75.6816ZM176.625 71.2402H179.625V68.2402H176.625V71.2402ZM173.872 71.2402V68.2402H170.872V71.2402H173.872ZM173.872 97.5488H170.872V100.549H173.872V97.5488ZM176.625 97.5488V100.549H179.625V97.5488H176.625ZM176.625 83.8379V80.8379H173.625V83.8379H176.625ZM180.844 83.8379V86.8379H183.844V83.8379H180.844ZM180.844 81.4941H183.844V78.4941H180.844V81.4941ZM176.625 81.4941H173.625V84.4941H176.625V81.4941ZM157.202 75.8691H154.202V78.8691H157.202V75.8691ZM166.459 75.8691H169.459V72.8691H166.459V75.8691ZM166.459 80.9961V83.9961H169.459V80.9961H166.459ZM157.26 80.9961V77.9961H154.26V80.9961H157.26ZM157.26 91.2793H154.26V94.2793H157.26V91.2793ZM159.399 91.2793V94.2793H159.408L159.417 94.2792L159.399 91.2793ZM171.967 90.3125L172.515 93.2621L175.273 92.75L174.947 89.9642L171.967 90.3125ZM171.704 88.0566L174.683 87.7084L174.312 84.5289L171.163 85.1058L171.704 88.0566ZM160.014 88.9355H157.014V91.9453L160.024 91.9355L160.014 88.9355ZM160.014 83.252V80.252H157.014V83.252H160.014ZM169.213 83.252V86.252H172.213V83.252H169.213ZM169.213 73.6133H172.213V70.6133H169.213V73.6133ZM157.202 73.6133V70.6133H154.202V73.6133H157.202ZM176.625 68.2402H173.872V74.2402H176.625V68.2402ZM170.872 71.2402V97.5488H176.872V71.2402H170.872ZM173.872 100.549H176.625V94.5488H173.872V100.549ZM179.625 97.5488V83.8379H173.625V97.5488H179.625ZM176.625 86.8379H180.844V80.8379H176.625V86.8379ZM183.844 83.8379V81.4941H177.844V83.8379H183.844ZM180.844 78.4941H176.625V84.4941H180.844V78.4941ZM179.625 81.4941V71.2402H173.625V81.4941H179.625ZM157.202 78.8691H166.459V72.8691H157.202V78.8691ZM163.459 75.8691V80.9961H169.459V75.8691H163.459ZM166.459 77.9961H157.26V83.9961H166.459V77.9961ZM154.26 80.9961V91.2793H160.26V80.9961H154.26ZM157.26 94.2793H159.399V88.2793H157.26V94.2793ZM159.417 94.2792C164.407 94.2495 168.157 94.0715 172.515 93.2621L171.42 87.3629C167.575 88.077 164.234 88.2505 159.381 88.2794L159.417 94.2792ZM174.947 89.9642L174.683 87.7084L168.724 88.4049L168.988 90.6608L174.947 89.9642ZM171.163 85.1058C167.58 85.7622 164.429 85.9212 160.004 85.9356L160.024 91.9355C164.594 91.9206 168.151 91.7573 172.244 91.0075L171.163 85.1058ZM163.014 88.9355V83.252H157.014V88.9355H163.014ZM160.014 86.252H169.213V80.252H160.014V86.252ZM172.213 83.252V73.6133H166.213V83.252H172.213ZM169.213 70.6133H157.202V76.6133H169.213V70.6133ZM154.202 73.6133V75.8691H160.202V73.6133H154.202ZM203.872 71.2695H206.872V68.2695H203.872V71.2695ZM201.088 71.2695V68.2695H198.088V71.2695H201.088ZM201.088 86.7969H198.088V89.7969H201.088V86.7969ZM203.872 86.7969V89.7969H206.872V86.7969H203.872ZM182.631 79.0332L179.631 79.0211L179.631 79.0332L179.631 79.0453L182.631 79.0332ZM189.633 85.2148L189.622 88.2148L189.633 88.2149L189.644 88.2148L189.633 85.2148ZM189.633 72.8516L189.644 69.8516L189.633 69.8515L189.622 69.8516L189.633 72.8516ZM185.356 79.0332L188.356 79.0521L188.356 79.0331L188.356 79.0142L185.356 79.0332ZM189.633 75.2246L189.616 78.2246L189.633 78.2247L189.651 78.2246L189.633 75.2246ZM189.633 82.8711L189.616 85.871L189.633 85.8711L189.651 85.871L189.633 82.8711ZM195.053 97.4316L195.061 94.4317L195.053 94.4316L195.045 94.4317L195.053 97.4316ZM203.959 92.3926L206.959 92.4063L206.96 92.3926L206.959 92.3789L203.959 92.3926ZM195.053 87.3242L195.045 90.3242L195.053 90.3242L195.061 90.3242L195.053 87.3242ZM195.053 89.5215L195.042 92.5215L195.053 92.5215L195.065 92.5215L195.053 89.5215ZM201.206 92.3926L198.206 92.3691L198.205 92.3931L198.206 92.417L201.206 92.3926ZM195.053 95.2344L195.065 92.2344L195.053 92.2344L195.042 92.2344L195.053 95.2344ZM203.872 68.2695H201.088V74.2695H203.872V68.2695ZM198.088 71.2695V86.7969H204.088V71.2695H198.088ZM201.088 89.7969H203.872V83.7969H201.088V89.7969ZM206.872 86.7969V71.2695H200.872V86.7969H206.872ZM179.631 79.0453C179.654 84.7062 184.337 88.1956 189.622 88.2148L189.644 82.2149C186.872 82.2048 185.638 80.6551 185.631 79.0212L179.631 79.0453ZM189.644 88.2148C194.915 88.1956 199.606 84.7026 199.606 79.0332H193.606C193.606 80.6587 192.379 82.2048 189.622 82.2149L189.644 88.2148ZM199.606 79.0332C199.606 73.3828 194.92 69.8708 189.644 69.8516L189.622 75.8515C192.374 75.8616 193.606 77.4179 193.606 79.0332H199.606ZM189.622 69.8516C184.332 69.8708 179.654 73.3792 179.631 79.0211L185.631 79.0453C185.638 77.4216 186.878 75.8616 189.644 75.8515L189.622 69.8516ZM188.356 79.0142C188.355 78.8322 188.388 78.7258 188.413 78.6699C188.437 78.6144 188.472 78.5643 188.53 78.5136C188.646 78.4127 188.969 78.2208 189.616 78.2246L189.651 72.2247C187.807 72.2138 185.985 72.7689 184.58 73.9974C183.139 75.2581 182.343 77.057 182.356 79.0522L188.356 79.0142ZM189.651 78.2246C190.273 78.2209 190.584 78.407 190.697 78.5064C190.777 78.5769 190.881 78.6994 190.881 79.0332H196.881C196.881 77.0526 196.092 75.2634 194.663 74.0045C193.268 72.7747 191.454 72.2137 189.615 72.2247L189.651 78.2246ZM190.881 79.0332C190.881 79.2268 190.845 79.3421 190.818 79.4045C190.791 79.4662 190.753 79.5195 190.694 79.5718C190.576 79.6759 190.255 79.8673 189.615 79.8711L189.651 85.871C191.473 85.8602 193.275 85.2973 194.666 84.0683C196.094 82.807 196.881 81.0188 196.881 79.0332H190.881ZM189.651 79.8711C188.987 79.8672 188.654 79.6701 188.534 79.5647C188.474 79.5125 188.439 79.4616 188.414 79.4056C188.389 79.3491 188.355 79.2402 188.356 79.0521L182.356 79.0143C182.343 81.0143 183.137 82.8123 184.577 84.0754C185.977 85.303 187.789 85.8603 189.616 85.871L189.651 79.8711ZM183.118 92.3926C183.118 95.2755 184.739 97.4453 187.038 98.7326C189.203 99.9453 192.017 100.44 195.061 100.432L195.045 94.4317C192.538 94.4383 190.884 94.0097 189.969 93.4976C189.188 93.0601 189.118 92.703 189.118 92.3926H183.118ZM195.045 100.432C198.06 100.44 200.86 99.9432 203.021 98.7326C205.308 97.4521 206.946 95.2918 206.959 92.4063L200.96 92.3788C200.958 92.6867 200.883 93.0533 200.089 93.4976C199.171 94.0119 197.525 94.4382 195.061 94.4317L195.045 100.432ZM206.959 92.3789C206.946 89.4941 205.316 87.3259 203.028 86.0364C200.865 84.8172 198.063 84.3162 195.045 84.3242L195.061 90.3242C197.522 90.3176 199.166 90.7467 200.082 91.2634C200.874 91.7097 200.958 92.0831 200.96 92.4063L206.959 92.3789ZM195.061 84.3242C192.014 84.3162 189.197 84.8151 187.031 86.0364C184.731 87.3327 183.118 89.5104 183.118 92.3926H189.118C189.118 92.0668 189.197 91.703 189.977 91.2634C190.889 90.7489 192.541 90.3176 195.045 90.3242L195.061 84.3242ZM191.93 92.3926C191.93 92.566 191.864 92.7887 191.734 92.9599C191.632 93.0945 191.591 93.066 191.799 92.9696C192.265 92.7533 193.286 92.5148 195.042 92.5215L195.065 86.5215C192.939 86.5135 190.898 86.7731 189.273 87.5272C187.53 88.3363 185.93 89.9353 185.93 92.3926H191.93ZM195.065 92.5215C196.802 92.5149 197.842 92.752 198.329 92.9755C198.55 93.0768 198.515 93.1107 198.413 92.9783C198.28 92.8056 198.204 92.5688 198.206 92.3691L204.205 92.416C204.225 89.9053 202.554 88.3117 200.83 87.5214C199.201 86.7744 197.157 86.5135 195.042 86.5215L195.065 92.5215ZM198.206 92.417C198.204 92.1706 198.298 91.9184 198.428 91.7514C198.527 91.625 198.554 91.664 198.325 91.7694C197.83 91.9973 196.784 92.2409 195.065 92.2344L195.042 98.2344C197.175 98.2425 199.212 97.9661 200.834 97.2199C202.51 96.4484 204.226 94.8786 204.205 92.3682L198.206 92.417ZM195.042 92.2344C193.303 92.241 192.277 91.996 191.803 91.7752C191.587 91.6747 191.62 91.641 191.719 91.7697C191.847 91.9358 191.93 92.1735 191.93 92.3926H185.93C185.93 94.8488 187.572 96.4232 189.269 97.214C190.886 97.9674 192.921 98.2424 195.065 98.2344L195.042 92.2344ZM239.292 86.1523H242.292V83.1523H239.292V86.1523ZM215.356 86.1523V83.1523H212.356V86.1523H215.356ZM215.356 88.3789H212.356V91.3789H215.356V88.3789ZM226.167 88.3789H229.167V85.3789H226.167V88.3789ZM226.167 92.0996H223.167V95.0996H226.167V92.0996ZM228.92 92.0996V95.0996H231.92V92.0996H228.92ZM228.92 88.3789V85.3789H225.92V88.3789H228.92ZM239.292 88.3789V91.3789H242.292V88.3789H239.292ZM216.586 75.752H213.586V78.752H216.586V75.752ZM237.944 75.752V78.752H240.944V75.752H237.944ZM237.944 73.6133H240.944V70.6133H237.944V73.6133ZM228.715 73.6133H225.715V76.6133H228.715V73.6133ZM228.715 70.9766H231.715V67.9766H228.715V70.9766ZM225.932 70.9766V67.9766H222.932V70.9766H225.932ZM225.932 73.6133V76.6133H228.932V73.6133H225.932ZM216.586 73.6133V70.6133H213.586V73.6133H216.586ZM218.315 96.9336H215.315V99.9336H218.315V96.9336ZM236.684 96.9336V99.9336H239.684V96.9336H236.684ZM236.684 94.707H239.684V91.707H236.684V94.707ZM221.098 94.707H218.098V97.707H221.098V94.707ZM221.098 90.3711H224.098V87.3711H221.098V90.3711ZM218.315 90.3711V87.3711H215.315V90.3711H218.315ZM218.696 80.7324L221.696 80.7493L221.696 80.7324L221.696 80.7156L218.696 80.7324ZM227.309 84.7461L227.317 81.7461L227.309 81.7461L227.301 81.7461L227.309 84.7461ZM235.922 80.7324L232.922 80.7156L232.922 80.7324L232.922 80.7493L235.922 80.7324ZM221.508 80.7324L224.508 80.7658L224.508 80.7324L224.508 80.6991L221.508 80.7324ZM239.292 83.1523H215.356V89.1523H239.292V83.1523ZM212.356 86.1523V88.3789H218.356V86.1523H212.356ZM215.356 91.3789H226.167V85.3789H215.356V91.3789ZM223.167 88.3789V92.0996H229.167V88.3789H223.167ZM226.167 95.0996H228.92V89.0996H226.167V95.0996ZM231.92 92.0996V88.3789H225.92V92.0996H231.92ZM228.92 91.3789H239.292V85.3789H228.92V91.3789ZM242.292 88.3789V86.1523H236.292V88.3789H242.292ZM216.586 78.752H237.944V72.752H216.586V78.752ZM240.944 75.752V73.6133H234.944V75.752H240.944ZM237.944 70.6133H228.715V76.6133H237.944V70.6133ZM231.715 73.6133V70.9766H225.715V73.6133H231.715ZM228.715 67.9766H225.932V73.9766H228.715V67.9766ZM222.932 70.9766V73.6133H228.932V70.9766H222.932ZM225.932 70.6133H216.586V76.6133H225.932V70.6133ZM213.586 73.6133V75.752H219.586V73.6133H213.586ZM218.315 99.9336H236.684V93.9336H218.315V99.9336ZM239.684 96.9336V94.707H233.684V96.9336H239.684ZM236.684 91.707H221.098V97.707H236.684V91.707ZM224.098 94.707V90.3711H218.098V94.707H224.098ZM221.098 87.3711H218.315V93.3711H221.098V87.3711ZM215.315 90.3711V96.9336H221.315V90.3711H215.315ZM215.696 80.7156C215.68 83.5619 217.525 85.4484 219.684 86.4459C221.731 87.3915 224.394 87.7539 227.317 87.7461L227.301 81.7461C224.745 81.7529 223.095 81.4122 222.201 80.9992C221.778 80.804 221.66 80.6545 221.656 80.6492C221.655 80.6482 221.659 80.654 221.666 80.6664C221.673 80.679 221.679 80.6945 221.685 80.7117C221.698 80.75 221.696 80.768 221.696 80.7493L215.696 80.7156ZM227.301 87.7461C230.218 87.7539 232.88 87.3911 234.927 86.4465C237.083 85.4518 238.938 83.5675 238.922 80.7156L232.922 80.7493C232.923 80.7665 232.921 80.7473 232.934 80.7084C232.939 80.6909 232.946 80.6753 232.953 80.6626C232.96 80.6502 232.964 80.6445 232.963 80.6457C232.958 80.6522 232.838 80.8028 232.413 80.9986C231.516 81.4126 229.864 81.7529 227.317 81.7461L227.301 87.7461ZM238.922 80.7493C238.938 77.886 237.069 76.0135 234.913 75.0321C232.871 74.1023 230.214 73.748 227.309 73.748V79.748C229.868 79.748 231.525 80.0823 232.427 80.4929C232.853 80.6868 232.97 80.8343 232.97 80.8347C232.97 80.8347 232.97 80.8343 232.969 80.8333C232.968 80.8323 232.967 80.8309 232.966 80.829C232.963 80.8251 232.96 80.8197 232.956 80.8128C232.949 80.7983 232.941 80.7809 232.935 80.7618C232.921 80.7195 232.923 80.6983 232.922 80.7156L238.922 80.7493ZM227.309 73.748C224.398 73.748 221.74 74.102 219.698 75.0326C217.539 76.0169 215.68 77.8916 215.696 80.7493L221.696 80.7156C221.696 80.6968 221.698 80.7169 221.684 80.7585C221.67 80.8006 221.652 80.8268 221.649 80.8313C221.648 80.8321 221.763 80.6855 222.187 80.4923C223.086 80.0826 224.742 79.748 227.309 79.748V73.748ZM224.508 80.6991C224.514 81.2257 224.283 81.6902 224.01 81.9685C223.808 82.174 223.698 82.1633 223.941 82.0804C224.44 81.9095 225.497 81.7402 227.309 81.7402V75.7402C225.298 75.7402 223.447 75.9078 221.998 76.4035C220.637 76.8692 218.479 78.1049 218.508 80.7658L224.508 80.6991ZM227.309 81.7402C229.104 81.7402 230.159 81.909 230.663 82.081C230.907 82.1645 230.807 82.178 230.611 81.9814C230.346 81.7152 230.11 81.2606 230.11 80.7324H236.11C236.11 78.086 233.955 76.865 232.602 76.4029C231.153 75.9084 229.308 75.7402 227.309 75.7402V81.7402ZM230.11 80.7324C230.11 80.2043 230.346 79.7497 230.611 79.4835C230.807 79.2868 230.907 79.3004 230.663 79.3839C230.159 79.5559 229.104 79.7246 227.309 79.7246V85.7246C229.308 85.7246 231.153 85.5564 232.602 85.062C233.955 84.5999 236.11 83.3788 236.11 80.7324H230.11ZM227.309 79.7246C225.497 79.7246 224.44 79.5553 223.941 79.3844C223.698 79.3015 223.808 79.2908 224.01 79.4964C224.283 79.7746 224.514 80.2392 224.508 80.7658L218.508 80.6991C218.479 83.3599 220.637 84.5957 221.998 85.0614C223.447 85.557 225.298 85.7246 227.309 85.7246V79.7246ZM254.731 73.5547L257.731 73.5673V73.5547H254.731ZM254.731 72.1191H257.731V69.1191H254.731V72.1191ZM251.831 72.1191V69.1191H248.831V72.1191H251.831ZM251.831 73.5547L254.831 73.5671V73.5547H251.831ZM242.426 80.9961L242.028 78.0226L237.909 78.5742L239.729 82.31L242.426 80.9961ZM243.54 83.2812L240.843 84.5952L241.818 86.5981L244.018 86.2429L243.54 83.2812ZM253.281 77.2754L255.904 75.8206L253.281 71.089L250.657 75.8206L253.281 77.2754ZM263.051 83.2812L262.576 86.2434L264.798 86.5997L265.762 84.567L263.051 83.2812ZM264.135 80.9961L266.846 82.2818L268.608 78.5667L264.532 78.0225L264.135 80.9961ZM241.284 88.1445H238.284V91.1445H241.284V88.1445ZM251.831 88.1445H254.831V85.1445H251.831V88.1445ZM251.831 97.4902H248.831V100.49H251.831V97.4902ZM254.555 97.4902V100.49H257.555V97.4902H254.555ZM254.555 88.1445V85.1445H251.555V88.1445H254.555ZM265.219 88.1445V91.1445H268.219V88.1445H265.219ZM265.219 85.8594H268.219V82.8594H265.219V85.8594ZM241.284 85.8594V82.8594H238.284V85.8594H241.284ZM257.731 73.5547V72.1191H251.731V73.5547H257.731ZM254.731 69.1191H251.831V75.1191H254.731V69.1191ZM248.831 72.1191V73.5547H254.831V72.1191H248.831ZM248.831 73.5422C248.828 74.0622 248.49 74.9729 247.204 75.9768C245.961 76.9483 244.127 77.7416 242.028 78.0226L242.824 83.9696C245.867 83.5621 248.728 82.3998 250.898 80.7053C253.026 79.0432 254.818 76.5775 254.831 73.5671L248.831 73.5422ZM239.729 82.31L240.843 84.5952L246.237 81.9673L245.123 79.6822L239.729 82.31ZM244.018 86.2429C248.885 85.4568 253.614 82.8611 255.904 78.7302L250.657 75.8206C249.52 77.8713 246.719 79.7288 243.061 80.3196L244.018 86.2429ZM250.657 78.7302C252.949 82.8636 257.681 85.4581 262.576 86.2434L263.526 80.3191C259.838 79.7275 257.04 77.8688 255.904 75.8206L250.657 78.7302ZM265.762 84.567L266.846 82.2818L261.425 79.7103L260.341 81.9955L265.762 84.567ZM264.532 78.0225C262.433 77.7422 260.592 76.941 259.344 75.9631C258.047 74.9466 257.729 74.0434 257.731 73.5673L251.731 73.5421C251.718 76.5523 253.524 79.0256 255.644 80.6861C257.812 82.3852 260.681 83.5615 263.738 83.9697L264.532 78.0225ZM241.284 91.1445H251.831V85.1445H241.284V91.1445ZM248.831 88.1445V97.4902H254.831V88.1445H248.831ZM251.831 100.49H254.555V94.4902H251.831V100.49ZM257.555 97.4902V88.1445H251.555V97.4902H257.555ZM254.555 91.1445H265.219V85.1445H254.555V91.1445ZM268.219 88.1445V85.8594H262.219V88.1445H268.219ZM265.219 82.8594H241.284V88.8594H265.219V82.8594ZM238.284 85.8594V88.1445H244.284V85.8594H238.284Z" fill="black"/>
</g>
<g filter="url(#filter8_d_607_34)">
<g filter="url(#filter9_d_607_34)">
<mask id="path-83-inside-2_607_34" fill="white">
<path fill-rule="evenodd" clip-rule="evenodd" d="M56.501 141.334L59.3235 153.107L67.3058 150.055L68.3701 155.049H72.0952L74.756 161.985L79.8555 158.834C81.1998 162.123 81.9404 165.72 81.9404 169.489C81.9404 185.126 69.1939 197.802 53.4702 197.802C37.7465 197.802 25 185.126 25 169.489C25 153.852 37.7465 141.176 53.4702 141.176C54.494 141.176 55.5052 141.23 56.501 141.334Z"/>
</mask>
<path fill-rule="evenodd" clip-rule="evenodd" d="M56.501 141.334L59.3235 153.107L67.3058 150.055L68.3701 155.049H72.0952L74.756 161.985L79.8555 158.834C81.1998 162.123 81.9404 165.72 81.9404 169.489C81.9404 185.126 69.1939 197.802 53.4702 197.802C37.7465 197.802 25 185.126 25 169.489C25 153.852 37.7465 141.176 53.4702 141.176C54.494 141.176 55.5052 141.23 56.501 141.334Z" fill="#5B5B5B"/>
<path d="M59.3235 153.107L57.3787 153.573L57.9098 155.788L60.0378 154.975L59.3235 153.107ZM56.501 141.334L58.4459 140.868L58.1163 139.493L56.7104 139.345L56.501 141.334ZM67.3058 150.055L69.2619 149.638L68.7747 147.352L66.5916 148.187L67.3058 150.055ZM68.3701 155.049L66.4141 155.465L66.7515 157.049H68.3701V155.049ZM72.0952 155.049L73.9625 154.332L73.4701 153.049H72.0952V155.049ZM74.756 161.985L72.8887 162.701L73.7534 164.955L75.8073 163.686L74.756 161.985ZM79.8555 158.834L81.7068 158.077L80.8133 155.891L78.8042 157.132L79.8555 158.834ZM61.2684 152.64L58.4459 140.868L54.5562 141.801L57.3787 153.573L61.2684 152.64ZM66.5916 148.187L58.6093 151.238L60.0378 154.975L68.0201 151.923L66.5916 148.187ZM70.3262 154.632L69.2619 149.638L65.3498 150.472L66.4141 155.465L70.3262 154.632ZM72.0952 153.049H68.3701V157.049H72.0952V153.049ZM76.6233 161.268L73.9625 154.332L70.2279 155.765L72.8887 162.701L76.6233 161.268ZM78.8042 157.132L73.7047 160.283L75.8073 163.686L80.9068 160.535L78.8042 157.132ZM78.0042 159.59C79.2521 162.644 79.9404 165.984 79.9404 169.489H83.9404C83.9404 165.456 83.1476 161.602 81.7068 158.077L78.0042 159.59ZM79.9404 169.489C79.9404 184.011 68.0998 195.802 53.4702 195.802V199.802C70.288 199.802 83.9404 186.241 83.9404 169.489H79.9404ZM53.4702 195.802C38.8407 195.802 27 184.011 27 169.489H23C23 186.241 36.6524 199.802 53.4702 199.802V195.802ZM27 169.489C27 154.967 38.8407 143.176 53.4702 143.176V139.176C36.6524 139.176 23 152.737 23 169.489H27ZM53.4702 143.176C54.424 143.176 55.3653 143.226 56.2917 143.323L56.7104 139.345C55.6451 139.233 54.5641 139.176 53.4702 139.176V143.176Z" fill="black" mask="url(#path-83-inside-2_607_34)"/>
</g>
<ellipse cx="45.0606" cy="169.474" rx="1.59646" ry="1.66465" fill="#BCBCBC"/>
<ellipse cx="59.9607" cy="169.474" rx="1.59646" ry="1.66465" fill="#BCBCBC"/>
<path d="M46.125 177.797C48.1246 179.891 53.4784 182.822 58.8967 177.797" stroke="#BCBCBC" stroke-width="2" stroke-linecap="round" stroke-linejoin="round"/>
<path d="M34.7394 161.221C34.0853 161.039 33.6871 160.348 33.8948 159.697C34.8167 156.805 36.3423 154.156 38.3672 151.945C40.3781 149.749 42.8247 148.046 45.5299 146.951C46.1708 146.692 46.8859 147.079 47.0932 147.761C47.2924 148.417 46.9465 149.1 46.3319 149.353C43.9911 150.314 41.8737 151.796 40.1298 153.7C38.3833 155.607 37.0603 157.886 36.2479 160.373C36.0381 161.015 35.3858 161.401 34.7394 161.221Z" fill="#C4C4C4" fill-opacity="0.4"/>
<mask id="path-89-inside-3_607_34" fill="white">
<path fill-rule="evenodd" clip-rule="evenodd" d="M94.2114 197.801C110.11 197.801 122.999 184.912 122.999 169.013C122.999 162.925 121.109 157.278 117.884 152.627L121.214 144.197C121.908 142.44 120.003 140.789 118.362 141.726L111.233 145.795C106.466 142.294 100.58 140.226 94.2114 140.226C78.3125 140.226 65.4238 153.114 65.4238 169.013C65.4238 184.912 78.3125 197.801 94.2114 197.801Z"/>
</mask>
<path fill-rule="evenodd" clip-rule="evenodd" d="M94.2114 197.801C110.11 197.801 122.999 184.912 122.999 169.013C122.999 162.925 121.109 157.278 117.884 152.627L121.214 144.197C121.908 142.44 120.003 140.789 118.362 141.726L111.233 145.795C106.466 142.294 100.58 140.226 94.2114 140.226C78.3125 140.226 65.4238 153.114 65.4238 169.013C65.4238 184.912 78.3125 197.801 94.2114 197.801Z" fill="white"/>
<path d="M117.884 152.627L116.023 151.892L115.63 152.888L116.24 153.767L117.884 152.627ZM121.214 144.197L119.354 143.463V143.463L121.214 144.197ZM118.362 141.726L117.371 139.989V139.989L118.362 141.726ZM111.233 145.795L110.049 147.407L111.096 148.176L112.225 147.532L111.233 145.795ZM120.999 169.013C120.999 183.808 109.006 195.801 94.2114 195.801V199.801C111.215 199.801 124.999 186.017 124.999 169.013H120.999ZM116.24 153.767C119.241 158.094 120.999 163.345 120.999 169.013H124.999C124.999 162.504 122.977 156.462 119.527 151.487L116.24 153.767ZM119.354 143.463L116.023 151.892L119.744 153.362L123.074 144.932L119.354 143.463ZM119.354 143.463C119.365 143.456 119.372 143.453 119.374 143.453C119.376 143.452 119.375 143.452 119.372 143.453C119.369 143.454 119.364 143.454 119.359 143.454C119.354 143.454 119.35 143.454 119.346 143.454C119.338 143.453 119.336 143.451 119.338 143.452C119.341 143.454 119.347 143.457 119.354 143.463C119.36 143.468 119.364 143.473 119.366 143.476C119.367 143.479 119.366 143.476 119.363 143.469C119.362 143.465 119.362 143.461 119.361 143.456C119.36 143.451 119.36 143.446 119.361 143.443C119.361 143.44 119.361 143.439 119.361 143.441C119.36 143.443 119.358 143.451 119.354 143.463L123.074 144.932C124.462 141.418 120.652 138.115 117.371 139.989L119.354 143.463ZM112.225 147.532L119.354 143.463L117.371 139.989L110.242 144.058L112.225 147.532ZM94.2114 142.226C100.14 142.226 105.613 144.149 110.049 147.407L112.417 144.183C107.318 140.438 101.02 138.226 94.2114 138.226V142.226ZM67.4238 169.013C67.4238 154.219 79.417 142.226 94.2114 142.226V138.226C77.2079 138.226 63.4238 152.01 63.4238 169.013H67.4238ZM94.2114 195.801C79.417 195.801 67.4238 183.808 67.4238 169.013H63.4238C63.4238 186.017 77.2079 199.801 94.2114 199.801V195.801Z" fill="black" mask="url(#path-89-inside-3_607_34)"/>
<circle cx="86.947" cy="167.359" r="1.61426" fill="black"/>
<circle cx="102.014" cy="167.359" r="1.61426" fill="black"/>
<g filter="url(#filter10_f_607_34)">
<circle cx="77.5312" cy="173.545" r="3.49756" fill="#FFCACA"/>
</g>
<g filter="url(#filter11_f_607_34)">
<circle cx="110.892" cy="173.545" r="3.49756" fill="#FFCACA"/>
</g>
<path d="M87.4734 175.75C89.5831 179.448 95.2317 184.625 100.948 175.75" stroke="black" stroke-width="2" stroke-linecap="round" stroke-linejoin="round"/>
</g>
<rect x="261" y="446" width="178" height="14" fill="#94D7BB" fill-opacity="0.3"/>
<path d="M211.016 443.812H200.75V444.781H202.891V447.469H200.797V448.422H210.969V447.469H208.875V444.781H211.016V443.812ZM199.562 450.578H212.219V449.594H199.562V450.578ZM201.094 452.75H209.391V453.953H201.125V457.109H211.016V456.172H202.344V454.844H210.594V451.828H201.094V452.75ZM204.109 447.469V444.781H207.656V447.469H204.109ZM218.812 444.922H213.828V445.938H217.641V448.703H213.859V453.844H214.781C216.539 453.836 218.133 453.789 220.109 453.438L220.016 452.422C218.164 452.75 216.648 452.797 215.047 452.812V449.719H218.812V444.922ZM219.484 449.391H221.266V456.531H222.422V443.719H221.266V448.391H219.484V449.391ZM224.094 457.266H225.266V443.375H224.094V457.266ZM238.672 443.375H237.438V457.297H238.672V443.375ZM227.734 449.297C227.742 452.258 229.211 454.133 231.281 454.125C233.344 454.133 234.836 452.258 234.828 449.297C234.836 446.344 233.344 444.461 231.281 444.453C229.211 444.461 227.742 446.344 227.734 449.297ZM228.922 449.297C228.922 447.039 229.891 445.555 231.281 445.547C232.68 445.555 233.641 447.039 233.641 449.297C233.641 451.555 232.68 453.039 231.281 453.031C229.891 453.039 228.922 451.555 228.922 449.297ZM244.781 444.453C242.727 444.461 241.289 446.344 241.297 449.297C241.289 452.258 242.727 454.133 244.781 454.125C246.719 454.133 248.109 452.43 248.242 449.703H251.344V457.297H252.562V443.375H251.344V448.688H248.227C248.039 446.086 246.672 444.461 244.781 444.453ZM242.469 449.297C242.477 447.039 243.414 445.555 244.781 445.547C246.141 445.555 247.094 447.039 247.094 449.297C247.094 451.555 246.141 453.039 244.781 453.031C243.414 453.039 242.477 451.555 242.469 449.297ZM270.125 443.219H268.109V457.438H270.125V450.656H271.984V449H270.125V443.219ZM258.578 453.422L258.844 455.047C261.242 455.055 264.508 455.031 267.531 454.469L267.406 453.016C266.352 453.164 265.219 453.258 264.094 453.32V452.172C265.594 451.883 266.594 450.914 266.609 449.594C266.594 448.008 265.141 446.922 263.109 446.922C261.039 446.922 259.602 448.008 259.609 449.594C259.602 450.914 260.586 451.875 262.094 452.172V453.391C260.828 453.422 259.617 453.422 258.578 453.422ZM258.859 446.359H267.297V444.797H264.094V443.297H262.094V444.797H258.859V446.359ZM261.5 449.594C261.492 448.859 262.133 448.445 263.109 448.438C264.055 448.445 264.688 448.859 264.688 449.594C264.688 450.344 264.055 450.75 263.109 450.75C262.133 450.75 261.492 450.344 261.5 449.594ZM279.922 444.375H273.172V451.297H279.922V450.094H282.578V453.578H284.562V443.234H282.578V445.453H279.922V444.375ZM275.094 457.188H284.859V455.594H277.109V452.594H275.094V457.188ZM275.156 449.75V445.953H277.969V449.75H275.156ZM279.922 448.516V447.062H282.578V448.516H279.922ZM298.453 443.375H297.266V457.266H298.453V443.375ZM286.719 449.375C286.727 452.328 287.898 454.211 289.703 454.203C291.414 454.211 292.578 452.516 292.695 449.812H294.484V456.562H295.656V443.672H294.484V448.797H292.688C292.531 446.18 291.391 444.555 289.703 444.547C287.898 444.555 286.727 446.422 286.719 449.375ZM287.875 449.375C287.859 447.117 288.578 445.703 289.703 445.703C290.836 445.703 291.555 447.117 291.547 449.375C291.555 451.625 290.836 453.047 289.703 453.031C288.578 453.047 287.859 451.625 287.875 449.375ZM315.719 443.797H305.844V445.375H313.727C313.711 446.164 313.664 447.094 313.438 448.25H304.25V449.812H317.266V448.25H315.445C315.727 446.82 315.727 445.68 315.719 444.766V443.797ZM305.719 452.359H313.688V453.297H305.734V457.328H316.047V455.797H307.719V454.797H315.656V450.812H305.719V452.359ZM323.328 447.094V446.219H326.188V444.594H318.312V446.219H321.328V447.094C321.312 449.445 320.117 452.086 317.75 453.188L318.906 454.766C320.547 453.992 321.719 452.398 322.352 450.523C322.992 452.227 324.117 453.68 325.703 454.406L326.812 452.844C324.477 451.758 323.32 449.258 323.328 447.094ZM327.297 457.438H329.297V450.312H331.391V448.641H329.297V443.219H327.297V457.438ZM344.75 449.828H332.031V450.797H344.75V449.828ZM333.562 452.828H341.938V454.016H333.578V457.078H343.609V456.188H334.812V454.859H343.156V451.906H333.562V452.828ZM333.641 444.688H341.875V445.828H333.688V448.781H343.359V447.891H334.906V446.672H343.109V443.797H333.641V444.688ZM361.031 443.219H359.031V450.25H361.031V447.516H362.953V445.875H361.031V443.219ZM350.328 449.844H351.547C353.555 449.852 355.734 449.734 358.078 449.266L357.844 447.641C355.883 448.016 354.031 448.172 352.328 448.195V443.844H350.328V449.844ZM351.594 452.391H359.016V453.25H351.625V457.281H361.438V455.688H353.609V454.75H361.031V450.828H351.594V452.391ZM375.562 443.219H373.578V446.234H371.188V447.859H373.578V450.094H371.141V451.734H373.578V457.469H375.562V443.219ZM364.047 445.984H368.484V448.328H364.078V454.281H365.203C367.391 454.289 369.203 454.242 371.328 453.906L371.172 452.281C369.375 452.555 367.82 452.633 366.062 452.648V449.875H370.438V444.406H364.047V445.984ZM390.375 451.062H377.406V452.656H382.875V457.438H384.844V452.656H390.375V451.062ZM378.047 448.672L378.781 450.234C381.258 449.898 383.031 448.836 383.898 447.375C384.758 448.836 386.547 449.898 389.047 450.234L389.766 448.672C386.844 448.32 385.273 446.93 385.07 445.531H389.219V443.969H378.578V445.531H382.727C382.516 446.93 380.922 448.32 378.047 448.672ZM402.781 447.094H394.828V443.719H392.844V448.656H402.781V447.094ZM391.219 451.75H404.234V450.188H391.219V451.75ZM392.719 457.125H402.875V455.531H394.719V452.906H392.719V457.125ZM415.375 451.922C412.367 451.922 410.492 452.938 410.5 454.672C410.492 456.43 412.367 457.453 415.375 457.453C418.336 457.453 420.164 456.43 420.172 454.672C420.164 452.938 418.336 451.922 415.375 451.922ZM409.172 450.797H416.062V444.109H414.062V445.906H411.156V444.109H409.172V450.797ZM411.156 449.219V447.453H414.062V449.219H411.156ZM412.5 454.672C412.484 453.859 413.508 453.477 415.375 453.469C417.219 453.477 418.203 453.859 418.203 454.672C418.203 455.484 417.219 455.906 415.375 455.906C413.508 455.906 412.484 455.484 412.5 454.672ZM418.031 451.609H420.031V448.188H421.953V446.516H420.031V443.219H418.031V451.609ZM425.188 443.938H423.188V450.594H429.953V448.094H432.578V451H434.562V443.219H432.578V446.469H429.953V443.938H427.984V445.766H425.188V443.938ZM425.078 457.25H434.562V451.594H432.578V452.906H427.047V451.594H425.078V457.25ZM425.188 449V447.297H427.984V449H425.188ZM427.047 455.656V454.438H432.578V455.656H427.047Z" fill="black"/>
<defs>
<filter id="filter0_d_607_34" x="192.604" y="109.121" width="181.903" height="25.8901" filterUnits="userSpaceOnUse" color-interpolation-filters="sRGB">
<feFlood flood-opacity="0" result="BackgroundImageFix"/>
<feColorMatrix in="SourceAlpha" type="matrix" values="0 0 0 0 0 0 0 0 0 0 0 0 0 0 0 0 0 0 127 0" result="hardAlpha"/>
<feOffset dy="4"/>
<feGaussianBlur stdDeviation="2"/>
<feComposite in2="hardAlpha" operator="out"/>
<feColorMatrix type="matrix" values="0 0 0 0 0.237847 0 0 0 0 0.371042 0 0 0 0 0.570833 0 0 0 0.25 0"/>
<feBlend mode="normal" in2="BackgroundImageFix" result="effect1_dropShadow_607_34"/>
<feBlend mode="normal" in="SourceGraphic" in2="effect1_dropShadow_607_34" result="shape"/>
</filter>
<filter id="filter1_f_607_34" x="225.078" y="67.5337" width="19.2385" height="9" filterUnits="userSpaceOnUse" color-interpolation-filters="sRGB">
<feFlood flood-opacity="0" result="BackgroundImageFix"/>
<feBlend mode="normal" in="SourceGraphic" in2="BackgroundImageFix" result="shape"/>
<feGaussianBlur stdDeviation="1.5" result="effect1_foregroundBlur_607_34"/>
</filter>
<filter id="filter2_f_607_34" x="260.611" y="104.272" width="19.2385" height="9" filterUnits="userSpaceOnUse" color-interpolation-filters="sRGB">
<feFlood flood-opacity="0" result="BackgroundImageFix"/>
<feBlend mode="normal" in="SourceGraphic" in2="BackgroundImageFix" result="shape"/>
<feGaussianBlur stdDeviation="1.5" result="effect1_foregroundBlur_607_34"/>
</filter>
<filter id="filter3_f_607_34" x="250.373" y="94.6357" width="19.2385" height="9" filterUnits="userSpaceOnUse" color-interpolation-filters="sRGB">
<feFlood flood-opacity="0" result="BackgroundImageFix"/>
<feBlend mode="normal" in="SourceGraphic" in2="BackgroundImageFix" result="shape"/>
<feGaussianBlur stdDeviation="1.5" result="effect1_foregroundBlur_607_34"/>
</filter>
<filter id="filter4_f_607_34" x="247.361" y="84.9995" width="24.0566" height="9" filterUnits="userSpaceOnUse" color-interpolation-filters="sRGB">
<feFlood flood-opacity="0" result="BackgroundImageFix"/>
<feBlend mode="normal" in="SourceGraphic" in2="BackgroundImageFix" result="shape"/>
<feGaussianBlur stdDeviation="1.5" result="effect1_foregroundBlur_607_34"/>
</filter>
<filter id="filter5_f_607_34" x="230.498" y="75.9658" width="19.2385" height="9" filterUnits="userSpaceOnUse" color-interpolation-filters="sRGB">
<feFlood flood-opacity="0" result="BackgroundImageFix"/>
<feBlend mode="normal" in="SourceGraphic" in2="BackgroundImageFix" result="shape"/>
<feGaussianBlur stdDeviation="1.5" result="effect1_foregroundBlur_607_34"/>
</filter>
<filter id="filter6_d_607_34" x="125" y="63" width="149.532" height="76.7656" filterUnits="userSpaceOnUse" color-interpolation-filters="sRGB">
<feFlood flood-opacity="0" result="BackgroundImageFix"/>
<feColorMatrix in="SourceAlpha" type="matrix" values="0 0 0 0 0 0 0 0 0 0 0 0 0 0 0 0 0 0 127 0" result="hardAlpha"/>
<feOffset dy="4"/>
<feGaussianBlur stdDeviation="2"/>
<feComposite in2="hardAlpha" operator="out"/>
<feColorMatrix type="matrix" values="0 0 0 0 0.237847 0 0 0 0 0.371042 0 0 0 0 0.570833 0 0 0 0.25 0"/>
<feBlend mode="normal" in2="BackgroundImageFix" result="effect1_dropShadow_607_34"/>
<feBlend mode="normal" in="SourceGraphic" in2="effect1_dropShadow_607_34" result="shape"/>
</filter>
<filter id="filter7_d_607_34" x="126.249" y="70.9766" width="142.971" height="34.5723" filterUnits="userSpaceOnUse" color-interpolation-filters="sRGB">
<feFlood flood-opacity="0" result="BackgroundImageFix"/>
<feColorMatrix in="SourceAlpha" type="matrix" values="0 0 0 0 0 0 0 0 0 0 0 0 0 0 0 0 0 0 127 0" result="hardAlpha"/>
<feOffset dy="4"/>
<feGaussianBlur stdDeviation="2"/>
<feComposite in2="hardAlpha" operator="out"/>
<feColorMatrix type="matrix" values="0 0 0 0 0 0 0 0 0 0 0 0 0 0 0 0 0 0 0.25 0"/>
<feBlend mode="normal" in2="BackgroundImageFix" result="effect1_dropShadow_607_34"/>
<feBlend mode="normal" in="SourceGraphic" in2="effect1_dropShadow_607_34" result="shape"/>
</filter>
<filter id="filter8_d_607_34" x="19" y="138.226" width="105.999" height="65.5767" filterUnits="userSpaceOnUse" color-interpolation-filters="sRGB">
<feFlood flood-opacity="0" result="BackgroundImageFix"/>
<feColorMatrix in="SourceAlpha" type="matrix" values="0 0 0 0 0 0 0 0 0 0 0 0 0 0 0 0 0 0 127 0" result="hardAlpha"/>
<feOffset dx="-2" dy="2"/>
<feGaussianBlur stdDeviation="2"/>
<feComposite in2="hardAlpha" operator="out"/>
<feColorMatrix type="matrix" values="0 0 0 0 0 0 0 0 0 0 0 0 0 0 0 0 0 0 0.25 0"/>
<feBlend mode="normal" in2="BackgroundImageFix" result="effect1_dropShadow_607_34"/>
<feBlend mode="normal" in="SourceGraphic" in2="effect1_dropShadow_607_34" result="shape"/>
</filter>
<filter id="filter9_d_607_34" x="10" y="134.176" width="78.9404" height="78.6265" filterUnits="userSpaceOnUse" color-interpolation-filters="sRGB">
<feFlood flood-opacity="0" result="BackgroundImageFix"/>
<feColorMatrix in="SourceAlpha" type="matrix" values="0 0 0 0 0 0 0 0 0 0 0 0 0 0 0 0 0 0 127 0" result="hardAlpha"/>
<feMorphology radius="3" operator="dilate" in="SourceAlpha" result="effect1_dropShadow_607_34"/>
<feOffset dx="-4" dy="4"/>
<feGaussianBlur stdDeviation="4"/>
<feComposite in2="hardAlpha" operator="out"/>
<feColorMatrix type="matrix" values="0 0 0 0 0.823529 0 0 0 0 0.705882 0 0 0 0 0.564706 0 0 0 0.25 0"/>
<feBlend mode="normal" in2="BackgroundImageFix" result="effect1_dropShadow_607_34"/>
<feBlend mode="normal" in="SourceGraphic" in2="effect1_dropShadow_607_34" result="shape"/>
</filter>
<filter id="filter10_f_607_34" x="70.0337" y="166.047" width="14.9951" height="14.9951" filterUnits="userSpaceOnUse" color-interpolation-filters="sRGB">
<feFlood flood-opacity="0" result="BackgroundImageFix"/>
<feBlend mode="normal" in="SourceGraphic" in2="BackgroundImageFix" result="shape"/>
<feGaussianBlur stdDeviation="2" result="effect1_foregroundBlur_607_34"/>
</filter>
<filter id="filter11_f_607_34" x="103.395" y="166.047" width="14.9951" height="14.9951" filterUnits="userSpaceOnUse" color-interpolation-filters="sRGB">
<feFlood flood-opacity="0" result="BackgroundImageFix"/>
<feBlend mode="normal" in="SourceGraphic" in2="BackgroundImageFix" result="shape"/>
<feGaussianBlur stdDeviation="2" result="effect1_foregroundBlur_607_34"/>
</filter>
</defs>
</svg>
