<svg width="100" height="100" viewBox="0 0 100 100" fill="none" xmlns="http://www.w3.org/2000/svg">
<path d="M100 50C100 77.6142 77.6142 100 50 100C22.3858 100 0 77.6142 0 50C0 22.3858 22.3858 0 50 0C77.6142 0 100 22.3858 100 50Z" fill="white"/>
<path fill-rule="evenodd" clip-rule="evenodd" d="M50 97.1963C76.0658 97.1963 97.1963 76.0658 97.1963 50C97.1963 23.9342 76.0658 2.80374 50 2.80374C23.9342 2.80374 2.80374 23.9342 2.80374 50C2.80374 76.0658 23.9342 97.1963 50 97.1963ZM50 100C77.6142 100 100 77.6142 100 50C100 22.3858 77.6142 0 50 0C22.3858 0 0 22.3858 0 50C0 77.6142 22.3858 100 50 100Z" fill="black"/>
<path d="M40.1866 47.127C40.1866 48.6754 38.9313 49.9307 37.3828 49.9307C35.8344 49.9307 34.5791 48.6754 34.5791 47.127C34.5791 45.5785 35.8344 44.3232 37.3828 44.3232C38.9313 44.3232 40.1866 45.5785 40.1866 47.127Z" fill="black"/>
<path d="M66.355 47.127C66.355 48.6754 65.0998 49.9307 63.5513 49.9307C62.0028 49.9307 60.7476 48.6754 60.7476 47.127C60.7476 45.5785 62.0028 44.3232 63.5513 44.3232C65.0998 44.3232 66.355 45.5785 66.355 47.127Z" fill="black"/>
<g filter="url(#filter0_f_495_133)">
<path d="M27.1031 59.7437C27.1031 63.0987 24.3834 65.8185 21.0284 65.8185C17.6734 65.8185 14.9536 63.0987 14.9536 59.7437C14.9536 56.3887 17.6734 53.6689 21.0284 53.6689C24.3834 53.6689 27.1031 56.3887 27.1031 59.7437Z" fill="#FFCACA"/>
</g>
<g filter="url(#filter1_f_495_133)">
<path d="M85.047 59.7437C85.047 63.0987 82.3272 65.8185 78.9722 65.8185C75.6172 65.8185 72.8975 63.0987 72.8975 59.7437C72.8975 56.3887 75.6172 53.6689 78.9722 53.6689C82.3272 53.6689 85.047 56.3887 85.047 59.7437Z" fill="#FFCACA"/>
</g>
<path fill-rule="evenodd" clip-rule="evenodd" d="M38.5119 61.4267C39.1692 61.0176 40.0337 61.2188 40.4428 61.8761C42.1073 64.5503 45.0791 67.5877 48.5537 68.4499C50.244 68.8693 52.0889 68.7867 54.058 67.8556C56.051 66.9132 58.2505 65.0625 60.5356 61.8109C60.9807 61.1774 61.8551 61.0248 62.4886 61.4699C63.122 61.9151 63.2747 62.7895 62.8295 63.4229C60.3567 66.9417 57.8126 69.1816 55.2565 70.3902C52.6766 71.6101 50.1673 71.739 47.8785 71.1711C43.3951 70.0586 39.9098 66.3256 38.0625 63.3577C37.6534 62.7004 37.8546 61.8359 38.5119 61.4267Z" fill="black"/>
<path d="M62.0149 19.7632C64.5399 21.5415 63.9418 25.441 60.9998 26.3807L47.0659 30.8314C44.4222 31.6758 41.8126 29.4467 42.2334 26.7035L44.208 13.8304C44.6288 11.0872 47.7866 9.74274 50.0556 11.3407L62.0149 19.7632Z" fill="#FFBDBD"/>
<path fill-rule="evenodd" clip-rule="evenodd" d="M46.4972 29.0508L60.4311 24.6001C61.9021 24.1303 62.2012 22.1805 60.9386 21.2914L48.9794 12.869C47.8448 12.0699 46.2659 12.7422 46.0555 14.1138L44.0809 26.9869C43.8705 28.3585 45.1754 29.473 46.4972 29.0508ZM60.9998 26.3807C63.9418 25.441 64.5399 21.5415 62.0149 19.7632L50.0556 11.3407C47.7866 9.74274 44.6288 11.0872 44.208 13.8304L42.2334 26.7035C41.8126 29.4467 44.4222 31.6758 47.0659 30.8314L60.9998 26.3807Z" fill="black"/>
<path d="M68.3059 27.5005C65.7809 25.7222 66.379 21.8227 69.321 20.883L83.2549 16.4323C85.8986 15.5879 88.5082 17.817 88.0874 20.5602L86.1128 33.4333C85.692 36.1765 82.5342 37.5209 80.2652 35.9229L68.3059 27.5005Z" fill="#FFBDBD"/>
<path fill-rule="evenodd" clip-rule="evenodd" d="M83.8236 18.2129L69.8897 22.6635C68.4187 23.1334 68.1196 25.0831 69.3822 25.9723L81.3414 34.3947C82.476 35.1937 84.0549 34.5215 84.2653 33.1499L86.2399 20.2768C86.4503 18.9052 85.1454 17.7906 83.8236 18.2129ZM69.321 20.883C66.379 21.8227 65.7809 25.7222 68.3059 27.5005L80.2652 35.9229C82.5342 37.5209 85.692 36.1765 86.1128 33.4333L88.0874 20.5602C88.5082 17.817 85.8986 15.5879 83.2549 16.4323L69.321 20.883Z" fill="black"/>
<path d="M72.3901 24.2686C71.8031 28.095 68.2254 30.7211 64.399 30.1342C60.5726 29.5473 57.9465 25.9696 58.5335 22.1432C59.1204 18.3168 62.6981 15.6906 66.5245 16.2776C70.3509 16.8645 72.977 20.4422 72.3901 24.2686Z" fill="#FFBDBD"/>
<path fill-rule="evenodd" clip-rule="evenodd" d="M64.6824 28.2867C67.4885 28.7171 70.1121 26.7913 70.5425 23.9852C70.9729 21.1792 69.0471 18.5555 66.2411 18.1251C63.4351 17.6947 60.8114 19.6205 60.381 22.4266C59.9506 25.2326 61.8764 27.8562 64.6824 28.2867ZM64.399 30.1342C68.2254 30.7211 71.8031 28.095 72.3901 24.2686C72.977 20.4422 70.3509 16.8645 66.5245 16.2776C62.6981 15.6906 59.1204 18.3168 58.5335 22.1432C57.9465 25.9696 60.5726 29.5473 64.399 30.1342Z" fill="black"/>
<defs>
<filter id="filter0_f_495_133" x="10.9536" y="49.6689" width="20.1494" height="20.1494" filterUnits="userSpaceOnUse" color-interpolation-filters="sRGB">
<feFlood flood-opacity="0" result="BackgroundImageFix"/>
<feBlend mode="normal" in="SourceGraphic" in2="BackgroundImageFix" result="shape"/>
<feGaussianBlur stdDeviation="2" result="effect1_foregroundBlur_495_133"/>
</filter>
<filter id="filter1_f_495_133" x="68.8975" y="49.6689" width="20.1494" height="20.1494" filterUnits="userSpaceOnUse" color-interpolation-filters="sRGB">
<feFlood flood-opacity="0" result="BackgroundImageFix"/>
<feBlend mode="normal" in="SourceGraphic" in2="BackgroundImageFix" result="shape"/>
<feGaussianBlur stdDeviation="2" result="effect1_foregroundBlur_495_133"/>
</filter>
</defs>
</svg>
