<svg width="100" height="100" viewBox="0 0 100 100" fill="none" xmlns="http://www.w3.org/2000/svg">
<circle cx="50" cy="50" r="48.5" fill="#5B5B5B" stroke="black" stroke-width="3"/>
<circle cx="37.3828" cy="45.7949" r="2.80374" fill="#BCBCBC"/>
<circle cx="63.5513" cy="45.7949" r="2.80374" fill="#BCBCBC"/>
<path d="M61.6821 67.2139C58.1704 63.6876 48.7679 58.7508 39.2522 67.2139" stroke="#BCBCBC" stroke-width="3" stroke-linecap="round" stroke-linejoin="round"/>
<path d="M27.5476 17.4368C27.3275 18.2583 26.9477 19.0284 26.4299 19.7032C25.9122 20.378 25.2666 20.9442 24.53 21.3694C23.7934 21.7947 22.9803 22.0707 22.137 22.1817C21.2938 22.2927 20.4369 22.2366 19.6154 22.0164" stroke="#BCBCBC" stroke-width="2"/>
<path d="M27.5915 35.8318C27.8117 35.0102 28.1915 34.2401 28.7092 33.5653C29.227 32.8906 29.8726 32.3244 30.6092 31.8991C31.3458 31.4739 32.1589 31.1979 33.0021 31.0868C33.8454 30.9758 34.7022 31.032 35.5238 31.2521" stroke="#BCBCBC" stroke-width="2"/>
<path d="M36.7673 26.6121C35.9458 26.3919 35.1757 26.0121 34.5009 25.4944C33.8261 24.9766 33.2599 24.331 32.8347 23.5944C32.4094 22.8579 32.1334 22.0447 32.0224 21.2015C31.9114 20.3582 31.9675 19.5014 32.1877 18.6798" stroke="#BCBCBC" stroke-width="2"/>
<path d="M18.3723 26.6565C19.1939 26.8766 19.964 27.2564 20.6388 27.7742C21.3135 28.2919 21.8797 28.9375 22.305 29.6741C22.7302 30.4107 23.0062 31.2238 23.1173 32.0671C23.2283 32.9103 23.1721 33.7672 22.952 34.5887" stroke="#BCBCBC" stroke-width="2"/>
</svg>
