<svg width="478" height="478" viewBox="0 0 478 478" fill="none" xmlns="http://www.w3.org/2000/svg">
<path d="M208.412 375.404H190.58V377.553H198.379V379.959H201.086V377.553H208.412V375.404ZM191.439 368.121H207.488V366.059H200.871V364.318H198.121V366.059H191.439V368.121ZM192.664 383.633H206.479V381.484H195.393V378.756H192.664V383.633ZM192.922 371.623C192.9 373.578 195.307 374.642 199.496 374.652C203.664 374.642 206.06 373.578 206.07 371.623C206.06 369.679 203.664 368.647 199.496 368.658C195.307 368.647 192.9 369.679 192.922 371.623ZM195.715 371.623C195.704 370.882 196.875 370.56 199.496 370.57C202.085 370.56 203.267 370.882 203.256 371.623C203.267 372.375 202.085 372.687 199.496 372.697C196.875 372.687 195.704 372.375 195.715 371.623ZM219.971 365.951V365.006H217.092V365.951C217.081 368.261 214.729 370.807 210.281 371.365L211.377 373.578C214.75 373.084 217.242 371.494 218.531 369.389C219.81 371.505 222.312 373.084 225.729 373.578L226.803 371.365C222.323 370.807 219.96 368.261 219.971 365.951ZM209.594 377.295H217.113V383.977H219.82V377.295H227.426V375.061H209.594V377.295ZM242.787 376.393C238.651 376.393 236.073 377.789 236.084 380.174C236.073 382.591 238.651 383.998 242.787 383.998C246.858 383.998 249.372 382.591 249.383 380.174C249.372 377.789 246.858 376.393 242.787 376.393ZM234.258 374.846H243.732V365.65H240.982V368.121H236.986V365.65H234.258V374.846ZM236.986 372.676V370.248H240.982V372.676H236.986ZM238.834 380.174C238.812 379.057 240.22 378.53 242.787 378.52C245.322 378.53 246.676 379.057 246.676 380.174C246.676 381.291 245.322 381.871 242.787 381.871C240.22 381.871 238.812 381.291 238.834 380.174ZM246.439 375.963H249.189V371.258H251.832V368.959H249.189V364.426H246.439V375.963ZM256.279 365.414H253.529V374.566H262.832V371.129H266.441V375.125H269.17V364.426H266.441V368.895H262.832V365.414H260.125V367.928H256.279V365.414ZM256.129 383.719H269.17V375.941H266.441V377.746H258.836V375.941H256.129V383.719ZM256.279 372.375V370.033H260.125V372.375H256.279ZM258.836 381.527V379.852H266.441V381.527H258.836ZM283.178 382.215C286.69 382.215 289.215 380.303 289.193 377.639C289.215 375.694 287.958 374.309 285.67 374.029V373.9C287.41 373.589 288.624 372.354 288.613 370.613C288.624 368.153 286.465 366.23 283.221 366.23C280.03 366.23 277.624 368.089 277.57 370.764H280.664C280.718 369.571 281.846 368.798 283.221 368.809C284.596 368.798 285.509 369.614 285.498 370.807C285.509 372.031 284.435 372.869 282.898 372.869H281.459V375.254H282.898C284.725 375.265 285.853 376.156 285.842 377.424C285.853 378.681 284.746 379.54 283.199 379.551C281.695 379.54 280.567 378.777 280.514 377.617H277.248C277.312 380.335 279.762 382.215 283.178 382.215Z" fill="black"/>
<rect x="81" y="422" width="74" height="14" fill="#94D7BB" fill-opacity="0.3"/>
<rect x="188" y="422" width="148" height="14" fill="#94D7BB" fill-opacity="0.3"/>
<rect x="78" y="445" width="204" height="14" fill="#94D7BB" fill-opacity="0.3"/>
<path d="M82.3828 425.125H84.6016L85.3828 420.672H83.7266L82.3828 425.125ZM78.9141 425.125H81.1328L81.9141 420.672H80.2578L78.9141 425.125ZM98.5859 419.234H96.5859V429.609H98.5859V419.234ZM86.6328 426.094L87.6641 427.672C89.3281 427.102 90.4609 425.93 91.1016 424.477C91.7344 425.828 92.8359 426.891 94.4453 427.422L95.4609 425.859C93.125 425.109 92.1172 423.273 92.1328 421.391V420.016H90.0547V421.391C90.0547 423.32 89.0156 425.297 86.6328 426.094ZM89.0547 433.188H98.9609V431.594H91.0703V428.609H89.0547V433.188ZM105.117 420.172C102.875 420.164 101.156 421.617 101.164 423.656C101.156 425.703 102.875 427.148 105.117 427.156C107.375 427.148 109.047 425.703 109.055 423.656C109.047 421.617 107.375 420.164 105.117 420.172ZM100.57 428.938L100.805 430.562C103.289 430.562 106.664 430.539 109.82 429.922L109.664 428.484C106.625 428.914 103.109 428.945 100.57 428.938ZM103.148 423.656C103.141 422.547 103.992 421.891 105.117 421.891C106.25 421.891 107.109 422.547 107.117 423.656C107.109 424.781 106.25 425.43 105.117 425.422C103.992 425.43 103.141 424.781 103.148 423.656ZM110.477 433.469H112.461V419.219H110.477V433.469ZM129.305 419.234H127.305V429.844H129.305V425.219H131.227V423.594H129.305V419.234ZM118.023 422.297H126.461V420.719H123.242V419.203H121.258V420.719H118.023V422.297ZM118.711 425.547C118.711 427.188 120.172 428.266 122.242 428.266C124.305 428.266 125.742 427.188 125.742 425.547C125.742 423.898 124.305 422.797 122.242 422.797C120.172 422.797 118.711 423.898 118.711 425.547ZM120.086 433.188H129.82V431.594H122.07V429.031H120.086V433.188ZM120.664 425.547C120.656 424.758 121.289 424.32 122.242 424.312C123.203 424.32 123.852 424.758 123.852 425.547C123.852 426.328 123.203 426.75 122.242 426.75C121.289 426.75 120.656 426.328 120.664 425.547ZM139.398 420.328V419.641H137.305V420.328C137.297 422.008 135.586 423.859 132.352 424.266L133.148 425.875C135.602 425.516 137.414 424.359 138.352 422.828C139.281 424.367 141.102 425.516 143.586 425.875L144.367 424.266C141.109 423.859 139.391 422.008 139.398 420.328ZM131.852 428.578H137.32V433.438H139.289V428.578H144.82V426.953H131.852V428.578ZM149.133 420.688H146.914L146.133 425.141H147.789L149.133 420.688ZM149.602 425.141H151.258L152.602 420.688H150.383L149.602 425.141ZM164.336 419.375H163.117V433.297H164.336V425.938H166.664V424.906H164.336V419.375ZM154.133 421.688H159.227V424.625H154.164V429.938H155.273C157.953 429.922 159.805 429.82 161.992 429.422L161.867 428.406C159.766 428.797 157.961 428.898 155.383 428.891V425.641H160.445V420.672H154.133V421.688ZM178.555 420.781H168.758V421.797H177.32V422.172C177.312 423.836 177.312 425.781 176.789 428.438L178.039 428.578C178.539 425.781 178.539 423.875 178.555 422.172V420.781ZM167.414 431.297H180.07V430.281H173.586V425.312H172.383V430.281H167.414V431.297ZM189.227 423.516V423.25H191.555V421.625H189.211V419.703H187.352V421.625H184.992V423.25H187.352V423.516C187.336 425.727 186.562 428.047 184.539 429.203L185.664 430.703C186.953 429.969 187.805 428.688 188.297 427.188C188.797 428.57 189.648 429.719 190.93 430.375L192.039 428.906C189.984 427.836 189.227 425.656 189.227 423.516ZM192.195 432.781H194.086V426.312H195.289V433.438H197.195V419.219H195.289V424.688H194.086V419.422H192.195V432.781ZM206.289 420.203H199.398V427.188H200.617C203.656 427.203 205.469 427.156 207.492 426.828L207.289 425.266C205.492 425.562 203.906 425.594 201.398 425.594V424.453H205.867V422.906H201.398V421.797H206.289V420.203ZM200.789 430.734C200.789 432.453 202.641 433.445 205.68 433.438C208.688 433.445 210.586 432.453 210.602 430.734C210.586 429.031 208.688 428.039 205.68 428.031C202.641 428.039 200.789 429.031 200.789 430.734ZM202.773 430.734C202.773 429.977 203.773 429.57 205.68 429.578C207.562 429.57 208.602 429.977 208.602 430.734C208.602 431.523 207.562 431.922 205.68 431.922C203.773 431.922 202.773 431.523 202.773 430.734ZM208.523 427.844H210.523V419.234H208.523V427.844ZM218.914 419.625C215.812 419.625 213.992 420.477 213.992 422.016C213.992 423.594 215.812 424.445 218.914 424.453C222 424.445 223.812 423.594 223.82 422.016C223.812 420.477 222 419.625 218.914 419.625ZM212.586 426.391H225.242V425.391H212.586V426.391ZM214.117 428.531H222.414V429.797H214.148V433.109H224.039V432.141H215.367V430.703H223.617V427.594H214.117V428.531ZM215.273 422.016C215.258 421.102 216.609 420.555 218.914 420.547C221.219 420.555 222.562 421.102 222.57 422.016C222.562 422.984 221.219 423.516 218.914 423.516C216.609 423.516 215.258 422.984 215.273 422.016ZM241.883 419.375H240.648V433.266H241.883V419.375ZM230.711 429.625L231.398 430.578C233.008 429.82 234.352 428.219 234.977 426.281C235.625 428.117 236.977 429.617 238.586 430.328L239.273 429.375C237.18 428.484 235.555 426.234 235.555 423.906V422.797H238.789V421.797H235.555V419.641H234.336V421.797H231.086V422.797H234.352V423.906C234.352 426.344 232.773 428.688 230.711 429.625ZM251.289 420.594H244.914V427.078H251.289V425.828H254.539V429.531H255.773V419.391H254.539V421.828H251.289V420.594ZM246.133 426.094V421.609H250.086V426.094H246.133ZM246.789 432.969H256.086V431.938H248.023V428.625H246.789V432.969ZM251.289 424.812V422.859H254.539V424.812H251.289ZM266.07 423.516V423.25H268.398V421.625H266.055V419.703H264.195V421.625H261.836V423.25H264.195V423.516C264.18 425.727 263.406 428.047 261.383 429.203L262.508 430.703C263.797 429.969 264.648 428.688 265.141 427.188C265.641 428.57 266.492 429.719 267.773 430.375L268.883 428.906C266.828 427.836 266.07 425.656 266.07 423.516ZM269.039 432.781H270.93V426.312H272.133V433.438H274.039V419.219H272.133V424.688H270.93V419.422H269.039V432.781ZM283.133 420.203H276.242V427.188H277.461C280.5 427.203 282.312 427.156 284.336 426.828L284.133 425.266C282.336 425.562 280.75 425.594 278.242 425.594V424.453H282.711V422.906H278.242V421.797H283.133V420.203ZM277.633 430.734C277.633 432.453 279.484 433.445 282.523 433.438C285.531 433.445 287.43 432.453 287.445 430.734C287.43 429.031 285.531 428.039 282.523 428.031C279.484 428.039 277.633 429.031 277.633 430.734ZM279.617 430.734C279.617 429.977 280.617 429.57 282.523 429.578C284.406 429.57 285.445 429.977 285.445 430.734C285.445 431.523 284.406 431.922 282.523 431.922C280.617 431.922 279.617 431.523 279.617 430.734ZM285.367 427.844H287.367V419.234H285.367V427.844ZM297.398 420.719H294.555V419.156H292.539V420.719H289.68V422.281H292.539C292.523 423.906 291.469 425.516 289.18 426.141L290.133 427.703C291.805 427.203 292.945 426.172 293.57 424.875C294.211 426.016 295.328 426.914 296.945 427.344L297.852 425.781C295.562 425.188 294.547 423.734 294.523 422.281H297.398V420.719ZM291.039 430.766C291.031 432.445 292.883 433.422 295.914 433.422C298.883 433.422 300.703 432.445 300.711 430.766C300.703 429.039 298.883 428.062 295.914 428.062C292.883 428.062 291.031 429.039 291.039 430.766ZM293.039 430.766C293.023 429.953 294.023 429.594 295.914 429.594C297.758 429.594 298.742 429.953 298.742 430.766C298.742 431.539 297.758 431.922 295.914 431.922C294.023 431.922 293.023 431.539 293.039 430.766ZM298.57 427.797H300.57V424.203H302.492V422.594H300.57V419.219H298.57V427.797ZM315.164 419.375H313.977V433.266H315.164V419.375ZM303.43 425.375C303.438 428.328 304.609 430.211 306.414 430.203C308.125 430.211 309.289 428.516 309.406 425.812H311.195V432.562H312.367V419.672H311.195V424.797H309.398C309.242 422.18 308.102 420.555 306.414 420.547C304.609 420.555 303.438 422.422 303.43 425.375ZM304.586 425.375C304.57 423.117 305.289 421.703 306.414 421.703C307.547 421.703 308.266 423.117 308.258 425.375C308.266 427.625 307.547 429.047 306.414 429.031C305.289 429.047 304.57 427.625 304.586 425.375ZM326.289 421.656V420.094H324.273V421.641C324.266 423.68 323.242 425.625 320.867 426.406L321.945 427.969C323.594 427.375 324.703 426.211 325.312 424.719C325.914 426.039 326.953 427.086 328.461 427.641L329.539 426.078C327.273 425.32 326.289 423.492 326.289 421.656ZM323.477 433.188H333.242V431.594H325.492V428.625H323.477V433.188ZM328.289 423.859H330.961V429.734H332.945V419.234H330.961V422.25H328.289V423.859ZM346.383 419.375H345.148V433.297H346.383V419.375ZM335.445 425.297C335.453 428.258 336.922 430.133 338.992 430.125C341.055 430.133 342.547 428.258 342.539 425.297C342.547 422.344 341.055 420.461 338.992 420.453C336.922 420.461 335.453 422.344 335.445 425.297ZM336.633 425.297C336.633 423.039 337.602 421.555 338.992 421.547C340.391 421.555 341.352 423.039 341.352 425.297C341.352 427.555 340.391 429.039 338.992 429.031C337.602 429.039 336.633 427.555 336.633 425.297ZM363.727 420.859H354.148V421.875H362.523V422.25C362.523 423.953 362.523 426.031 361.961 428.875L363.211 429C363.727 425.977 363.727 424 363.727 422.25V420.859ZM352.773 431.219H365.43V430.203H352.773V431.219ZM370.336 420.453C368.281 420.461 366.844 422.344 366.852 425.297C366.844 428.258 368.281 430.133 370.336 430.125C372.273 430.133 373.664 428.43 373.797 425.703H376.898V433.297H378.117V419.375H376.898V424.688H373.781C373.594 422.086 372.227 420.461 370.336 420.453ZM368.023 425.297C368.031 423.039 368.969 421.555 370.336 421.547C371.695 421.555 372.648 423.039 372.648 425.297C372.648 427.555 371.695 429.039 370.336 429.031C368.969 429.039 368.031 427.555 368.023 425.297ZM385.398 423.641V421.828H388.711V420.812H380.883V421.828H384.164V423.641C384.156 426.047 382.422 428.672 380.43 429.625L381.164 430.594C382.75 429.797 384.156 428.031 384.805 425.992C385.453 427.914 386.852 429.516 388.477 430.25L389.164 429.281C387.117 428.398 385.406 426 385.398 423.641ZM390.648 433.266H391.883V419.375H390.648V433.266ZM405.398 420.781H395.602V421.797H404.164V422.172C404.156 423.836 404.156 425.781 403.633 428.438L404.883 428.578C405.383 425.781 405.383 423.875 405.398 422.172V420.781ZM394.258 431.297H406.914V430.281H400.43V425.312H399.227V430.281H394.258V431.297ZM82.1875 442.953C79.1328 442.953 76.8438 444.5 76.8438 446.844C76.8438 448.984 78.6484 450.422 81.1875 450.711V453.141H75.7031V454.781H88.7188V453.141H83.1719V450.711C85.7266 450.43 87.5391 448.992 87.5469 446.844C87.5391 444.5 85.2422 442.953 82.1875 442.953ZM78.8125 446.844C78.8125 445.422 80.1953 444.539 82.1875 444.547C84.1875 444.539 85.5703 445.422 85.5781 446.844C85.5703 448.344 84.1875 449.18 82.1875 449.188C80.1953 449.18 78.8125 448.344 78.8125 446.844ZM100.859 442.781H91.1406V447.781H95V449.141H89.5312V450.75H102.5V449.141H97V447.781H100.859V442.781ZM90.9688 453.359H98.9375V456.438H100.922V451.797H90.9688V453.359ZM93.0938 446.219V444.328H98.9062V446.219H93.0938ZM111.328 443.406H103.656V445H104.828V449.172C104.289 449.18 103.766 449.188 103.281 449.188L103.5 450.781C105.875 450.781 109.125 450.734 111.969 450.25L111.828 448.781C111.297 448.844 110.742 448.898 110.172 448.945V445H111.328V443.406ZM105.422 456.188H115.156V454.594H107.406V451.703H105.422V456.188ZM106.75 449.125V445H108.25V449.07C107.75 449.094 107.242 449.109 106.75 449.125ZM112.641 452.703H114.641V447.891H116.562V446.234H114.641V442.234H112.641V452.703ZM123.656 442.625C120.555 442.625 118.734 443.477 118.734 445.016C118.734 446.594 120.555 447.445 123.656 447.453C126.742 447.445 128.555 446.594 128.562 445.016C128.555 443.477 126.742 442.625 123.656 442.625ZM117.328 449.391H129.984V448.391H117.328V449.391ZM118.859 451.531H127.156V452.797H118.891V456.109H128.781V455.141H120.109V453.703H128.359V450.594H118.859V451.531ZM120.016 445.016C120 444.102 121.352 443.555 123.656 443.547C125.961 443.555 127.305 444.102 127.312 445.016C127.305 445.984 125.961 446.516 123.656 446.516C121.352 446.516 120 445.984 120.016 445.016ZM146.172 442.734H136.297V444.297H144.188C144.18 444.57 144.18 444.844 144.172 445.125L135.906 445.297L136.125 446.828L144.078 446.516C144.039 446.891 143.984 447.289 143.898 447.719H134.734V449.297H147.641V447.719H145.898C146.18 446.273 146.18 445.086 146.172 443.969V442.734ZM136.141 451.656H144.25V452.438H136.156V456.281H146.734V454.75H138.141V453.875H146.234V450.141H136.141V451.656ZM160.438 442.234H158.438V450.938H160.438V442.234ZM149.266 444.609H153.875V445.859H149.281V450.359H150.531C153.352 450.367 155.273 450.297 157.453 449.953L157.203 448.359C155.289 448.641 153.609 448.719 151.234 448.734V447.375H155.859V443.016H149.266V444.609ZM150.656 453.172H158.438V456.438H160.438V451.562H150.656V453.172ZM173.25 442.375H172.031V456.266H173.25V449.125H175.578V448.109H173.25V442.375ZM162.422 445.625H170.688V444.609H167.219V442.547H166V444.609H162.422V445.625ZM163.219 449.969C163.211 451.852 164.648 453.156 166.625 453.156C168.586 453.156 170.016 451.852 170.031 449.969C170.016 448.094 168.586 446.781 166.625 446.781C164.648 446.781 163.211 448.094 163.219 449.969ZM164.391 449.969C164.383 448.711 165.328 447.805 166.625 447.812C167.906 447.805 168.844 448.711 168.859 449.969C168.844 451.234 167.906 452.125 166.625 452.109C165.328 452.125 164.383 451.234 164.391 449.969ZM183.359 443.594H176.984V450.078H183.359V448.828H186.609V452.531H187.844V442.391H186.609V444.828H183.359V443.594ZM178.203 449.094V444.609H182.156V449.094H178.203ZM178.859 455.969H188.156V454.938H180.094V451.625H178.859V455.969ZM183.359 447.812V445.859H186.609V447.812H183.359ZM205.5 442.219H203.562V449.562H205.5V446.609H206.938V444.984H205.5V442.219ZM193.875 449.078H198.016V442.828H196.406V444.438H195.484V442.828H193.875V449.078ZM195.484 447.531V445.953H196.406V447.531H195.484ZM195.766 451.594H203.547V452.422H195.781V456.344H205.969V454.766H197.75V453.859H205.5V450.047H195.766V451.594ZM198.625 449.078H202.75V442.828H201.125V444.438H200.234V442.828H198.625V449.078ZM200.234 447.531V445.953H201.125V447.531H200.234ZM218.812 442.219H216.797V452.406H218.812V447.844H220.734V446.203H218.812V442.219ZM207.438 449.438L208.266 451.016C212.531 449.812 214.93 447.125 214.938 443.281H208.062V444.906H212.742C212.43 446.906 210.625 448.555 207.438 449.438ZM209.562 456.188H219.297V454.594H211.578V451.359H209.562V456.188ZM225.906 444.688V443.047H223.969V444.688C223.969 446.297 223.164 448.062 221.156 448.922L222.219 450.469C223.539 449.914 224.438 448.891 224.953 447.672C225.461 448.742 226.297 449.609 227.5 450.094L228.578 448.562C226.688 447.812 225.906 446.273 225.906 444.688ZM223.75 453.062H231.594V456.438H233.578V451.469H223.75V453.062ZM228.641 450.766H230.5V447.312H231.688V450.844H233.578V442.234H231.688V445.688H230.5V442.453H228.641V450.766ZM251.844 450.203H238.875V451.766H244.547V453.516H246.516V451.766H251.844V450.203ZM239.5 444.906H251.172V443.406H246.359V442.141H244.359V443.406H239.5V444.906ZM240.391 456.188H250.438V454.625H242.375V452.641H240.391V456.188ZM240.578 447.453C240.562 448.875 242.312 449.648 245.359 449.656C248.391 449.648 250.133 448.875 250.141 447.453C250.133 446.039 248.391 445.289 245.359 445.297C242.312 445.289 240.562 446.039 240.578 447.453ZM242.609 447.453C242.602 446.914 243.453 446.68 245.359 446.688C247.242 446.68 248.102 446.914 248.094 447.453C248.102 448 247.242 448.227 245.359 448.234C243.453 448.227 242.602 448 242.609 447.453ZM260.25 443.328V442.641H258.156V443.328C258.148 445.008 256.438 446.859 253.203 447.266L254 448.875C256.453 448.516 258.266 447.359 259.203 445.828C260.133 447.367 261.953 448.516 264.438 448.875L265.219 447.266C261.961 446.859 260.242 445.008 260.25 443.328ZM252.703 451.578H258.172V456.438H260.141V451.578H265.672V449.953H252.703V451.578ZM277.984 445.5H270.141V444.281H277.875V442.688H268.156V447.062H272.016V448H266.531V449.578H279.5V448H274.016V447.062H277.984V445.5ZM268.031 451.812H275.953V452.578H268.047V456.328H278.297V454.812H270V453.969H277.922V450.344H268.031V451.812ZM286.828 442.625C283.727 442.625 281.906 443.477 281.906 445.016C281.906 446.594 283.727 447.445 286.828 447.453C289.914 447.445 291.727 446.594 291.734 445.016C291.727 443.477 289.914 442.625 286.828 442.625ZM280.5 449.391H293.156V448.391H280.5V449.391ZM282.031 451.531H290.328V452.797H282.062V456.109H291.953V455.141H283.281V453.703H291.531V450.594H282.031V451.531ZM283.188 445.016C283.172 444.102 284.523 443.555 286.828 443.547C289.133 443.555 290.477 444.102 290.484 445.016C290.477 445.984 289.133 446.516 286.828 446.516C284.523 446.516 283.172 445.984 283.188 445.016ZM309.844 450.875H305.281V449.578H304.062V450.875H299.531V451.844H309.844V450.875ZM298.328 449.047H311.047V448.047H305.312V446.641H309.594V445.656H301.312V442.594H300.094V446.641H304.109V448.047H298.328V449.047ZM300.484 454.375C300.477 455.594 301.977 456.234 304.672 456.234C307.352 456.234 308.875 455.594 308.875 454.375C308.875 453.133 307.352 452.484 304.672 452.484C301.977 452.484 300.477 453.133 300.484 454.375ZM301.75 454.375C301.734 453.695 302.812 453.367 304.672 453.359C306.523 453.367 307.602 453.695 307.609 454.375C307.602 455.031 306.523 455.352 304.672 455.359C302.812 455.352 301.734 455.031 301.75 454.375ZM318.5 442.625C315.398 442.625 313.578 443.477 313.578 445.016C313.578 446.594 315.398 447.445 318.5 447.453C321.586 447.445 323.398 446.594 323.406 445.016C323.398 443.477 321.586 442.625 318.5 442.625ZM312.172 449.391H324.828V448.391H312.172V449.391ZM313.703 451.531H322V452.797H313.734V456.109H323.625V455.141H314.953V453.703H323.203V450.594H313.703V451.531ZM314.859 445.016C314.844 444.102 316.195 443.555 318.5 443.547C320.805 443.555 322.148 444.102 322.156 445.016C322.148 445.984 320.805 446.516 318.5 446.516C316.195 446.516 314.844 445.984 314.859 445.016ZM336.984 443.672V442.875H335.719V443.672C335.719 445.664 333.18 447.32 330.672 447.672L331.172 448.672C333.336 448.312 335.469 447.133 336.359 445.414C337.25 447.117 339.391 448.312 341.547 448.672L342.047 447.672C339.539 447.32 336.992 445.633 336.984 443.672ZM330.016 451.234H335.719V456.266H336.922V451.234H342.672V450.203H330.016V451.234ZM352.562 451.703V450.938H351.375V451.703C351.359 453.031 350.305 454.516 348.547 455.172L349.172 456.078C350.5 455.578 351.453 454.609 351.953 453.492C352.367 454.656 353.227 455.672 354.578 456.188C355.859 455.648 356.711 454.578 357.141 453.453C357.625 454.617 358.594 455.586 359.984 456.078L360.594 455.172C358.812 454.555 357.758 453.133 357.766 451.703V450.938H356.562V451.703C356.57 452.773 355.867 454.164 354.539 454.984C353.219 454.234 352.555 452.93 352.562 451.703ZM348.188 446.453C348.18 448.359 349.719 449.672 351.828 449.672C353.938 449.672 355.461 448.359 355.469 446.453C355.461 444.516 353.938 443.195 351.828 443.203C349.719 443.195 348.18 444.516 348.188 446.453ZM349.391 446.453C349.375 445.156 350.398 444.234 351.828 444.25C353.242 444.234 354.266 445.156 354.266 446.453C354.266 447.742 353.242 448.648 351.828 448.656C350.398 448.648 349.375 447.742 349.391 446.453ZM358.109 450.328H359.328V442.391H358.109V450.328ZM364.516 450.719H363.297V456.078H372.688V450.719H371.453V452.344H364.516V450.719ZM361.688 449.734H374.344V448.719H361.688V449.734ZM362.406 446.75L362.875 447.734C365.016 447.414 367.141 446.328 368.023 444.766C368.906 446.32 371.023 447.414 373.172 447.734L373.625 446.75C371.18 446.438 368.648 444.898 368.656 443.188V442.531H367.391V443.188C367.391 444.953 364.883 446.414 362.406 446.75ZM364.516 455.094V453.312H371.453V455.094H364.516ZM386.969 442.375H385.75V456.266H386.969V442.375ZM376.422 452.688H377.547C379.773 452.688 381.969 452.516 384.438 452L384.266 450.953C381.938 451.445 379.75 451.609 377.625 451.625V443.75H376.422V452.688ZM400.094 442.375H398.875V456.297H400.094V448.906H402.422V447.875H400.094V442.375ZM389.953 452.812H391.047C393.688 452.812 395.508 452.734 397.688 452.344L397.531 451.281C395.461 451.664 393.688 451.773 391.172 451.781V444.75H396.438V443.734H389.953V452.812ZM405.422 443.688H403.891L404 451.812H405.312L405.422 443.688ZM403.656 454.078C403.641 454.633 404.109 455.086 404.656 455.094C405.211 455.086 405.664 454.633 405.656 454.078C405.664 453.531 405.211 453.078 404.656 453.078C404.109 453.078 403.641 453.531 403.656 454.078Z" fill="black"/>
<path d="M268 263L276 272L284 263" stroke="black"/>
<path d="M300.867 263.902H303.68C303.641 261.402 301.58 259.664 298.445 259.664C295.35 259.664 293.084 261.373 293.094 263.941C293.094 266.012 294.559 267.203 296.941 267.789L298.484 268.16C300.027 268.541 300.906 268.99 300.906 269.957C300.906 271.012 299.91 271.734 298.367 271.734C296.805 271.734 295.672 271.012 295.574 269.586H292.723C292.811 272.623 294.988 274.205 298.406 274.195C301.854 274.205 303.865 272.545 303.875 269.957C303.865 267.604 302.059 266.373 299.637 265.816L298.367 265.504C297.146 265.23 296.092 264.771 296.102 263.746C296.111 262.809 296.941 262.125 298.426 262.125C299.861 262.125 300.75 262.779 300.867 263.902ZM305.789 274H315.301V271.578H308.719V268.141H314.793V265.719H308.719V262.281H315.281V259.859H305.789V274ZM329.363 259.859H326.453V268.844H326.316L320.145 259.859H317.566V274H320.496V265.016H320.613L326.824 274H329.363V259.859ZM336.727 274C341.043 274 343.65 271.334 343.641 266.91C343.65 262.506 341.043 259.859 336.785 259.859H331.746V274H336.727ZM334.676 271.48V262.379H336.629C339.305 262.379 340.711 263.766 340.711 266.91C340.711 270.084 339.305 271.48 336.609 271.48H334.676Z" fill="#6DB6DF"/>
<g opacity="0.4">
<g filter="url(#filter0_d_607_36)">
<path d="M87 33C87 25.268 93.268 19 101 19H290.467C298.199 19 304.467 25.268 304.467 33V229C304.467 236.732 298.199 243 290.467 243H101C93.268 243 87 236.732 87 229V33Z" fill="white"/>
</g>
<path d="M87.5 33C87.5 25.5442 93.5442 19.5 101 19.5H290.28C297.736 19.5 303.78 25.5442 303.78 33V52.5182H87.5V33Z" fill="#94D7BB" stroke="black"/>
<path d="M146.978 158.733C146.978 153.211 151.455 148.733 156.978 148.733H292.397V180.51C292.397 186.033 287.92 190.51 282.397 190.51H156.978C151.455 190.51 146.978 186.033 146.978 180.51V158.733Z" fill="#F0F0F0"/>
<path d="M123.401 68.4204H118.729V68.936H122.792V71.0063H123.401V68.4204ZM118.104 67.5063H118.667C119.769 67.5063 120.866 67.4243 122.097 67.186L122.003 66.6704C120.847 66.9048 119.769 66.9829 118.722 66.9907V64.4438H118.104V67.5063ZM122.792 68.0688H123.401V64.0532H122.792V68.0688ZM125.534 64.8032H124.925V69.2329H125.362C126.21 69.229 126.991 69.1938 127.917 68.9985L127.831 68.4673C126.999 68.6431 126.288 68.686 125.534 68.6938V64.8032ZM126.87 66.897H128.456V70.6392H129.042V64.2173H128.456V66.3892H126.87V66.897ZM129.94 70.9907H130.526V64.0454H129.94V70.9907ZM137.229 64.0532H136.62V68.022H137.229V64.0532ZM131.659 66.0454C131.655 66.9985 132.425 67.6626 133.479 67.6626C134.534 67.6626 135.296 66.9985 135.3 66.0454C135.296 65.0767 134.534 64.4204 133.479 64.4204C132.425 64.4204 131.655 65.0767 131.659 66.0454ZM132.261 66.0454C132.253 65.397 132.765 64.9399 133.479 64.9438C134.187 64.9399 134.698 65.397 134.698 66.0454C134.698 66.6899 134.187 67.1431 133.479 67.1392C132.765 67.1431 132.253 66.6899 132.261 66.0454ZM132.714 70.897H137.229V68.397H132.714V70.897ZM133.315 70.397V68.897H136.628V70.397H133.315ZM142.667 64.7017H141.956L140.55 65.6392V66.3501L141.925 65.436H141.956V70.3579H142.667V64.7017Z" fill="black"/>
<ellipse cx="107.936" cy="66.7449" rx="5.65833" ry="5.9681" fill="#C4C4C4"/>
<path d="M123.401 68.4204H118.729V68.936H122.792V71.0063H123.401V68.4204ZM118.104 67.5063H118.667C119.769 67.5063 120.866 67.4243 122.097 67.186L122.003 66.6704C120.847 66.9048 119.769 66.9829 118.722 66.9907V64.4438H118.104V67.5063ZM122.792 68.0688H123.401V64.0532H122.792V68.0688ZM125.534 64.8032H124.925V69.2329H125.362C126.21 69.229 126.991 69.1938 127.917 68.9985L127.831 68.4673C126.999 68.6431 126.288 68.686 125.534 68.6938V64.8032ZM126.87 66.897H128.456V70.6392H129.042V64.2173H128.456V66.3892H126.87V66.897ZM129.94 70.9907H130.526V64.0454H129.94V70.9907ZM137.229 64.0532H136.62V68.022H137.229V64.0532ZM131.659 66.0454C131.655 66.9985 132.425 67.6626 133.479 67.6626C134.534 67.6626 135.296 66.9985 135.3 66.0454C135.296 65.0767 134.534 64.4204 133.479 64.4204C132.425 64.4204 131.655 65.0767 131.659 66.0454ZM132.261 66.0454C132.253 65.397 132.765 64.9399 133.479 64.9438C134.187 64.9399 134.698 65.397 134.698 66.0454C134.698 66.6899 134.187 67.1431 133.479 67.1392C132.765 67.1431 132.253 66.6899 132.261 66.0454ZM132.714 70.897H137.229V68.397H132.714V70.897ZM133.315 70.397V68.897H136.628V70.397H133.315ZM142.667 64.7017H141.956L140.55 65.6392V66.3501L141.925 65.436H141.956V70.3579H142.667V64.7017ZM144.175 70.3579H147.847V69.7329H145.151V69.686L146.448 68.3501C147.448 67.3188 147.741 66.8267 147.745 66.1938C147.741 65.3149 147.015 64.6235 145.987 64.6235C144.964 64.6235 144.19 65.2954 144.198 66.2954H144.862C144.866 65.6626 145.288 65.2368 145.964 65.2329C146.601 65.2368 147.085 65.6118 147.089 66.1938C147.085 66.7173 146.765 67.1001 146.097 67.811L144.167 69.8423L144.175 70.3579ZM150.823 70.436C151.952 70.436 152.796 69.7485 152.792 68.8188C152.796 68.1001 152.351 67.5728 151.612 67.4595V67.4204C152.206 67.2524 152.581 66.7837 152.573 66.1392C152.581 65.3306 151.925 64.6235 150.847 64.6235C149.843 64.6235 149.007 65.2251 148.972 66.1235H149.651C149.683 65.5688 150.233 65.2368 150.839 65.2329C151.483 65.2368 151.897 65.6118 151.894 66.1782C151.897 66.7603 151.417 67.147 150.729 67.147H150.269V67.7642H150.729C151.608 67.7681 152.101 68.2017 152.104 68.8188C152.101 69.4087 151.562 69.811 150.815 69.811C150.14 69.811 149.604 69.4751 149.565 68.936H148.854C148.89 69.8345 149.698 70.436 150.823 70.436Z" fill="black"/>
<ellipse cx="107.936" cy="66.7449" rx="5.65833" ry="5.9681" fill="#C4C4C4"/>
<path d="M111.243 29.2036H109.774V36.4067H111.243V29.2036ZM99.6958 35.1567L100.446 36.3286C102.118 35.7583 103.368 34.5396 104 33.0083C104.633 34.4302 105.86 35.5317 107.493 36.063L108.227 34.9067C106.079 34.2349 104.735 32.5317 104.743 30.6567V29.5786H103.227V30.6567C103.219 32.5942 101.883 34.4302 99.6958 35.1567ZM102.055 38.2505H109.79V39.4536H102.102V43.063H111.727V41.8755H103.54V40.5786H111.258V37.0786H102.055V38.2505ZM118.618 32.7661V30.3755H117.118V32.7661C117.118 35.438 115.571 38.1177 113.368 39.0942L114.274 40.3442C115.954 39.5239 117.243 37.8364 117.891 35.7817C118.547 37.6958 119.821 39.2661 121.43 40.0317L122.321 38.8599C120.149 37.8989 118.602 35.3208 118.618 32.7661ZM123.586 43.2349H125.071V29.2036H123.586V43.2349ZM138.305 29.2036H136.805V39.3755H138.305V34.5786H140.336V33.3442H138.305V29.2036ZM127.29 36.6567L127.915 37.8442C132.008 36.6021 134.508 33.938 134.508 30.2661H127.883V31.5005H132.891C132.602 33.8052 130.571 35.6724 127.29 36.6567ZM129.415 42.9067H138.883V41.7036H130.915V38.3286H129.415V42.9067ZM149.227 33.4849V32.9692H151.774V31.7349H149.227V29.7036H147.836V31.7349H145.243V32.9692H147.836V33.4849C147.821 35.7427 146.813 38.1255 144.883 39.2505L145.758 40.3442C147.11 39.563 148.047 38.1021 148.54 36.4146C149.047 37.9927 149.993 39.3286 151.352 40.0474L152.196 38.938C150.243 37.9146 149.227 35.6646 149.227 33.4849ZM152.633 42.5161H154.04V36.0161H155.711V43.2036H157.133V29.2036H155.711V34.7661H154.04V29.4692H152.633V42.5161ZM166.399 30.2192H159.665V36.938H160.821C163.883 36.9458 165.625 36.8911 167.649 36.563L167.493 35.3599C165.594 35.688 163.961 35.7349 161.165 35.7192V34.1255H166.008V32.9536H161.165V31.4067H166.399V30.2192ZM161.024 40.5942C161.024 42.2427 162.813 43.1802 165.79 43.1724C168.719 43.1802 170.547 42.2427 170.555 40.5942C170.547 38.9614 168.719 38.0161 165.79 38.0161C162.813 38.0161 161.024 38.9614 161.024 40.5942ZM162.508 40.5942C162.5 39.7036 163.704 39.1802 165.79 39.188C167.836 39.1802 169.079 39.7036 169.071 40.5942C169.079 41.5083 167.836 42.0239 165.79 42.0317C163.704 42.0239 162.5 41.5083 162.508 40.5942ZM168.993 37.8286H170.477V29.2192H168.993V37.8286Z" fill="white"/>
<path d="M87 53.0181L304.28 53.0181" stroke="black" stroke-width="2"/>
<path d="M87 204.733L304.28 204.733" stroke="black" stroke-width="2"/>
<path d="M101.781 222.659H102.437C102.351 221.972 101.801 221.503 100.922 221.503C99.988 221.503 99.3513 222.026 99.3513 222.753C99.3513 223.319 99.7458 223.722 100.484 223.894L101.125 224.042C101.605 224.155 101.82 224.351 101.82 224.651C101.82 225.05 101.441 225.304 100.836 225.3C100.301 225.304 99.9998 225.104 99.9216 224.69H99.2185C99.3318 225.464 99.8982 225.89 100.851 225.886C101.914 225.89 102.511 225.347 102.515 224.612C102.511 224.022 102.14 223.644 101.383 223.464L100.75 223.308C100.254 223.187 100.027 222.995 100.023 222.714C100.027 222.358 100.398 222.077 100.922 222.073C101.418 222.077 101.687 222.308 101.781 222.659ZM103.187 224.597C103.187 225.425 103.828 225.897 104.633 225.901C105.371 225.897 105.758 225.507 105.898 225.222H105.929V225.8H106.594V223.003C106.597 221.667 105.554 221.503 105 221.503C104.062 221.503 103.398 221.976 103.312 222.659H104.015C104.109 222.335 104.433 222.089 104.969 222.089C105.609 222.089 105.929 222.401 105.929 222.94V223.284C105.738 223.288 105.054 223.327 104.781 223.347C104.047 223.401 103.187 223.624 103.187 224.597ZM103.859 224.628C103.863 224.163 104.25 223.948 104.859 223.909C105.062 223.897 105.73 223.847 105.929 223.835V224.261C105.929 224.796 105.508 225.304 104.75 225.3C104.234 225.304 103.863 225.077 103.859 224.628ZM107.945 227.394C108.547 227.39 108.961 227.077 109.211 226.409L111.008 221.558H110.273L109.117 224.925H109.07L107.914 221.558H107.179L108.75 225.831L108.625 226.151C108.402 226.772 108.172 226.788 107.898 226.792C107.793 226.788 107.64 226.784 107.57 226.776V227.378C107.656 227.386 107.801 227.39 107.945 227.394ZM116.117 222.659H116.773C116.687 221.972 116.136 221.503 115.258 221.503C114.324 221.503 113.687 222.026 113.687 222.753C113.687 223.319 114.082 223.722 114.82 223.894L115.461 224.042C115.941 224.155 116.156 224.351 116.156 224.651C116.156 225.05 115.777 225.304 115.172 225.3C114.636 225.304 114.336 225.104 114.258 224.69H113.554C113.668 225.464 114.234 225.89 115.187 225.886C116.25 225.89 116.847 225.347 116.851 224.612C116.847 224.022 116.476 223.644 115.719 223.464L115.086 223.308C114.59 223.187 114.363 222.995 114.359 222.714C114.363 222.358 114.734 222.077 115.258 222.073C115.754 222.077 116.023 222.308 116.117 222.659ZM119.461 225.886C120.613 225.89 121.386 225.015 121.383 223.698C121.386 222.374 120.613 221.503 119.461 221.503C118.304 221.503 117.523 222.374 117.523 223.698C117.523 225.015 118.304 225.89 119.461 225.886ZM118.195 223.698C118.199 222.854 118.597 222.097 119.461 222.097C120.316 222.097 120.711 222.854 120.711 223.698C120.711 224.546 120.316 225.292 119.461 225.292C118.597 225.292 118.199 224.546 118.195 223.698ZM122.265 225.8H122.937V223.151C122.937 222.534 123.383 222.104 123.89 222.104C124.379 222.104 124.722 222.425 124.719 222.901V225.8H125.398V223.042C125.402 222.503 125.738 222.104 126.328 222.104C126.793 222.104 127.183 222.347 127.187 222.972V225.8H127.859V222.964C127.859 221.964 127.316 221.503 126.562 221.503C125.953 221.503 125.504 221.784 125.289 222.222H125.242C125.043 221.769 124.664 221.503 124.109 221.503C123.554 221.503 123.144 221.769 122.969 222.222H122.914V221.558H122.265V225.8ZM130.719 225.886C131.594 225.89 132.222 225.452 132.422 224.808H131.703C131.547 225.069 131.226 225.292 130.719 225.292C129.965 225.292 129.441 224.8 129.406 223.901H132.484V223.62C132.488 222.05 131.547 221.503 130.656 221.503C129.504 221.503 128.734 222.409 128.734 223.714C128.734 225.015 129.492 225.89 130.719 225.886ZM129.41 223.331C129.457 222.675 129.922 222.097 130.656 222.097C131.355 222.097 131.801 222.624 131.804 223.331H129.41ZM135.211 221.558H134.32V220.542H133.64V221.558H133V222.12H133.64V224.753C133.644 225.503 134.238 225.854 134.804 225.854C135.004 225.854 135.168 225.839 135.273 225.823V225.198C135.176 225.202 134.996 225.214 134.875 225.214C134.59 225.214 134.316 225.124 134.32 224.581V222.12H135.211V221.558ZM136.844 223.253C136.844 222.519 137.312 222.104 137.945 222.104C138.554 222.104 138.922 222.483 138.922 223.151V225.8H139.594V223.104C139.594 222.015 139.015 221.503 138.148 221.503C137.476 221.503 137.097 221.784 136.898 222.222H136.844V220.144H136.172V225.8H136.844V223.253ZM140.672 225.8H141.344V221.558H140.672V225.8ZM140.539 220.409C140.535 220.655 140.75 220.854 141.008 220.854C141.265 220.854 141.48 220.655 141.484 220.409C141.48 220.159 141.265 219.96 141.008 219.964C140.75 219.96 140.535 220.159 140.539 220.409ZM143.086 223.253C143.086 222.519 143.539 222.104 144.156 222.104C144.758 222.104 145.117 222.495 145.117 223.151V225.8H145.789V223.104C145.793 222.026 145.219 221.503 144.359 221.503C143.715 221.503 143.316 221.788 143.117 222.222H143.062V221.558H142.414V225.8H143.086V223.253ZM148.586 227.479C149.621 227.479 150.426 227.011 150.429 225.917V221.558H149.773V222.229H149.719C149.566 222.003 149.301 221.503 148.476 221.503C147.41 221.503 146.664 222.315 146.664 223.62C146.664 224.956 147.437 225.733 148.469 225.737C149.289 225.733 149.558 225.253 149.703 225.019H149.758V225.878C149.758 226.577 149.312 226.894 148.586 226.894C147.984 226.894 147.582 226.679 147.492 226.245H146.789C146.863 227.03 147.558 227.479 148.586 227.479ZM147.344 223.644C147.344 222.788 147.746 222.104 148.562 222.104C149.351 222.104 149.769 222.733 149.773 223.644C149.769 224.577 149.34 225.136 148.562 225.136C147.758 225.136 147.344 224.522 147.344 223.644ZM151.976 225.847C152.254 225.843 152.48 225.616 152.476 225.339C152.48 225.065 152.254 224.839 151.976 224.839C151.703 224.839 151.469 225.065 151.476 225.339C151.469 225.616 151.703 225.843 151.976 225.847ZM154.008 225.847C154.285 225.843 154.511 225.616 154.508 225.339C154.511 225.065 154.285 224.839 154.008 224.839C153.734 224.839 153.5 225.065 153.508 225.339C153.5 225.616 153.734 225.843 154.008 225.847ZM156.039 225.847C156.316 225.843 156.543 225.616 156.539 225.339C156.543 225.065 156.316 224.839 156.039 224.839C155.765 224.839 155.531 225.065 155.539 225.339C155.531 225.616 155.765 225.843 156.039 225.847Z" fill="black" fill-opacity="0.5"/>
<g filter="url(#filter1_d_607_36)">
<path d="M88 33C88 25.8203 93.8203 20 101 20H290.467C297.646 20 303.467 25.8203 303.467 33V229C303.467 236.18 297.646 242 290.467 242H101C93.8203 242 88 236.18 88 229V33Z" stroke="black" stroke-width="2" shape-rendering="crispEdges"/>
</g>
</g>
<g filter="url(#filter2_d_607_36)">
<path d="M115 82H212C217.523 82 222 86.4772 222 92V114C222 119.523 217.523 124 212 124H125C119.477 124 115 119.523 115 114V82Z" fill="#94D7BB"/>
<path d="M116 83H212C216.971 83 221 87.0294 221 92V114C221 118.971 216.971 123 212 123H125C120.029 123 116 118.971 116 114V83Z" stroke="black" stroke-width="2"/>
</g>
<path d="M87 136L303 136" stroke="#94D7BB" stroke-width="6"/>
<g filter="url(#filter3_d_607_36)">
<mask id="path-23-inside-1_607_36" fill="white">
<path fill-rule="evenodd" clip-rule="evenodd" d="M82 190.801C100.225 190.801 115 176.026 115 157.801C115 150.822 112.833 144.348 109.136 139.017L113.259 128.579C113.954 126.822 112.049 125.171 110.408 126.108L101.513 131.185C96.0474 127.171 89.3005 124.801 82 124.801C63.7746 124.801 49 139.575 49 157.801C49 176.026 63.7746 190.801 82 190.801Z"/>
</mask>
<path fill-rule="evenodd" clip-rule="evenodd" d="M82 190.801C100.225 190.801 115 176.026 115 157.801C115 150.822 112.833 144.348 109.136 139.017L113.259 128.579C113.954 126.822 112.049 125.171 110.408 126.108L101.513 131.185C96.0474 127.171 89.3005 124.801 82 124.801C63.7746 124.801 49 139.575 49 157.801C49 176.026 63.7746 190.801 82 190.801Z" fill="white"/>
<path d="M109.136 139.017L107.276 138.282L106.883 139.277L107.493 140.157L109.136 139.017ZM113.259 128.579L115.12 129.314V129.314L113.259 128.579ZM110.408 126.108L111.399 127.845L111.399 127.845L110.408 126.108ZM101.513 131.185L100.329 132.797L101.376 133.566L102.504 132.922L101.513 131.185ZM113 157.801C113 174.922 99.1208 188.801 82 188.801V192.801C101.33 192.801 117 177.131 117 157.801H113ZM107.493 140.157C110.965 145.164 113 151.242 113 157.801H117C117 150.401 114.702 143.532 110.78 137.877L107.493 140.157ZM111.399 127.845L107.276 138.282L110.996 139.752L115.12 129.314L111.399 127.845ZM111.399 127.845C111.411 127.838 111.417 127.835 111.42 127.835C111.422 127.834 111.421 127.834 111.418 127.835C111.414 127.836 111.41 127.836 111.405 127.836C111.4 127.836 111.396 127.836 111.392 127.836C111.384 127.835 111.382 127.833 111.384 127.834C111.387 127.836 111.393 127.839 111.399 127.845C111.406 127.85 111.41 127.855 111.412 127.858C111.413 127.861 111.411 127.858 111.409 127.851C111.408 127.847 111.407 127.843 111.407 127.838C111.406 127.833 111.406 127.828 111.406 127.825C111.406 127.822 111.407 127.821 111.406 127.823C111.406 127.825 111.404 127.833 111.399 127.845L115.12 129.314C116.508 125.8 112.698 122.497 109.416 124.371L111.399 127.845ZM102.504 132.922L111.399 127.845L109.416 124.371L100.521 129.448L102.504 132.922ZM82 126.801C88.8605 126.801 95.1952 129.027 100.329 132.797L102.696 129.573C96.8995 125.316 89.7406 122.801 82 122.801V126.801ZM51 157.801C51 140.68 64.8792 126.801 82 126.801V122.801C62.67 122.801 47 138.471 47 157.801H51ZM82 188.801C64.8792 188.801 51 174.922 51 157.801H47C47 177.131 62.67 192.801 82 192.801V188.801Z" fill="black" mask="url(#path-23-inside-1_607_36)"/>
<circle cx="73.6725" cy="155.905" r="1.85047" fill="black"/>
<circle cx="90.9437" cy="155.905" r="1.85047" fill="black"/>
<g filter="url(#filter4_f_607_36)">
<circle cx="62.879" cy="162.996" r="4.00935" fill="#FFCACA"/>
</g>
<g filter="url(#filter5_f_607_36)">
<circle cx="101.122" cy="162.996" r="4.00935" fill="#FFCACA"/>
</g>
<path d="M74.2761 165.524C76.6946 169.763 83.1697 175.697 89.7229 165.524" stroke="black" stroke-width="2" stroke-linecap="round" stroke-linejoin="round"/>
</g>
<path d="M146.156 94.1797H144.301V106.992H146.156V94.1797ZM131.742 103.047L132.738 104.512C134.789 103.721 136.303 102.1 137.074 100.068C137.855 101.963 139.35 103.447 141.371 104.199L142.328 102.715C139.623 101.777 138.002 99.4336 138.012 96.875V95.1367H136.117V96.875C136.107 99.5117 134.486 102.031 131.742 103.047ZM134.711 111.289H146.684V109.785H136.586V105.781H134.711V111.289ZM154.633 95.4102C151.879 95.4004 149.857 97.1094 149.867 99.5703C149.857 102.031 151.879 103.74 154.633 103.75C157.396 103.74 159.389 102.031 159.398 99.5703C159.389 97.1094 157.396 95.4004 154.633 95.4102ZM149.027 106.387L149.262 107.93C152.387 107.93 156.635 107.91 160.59 107.148L160.453 105.801C156.625 106.357 152.211 106.387 149.027 106.387ZM151.703 99.5703C151.684 98.0371 152.934 97.0117 154.633 97.0117C156.332 97.0117 157.582 98.0371 157.582 99.5703C157.582 101.123 156.332 102.129 154.633 102.129C152.934 102.129 151.684 101.123 151.703 99.5703ZM161.547 111.699H163.402V94.1602H161.547V111.699ZM184.848 94.1797H182.992V107.266H184.848V101.348H187.387V99.8047H184.848V94.1797ZM171.117 97.7148H181.547V96.2109H177.27V94.1602H175.414V96.2109H171.117V97.7148ZM172.074 101.855C172.064 103.838 173.793 105.127 176.332 105.137C178.842 105.127 180.57 103.838 180.57 101.855C180.57 99.8535 178.842 98.5449 176.332 98.5547C173.793 98.5449 172.064 99.8535 172.074 101.855ZM173.754 111.289H185.59V109.785H175.609V106.23H173.754V111.289ZM173.871 101.855C173.852 100.703 174.848 99.9902 176.332 99.9805C177.816 99.9902 178.812 100.703 178.832 101.855C178.812 102.998 177.816 103.701 176.332 103.691C174.848 103.701 173.852 102.998 173.871 101.855ZM197.348 95.7031V94.7461H195.414V95.7031C195.404 98.0566 192.572 100.205 189.145 100.664L189.887 102.188C192.729 101.729 195.238 100.244 196.381 98.1836C197.523 100.244 200.033 101.729 202.895 102.188L203.617 100.664C200.18 100.205 197.338 98.0273 197.348 95.7031ZM188.383 105.43H195.414V111.66H197.23V105.43H204.34V103.906H188.383V105.43Z" fill="white"/>
<rect x="223" y="152" width="172" height="172" rx="13" fill="#D3EAE0" stroke="black" stroke-width="2"/>
<circle cx="235.494" cy="164.494" r="3.55102" fill="#00858C"/>
<circle cx="382.506" cy="164.494" r="3.55102" fill="#00858C"/>
<circle cx="235.494" cy="311.506" r="3.55102" fill="#00858C"/>
<circle cx="382.506" cy="311.506" r="3.55102" fill="#00858C"/>
<rect x="235.073" y="164.784" width="47.7143" height="147.143" stroke="#00858C" stroke-width="2"/>
<rect x="235.073" y="164.784" width="147.143" height="147.143" stroke="#00858C" stroke-width="2"/>
<rect x="283.367" y="164.784" width="47.7143" height="147.143" stroke="#00858C" stroke-width="2"/>
<rect x="382.216" y="215.918" width="47.7143" height="147.143" transform="rotate(90 382.216 215.918)" stroke="#00858C" stroke-width="2"/>
<rect x="382.216" y="264.213" width="47.7143" height="147.143" transform="rotate(90 382.216 264.213)" stroke="#00858C" stroke-width="2"/>
<circle cx="332.322" cy="263.456" r="20.081" fill="#EE5C5C" stroke="black" stroke-width="3"/>
<mask id="path-42-inside-2_607_36" fill="white">
<path fill-rule="evenodd" clip-rule="evenodd" d="M402.886 184.188L399.185 168.75C397.879 168.612 396.553 168.542 395.21 168.542C374.59 168.542 357.874 185.166 357.874 205.672C357.874 212.028 359.48 218.01 362.31 223.241L355.205 238.045C354.387 239.749 356.17 241.531 357.873 240.714L371.361 234.241C377.829 239.587 386.142 242.802 395.21 242.802C415.83 242.802 432.546 226.179 432.546 205.672C432.546 200.729 431.575 196.012 429.812 191.698L423.124 195.831L419.635 186.735H414.75L413.354 180.186L402.886 184.188Z"/>
</mask>
<path fill-rule="evenodd" clip-rule="evenodd" d="M402.886 184.188L399.185 168.75C397.879 168.612 396.553 168.542 395.21 168.542C374.59 168.542 357.874 185.166 357.874 205.672C357.874 212.028 359.48 218.01 362.31 223.241L355.205 238.045C354.387 239.749 356.17 241.531 357.873 240.714L371.361 234.241C377.829 239.587 386.142 242.802 395.21 242.802C415.83 242.802 432.546 226.179 432.546 205.672C432.546 200.729 431.575 196.012 429.812 191.698L423.124 195.831L419.635 186.735H414.75L413.354 180.186L402.886 184.188Z" fill="#5B5B5B"/>
<path d="M399.185 168.75L401.129 168.284L400.8 166.909L399.394 166.761L399.185 168.75ZM402.886 184.188L400.941 184.654L401.472 186.869L403.6 186.056L402.886 184.188ZM362.31 223.241L364.113 224.106L364.554 223.186L364.069 222.289L362.31 223.241ZM355.205 238.045L357.008 238.911H357.008L355.205 238.045ZM357.873 240.714L357.008 238.911H357.008L357.873 240.714ZM371.361 234.241L372.635 232.699L371.649 231.884L370.495 232.438L371.361 234.241ZM429.812 191.698L431.663 190.942L430.769 188.756L428.76 189.997L429.812 191.698ZM423.124 195.831L421.257 196.547L422.122 198.801L424.175 197.532L423.124 195.831ZM419.635 186.735L421.502 186.018L421.01 184.735H419.635V186.735ZM414.75 186.735L412.794 187.151L413.131 188.735H414.75V186.735ZM413.354 180.186L415.31 179.769L414.823 177.483L412.64 178.317L413.354 180.186ZM397.24 169.216L400.941 184.654L404.831 183.721L401.129 168.284L397.24 169.216ZM395.21 170.542C396.483 170.542 397.739 170.609 398.975 170.739L399.394 166.761C398.019 166.616 396.623 166.542 395.21 166.542V170.542ZM359.874 205.672C359.874 186.281 375.684 170.542 395.21 170.542V166.542C373.496 166.542 355.874 184.051 355.874 205.672H359.874ZM364.069 222.289C361.393 217.343 359.874 211.687 359.874 205.672H355.874C355.874 212.369 357.567 218.677 360.551 224.193L364.069 222.289ZM357.008 238.911L364.113 224.106L360.506 222.375L353.402 237.18L357.008 238.911ZM357.008 238.911C356.996 238.916 356.989 238.918 356.987 238.919C356.985 238.92 356.985 238.919 356.989 238.919C356.992 238.919 356.996 238.918 357.002 238.919C357.006 238.919 357.011 238.919 357.015 238.92C357.022 238.922 357.025 238.923 357.022 238.922C357.019 238.92 357.014 238.917 357.008 238.911C357.002 238.905 356.998 238.899 356.997 238.896C356.995 238.894 356.997 238.896 356.998 238.904C356.999 238.907 357 238.912 357 238.917C357 238.922 357 238.926 356.999 238.93C356.999 238.933 356.999 238.934 356.999 238.932C357 238.929 357.002 238.922 357.008 238.911L353.402 237.18C351.767 240.587 355.332 244.152 358.738 242.517L357.008 238.911ZM370.495 232.438L357.008 238.911L358.738 242.517L372.226 236.044L370.495 232.438ZM395.21 240.802C386.623 240.802 378.757 237.76 372.635 232.699L370.086 235.783C376.901 241.415 385.661 244.802 395.21 244.802V240.802ZM430.546 205.672C430.546 225.064 414.736 240.802 395.21 240.802V244.802C416.924 244.802 434.546 227.294 434.546 205.672H430.546ZM427.96 192.455C429.627 196.533 430.546 200.993 430.546 205.672H434.546C434.546 200.465 433.522 195.491 431.663 190.942L427.96 192.455ZM424.175 197.532L430.863 193.4L428.76 189.997L422.073 194.129L424.175 197.532ZM417.768 187.451L421.257 196.547L424.992 195.114L421.502 186.018L417.768 187.451ZM414.75 188.735H419.635V184.735H414.75V188.735ZM411.398 180.602L412.794 187.151L416.706 186.318L415.31 179.769L411.398 180.602ZM403.6 186.056L414.068 182.054L412.64 178.317L402.172 182.32L403.6 186.056Z" fill="black" mask="url(#path-42-inside-2_607_36)"/>
<ellipse cx="385.157" cy="206.964" rx="2.09361" ry="2.18303" fill="#BCBCBC"/>
<ellipse cx="404.697" cy="206.964" rx="2.09361" ry="2.18303" fill="#BCBCBC"/>
<path d="M386.553 217.879C389.176 220.625 396.197 224.469 403.302 217.879" stroke="#BCBCBC" stroke-width="2" stroke-linecap="round" stroke-linejoin="round"/>
<path d="M371.622 196.141C370.764 195.902 370.242 194.996 370.515 194.142C371.724 190.35 373.724 186.876 376.38 183.976C379.017 181.096 382.225 178.863 385.773 177.427C386.613 177.087 387.551 177.595 387.823 178.49C388.084 179.349 387.631 180.246 386.825 180.577C383.755 181.837 380.978 183.78 378.691 186.278C376.401 188.779 374.666 191.767 373.601 195.029C373.325 195.871 372.47 196.377 371.622 196.141Z" fill="#C4C4C4" fill-opacity="0.4"/>
<defs>
<filter id="filter0_d_607_36" x="78" y="16" width="229.467" height="236" filterUnits="userSpaceOnUse" color-interpolation-filters="sRGB">
<feFlood flood-opacity="0" result="BackgroundImageFix"/>
<feColorMatrix in="SourceAlpha" type="matrix" values="0 0 0 0 0 0 0 0 0 0 0 0 0 0 0 0 0 0 127 0" result="hardAlpha"/>
<feOffset dx="-3" dy="3"/>
<feGaussianBlur stdDeviation="3"/>
<feComposite in2="hardAlpha" operator="out"/>
<feColorMatrix type="matrix" values="0 0 0 0 0.658333 0 0 0 0 0.576042 0 0 0 0 0.452604 0 0 0 0.25 0"/>
<feBlend mode="normal" in2="BackgroundImageFix" result="effect1_dropShadow_607_36"/>
<feBlend mode="normal" in="SourceGraphic" in2="effect1_dropShadow_607_36" result="shape"/>
</filter>
<filter id="filter1_d_607_36" x="78" y="16" width="229.467" height="236" filterUnits="userSpaceOnUse" color-interpolation-filters="sRGB">
<feFlood flood-opacity="0" result="BackgroundImageFix"/>
<feColorMatrix in="SourceAlpha" type="matrix" values="0 0 0 0 0 0 0 0 0 0 0 0 0 0 0 0 0 0 127 0" result="hardAlpha"/>
<feOffset dx="-3" dy="3"/>
<feGaussianBlur stdDeviation="3"/>
<feComposite in2="hardAlpha" operator="out"/>
<feColorMatrix type="matrix" values="0 0 0 0 0.658333 0 0 0 0 0.576042 0 0 0 0 0.452604 0 0 0 0.25 0"/>
<feBlend mode="normal" in2="BackgroundImageFix" result="effect1_dropShadow_607_36"/>
<feBlend mode="normal" in="SourceGraphic" in2="effect1_dropShadow_607_36" result="shape"/>
</filter>
<filter id="filter2_d_607_36" x="106" y="77" width="121" height="56" filterUnits="userSpaceOnUse" color-interpolation-filters="sRGB">
<feFlood flood-opacity="0" result="BackgroundImageFix"/>
<feColorMatrix in="SourceAlpha" type="matrix" values="0 0 0 0 0 0 0 0 0 0 0 0 0 0 0 0 0 0 127 0" result="hardAlpha"/>
<feMorphology radius="3" operator="dilate" in="SourceAlpha" result="effect1_dropShadow_607_36"/>
<feOffset dx="-2" dy="2"/>
<feGaussianBlur stdDeviation="2"/>
<feComposite in2="hardAlpha" operator="out"/>
<feColorMatrix type="matrix" values="0 0 0 0 0.8625 0 0 0 0 0.772944 0 0 0 0 0.542656 0 0 0 0.25 0"/>
<feBlend mode="normal" in2="BackgroundImageFix" result="effect1_dropShadow_607_36"/>
<feBlend mode="normal" in="SourceGraphic" in2="effect1_dropShadow_607_36" result="shape"/>
</filter>
<filter id="filter3_d_607_36" x="43" y="122.801" width="74" height="74" filterUnits="userSpaceOnUse" color-interpolation-filters="sRGB">
<feFlood flood-opacity="0" result="BackgroundImageFix"/>
<feColorMatrix in="SourceAlpha" type="matrix" values="0 0 0 0 0 0 0 0 0 0 0 0 0 0 0 0 0 0 127 0" result="hardAlpha"/>
<feOffset dx="-2" dy="2"/>
<feGaussianBlur stdDeviation="2"/>
<feComposite in2="hardAlpha" operator="out"/>
<feColorMatrix type="matrix" values="0 0 0 0 0 0 0 0 0 0 0 0 0 0 0 0 0 0 0.25 0"/>
<feBlend mode="normal" in2="BackgroundImageFix" result="effect1_dropShadow_607_36"/>
<feBlend mode="normal" in="SourceGraphic" in2="effect1_dropShadow_607_36" result="shape"/>
</filter>
<filter id="filter4_f_607_36" x="54.8696" y="154.986" width="16.0188" height="16.0186" filterUnits="userSpaceOnUse" color-interpolation-filters="sRGB">
<feFlood flood-opacity="0" result="BackgroundImageFix"/>
<feBlend mode="normal" in="SourceGraphic" in2="BackgroundImageFix" result="shape"/>
<feGaussianBlur stdDeviation="2" result="effect1_foregroundBlur_607_36"/>
</filter>
<filter id="filter5_f_607_36" x="93.1123" y="154.986" width="16.0188" height="16.0186" filterUnits="userSpaceOnUse" color-interpolation-filters="sRGB">
<feFlood flood-opacity="0" result="BackgroundImageFix"/>
<feBlend mode="normal" in="SourceGraphic" in2="BackgroundImageFix" result="shape"/>
<feGaussianBlur stdDeviation="2" result="effect1_foregroundBlur_607_36"/>
</filter>
</defs>
</svg>
