<svg width="101" height="106" viewBox="0 0 101 106" fill="none" xmlns="http://www.w3.org/2000/svg">
<mask id="path-1-inside-1_495_99" fill="white">
<path fill-rule="evenodd" clip-rule="evenodd" d="M55.4109 4.13003L60.4347 25.0133L74.4893 19.6007L76.3633 28.4576H82.9221L87.6069 40.759L94.2509 30.2172C98.0813 37.3126 100.256 45.4365 100.256 54.0692C100.256 81.802 77.8129 104.284 50.128 104.284C22.4431 104.284 0 81.802 0 54.0692C0 26.3364 22.4431 3.85449 50.128 3.85449C51.9123 3.85449 53.6747 3.94787 55.4109 4.13003Z"/>
</mask>
<path fill-rule="evenodd" clip-rule="evenodd" d="M55.4109 4.13003L60.4347 25.0133L74.4893 19.6007L76.3633 28.4576H82.9221L87.6069 40.759L94.2509 30.2172C98.0813 37.3126 100.256 45.4365 100.256 54.0692C100.256 81.802 77.8129 104.284 50.128 104.284C22.4431 104.284 0 81.802 0 54.0692C0 26.3364 22.4431 3.85449 50.128 3.85449C51.9123 3.85449 53.6747 3.94787 55.4109 4.13003Z" fill="#5B5B5B"/>
<path d="M60.4347 25.0133L57.518 25.715L58.3186 29.043L61.5129 27.8128L60.4347 25.0133ZM55.4109 4.13003L58.3276 3.42833L57.8319 1.36757L55.7239 1.1464L55.4109 4.13003ZM74.4893 19.6007L77.4243 18.9797L76.6958 15.5362L73.4112 16.8011L74.4893 19.6007ZM76.3633 28.4576L73.4282 29.0786L73.9316 31.4576H76.3633V28.4576ZM82.9221 28.4576L85.7256 27.3899L84.9897 25.4576H82.9221V28.4576ZM87.6069 40.759L84.8034 41.8267L86.9416 47.4412L90.1449 42.3586L87.6069 40.759ZM94.2509 30.2172L96.8908 28.7921L94.4511 24.273L91.7129 28.6176L94.2509 30.2172ZM63.3515 24.3116L58.3276 3.42833L52.4941 4.83172L57.518 25.715L63.3515 24.3116ZM73.4112 16.8011L59.3566 22.2137L61.5129 27.8128L75.5675 22.4002L73.4112 16.8011ZM79.2983 27.8367L77.4243 18.9797L71.5543 20.2217L73.4282 29.0786L79.2983 27.8367ZM82.9221 25.4576H76.3633V31.4576H82.9221V25.4576ZM90.4105 39.6913L85.7256 27.3899L80.1185 29.5254L84.8034 41.8267L90.4105 39.6913ZM91.7129 28.6176L85.0689 39.1594L90.1449 42.3586L96.7889 31.8168L91.7129 28.6176ZM91.611 31.6423C95.2109 38.3106 97.256 45.9461 97.256 54.0692H103.256C103.256 44.9269 100.952 36.3146 96.8908 28.7921L91.611 31.6423ZM97.256 54.0692C97.256 80.1501 76.1512 101.284 50.128 101.284V107.284C79.4747 107.284 103.256 83.454 103.256 54.0692H97.256ZM50.128 101.284C24.1048 101.284 3 80.1501 3 54.0692H-3C-3 83.454 20.7813 107.284 50.128 107.284V101.284ZM3 54.0692C3 27.9883 24.1048 6.85449 50.128 6.85449V0.854492C20.7813 0.854492 -3 24.6844 -3 54.0692H3ZM50.128 6.85449C51.8075 6.85449 53.4655 6.94239 55.0978 7.11365L55.7239 1.1464C53.884 0.95336 52.017 0.854492 50.128 0.854492V6.85449Z" fill="black" mask="url(#path-1-inside-1_495_99)"/>
<ellipse cx="37.4789" cy="54.0461" rx="2.81091" ry="2.95232" fill="#BCBCBC"/>
<ellipse cx="63.7137" cy="54.0461" rx="2.81091" ry="2.95232" fill="#BCBCBC"/>
<path d="M61.8398 73.7275C58.3191 70.0144 48.8926 64.816 39.3525 73.7275" stroke="#BCBCBC" stroke-width="3" stroke-linecap="round" stroke-linejoin="round"/>
<path d="M15.8156 43.2752C14.5496 42.9206 13.777 41.5774 14.1769 40.3129C15.959 34.6787 18.9094 29.5183 22.826 25.2099C26.7108 20.9364 31.4369 17.6215 36.6622 15.4892C37.9055 14.9818 39.2978 15.7413 39.6998 17.0738V17.0738C40.0835 18.3455 39.4187 19.6676 38.2343 20.1571C33.7048 22.029 29.6076 24.9159 26.2338 28.6273C22.8538 32.3455 20.2943 36.7871 18.7242 41.6362C18.3214 42.88 17.0639 43.6248 15.8156 43.2752V43.2752Z" fill="#C4C4C4" fill-opacity="0.4"/>
</svg>
