<svg width="648" height="467" viewBox="0 0 648 467" fill="none" xmlns="http://www.w3.org/2000/svg">
<rect x="236" y="411" width="129" height="14" fill="#94D7BB" fill-opacity="0.3"/>
<rect x="168" y="434" width="59" height="14" fill="#94D7BB" fill-opacity="0.3"/>
<rect x="291" y="434" width="72" height="14" fill="#94D7BB" fill-opacity="0.3"/>
<path d="M215.617 414.25H202.961V415.25H208.664V416.625H204.492V417.578H212.789V418.812H204.523V422.109H214.414V421.141H205.742V419.734H213.992V416.625H209.883V415.25H215.617V414.25ZM204.602 413.078H213.977V408.844H204.602V413.078ZM205.82 412.094V409.828H212.758V412.094H205.82ZM229.492 416.312H223.727V414.781H228.148V413.812H219.648V412.266H227.852V408.828H218.383V409.812H226.617V411.359H218.43V414.781H222.523V416.312H216.773V417.328H229.492V416.312ZM218.461 422.125H228.148V421.109H219.695V418.266H218.461V422.125ZM246.305 408.609H235.633V410.094H237.477V411.969H235.727V413.453H246.211V411.969H244.445V410.094H246.305V408.609ZM234.492 415.766H247.461V414.203H234.492V415.766ZM235.992 418.016H243.914V418.734H236.008V422.344H246.258V420.875H237.961V420.094H245.883V416.578H235.992V418.016ZM239.477 411.969V410.094H242.445V411.969H239.477ZM253.758 409.641H248.711V411.219H251.836V413.453H248.727V419.109H249.727C251.516 419.094 253.109 419.062 254.977 418.719L254.805 417.094C253.328 417.367 252.023 417.438 250.633 417.453V415.031H253.758V409.641ZM254.352 414.688H255.805V421.75H257.664V408.484H255.805V413.078H254.352V414.688ZM258.727 422.438H260.617V408.219H258.727V422.438ZM274.055 408.219H272.039V422.469H274.055V408.219ZM262.57 414.281C262.562 417.406 264.148 419.359 266.336 419.359C268.477 419.359 270.07 417.406 270.07 414.281C270.07 411.18 268.477 409.219 266.336 409.219C264.148 409.219 262.562 411.18 262.57 414.281ZM264.492 414.281C264.484 412.172 265.227 411.016 266.336 411.016C267.414 411.016 268.141 412.172 268.148 414.281C268.141 416.398 267.414 417.555 266.336 417.547C265.227 417.555 264.484 416.398 264.492 414.281ZM279.898 409.219C277.742 409.219 276.195 411.18 276.211 414.281C276.195 417.406 277.742 419.359 279.898 419.359C281.883 419.359 283.352 417.688 283.562 414.953H286.008V422.469H287.977V408.219H286.008V413.359H283.539C283.258 410.797 281.82 409.219 279.898 409.219ZM278.117 414.281C278.109 412.172 278.836 411.016 279.898 411.016C280.969 411.016 281.68 412.172 281.68 414.281C281.68 416.398 280.969 417.555 279.898 417.547C278.836 417.555 278.109 416.398 278.117 414.281ZM302.664 419.516H296.867V416.891H301.383V415.875H292.758V413.609H301.055V409.406H291.508V410.422H299.852V412.609H291.539V416.891H295.664V419.516H289.945V420.547H302.664V419.516ZM314.992 414.891H306.633V410.516H314.852V409.516H305.398V415.891H309.492V419.484H303.773V420.516H316.492V419.484H310.695V415.891H314.992V414.891ZM333.289 408.609H322.617V410.094H324.461V411.969H322.711V413.453H333.195V411.969H331.43V410.094H333.289V408.609ZM321.477 415.766H334.445V414.203H321.477V415.766ZM322.977 418.016H330.898V418.734H322.992V422.344H333.242V420.875H324.945V420.094H332.867V416.578H322.977V418.016ZM326.461 411.969V410.094H329.43V411.969H326.461ZM340.742 409.641H335.695V411.219H338.82V413.453H335.711V419.109H336.711C338.5 419.094 340.094 419.062 341.961 418.719L341.789 417.094C340.312 417.367 339.008 417.438 337.617 417.453V415.031H340.742V409.641ZM341.336 414.688H342.789V421.75H344.648V408.484H342.789V413.078H341.336V414.688ZM345.711 422.438H347.602V408.219H345.711V422.438ZM361.039 408.219H359.023V422.469H361.039V408.219ZM349.555 414.281C349.547 417.406 351.133 419.359 353.32 419.359C355.461 419.359 357.055 417.406 357.055 414.281C357.055 411.18 355.461 409.219 353.32 409.219C351.133 409.219 349.547 411.18 349.555 414.281ZM351.477 414.281C351.469 412.172 352.211 411.016 353.32 411.016C354.398 411.016 355.125 412.172 355.133 414.281C355.125 416.398 354.398 417.555 353.32 417.547C352.211 417.555 351.469 416.398 351.477 414.281ZM373.961 408.328H372.742V416.016H373.961V412.719H376.07V411.703H373.961V408.328ZM363.133 410.625H371.414V409.641H367.883V408.234H366.664V409.641H363.133V410.625ZM363.93 413.531C363.922 414.945 365.25 415.805 367.273 415.812C369.289 415.805 370.602 414.945 370.617 413.531C370.602 412.125 369.289 411.258 367.273 411.25C365.25 411.258 363.922 412.125 363.93 413.531ZM365.102 417.656H372.742V418.906H365.133V422.109H374.477V421.172H366.336V419.812H373.961V416.734H365.102V417.656ZM365.102 413.531C365.094 412.703 365.953 412.164 367.273 412.156C368.586 412.164 369.445 412.703 369.461 413.531C369.445 414.367 368.586 414.891 367.273 414.891C365.953 414.891 365.094 414.367 365.102 413.531ZM387.914 409.672V408.875H386.648V409.672C386.648 411.664 384.109 413.32 381.602 413.672L382.102 414.672C384.266 414.312 386.398 413.133 387.289 411.414C388.18 413.117 390.32 414.312 392.477 414.672L392.977 413.672C390.469 413.32 387.922 411.633 387.914 409.672ZM380.945 417.234H386.648V422.266H387.852V417.234H393.602V416.203H380.945V417.234ZM403.492 417.703V416.938H402.305V417.703C402.289 419.031 401.234 420.516 399.477 421.172L400.102 422.078C401.43 421.578 402.383 420.609 402.883 419.492C403.297 420.656 404.156 421.672 405.508 422.188C406.789 421.648 407.641 420.578 408.07 419.453C408.555 420.617 409.523 421.586 410.914 422.078L411.523 421.172C409.742 420.555 408.688 419.133 408.695 417.703V416.938H407.492V417.703C407.5 418.773 406.797 420.164 405.469 420.984C404.148 420.234 403.484 418.93 403.492 417.703ZM399.117 412.453C399.109 414.359 400.648 415.672 402.758 415.672C404.867 415.672 406.391 414.359 406.398 412.453C406.391 410.516 404.867 409.195 402.758 409.203C400.648 409.195 399.109 410.516 399.117 412.453ZM400.32 412.453C400.305 411.156 401.328 410.234 402.758 410.25C404.172 410.234 405.195 411.156 405.195 412.453C405.195 413.742 404.172 414.648 402.758 414.656C401.328 414.648 400.305 413.742 400.32 412.453ZM409.039 416.328H410.258V408.391H409.039V416.328ZM415.445 416.719H414.227V422.078H423.617V416.719H422.383V418.344H415.445V416.719ZM412.617 415.734H425.273V414.719H412.617V415.734ZM413.336 412.75L413.805 413.734C415.945 413.414 418.07 412.328 418.953 410.766C419.836 412.32 421.953 413.414 424.102 413.734L424.555 412.75C422.109 412.438 419.578 410.898 419.586 409.188V408.531H418.32V409.188C418.32 410.953 415.812 412.414 413.336 412.75ZM415.445 421.094V419.312H422.383V421.094H415.445ZM437.898 408.375H436.68V422.266H437.898V408.375ZM427.352 418.688H428.477C430.703 418.688 432.898 418.516 435.367 418L435.195 416.953C432.867 417.445 430.68 417.609 428.555 417.625V409.75H427.352V418.688ZM451.023 408.375H449.805V422.297H451.023V414.906H453.352V413.875H451.023V408.375ZM440.883 418.812H441.977C444.617 418.812 446.438 418.734 448.617 418.344L448.461 417.281C446.391 417.664 444.617 417.773 442.102 417.781V410.75H447.367V409.734H440.883V418.812ZM455.57 421.094C456.125 421.086 456.578 420.633 456.57 420.078C456.578 419.531 456.125 419.078 455.57 419.078C455.023 419.078 454.555 419.531 454.57 420.078C454.555 420.633 455.023 421.086 455.57 421.094ZM178.727 431.219H176.836V445.438H178.727V431.219ZM166.133 441.281L167.336 442.75C168.641 441.953 169.5 440.547 169.984 438.891C170.469 440.422 171.297 441.688 172.57 442.438L173.742 440.969C171.664 439.781 170.922 437.391 170.93 435.031V434.266H173.086V432.672H166.68V434.266H169.008V435.031C169.008 437.445 168.227 439.992 166.133 441.281ZM172.07 437.703H173.945V444.781H175.82V431.453H173.945V436.094H172.07V437.703ZM191.539 431.234H189.539V441.844H191.539V437.219H193.461V435.594H191.539V431.234ZM180.258 434.297H188.695V432.719H185.477V431.203H183.492V432.719H180.258V434.297ZM180.945 437.547C180.945 439.188 182.406 440.266 184.477 440.266C186.539 440.266 187.977 439.188 187.977 437.547C187.977 435.898 186.539 434.797 184.477 434.797C182.406 434.797 180.945 435.898 180.945 437.547ZM182.32 445.188H192.055V443.594H184.305V441.031H182.32V445.188ZM182.898 437.547C182.891 436.758 183.523 436.32 184.477 436.312C185.438 436.32 186.086 436.758 186.086 437.547C186.086 438.328 185.438 438.75 184.477 438.75C183.523 438.75 182.891 438.328 182.898 437.547ZM203.305 434.438V432.312H201.289V434.438C201.281 437.195 200.07 439.922 197.586 440.969L198.789 442.625C200.523 441.836 201.688 440.289 202.328 438.367C202.977 440.125 204.102 441.547 205.727 442.281L206.898 440.688C204.484 439.664 203.297 437.047 203.305 434.438ZM207.664 445.469H209.68V431.219H207.664V445.469ZM222.883 431.219H220.867V441.406H222.883V436.844H224.805V435.203H222.883V431.219ZM211.508 438.438L212.336 440.016C216.602 438.812 219 436.125 219.008 432.281H212.133V433.906H216.812C216.5 435.906 214.695 437.555 211.508 438.438ZM213.633 445.188H223.367V443.594H215.648V440.359H213.633V445.188ZM237.023 431.375H235.789V445.297H237.023V431.375ZM226.086 437.297C226.094 440.258 227.562 442.133 229.633 442.125C231.695 442.133 233.188 440.258 233.18 437.297C233.188 434.344 231.695 432.461 229.633 432.453C227.562 432.461 226.094 434.344 226.086 437.297ZM227.273 437.297C227.273 435.039 228.242 433.555 229.633 433.547C231.031 433.555 231.992 435.039 231.992 437.297C231.992 439.555 231.031 441.039 229.633 441.031C228.242 441.039 227.273 439.555 227.273 437.297ZM248.117 440.703V439.938H246.93V440.703C246.914 442.031 245.859 443.516 244.102 444.172L244.727 445.078C246.055 444.578 247.008 443.609 247.508 442.492C247.922 443.656 248.781 444.672 250.133 445.188C251.414 444.648 252.266 443.578 252.695 442.453C253.18 443.617 254.148 444.586 255.539 445.078L256.148 444.172C254.367 443.555 253.312 442.133 253.32 440.703V439.938H252.117V440.703C252.125 441.773 251.422 443.164 250.094 443.984C248.773 443.234 248.109 441.93 248.117 440.703ZM243.742 435.453C243.734 437.359 245.273 438.672 247.383 438.672C249.492 438.672 251.016 437.359 251.023 435.453C251.016 433.516 249.492 432.195 247.383 432.203C245.273 432.195 243.734 433.516 243.742 435.453ZM244.945 435.453C244.93 434.156 245.953 433.234 247.383 433.25C248.797 433.234 249.82 434.156 249.82 435.453C249.82 436.742 248.797 437.648 247.383 437.656C245.953 437.648 244.93 436.742 244.945 435.453ZM253.664 439.328H254.883V431.391H253.664V439.328ZM263.57 432.281C260.672 432.289 258.492 433.805 258.492 436.094C258.492 438.406 260.672 439.922 263.57 439.906C266.469 439.922 268.648 438.406 268.648 436.094C268.648 433.805 266.469 432.289 263.57 432.281ZM257.242 443.422H269.961V442.391H257.242V443.422ZM259.664 436.094C259.648 434.43 261.328 433.273 263.57 433.281C265.797 433.273 267.461 434.43 267.461 436.094C267.461 437.781 265.797 438.906 263.57 438.906C261.328 438.906 259.648 437.781 259.664 436.094ZM282.523 431.375H281.305V445.266H282.523V431.375ZM271.977 441.688H273.102C275.328 441.688 277.523 441.516 279.992 441L279.82 439.953C277.492 440.445 275.305 440.609 273.18 440.625V432.75H271.977V441.688ZM294.305 434.438V432.312H292.289V434.438C292.281 437.195 291.07 439.922 288.586 440.969L289.789 442.625C291.523 441.836 292.688 440.289 293.328 438.367C293.977 440.125 295.102 441.547 296.727 442.281L297.898 440.688C295.484 439.664 294.297 437.047 294.305 434.438ZM298.664 445.469H300.68V431.219H298.664V445.469ZM313.883 431.219H311.867V441.406H313.883V436.844H315.805V435.203H313.883V431.219ZM302.508 438.438L303.336 440.016C307.602 438.812 310 436.125 310.008 432.281H303.133V433.906H307.812C307.5 435.906 305.695 437.555 302.508 438.438ZM304.633 445.188H314.367V443.594H306.648V440.359H304.633V445.188ZM322.898 431.625C319.797 431.625 317.977 432.477 317.977 434.016C317.977 435.594 319.797 436.445 322.898 436.453C325.984 436.445 327.797 435.594 327.805 434.016C327.797 432.477 325.984 431.625 322.898 431.625ZM316.57 438.391H329.227V437.391H316.57V438.391ZM318.102 440.531H326.398V441.797H318.133V445.109H328.023V444.141H319.352V442.703H327.602V439.594H318.102V440.531ZM319.258 434.016C319.242 433.102 320.594 432.555 322.898 432.547C325.203 432.555 326.547 433.102 326.555 434.016C326.547 434.984 325.203 435.516 322.898 435.516C320.594 435.516 319.242 434.984 319.258 434.016ZM347.273 438.516H334.258V440.078H339.945V442.375H341.914V440.078H347.273V438.516ZM335.789 445.188H345.836V443.594H337.758V441.25H335.789V445.188ZM335.93 437.516H345.586V431.672H343.602V433.156H337.898V431.672H335.93V437.516ZM337.898 435.938V434.641H343.602V435.938H337.898ZM350.383 432.484H348.508V442.062H354.164V432.484H352.32V435.688H350.383V432.484ZM350.383 440.469V437.25H352.32V440.469H350.383ZM355.352 444.781H357.242V438.266H358.523V445.438H360.43V431.219H358.523V436.641H357.242V431.422H355.352V444.781ZM369.008 433.781H366.148V431.797H364.93V433.781H362.039V434.781H369.008V433.781ZM362.539 438.875C362.539 440.742 363.797 442.055 365.523 442.062C367.273 442.055 368.523 440.742 368.539 438.875C368.523 437.031 367.273 435.727 365.523 435.719C363.797 435.727 362.539 437.031 362.539 438.875ZM363.633 438.875C363.633 437.656 364.422 436.766 365.523 436.75C366.633 436.766 367.445 437.656 367.445 438.875C367.445 440.109 366.633 440.992 365.523 440.984C364.422 440.992 363.633 440.109 363.633 438.875ZM369.727 444.578H370.883V438.25H372.727V445.266H373.898V431.375H372.727V437.234H370.883V431.719H369.727V444.578ZM380.789 435.109V432.578H379.539V435.109C379.531 437.672 377.922 440.344 375.883 441.344L376.68 442.328C378.258 441.492 379.562 439.711 380.18 437.633C380.797 439.609 382.102 441.266 383.68 442.078L384.414 441.078C382.398 440.156 380.781 437.625 380.789 435.109ZM382.898 437.125H386.195V445.297H387.414V431.375H386.195V436.125H382.898V437.125ZM398.398 435.109V432.578H397.195V435.109C397.18 437.648 395.57 440.312 393.539 441.312L394.32 442.297C395.883 441.461 397.195 439.703 397.812 437.656C398.43 439.586 399.711 441.234 401.242 442.031L401.992 441.047C400.016 440.078 398.398 437.555 398.398 435.109ZM403.273 445.266H404.492V438.078H406.82V437.016H404.492V431.375H403.273V445.266ZM420.227 438.25H417.086V436.289C418.18 435.852 418.797 435.148 418.805 434.219C418.797 432.586 416.922 431.648 413.898 431.641C410.852 431.648 408.977 432.586 408.977 434.219C408.977 435.156 409.602 435.859 410.711 436.289V438.25H407.57V439.266H420.227V438.25ZM409.102 442.781C409.094 444.367 410.883 445.234 413.898 445.234C416.875 445.234 418.664 444.367 418.68 442.781C418.664 441.195 416.875 440.32 413.898 440.328C410.883 440.32 409.094 441.195 409.102 442.781ZM410.242 434.219C410.234 433.219 411.625 432.609 413.898 432.609C416.148 432.609 417.547 433.219 417.555 434.219C417.547 435.234 416.148 435.82 413.898 435.828C411.625 435.82 410.234 435.234 410.242 434.219ZM410.352 442.781C410.336 441.836 411.672 441.281 413.898 441.266C416.102 441.281 417.438 441.836 417.445 442.781C417.438 443.727 416.102 444.289 413.898 444.281C411.672 444.289 410.336 443.727 410.352 442.781ZM411.93 438.25V436.625C412.516 436.727 413.172 436.781 413.898 436.781C414.625 436.781 415.281 436.727 415.867 436.617V438.25H411.93ZM432.148 431.375H430.93V445.266H432.148V438.125H434.477V437.109H432.148V431.375ZM421.32 434.625H429.586V433.609H426.117V431.547H424.898V433.609H421.32V434.625ZM422.117 438.969C422.109 440.852 423.547 442.156 425.523 442.156C427.484 442.156 428.914 440.852 428.93 438.969C428.914 437.094 427.484 435.781 425.523 435.781C423.547 435.781 422.109 437.094 422.117 438.969ZM423.289 438.969C423.281 437.711 424.227 436.805 425.523 436.812C426.805 436.805 427.742 437.711 427.758 438.969C427.742 440.234 426.805 441.125 425.523 441.109C424.227 441.125 423.281 440.234 423.289 438.969ZM440.164 435.109V432.578H438.945V435.109C438.93 437.742 437.219 440.398 435.148 441.344L435.93 442.375C437.555 441.555 438.922 439.797 439.562 437.703C440.227 439.68 441.594 441.328 443.18 442.094L443.93 441.125C441.883 440.195 440.156 437.648 440.164 435.109ZM445.445 445.297H446.68V431.375H445.445V445.297ZM456.086 432.594H449.711V439.078H456.086V437.828H459.336V441.531H460.57V431.391H459.336V433.828H456.086V432.594ZM450.93 438.094V433.609H454.883V438.094H450.93ZM451.586 444.969H460.883V443.938H452.82V440.625H451.586V444.969ZM456.086 436.812V434.859H459.336V436.812H456.086ZM466.727 441.219L466.914 442.25C468.797 442.258 471.773 442.188 474.07 441.797L474.008 440.906C473.125 441.008 472.109 441.086 471.086 441.133V438.391H473.508V437.375H468.68V433.812H473.383V432.797H467.477V438.391H469.898V441.172C468.734 441.211 467.617 441.219 466.727 441.219ZM474.648 444.531H475.789V438.172H477.523V445.266H478.711V431.375H477.523V437.172H475.789V431.688H474.648V444.531ZM493.445 442.453H490.289V438.672C491.438 438.055 492.133 437.07 492.133 435.828C492.133 433.68 490.023 432.266 487.055 432.25C484.086 432.266 481.977 433.68 481.977 435.828C481.977 437.094 482.695 438.094 483.883 438.711V442.453H480.727V443.484H493.445V442.453ZM483.164 435.828C483.156 434.273 484.773 433.25 487.055 433.266C489.312 433.25 490.945 434.273 490.945 435.828C490.945 437.383 489.312 438.422 487.055 438.422C484.773 438.422 483.156 437.383 483.164 435.828ZM485.086 442.453V439.156C485.68 439.312 486.344 439.391 487.055 439.391C487.781 439.391 488.453 439.305 489.055 439.148V442.453H485.086Z" fill="black"/>
<rect x="189" y="45" width="283" height="283" rx="14" fill="#D3EAE0"/>
<circle cx="210.947" cy="66.9469" r="5.77551" fill="#00858C"/>
<circle cx="450.053" cy="66.9469" r="5.77551" fill="#00858C"/>
<circle cx="210.947" cy="306.053" r="5.77551" fill="#00858C"/>
<circle cx="450.053" cy="306.053" r="5.77551" fill="#00858C"/>
<rect x="209.637" y="66.7915" width="78.8571" height="240.571" stroke="#00858C" stroke-width="2"/>
<rect x="209.637" y="66.7915" width="240.571" height="240.571" stroke="#00858C" stroke-width="2"/>
<rect x="288.184" y="66.7915" width="78.8571" height="240.571" stroke="#00858C" stroke-width="2"/>
<rect x="450.208" y="149.959" width="78.8571" height="240.571" transform="rotate(90 450.208 149.959)" stroke="#00858C" stroke-width="2"/>
<rect x="450.208" y="228.506" width="78.8571" height="240.571" transform="rotate(90 450.208 228.506)" stroke="#00858C" stroke-width="2"/>
<circle cx="294.5" cy="155.5" r="33" fill="white" stroke="black" stroke-width="3"/>
<ellipse cx="285.794" cy="152.696" rx="1.93458" ry="1.94171" fill="black"/>
<ellipse cx="303.85" cy="152.696" rx="1.93458" ry="1.94171" fill="black"/>
<g filter="url(#filter0_f_607_37)">
<ellipse cx="274.509" cy="160.139" rx="4.19159" ry="4.20703" fill="#FFCACA"/>
</g>
<g filter="url(#filter1_f_607_37)">
<ellipse cx="314.491" cy="160.139" rx="4.19159" ry="4.20703" fill="#FFCACA"/>
</g>
<path d="M287.084 162.404C289.507 166.8 295.995 172.954 302.561 162.404" stroke="black" stroke-width="3" stroke-linecap="round" stroke-linejoin="round"/>
<circle cx="363.5" cy="223.5" r="33" fill="#5B5B5B" stroke="black" stroke-width="3"/>
<circle cx="354.889" cy="219.696" r="1.94171" fill="#BFBFBF"/>
<circle cx="373.012" cy="219.696" r="1.94171" fill="#BFBFBF"/>
<path d="M372 230C369.495 233.773 362.788 239.055 356 230" stroke="#BFBFBF" stroke-width="3" stroke-linecap="round" stroke-linejoin="round"/>
<path d="M71.1797 227.506C78.9184 232.698 87.5246 235.592 96.5919 235.592C105.659 235.592 114.265 232.698 122.004 227.506H71.1797Z" fill="#EF9C9C"/>
<circle cx="97.402" cy="186.402" r="49.902" stroke="black" stroke-width="3"/>
<path d="M69.8571 194.254C74.11 194.254 76.5983 190.826 76.611 184.809C76.5983 178.829 74.072 175.363 69.8571 175.363C65.6296 175.363 63.1032 178.829 63.1032 184.809C63.1032 190.826 65.6042 194.254 69.8571 194.254ZM65.8962 184.809C65.8962 180.238 67.3815 177.737 69.8571 177.725C72.32 177.737 73.818 180.238 73.818 184.809C73.818 189.392 72.3327 191.842 69.8571 191.842C67.3688 191.842 65.8835 189.392 65.8962 184.809ZM85.904 194.254C90.1569 194.254 92.6452 190.826 92.6579 184.809C92.6452 178.829 90.1188 175.363 85.904 175.363C81.6764 175.363 79.1501 178.829 79.1501 184.809C79.1501 190.826 81.6511 194.254 85.904 194.254ZM81.943 184.809C81.943 180.238 83.4284 177.737 85.904 177.725C88.3669 177.737 89.8649 180.238 89.8649 184.809C89.8649 189.392 88.3796 191.842 85.904 191.842C83.4157 191.842 81.9304 189.392 81.943 184.809ZM97.3552 191.715C98.3327 191.702 99.1452 190.902 99.1579 189.912C99.1452 188.922 98.3327 188.109 97.3552 188.109C96.3649 188.109 95.5397 188.922 95.5524 189.912C95.5397 190.902 96.3649 191.702 97.3552 191.715ZM95.5524 180.721C95.5397 181.711 96.3649 182.511 97.3552 182.523C98.3327 182.511 99.1452 181.711 99.1579 180.721C99.1452 179.73 98.3327 178.918 97.3552 178.918C96.3649 178.918 95.5397 179.73 95.5524 180.721ZM108.806 194.254C113.059 194.254 115.548 190.826 115.56 184.809C115.548 178.829 113.021 175.363 108.806 175.363C104.579 175.363 102.052 178.829 102.052 184.809C102.052 190.826 104.553 194.254 108.806 194.254ZM104.845 184.809C104.845 180.238 106.331 177.737 108.806 177.725C111.269 177.737 112.767 180.238 112.767 184.809C112.767 189.392 111.282 191.842 108.806 191.842C106.318 191.842 104.833 189.392 104.845 184.809ZM118.049 190.42H126.986V194H129.627V190.42H132.14V188.059H129.627V175.617H126.174L118.049 188.16V190.42ZM120.994 188.059V187.906L126.783 178.943H126.986V188.059H120.994Z" fill="#DB3939"/>
<circle cx="563.402" cy="186.402" r="49.902" fill="black" stroke="black" stroke-width="3"/>
<path d="M536.023 198.254C540.276 198.254 542.765 194.826 542.777 188.809C542.765 182.829 540.238 179.363 536.023 179.363C531.796 179.363 529.27 182.829 529.27 188.809C529.27 194.826 531.771 198.254 536.023 198.254ZM532.062 188.809C532.062 184.238 533.548 181.737 536.023 181.725C538.486 181.737 539.984 184.238 539.984 188.809C539.984 193.392 538.499 195.842 536.023 195.842C533.535 195.842 532.05 193.392 532.062 188.809ZM545.672 198H558.037V195.613H549.557V195.461L553.289 191.678C556.742 188.288 557.707 186.65 557.732 184.594C557.707 181.61 555.257 179.363 551.715 179.363C548.211 179.363 545.646 181.585 545.672 184.949H548.312C548.325 182.994 549.62 181.699 551.664 181.699C553.594 181.699 555.066 182.854 555.066 184.67C555.066 186.282 554.063 187.45 552.045 189.545L545.672 195.969V198ZM562.938 195.715C563.915 195.702 564.728 194.902 564.74 193.912C564.728 192.922 563.915 192.109 562.938 192.109C561.947 192.109 561.122 192.922 561.135 193.912C561.122 194.902 561.947 195.702 562.938 195.715ZM561.135 184.721C561.122 185.711 561.947 186.511 562.938 186.523C563.915 186.511 564.728 185.711 564.74 184.721C564.728 183.73 563.915 182.918 562.938 182.918C561.947 182.918 561.122 183.73 561.135 184.721ZM574.516 198.254C578.324 198.254 581.155 196.007 581.143 192.947C581.155 190.624 579.695 188.936 577.182 188.58V188.453C579.162 187.958 580.457 186.46 580.432 184.365C580.457 181.648 578.185 179.363 574.566 179.363C571.139 179.363 568.371 181.395 568.295 184.391H570.986C571.05 182.728 572.7 181.699 574.541 181.699C576.483 181.699 577.74 182.842 577.74 184.518C577.74 186.282 576.28 187.45 574.186 187.438H572.611V189.723H574.186C576.813 189.735 578.324 191.03 578.324 192.846C578.324 194.636 576.712 195.842 574.49 195.842C572.434 195.842 570.834 194.813 570.732 193.201H567.889C568.003 196.21 570.707 198.254 574.516 198.254ZM590.613 198.254C594.866 198.254 597.354 194.826 597.367 188.809C597.354 182.829 594.828 179.363 590.613 179.363C586.386 179.363 583.859 182.829 583.859 188.809C583.859 194.826 586.36 198.254 590.613 198.254ZM586.652 188.809C586.652 184.238 588.138 181.737 590.613 181.725C593.076 181.737 594.574 184.238 594.574 188.809C594.574 193.392 593.089 195.842 590.613 195.842C588.125 195.842 586.64 193.392 586.652 188.809Z" fill="white"/>
<defs>
<filter id="filter0_f_607_37" x="266.318" y="151.932" width="16.3831" height="16.4141" filterUnits="userSpaceOnUse" color-interpolation-filters="sRGB">
<feFlood flood-opacity="0" result="BackgroundImageFix"/>
<feBlend mode="normal" in="SourceGraphic" in2="BackgroundImageFix" result="shape"/>
<feGaussianBlur stdDeviation="2" result="effect1_foregroundBlur_607_37"/>
</filter>
<filter id="filter1_f_607_37" x="306.299" y="151.932" width="16.3831" height="16.4141" filterUnits="userSpaceOnUse" color-interpolation-filters="sRGB">
<feFlood flood-opacity="0" result="BackgroundImageFix"/>
<feBlend mode="normal" in="SourceGraphic" in2="BackgroundImageFix" result="shape"/>
<feGaussianBlur stdDeviation="2" result="effect1_foregroundBlur_607_37"/>
</filter>
</defs>
</svg>
