<svg width="800" height="640" viewBox="0 0 800 640" fill="none" xmlns="http://www.w3.org/2000/svg">
<rect width="800" height="640" fill="#E5E5E5"/>
<g id="&#236;&#178;&#171; &#237;&#153;&#148;&#235;&#169;&#180;" clip-path="url(#clip0_0_1)">
<rect width="1280" height="720" transform="translate(-240)" fill="white"/>
<rect id="Rectangle 47" x="-240" width="1280" height="720" fill="#fff"/>
<rect id="Rectangle 5" opacity="0.3" x="-240" y="-2" width="1280" height="722" fill="white"/>
<g id="Frame 10">
<path id="&#236;&#152;&#164;&#235;&#170;&#169;&#236;&#161;&#176;&#235;&#170;&#169;&#236;&#151;&#144; &#236;&#152;&#164;&#236;&#139;&#160; &#236;&#151;&#172;&#235;&#159;&#172;&#235;&#182;&#132; &#237;&#153;&#152;&#236;&#152;&#129;&#237;&#149;&#169;&#235;&#139;&#136;&#235;&#139;&#164;~!" d="M262.049 405.65C258.133 405.65 255.145 407.691 255.154 410.728C255.145 413.472 257.361 415.328 260.486 415.777V418.424H253.807V420.963H270.311V418.424H263.592V415.787C266.717 415.338 268.963 413.482 268.963 410.728C268.963 407.691 265.955 405.65 262.049 405.65ZM258.26 410.728C258.25 409.078 259.773 408.131 262.049 408.131C264.334 408.131 265.838 409.078 265.857 410.728C265.838 412.525 264.334 413.414 262.049 413.404C259.773 413.414 258.25 412.525 258.26 410.728ZM285.506 405.572H273.084V412.095H277.713V413.443H271.092V415.943H287.576V413.443H280.877V412.095H285.506V405.572ZM272.928 419.361H282.459V422.935H285.584V416.92H272.928V419.361ZM276.131 409.654V407.994H282.42V409.654H276.131ZM304.881 418.463H298.201V414.693H295.037V418.463H288.377V420.982H304.881V418.463ZM288.943 413.111L290.154 415.592C293.416 415.025 295.506 413.59 296.619 411.636C297.752 413.541 299.881 414.918 303.182 415.455L304.393 412.994C300.32 412.427 298.68 410.562 298.318 408.58H303.416V406.08H289.764V408.58H294.861C294.5 410.582 292.879 412.506 288.943 413.111ZM320.076 405.572H307.654V412.095H312.283V413.443H305.662V415.943H322.146V413.443H315.447V412.095H320.076V405.572ZM307.498 419.361H317.029V422.935H320.154V416.92H307.498V419.361ZM310.701 409.654V407.994H316.99V409.654H310.701ZM338.357 405.084H336.268V422.74H338.357V405.084ZM323.299 412.72C323.299 416.617 324.803 419.039 327.107 419.029C329.295 419.039 330.77 416.929 330.975 413.482H332.654V421.881H334.725V405.396H332.654V411.724H330.955C330.701 408.424 329.246 406.422 327.107 406.431C324.803 406.422 323.299 408.834 323.299 412.72ZM325.311 412.72C325.301 409.967 325.984 408.472 327.107 408.482C328.279 408.472 328.973 409.967 328.982 412.72C328.973 415.484 328.279 416.969 327.107 416.959C325.984 416.969 325.301 415.484 325.311 412.72ZM353.182 406.08C349.422 406.09 346.629 407.974 346.639 410.845C346.629 413.492 348.904 415.26 352.107 415.582V418.814H345.154V420.592H361.287V418.814H354.256V415.582C357.498 415.26 359.773 413.492 359.764 410.845C359.773 407.974 356.971 406.09 353.182 406.08ZM348.768 410.845C348.758 409 350.604 407.828 353.182 407.838C355.799 407.828 357.635 409 357.635 410.845C357.635 412.75 355.799 413.892 353.182 413.892C350.604 413.892 348.758 412.75 348.768 410.845ZM377.146 405.103H374.959V417.994H377.146V405.103ZM362.459 413.834L363.592 415.552C365.672 414.801 367.137 413.258 367.918 411.324C368.699 413.131 370.135 414.537 372.146 415.24L373.26 413.521C370.457 412.584 369.012 410.26 369.021 407.799V406.08H366.775V407.799C366.785 410.338 365.32 412.828 362.459 413.834ZM365.467 422.388H377.635V420.631H367.654V416.763H365.467V422.388ZM389.295 406.373C386.639 406.373 384.754 408.795 384.764 412.603C384.754 416.441 386.639 418.853 389.295 418.853C390.994 418.853 392.381 417.838 393.152 416.08H397.127V422.76H399.275V405.084H397.127V408.814H392.996C392.205 407.261 390.887 406.373 389.295 406.373ZM386.854 412.603C386.844 409.908 387.84 408.326 389.295 408.326C390.76 408.326 391.746 409.908 391.756 412.603C391.746 415.318 390.76 416.89 389.295 416.9C387.84 416.89 386.844 415.318 386.854 412.603ZM393.611 410.592H397.127V414.322H393.66C393.758 413.785 393.807 413.209 393.807 412.603C393.807 411.881 393.738 411.207 393.611 410.592ZM416.541 405.084H414.373V411.588H411.346V413.365H414.373V422.76H416.541V405.084ZM402.342 408.385H408.201V411.334H402.4V418.619H403.807C406.844 418.609 409.207 418.511 411.834 418.052L411.658 416.275C409.285 416.705 407.176 416.793 404.549 416.802V413.092H410.33V406.627H402.342V408.385ZM435.154 414.224H419.021V415.963H426.189V419.01H428.338V415.963H435.154V414.224ZM420.975 422.388H433.377V420.631H423.123V417.525H420.975V422.388ZM421.131 412.838H433.045V405.65H430.896V407.642H423.279V405.65H421.131V412.838ZM423.279 411.119V409.263H430.896V411.119H423.279ZM455.057 405.084H452.889V418.873H455.057V412.799H457.439V411.002H455.057V405.084ZM440.916 415.338L441.15 417.037C444.197 417.008 448.406 416.959 452.146 416.256L451.971 414.732C450.555 414.947 449.041 415.084 447.537 415.172V414.156C449.471 413.892 450.682 412.935 450.682 411.529C450.682 409.801 448.992 408.775 446.424 408.795C443.865 408.775 442.156 409.801 442.166 411.529C442.156 412.945 443.406 413.912 445.369 414.156V415.279C443.768 415.328 442.234 415.338 440.916 415.338ZM441.365 408.209H451.502V406.627H447.537V405.025H445.369V406.627H441.365V408.209ZM443.455 422.388H455.682V420.631H445.623V417.955H443.455V422.388ZM444.256 411.529C444.236 410.699 445.057 410.25 446.424 410.26C447.791 410.25 448.611 410.699 448.611 411.529C448.611 412.291 447.791 412.74 446.424 412.74C445.057 412.74 444.236 412.291 444.256 411.529ZM463.26 406.08C460.594 406.07 458.592 407.857 458.592 410.357C458.592 412.838 460.594 414.625 463.26 414.615C464.676 414.625 465.906 414.097 466.746 413.228H470.975V415.474H473.143V405.084H470.975V407.486H466.756C465.926 406.597 464.686 406.07 463.26 406.08ZM460.662 410.357C460.662 408.863 461.746 407.935 463.26 407.935C464.725 407.935 465.809 408.863 465.818 410.357C465.809 411.802 464.725 412.779 463.26 412.779C461.746 412.779 460.662 411.802 460.662 410.357ZM461.17 419.283C461.15 421.451 463.465 422.72 467.166 422.72C470.877 422.72 473.191 421.451 473.201 419.283C473.191 417.105 470.877 415.836 467.166 415.845C463.465 415.836 461.15 417.105 461.17 419.283ZM463.299 419.283C463.279 418.131 464.715 417.515 467.166 417.506C469.666 417.515 471.072 418.131 471.072 419.283C471.072 420.406 469.666 421.011 467.166 421.021C464.715 421.011 463.279 420.406 463.299 419.283ZM467.732 409.224H470.975V411.47H467.742C467.83 411.119 467.889 410.748 467.889 410.357C467.889 409.957 467.83 409.586 467.732 409.224ZM489.568 405.084H487.4V415.396H489.568V411.236H492.029V409.439H489.568V405.084ZM475.662 408.463H486.131V406.724H481.99V404.947H479.822V406.724H475.662V408.463ZM476.561 412.174C476.561 414.049 478.318 415.289 480.896 415.279C483.445 415.289 485.203 414.049 485.213 412.174C485.203 410.299 483.445 409.068 480.896 409.068C478.318 409.068 476.561 410.299 476.561 412.174ZM478.162 422.525H489.568V416.099H487.4V417.623H480.311V416.099H478.162V422.525ZM478.67 412.174C478.66 411.246 479.559 410.67 480.896 410.67C482.234 410.67 483.143 411.246 483.143 412.174C483.143 413.131 482.234 413.677 480.896 413.677C479.559 413.677 478.66 413.131 478.67 412.174ZM480.311 420.806V419.302H487.4V420.806H480.311ZM507.654 405.084H505.506V422.74H507.654V405.084ZM493.943 418.306H495.467C498.211 418.316 501.092 418.111 504.197 417.467L503.924 415.65C501.199 416.197 498.562 416.412 496.092 416.451V406.802H493.943V418.306ZM524.041 405.084H521.873V422.76H524.041V413.56H526.756V411.783H524.041V405.084ZM510.936 418.443H512.4C515.584 418.443 517.957 418.365 520.701 417.896L520.447 416.06C518.025 416.48 515.848 416.617 513.104 416.627V408.521H519.197V406.763H510.936V418.443ZM528.338 417.056H530.33C530.311 415.885 530.818 415.416 531.502 415.416C531.98 415.416 532.244 415.64 532.869 416.158C533.846 417.027 534.549 417.398 535.467 417.388C537.156 417.398 538.445 416.148 538.377 413.638H536.385C536.404 414.752 535.906 415.269 535.213 415.279C534.725 415.269 534.422 415.025 533.846 414.517C532.83 413.638 532.137 413.306 531.229 413.306C529.529 413.306 528.279 414.547 528.338 417.056ZM544.021 406.861H541.365L541.6 416.842H543.807L544.021 406.861ZM541.189 419.635C541.18 420.474 541.873 421.158 542.713 421.158C543.523 421.158 544.217 420.474 544.217 419.635C544.217 418.814 543.523 418.14 542.713 418.131C541.873 418.14 541.18 418.814 541.189 419.635Z" fill="black"/>
<path id="&#236;&#154;&#176;&#235;&#166;&#172; &#236;&#152;&#164;&#235;&#170;&#169;&#236;&#161;&#176;&#235;&#170;&#169;&#236;&#157;&#128; &#236;&#152;&#164;&#235;&#170;&#169;&#236;&#157;&#132; &#237;&#149;&#152;&#235;&#138;&#148; &#237;&#148;&#140;&#235;&#160;&#136;&#236;&#157;&#180;&#236;&#150;&#180; &#235;&#191;&#144;&#235;&#167;&#140; &#236;&#149;&#132;&#235;&#139;&#136;&#235;&#157;&#188; &#234;&#180;&#128;&#236;&#160;&#132;&#236;&#158;&#144;&#235;&#143;&#132; &#237;&#149;&#168;&#234;&#187;&#152; &#236;&#176;&#184;&#236;&#151;&#172;&#237;&#149;&#152;&#235;&#138;&#148; &#237;&#155;&#136;&#236;&#136;&#152; &#236;&#152;&#164;&#235;&#170;&#169;&#236;&#158;&#133;&#235;&#139;&#136;&#235;&#139;&#164; &#236;&#150;&#180;&#235;&#150;&#164; &#237;&#155;&#136;&#236;&#136;&#152;&#234;&#176;&#128; &#236;&#158;&#136;&#235;&#138;&#148;&#236;&#167;&#128; &#236;&#149;&#140;&#236;&#149;&#132;&#235;&#179;&#188;&#234;&#185;&#140;&#236;&#154;&#148;?" d="M255.523 476.345H242.805V477.377H248.523V482.267H249.727V477.377H255.523V476.345ZM244.242 472.002C244.25 473.853 246.211 475.025 249.133 475.017C252.047 475.025 254.023 473.853 254.023 472.002C254.023 470.119 252.047 468.947 249.133 468.939C246.211 468.947 244.25 470.119 244.242 472.002ZM245.508 472.002C245.492 470.744 246.969 469.939 249.133 469.939C251.297 469.939 252.766 470.744 252.773 472.002C252.766 473.236 251.297 474.033 249.133 474.033C246.969 474.033 245.492 473.236 245.508 472.002ZM268.117 468.377H266.898V482.299H268.117V468.377ZM257.43 470.689H262.664V473.611H257.461V478.924H258.617C261.016 478.924 263.125 478.822 265.68 478.424L265.555 477.392C263.07 477.791 261.016 477.9 258.711 477.892V474.611H263.898V469.674H257.43V470.689ZM280.836 468.955C277.781 468.955 275.492 470.502 275.492 472.845C275.492 474.986 277.297 476.424 279.836 476.713V479.142H274.352V480.783H287.367V479.142H281.82V476.713C284.375 476.431 286.188 474.994 286.195 472.845C286.188 470.502 283.891 468.955 280.836 468.955ZM277.461 472.845C277.461 471.424 278.844 470.541 280.836 470.549C282.836 470.541 284.219 471.424 284.227 472.845C284.219 474.345 282.836 475.181 280.836 475.189C278.844 475.181 277.461 474.345 277.461 472.845ZM299.508 468.783H289.789V473.783H293.648V475.142H288.18V476.752H301.148V475.142H295.648V473.783H299.508V468.783ZM289.617 479.361H297.586V482.439H299.57V477.799H289.617V479.361ZM291.742 472.22V470.33H297.555V472.22H291.742ZM315.023 479.174H309.508V476.002H307.508V479.174H302.008V480.783H315.023V479.174ZM302.539 475.049L303.32 476.627C305.773 476.181 307.602 474.924 308.5 473.213C309.422 474.9 311.266 476.111 313.758 476.549L314.539 474.97C311.492 474.525 309.711 472.783 309.555 470.908H313.883V469.299H303.086V470.908H307.43C307.258 472.791 305.492 474.572 302.539 475.049ZM327.164 468.783H317.445V473.783H321.305V475.142H315.836V476.752H328.805V475.142H323.305V473.783H327.164V468.783ZM317.273 479.361H325.242V482.439H327.227V477.799H317.273V479.361ZM319.398 472.22V470.33H325.211V472.22H319.398ZM342.461 475.705H329.805V476.705H342.461V475.705ZM331.211 471.627C331.211 473.353 333.117 474.392 336.133 474.392C339.117 474.392 341.031 473.353 341.039 471.627C341.031 469.885 339.117 468.861 336.133 468.877C333.117 468.861 331.211 469.885 331.211 471.627ZM331.445 481.97H341.055V480.939H332.68V477.924H331.445V481.97ZM332.477 471.627C332.469 470.541 333.891 469.861 336.133 469.861C338.359 469.861 339.781 470.541 339.789 471.627C339.781 472.728 338.359 473.392 336.133 473.392C333.891 473.392 332.469 472.728 332.477 471.627ZM353.977 469.283C351.031 469.299 348.898 470.736 348.898 472.924C348.898 474.986 350.742 476.353 353.367 476.541V479.455H347.648V480.486H360.367V479.455H354.57V476.541C357.211 476.361 359.055 474.994 359.055 472.924C359.055 470.736 356.93 469.299 353.977 469.283ZM350.086 472.924C350.078 471.353 351.727 470.291 353.977 470.299C356.227 470.291 357.867 471.353 357.867 472.924C357.867 474.525 356.227 475.564 353.977 475.58C351.727 475.564 350.078 474.525 350.086 472.924ZM372.523 468.97H363.117V473.658H367.195V475.439H361.477V476.439H374.133V475.439H368.414V473.658H372.523V468.97ZM362.883 478.877H371.336V482.267H372.57V477.892H362.883V478.877ZM364.32 472.674V469.955H371.305V472.674H364.32ZM381.633 468.627C378.531 468.627 376.711 469.478 376.711 471.017C376.711 472.595 378.531 473.447 381.633 473.455C384.719 473.447 386.531 472.595 386.539 471.017C386.531 469.478 384.719 468.627 381.633 468.627ZM375.305 475.392H387.961V474.392H375.305V475.392ZM376.836 477.533H385.133V478.799H376.867V482.111H386.758V481.142H378.086V479.705H386.336V476.595H376.836V477.533ZM377.992 471.017C377.977 470.103 379.328 469.556 381.633 469.549C383.938 469.556 385.281 470.103 385.289 471.017C385.281 471.986 383.938 472.517 381.633 472.517C379.328 472.517 377.977 471.986 377.992 471.017ZM403.898 468.377H402.68V482.267H403.898V475.127H406.227V474.111H403.898V468.377ZM393.07 471.627H401.336V470.611H397.867V468.549H396.648V470.611H393.07V471.627ZM393.867 475.97C393.859 477.853 395.297 479.158 397.273 479.158C399.234 479.158 400.664 477.853 400.68 475.97C400.664 474.095 399.234 472.783 397.273 472.783C395.297 472.783 393.859 474.095 393.867 475.97ZM395.039 475.97C395.031 474.713 395.977 473.806 397.273 473.814C398.555 473.806 399.492 474.713 399.508 475.97C399.492 477.236 398.555 478.127 397.273 478.111C395.977 478.127 395.031 477.236 395.039 475.97ZM418.211 472.595H409.914V468.892H408.695V473.58H418.211V472.595ZM406.961 476.47H419.68V475.47H406.961V476.47ZM408.617 481.924H418.289V480.908H409.836V477.892H408.617V481.924ZM436.492 468.611H425.82V470.095H427.664V471.97H425.914V473.455H436.398V471.97H434.633V470.095H436.492V468.611ZM424.68 475.767H437.648V474.205H424.68V475.767ZM426.18 478.017H434.102V478.736H426.195V482.345H436.445V480.877H428.148V480.095H436.07V476.58H426.18V478.017ZM429.664 471.97V470.095H432.633V471.97H429.664ZM443.945 469.642H438.898V471.22H442.023V473.455H438.914V479.111H439.914C441.703 479.095 443.297 479.064 445.164 478.72L444.992 477.095C443.516 477.369 442.211 477.439 440.82 477.455V475.033H443.945V469.642ZM444.539 474.689H445.992V481.752H447.852V468.486H445.992V473.08H444.539V474.689ZM448.914 482.439H450.805V468.22H448.914V482.439ZM464.242 468.22H462.227V482.47H464.242V468.22ZM452.758 474.283C452.75 477.408 454.336 479.361 456.523 479.361C458.664 479.361 460.258 477.408 460.258 474.283C460.258 471.181 458.664 469.22 456.523 469.22C454.336 469.22 452.75 471.181 452.758 474.283ZM454.68 474.283C454.672 472.174 455.414 471.017 456.523 471.017C457.602 471.017 458.328 472.174 458.336 474.283C458.328 476.4 457.602 477.556 456.523 477.549C455.414 477.556 454.672 476.4 454.68 474.283ZM470.086 469.22C467.93 469.22 466.383 471.181 466.398 474.283C466.383 477.408 467.93 479.361 470.086 479.361C472.07 479.361 473.539 477.689 473.75 474.955H476.195V482.47H478.164V468.22H476.195V473.361H473.727C473.445 470.799 472.008 469.22 470.086 469.22ZM468.305 474.283C468.297 472.174 469.023 471.017 470.086 471.017C471.156 471.017 471.867 472.174 471.867 474.283C471.867 476.4 471.156 477.556 470.086 477.549C469.023 477.556 468.297 476.4 468.305 474.283ZM486.508 468.83H485.336V474.392H489.945V468.83H488.773V470.595H486.508V468.83ZM484.133 476.783H489.977V479.517H491.195V476.783H496.852V475.783H484.133V476.783ZM485.758 482.049H495.43V481.049H486.977V478.283H485.758V482.049ZM486.508 473.392V471.549H488.773V473.392H486.508ZM491.023 474.392H495.633V468.83H494.461V470.595H492.211V468.83H491.023V474.392ZM492.211 473.392V471.549H494.461V473.392H492.211ZM504.992 469.642H498.57V476.033H504.992V469.642ZM499.773 475.049V470.642H503.805V475.049H499.773ZM500.148 481.97H509.477V480.939H501.352V477.595H500.148V481.97ZM507.617 478.564H508.836V473.642H510.93V472.611H508.836V468.377H507.617V478.564ZM519.539 469.455C517.477 469.463 516.031 471.345 516.039 474.299C516.031 477.26 517.477 479.135 519.539 479.127C521.586 479.135 523.039 477.26 523.055 474.299C523.039 471.345 521.586 469.463 519.539 469.455ZM517.195 474.299C517.203 472.041 518.164 470.556 519.539 470.549C520.93 470.556 521.867 472.041 521.867 474.299C521.867 476.556 520.93 478.041 519.539 478.033C518.164 478.041 517.203 476.556 517.195 474.299ZM525.352 482.267H526.57V474.986H528.898V473.924H526.57V468.377H525.352V482.267ZM541.102 468.377H539.883V482.267H541.102V468.377ZM530.555 478.689H531.68C533.906 478.689 536.102 478.517 538.57 478.002L538.398 476.955C536.07 477.447 533.883 477.611 531.758 477.627V469.752H530.555V478.689ZM554.227 468.377H553.008V482.299H554.227V474.939H556.555V473.908H554.227V468.377ZM544.023 470.689H549.117V473.627H544.055V478.939H545.164C547.844 478.924 549.695 478.822 551.883 478.424L551.758 477.408C549.656 477.799 547.852 477.9 545.273 477.892V474.642H550.336V469.674H544.023V470.689ZM282.484 492.252H275.172V493.877H280.539C280.523 494.728 280.461 495.767 280.203 497.127L282.156 497.314C282.484 495.549 282.484 494.127 282.484 493.142V492.252ZM274.328 498.345L274.5 499.939C276.977 499.931 280.305 499.877 283.266 499.33L283.156 497.892C281.82 498.088 280.375 498.197 278.953 498.26V495.533H276.969V498.322C276.023 498.345 275.125 498.345 274.328 498.345ZM276.422 505.189H286.406V503.595H278.422V500.908H276.422V505.189ZM283.922 501.861H285.969V497.22H287.688V495.549H285.969V491.22H283.922V501.861ZM300.328 491.236H298.344V494.908H296.016V496.517H298.344V501.611H300.328V491.236ZM288.266 498.408L289.281 500.033C290.961 499.478 292.094 498.33 292.727 496.916C293.344 498.189 294.43 499.22 296 499.736L296.984 498.158C294.727 497.424 293.711 495.666 293.719 494.017V493.783H296.547V492.189H288.828V493.783H291.688V494.002C291.68 495.822 290.617 497.674 288.266 498.408ZM290.891 505.189H300.672V503.595H292.891V500.705H290.891V505.189ZM307.422 495.095V494.22H310.281V492.595H302.406V494.22H305.422V495.095C305.406 497.447 304.211 500.088 301.844 501.189L303 502.767C304.641 501.994 305.812 500.4 306.445 498.525C307.086 500.228 308.211 501.681 309.797 502.408L310.906 500.845C308.57 499.76 307.414 497.26 307.422 495.095ZM311.391 505.439H313.391V498.314H315.484V496.642H313.391V491.22H311.391V505.439ZM327.359 497.892H319V493.517H327.219V492.517H317.766V498.892H321.859V502.486H316.141V503.517H328.859V502.486H323.062V498.892H327.359V497.892ZM344.844 491.377H343.625V499.752H344.844V496.127H346.938V495.08H344.844V491.377ZM334.016 493.877H342.297V492.861H338.766V491.267H337.547V492.861H334.016V493.877ZM334.812 497.033C334.805 498.541 336.141 499.517 338.156 499.517C340.148 499.517 341.484 498.541 341.5 497.033C341.484 495.549 340.148 494.564 338.156 494.564C336.141 494.564 334.805 495.549 334.812 497.033ZM335.984 497.033C335.977 496.127 336.844 495.517 338.156 495.517C339.453 495.517 340.328 496.127 340.344 497.033C340.328 497.978 339.453 498.564 338.156 498.58C336.844 498.564 335.977 497.978 335.984 497.033ZM336.078 505.08H344.844V500.549H336.078V505.08ZM337.281 504.08V501.533H343.625V504.08H337.281ZM351.266 493.064H348.125V494.08H350.195C350.094 496.635 349.578 499.22 347.844 501.392L348.812 501.955C350.844 499.26 351.25 495.978 351.266 493.064ZM350.969 502.299L351.922 502.877C353.055 501.353 353.656 499.595 353.977 497.861H355.984V504.564H357.156V491.752H355.984V496.845H354.141C354.312 495.502 354.344 494.197 354.344 493.064H351.703V494.08H353.273C353.219 496.674 352.883 499.845 350.969 502.299ZM358.578 505.267H359.766V491.377H358.578V505.267ZM370.391 494.267V494.017H373.531V493.033H370.422V491.314H369.188V493.033H366.047V494.017H369.188V494.267C369.18 496.127 367.727 497.736 365.656 498.361L366.266 499.33C367.922 498.799 369.203 497.658 369.805 496.189C370.422 497.525 371.664 498.564 373.266 499.064L373.844 498.095C371.789 497.486 370.398 495.97 370.391 494.267ZM367.75 505.08H376.516V500.252H367.75V505.08ZM368.953 504.08V501.22H375.297V504.08H368.953ZM375.297 499.611H376.516V495.939H378.609V494.908H376.516V491.377H375.297V499.611ZM383.219 492.455C381.164 492.463 379.727 494.345 379.734 497.299C379.727 500.26 381.164 502.135 383.219 502.127C384.562 502.135 385.641 501.314 386.219 499.908H389.781V505.299H391V491.377H389.781V494.486H386.133C385.531 493.205 384.492 492.463 383.219 492.455ZM380.906 497.299C380.914 495.041 381.852 493.556 383.219 493.549C384.578 493.556 385.531 495.041 385.531 497.299C385.531 499.556 384.578 501.041 383.219 501.033C381.852 501.041 380.914 499.556 380.906 497.299ZM386.484 495.517H389.781V498.892H386.531C386.633 498.408 386.688 497.869 386.688 497.299C386.688 496.65 386.617 496.056 386.484 495.517ZM404.062 491.377H402.844V505.267H404.062V498.127H406.391V497.111H404.062V491.377ZM393.234 494.627H401.5V493.611H398.031V491.549H396.812V493.611H393.234V494.627ZM394.031 498.97C394.023 500.853 395.461 502.158 397.438 502.158C399.398 502.158 400.828 500.853 400.844 498.97C400.828 497.095 399.398 495.783 397.438 495.783C395.461 495.783 394.023 497.095 394.031 498.97ZM395.203 498.97C395.195 497.713 396.141 496.806 397.438 496.814C398.719 496.806 399.656 497.713 399.672 498.97C399.656 500.236 398.719 501.127 397.438 501.111C396.141 501.127 395.195 500.236 395.203 498.97ZM418.375 495.595H410.078V491.892H408.859V496.58H418.375V495.595ZM407.125 499.47H419.844V498.47H407.125V499.47ZM408.781 504.924H418.453V503.908H410V500.892H408.781V504.924ZM437.812 499.205H424.844V500.767H430.516V502.517H432.484V500.767H437.812V499.205ZM425.469 493.908H437.141V492.408H432.328V491.142H430.328V492.408H425.469V493.908ZM426.359 505.189H436.406V503.627H428.344V501.642H426.359V505.189ZM426.547 496.455C426.531 497.877 428.281 498.65 431.328 498.658C434.359 498.65 436.102 497.877 436.109 496.455C436.102 495.041 434.359 494.291 431.328 494.299C428.281 494.291 426.531 495.041 426.547 496.455ZM428.578 496.455C428.57 495.916 429.422 495.681 431.328 495.689C433.211 495.681 434.07 495.916 434.062 496.455C434.07 497.002 433.211 497.228 431.328 497.236C429.422 497.228 428.57 497.002 428.578 496.455ZM446.219 492.33V491.642H444.125V492.33C444.117 494.01 442.406 495.861 439.172 496.267L439.969 497.877C442.422 497.517 444.234 496.361 445.172 494.83C446.102 496.369 447.922 497.517 450.406 497.877L451.188 496.267C447.93 495.861 446.211 494.01 446.219 492.33ZM438.672 500.58H444.141V505.439H446.109V500.58H451.641V498.955H438.672V500.58ZM462.672 491.955C459.617 491.955 457.328 493.502 457.328 495.845C457.328 497.986 459.133 499.424 461.672 499.713V502.142H456.188V503.783H469.203V502.142H463.656V499.713C466.211 499.431 468.023 497.994 468.031 495.845C468.023 493.502 465.727 491.955 462.672 491.955ZM459.297 495.845C459.297 494.424 460.68 493.541 462.672 493.549C464.672 493.541 466.055 494.424 466.062 495.845C466.055 497.345 464.672 498.181 462.672 498.189C460.68 498.181 459.297 497.345 459.297 495.845ZM481.344 491.783H471.625V496.783H475.484V498.142H470.016V499.752H482.984V498.142H477.484V496.783H481.344V491.783ZM471.453 502.361H479.422V505.439H481.406V500.799H471.453V502.361ZM473.578 495.22V493.33H479.391V495.22H473.578ZM495.453 491.377H494.234V498.83H495.453V491.377ZM484.312 495.252C484.305 497.142 485.844 498.447 487.953 498.439C490.062 498.447 491.586 497.142 491.594 495.252C491.586 493.353 490.062 492.049 487.953 492.064C485.844 492.049 484.305 493.353 484.312 495.252ZM485.516 495.252C485.5 493.978 486.523 493.088 487.953 493.095C489.367 493.088 490.391 493.978 490.391 495.252C490.391 496.517 489.367 497.416 487.953 497.424C486.523 497.416 485.5 496.517 485.516 495.252ZM486.453 505.08H495.453V499.533H494.234V501.22H487.672V499.533H486.453V505.08ZM487.672 504.08V502.205H494.234V504.08H487.672ZM509.266 491.377H508.047V505.267H509.266V491.377ZM498.719 501.689H499.844C502.07 501.689 504.266 501.517 506.734 501.002L506.562 499.955C504.234 500.447 502.047 500.611 499.922 500.627V492.752H498.719V501.689ZM522.391 491.377H521.172V505.299H522.391V497.908H524.719V496.877H522.391V491.377ZM512.25 501.814H513.344C515.984 501.814 517.805 501.736 519.984 501.345L519.828 500.283C517.758 500.666 515.984 500.775 513.469 500.783V493.752H518.734V492.736H512.25V501.814ZM304.055 515.455C302 515.463 300.562 517.345 300.57 520.299C300.562 523.26 302 525.135 304.055 525.127C305.992 525.135 307.383 523.431 307.516 520.705H310.617V528.299H311.836V514.377H310.617V519.689H307.5C307.312 517.088 305.945 515.463 304.055 515.455ZM301.742 520.299C301.75 518.041 302.688 516.556 304.055 516.549C305.414 516.556 306.367 518.041 306.367 520.299C306.367 522.556 305.414 524.041 304.055 524.033C302.688 524.041 301.75 522.556 301.742 520.299ZM326.164 526.939H317.711V523.658H316.492V527.97H326.164V526.939ZM314.539 522.236H315.133C316.016 522.236 317.047 522.236 318.336 521.955L318.211 520.939C317.289 521.15 316.453 521.213 315.742 521.236V516.549H318.055V515.533H314.539V522.236ZM318.82 522.236H319.523C321.031 522.236 322.062 522.205 323.352 521.924L323.227 520.908C322.164 521.158 321.242 521.228 320.055 521.244V516.549H322.695V515.533H318.82V522.236ZM322.023 519.236H324.586V524.486H325.789V514.392H324.586V518.22H322.023V519.236ZM344.648 522.314H331.992V523.314H337.82V525.408H339.039V523.314H344.648V522.314ZM332.648 516.658H343.914V515.705H338.93V514.22H337.711V515.705H332.648V516.658ZM333.602 527.97H343.273V526.955H334.836V524.47H333.602V527.97ZM333.805 519.361C333.805 520.736 335.453 521.486 338.32 521.47C341.164 521.486 342.82 520.736 342.82 519.361C342.82 517.986 341.164 517.26 338.32 517.252C335.453 517.26 333.805 517.986 333.805 519.361ZM335.055 519.361C335.039 518.58 336.211 518.15 338.32 518.158C340.398 518.15 341.586 518.58 341.586 519.361C341.586 520.142 340.398 520.572 338.32 520.564C336.211 520.572 335.039 520.142 335.055 519.361ZM352.789 515.674V514.877H351.523V515.674C351.523 517.666 348.984 519.322 346.477 519.674L346.977 520.674C349.141 520.314 351.273 519.135 352.164 517.416C353.055 519.119 355.195 520.314 357.352 520.674L357.852 519.674C355.344 519.322 352.797 517.635 352.789 515.674ZM345.82 523.236H351.523V528.267H352.727V523.236H358.477V522.205H345.82V523.236ZM370.398 514.377H369.18V528.267H370.398V521.064H372.648V520.033H370.398V514.377ZM359.742 524.658L360.43 525.627C364.953 523.392 366.797 519.806 366.805 515.877H360.383V516.908H365.562C365.281 520.197 363.328 522.877 359.742 524.658ZM382.195 523.705V522.939H381.008V523.705C380.992 525.033 379.938 526.517 378.18 527.174L378.805 528.08C380.133 527.58 381.086 526.611 381.586 525.494C382 526.658 382.859 527.674 384.211 528.189C385.492 527.65 386.344 526.58 386.773 525.455C387.258 526.619 388.227 527.588 389.617 528.08L390.227 527.174C388.445 526.556 387.391 525.135 387.398 523.705V522.939H386.195V523.705C386.203 524.775 385.5 526.166 384.172 526.986C382.852 526.236 382.188 524.931 382.195 523.705ZM377.82 518.455C377.812 520.361 379.352 521.674 381.461 521.674C383.57 521.674 385.094 520.361 385.102 518.455C385.094 516.517 383.57 515.197 381.461 515.205C379.352 515.197 377.812 516.517 377.82 518.455ZM379.023 518.455C379.008 517.158 380.031 516.236 381.461 516.252C382.875 516.236 383.898 517.158 383.898 518.455C383.898 519.744 382.875 520.65 381.461 520.658C380.031 520.65 379.008 519.744 379.023 518.455ZM387.742 522.33H388.961V514.392H387.742V522.33ZM402.555 518.595H394.258V514.892H393.039V519.58H402.555V518.595ZM391.305 522.47H404.023V521.47H391.305V522.47ZM392.961 527.924H402.633V526.908H394.18V523.892H392.961V527.924ZM410.117 518.642V516.83H413.43V515.814H405.602V516.83H408.883V518.642C408.875 521.049 407.141 523.674 405.148 524.627L405.883 525.595C407.469 524.799 408.875 523.033 409.523 520.994C410.172 522.916 411.57 524.517 413.195 525.252L413.883 524.283C411.836 523.4 410.125 521.002 410.117 518.642ZM415.367 528.267H416.602V514.377H415.367V528.267ZM433.852 514.377H432.633V521.455H433.852V518.424H435.945V517.392H433.852V514.377ZM423.258 517.97C423.25 519.799 424.781 521.056 426.867 521.064C428.961 521.056 430.477 519.799 430.477 517.97C430.477 516.15 428.961 514.9 426.867 514.892C424.781 514.9 423.25 516.15 423.258 517.97ZM424.461 517.97C424.453 516.767 425.477 515.908 426.867 515.924C428.25 515.908 429.281 516.767 429.273 517.97C429.281 519.189 428.25 520.064 426.867 520.064C425.477 520.064 424.453 519.189 424.461 517.97ZM424.992 523.095H432.633V524.564H425.023V528.08H434.367V527.095H426.227V525.502H433.852V522.111H424.992V523.095ZM440.539 515.455C438.477 515.463 437.031 517.345 437.039 520.299C437.031 523.26 438.477 525.135 440.539 525.127C442.586 525.135 444.039 523.26 444.055 520.299C444.039 517.345 442.586 515.463 440.539 515.455ZM438.195 520.299C438.203 518.041 439.164 516.556 440.539 516.549C441.93 516.556 442.867 518.041 442.867 520.299C442.867 522.556 441.93 524.041 440.539 524.033C439.164 524.041 438.203 522.556 438.195 520.299ZM446.352 528.267H447.57V520.986H449.898V519.924H447.57V514.377H446.352V528.267ZM453.555 514.611H452.336V519.174H456.352V520.549H450.648V521.549H463.305V520.549H457.555V519.174H461.648V514.611H460.43V515.939H453.555V514.611ZM452.18 523.642H460.477V524.877H452.211V528.111H462.102V527.142H453.43V525.783H461.68V522.705H452.18V523.642ZM453.555 518.22V516.877H460.43V518.22H453.555ZM475.477 514.377H474.242V528.267H475.477V521.142H477.586V520.111H475.477V514.377ZM464.43 524.424L465.414 525.127C467.938 522.463 468.68 519.197 468.695 515.892H464.867V516.924H467.531C467.375 519.689 466.523 522.275 464.43 524.424ZM468.414 525.361L469.414 526.049C472.016 523.025 472.5 519.189 472.508 515.892H469.133V516.924H471.352C471.234 519.822 470.586 522.908 468.414 525.361ZM491.023 525.455H487.867V521.674C489.016 521.056 489.711 520.072 489.711 518.83C489.711 516.681 487.602 515.267 484.633 515.252C481.664 515.267 479.555 516.681 479.555 518.83C479.555 520.095 480.273 521.095 481.461 521.713V525.455H478.305V526.486H491.023V525.455ZM480.742 518.83C480.734 517.275 482.352 516.252 484.633 516.267C486.891 516.252 488.523 517.275 488.523 518.83C488.523 520.385 486.891 521.424 484.633 521.424C482.352 521.424 480.734 520.385 480.742 518.83ZM482.664 525.455V522.158C483.258 522.314 483.922 522.392 484.633 522.392C485.359 522.392 486.031 522.306 486.633 522.15V525.455H482.664ZM494.352 523.736V523.814H495.695V523.736C495.727 522.385 496.078 521.783 497.055 521.189C498.023 520.595 498.602 519.744 498.602 518.517C498.602 516.791 497.328 515.533 495.367 515.533C493.578 515.533 492.148 516.635 492.07 518.533H493.492C493.578 517.244 494.477 516.713 495.367 516.72C496.398 516.713 497.227 517.392 497.227 518.455C497.227 519.33 496.734 519.955 496.086 520.345C495.008 521.002 494.367 521.642 494.352 523.736ZM494.07 526.08C494.055 526.635 494.523 527.088 495.07 527.095C495.625 527.088 496.078 526.635 496.07 526.08C496.078 525.533 495.625 525.08 495.07 525.08C494.523 525.08 494.055 525.533 494.07 526.08Z" fill="black"/>
<g id="Group 160" filter="url(#filter0_d_0_1)">
<g id="Group 121">
<g id="Group 120">
<g id="Subtract">
<mask id="path-5-inside-1_0_1" fill="white">
<path fill-rule="evenodd" clip-rule="evenodd" d="M366.86 238.286L372.044 259.907L386.705 254.302L388.66 263.474H395.502L400.389 276.214L409.754 270.427C412.224 276.468 413.584 283.075 413.584 289.998C413.584 318.719 390.172 342.002 361.292 342.002C332.412 342.002 309 318.719 309 289.998C309 261.277 332.412 237.994 361.292 237.994C363.173 237.994 365.031 238.093 366.86 238.286Z"/>
</mask>
<path fill-rule="evenodd" clip-rule="evenodd" d="M366.86 238.286L372.044 259.907L386.705 254.302L388.66 263.474H395.502L400.389 276.214L409.754 270.427C412.224 276.468 413.584 283.075 413.584 289.998C413.584 318.719 390.172 342.002 361.292 342.002C332.412 342.002 309 318.719 309 289.998C309 261.277 332.412 237.994 361.292 237.994C363.173 237.994 365.031 238.093 366.86 238.286Z" fill="#5B5B5B"/>
<path d="M372.044 259.907L370.099 260.373L370.63 262.589L372.758 261.775L372.044 259.907ZM366.86 238.286L368.805 237.819L368.476 236.445L367.07 236.297L366.86 238.286ZM386.705 254.302L388.662 253.885L388.174 251.599L385.991 252.433L386.705 254.302ZM388.66 263.474L386.704 263.891L387.042 265.474H388.66V263.474ZM395.502 263.474L397.37 262.758L396.877 261.474H395.502V263.474ZM400.389 276.214L398.522 276.93L399.387 279.184L401.441 277.915L400.389 276.214ZM409.754 270.427L411.606 269.67L410.712 267.484L408.703 268.726L409.754 270.427ZM373.989 259.441L368.805 237.819L364.915 238.752L370.099 260.373L373.989 259.441ZM385.991 252.433L371.33 258.039L372.758 261.775L387.42 256.17L385.991 252.433ZM390.616 263.057L388.662 253.885L384.749 254.718L386.704 263.891L390.616 263.057ZM395.502 261.474H388.66V265.474H395.502V261.474ZM402.257 275.497L397.37 262.758L393.635 264.19L398.522 276.93L402.257 275.497ZM408.703 268.726L399.338 274.512L401.441 277.915L410.806 272.128L408.703 268.726ZM407.903 271.184C410.276 276.989 411.584 283.339 411.584 289.998H415.584C415.584 282.811 414.171 275.947 411.606 269.67L407.903 271.184ZM411.584 289.998C411.584 317.604 389.078 340.002 361.292 340.002V344.002C391.266 344.002 415.584 319.834 415.584 289.998H411.584ZM361.292 340.002C333.506 340.002 311 317.604 311 289.998H307C307 319.834 331.318 344.002 361.292 344.002V340.002ZM311 289.998C311 262.392 333.506 239.994 361.292 239.994V235.994C331.318 235.994 307 260.162 307 289.998H311ZM361.292 239.994C363.103 239.994 364.891 240.089 366.651 240.275L367.07 236.297C365.171 236.097 363.243 235.994 361.292 235.994V239.994Z" fill="black" mask="url(#path-5-inside-1_0_1)"/>
</g>
<g id="Group 107">
<ellipse id="Ellipse 24" cx="345.847" cy="289.971" rx="2.93226" ry="3.0575" fill="#BCBCBC"/>
<ellipse id="Ellipse 25" cx="373.214" cy="289.971" rx="2.93226" ry="3.0575" fill="#BCBCBC"/>
</g>
<path id="Vector 72" d="M347.802 305.259C351.474 309.104 361.308 314.488 371.26 305.259" stroke="#BCBCBC" stroke-width="2" stroke-linecap="round" stroke-linejoin="round"/>
<path id="Ellipse 26" d="M326.89 274.814C325.689 274.48 324.957 273.211 325.339 272.014C327.032 266.703 329.834 261.838 333.553 257.777C337.247 253.743 341.741 250.615 346.709 248.604C347.886 248.128 349.2 248.84 349.581 250.092V250.092C349.947 251.296 349.311 252.551 348.182 253.015C343.883 254.78 339.994 257.502 336.791 261C333.583 264.503 331.153 268.688 329.661 273.256C329.276 274.436 328.077 275.144 326.89 274.814V274.814Z" fill="#C4C4C4" fill-opacity="0.4"/>
</g>
</g>
<g id="Group 157">
<g id="Union">
<mask id="path-11-inside-2_0_1" fill="white">
<path d="M489 289.125C489 318.327 465.327 342 436.125 342C406.923 342 383.25 318.327 383.25 289.125C383.25 259.923 406.923 236.25 436.125 236.25C465.327 236.25 489 259.923 489 289.125Z"/>
</mask>
<path d="M489 289.125C489 318.327 465.327 342 436.125 342C406.923 342 383.25 318.327 383.25 289.125C383.25 259.923 406.923 236.25 436.125 236.25C465.327 236.25 489 259.923 489 289.125Z" fill="white"/>
<path d="M487 289.125C487 317.223 464.223 340 436.125 340V344C466.432 344 491 319.432 491 289.125H487ZM436.125 340C408.028 340 385.25 317.223 385.25 289.125H381.25C381.25 319.432 405.819 344 436.125 344V340ZM385.25 289.125C385.25 261.028 408.028 238.25 436.125 238.25V234.25C405.819 234.25 381.25 258.819 381.25 289.125H385.25ZM436.125 238.25C464.223 238.25 487 261.028 487 289.125H491C491 258.819 466.432 234.25 436.125 234.25V238.25Z" fill="black" mask="url(#path-11-inside-2_0_1)"/>
</g>
<g id="Group 155">
<circle id="Ellipse 24_2" cx="422.783" cy="286.087" r="2.96495" fill="black"/>
<circle id="Ellipse 25_2" cx="450.456" cy="286.087" r="2.96495" fill="black"/>
</g>
<g id="Group 156">
<g id="Group 108" filter="url(#filter1_f_0_1)">
<circle id="Ellipse 25_3" cx="405.488" cy="297.452" r="6.42405" fill="#FFCACA"/>
</g>
<g id="Group 109" filter="url(#filter2_f_0_1)">
<circle id="Ellipse 25_4" cx="466.764" cy="297.452" r="6.42405" fill="#FFCACA"/>
</g>
</g>
<path id="Vector 115" d="M423.75 301.5C427.625 308.292 438 317.8 448.5 301.5" stroke="black" stroke-width="2" stroke-linecap="round" stroke-linejoin="round"/>
</g>
</g>
</g>
<rect id="Rectangle 181" x="0.5" y="0.5" width="799" height="639" stroke="#F9F9F9"/>
</g>
<defs>
<filter id="filter0_d_0_1" x="297" y="232.25" width="196" height="121.751" filterUnits="userSpaceOnUse" color-interpolation-filters="sRGB">
<feFlood flood-opacity="0" result="BackgroundImageFix"/>
<feColorMatrix in="SourceAlpha" type="matrix" values="0 0 0 0 0 0 0 0 0 0 0 0 0 0 0 0 0 0 127 0" result="hardAlpha"/>
<feOffset dx="-4" dy="4"/>
<feGaussianBlur stdDeviation="4"/>
<feComposite in2="hardAlpha" operator="out"/>
<feColorMatrix type="matrix" values="0 0 0 0 0 0 0 0 0 0 0 0 0 0 0 0 0 0 0.25 0"/>
<feBlend mode="normal" in2="BackgroundImageFix" result="effect1_dropShadow_0_1"/>
<feBlend mode="normal" in="SourceGraphic" in2="effect1_dropShadow_0_1" result="shape"/>
</filter>
<filter id="filter1_f_0_1" x="395.064" y="287.028" width="20.8481" height="20.8481" filterUnits="userSpaceOnUse" color-interpolation-filters="sRGB">
<feFlood flood-opacity="0" result="BackgroundImageFix"/>
<feBlend mode="normal" in="SourceGraphic" in2="BackgroundImageFix" result="shape"/>
<feGaussianBlur stdDeviation="2" result="effect1_foregroundBlur_0_1"/>
</filter>
<filter id="filter2_f_0_1" x="456.34" y="287.028" width="20.8481" height="20.8481" filterUnits="userSpaceOnUse" color-interpolation-filters="sRGB">
<feFlood flood-opacity="0" result="BackgroundImageFix"/>
<feBlend mode="normal" in="SourceGraphic" in2="BackgroundImageFix" result="shape"/>
<feGaussianBlur stdDeviation="2" result="effect1_foregroundBlur_0_1"/>
</filter>
<clipPath id="clip0_0_1">
<rect width="1280" height="720" fill="white" transform="translate(-240)"/>
</clipPath>
</defs>
</svg>
