<svg width="100" height="100" viewBox="0 0 100 100" fill="none" xmlns="http://www.w3.org/2000/svg">
<path d="M100 50C100 77.6142 77.6142 100 50 100C22.3858 100 0 77.6142 0 50C0 22.3858 22.3858 0 50 0C77.6142 0 100 22.3858 100 50Z" fill="white"/>
<path fill-rule="evenodd" clip-rule="evenodd" d="M50 97.1963C76.0658 97.1963 97.1963 76.0658 97.1963 50C97.1963 23.9342 76.0658 2.80374 50 2.80374C23.9342 2.80374 2.80374 23.9342 2.80374 50C2.80374 76.0658 23.9342 97.1963 50 97.1963ZM50 100C77.6142 100 100 77.6142 100 50C100 22.3858 77.6142 0 50 0C22.3858 0 0 22.3858 0 50C0 77.6142 22.3858 100 50 100Z" fill="black"/>
<path d="M40.1871 46.7285C40.1871 48.277 38.9318 49.5323 37.3833 49.5323C35.8349 49.5323 34.5796 48.277 34.5796 46.7285C34.5796 45.1801 35.8349 43.9248 37.3833 43.9248C38.9318 43.9248 40.1871 45.1801 40.1871 46.7285Z" fill="black"/>
<path d="M66.355 46.7285C66.355 48.277 65.0998 49.5323 63.5513 49.5323C62.0028 49.5323 60.7476 48.277 60.7476 46.7285C60.7476 45.1801 62.0028 43.9248 63.5513 43.9248C65.0998 43.9248 66.355 45.1801 66.355 46.7285Z" fill="black"/>
<path fill-rule="evenodd" clip-rule="evenodd" d="M56.0117 69.7549C56.1985 70.2361 55.9598 70.7776 55.4786 70.9643C50.8321 72.7676 46.2608 71.7271 44.485 70.949C44.0123 70.7419 43.7969 70.1907 44.0041 69.718C44.2112 69.2452 44.7624 69.0299 45.2352 69.237C46.6786 69.8695 50.7262 70.8037 54.8024 69.2218C55.2835 69.035 55.825 69.2737 56.0117 69.7549Z" fill="black"/>
<path fill-rule="evenodd" clip-rule="evenodd" d="M63.9733 63.0763C63.7193 64.3414 62.4877 65.161 61.2226 64.9069C57.9322 64.2461 48.8309 63.2856 39.6619 64.9166C38.3915 65.1425 37.1784 64.2958 36.9524 63.0254C36.7264 61.755 37.5731 60.5419 38.8436 60.3159C48.706 58.5616 58.4095 59.5758 62.1427 60.3255C63.4078 60.5796 64.2274 61.8111 63.9733 63.0763Z" fill="black"/>
<path d="M11.9381 38.2861C10.6842 37.9518 9.9317 36.6612 10.3425 35.4302C12.1217 30.0986 15.0584 25.2152 18.9532 21.1361C22.8479 17.0569 27.5902 13.8974 32.8338 11.8737C34.0446 11.4064 35.3685 12.0984 35.7605 13.3355C36.1525 14.5727 35.4635 15.8856 34.2569 16.3633C29.7649 18.1417 25.7013 20.8739 22.3523 24.3815C19.0033 27.8891 16.4619 32.0747 14.8932 36.6441C14.4718 37.8716 13.1921 38.6205 11.9381 38.2861Z" fill="#C4C4C4" fill-opacity="0.4"/>
</svg>
