<?xml version="1.0" standalone="no"?>
<!DOCTYPE svg PUBLIC "-//W3C//DTD SVG 20010904//EN"
 "http://www.w3.org/TR/2001/REC-SVG-20010904/DTD/svg10.dtd">
<svg version="1.0" xmlns="http://www.w3.org/2000/svg"
 width="768.000000pt" height="474.000000pt" viewBox="0 0 768.000000 474.000000"
 preserveAspectRatio="xMidYMid meet">

<g transform="translate(0.000000,474.000000) scale(0.100000,-0.100000)"
fill="#000000" stroke="none">
<path d="M2295 3855 c-572 -90 -1034 -480 -1215 -1024 -58 -171 -74 -276 -75
-476 0 -195 17 -306 72 -475 77 -238 187 -415 372 -601 229 -228 479 -362 796
-426 139 -27 435 -25 575 6 295 63 550 197 754 395 45 45 106 108 135 141 l51
60 37 -45 c266 -322 612 -518 1011 -571 122 -16 381 -6 499 20 302 66 541 198
764 420 227 227 352 460 420 781 30 139 32 418 6 555 -121 623 -576 1091
-1190 1226 -134 29 -379 36 -525 15 -327 -48 -606 -186 -846 -416 -44 -43
-101 -105 -126 -139 -25 -33 -47 -60 -50 -60 -3 0 -27 30 -55 66 -173 226
-466 420 -767 507 -185 53 -456 71 -643 41z m465 -90 c203 -33 422 -124 595
-246 103 -74 253 -219 309 -301 l38 -57 -56 -110 c-123 -241 -187 -534 -169
-781 l6 -86 -314 -12 c-766 -29 -1325 -103 -1549 -203 -75 -34 -94 -53 -79
-80 13 -25 30 -24 87 5 202 102 825 184 1619 212 239 8 244 6 262 -80 21 -105
79 -263 137 -376 l55 -109 -32 -47 c-180 -262 -513 -475 -859 -550 -121 -27
-448 -27 -570 -1 -572 122 -1001 551 -1126 1127 -29 133 -27 439 4 579 66 293
199 530 413 735 330 317 775 455 1229 381z m2956 -599 c34 -34 34 -34 34 -131
0 -97 0 -97 -34 -131 l-34 -34 -214 0 -214 0 -34 29 c-34 28 -35 31 -39 115
-4 101 9 140 53 167 28 17 53 19 240 19 l208 0 34 -34z m-1042 -92 c10 -27 7
-54 -14 -93 -25 -49 -70 -71 -149 -71 -57 0 -61 -2 -61 -22 0 -31 52 -139 78
-162 12 -10 36 -21 54 -25 28 -6 33 -11 33 -36 0 -25 -4 -30 -28 -33 -56 -7
-124 43 -165 120 l-19 37 -12 -26 c-21 -46 -70 -100 -105 -117 -49 -23 -93
-21 -101 4 -8 26 11 50 39 50 43 0 113 94 130 177 l7 32 -117 3 c-96 3 -119 6
-127 20 -8 12 -7 21 2 32 12 14 45 16 231 16 l219 0 20 26 c12 15 21 37 21 49
0 12 3 25 7 28 12 13 51 7 57 -9z m826 -508 c0 -91 -3 -116 -16 -127 -11 -9
-20 -10 -32 -2 -25 15 -30 223 -7 247 13 12 21 13 36 6 17 -10 19 -22 19 -124z
m-1081 -40 c8 -9 11 -51 9 -122 l-3 -109 -30 0 -30 0 -3 109 c-3 108 4 136 33
136 7 0 18 -6 24 -14z m1579 -143 c4 -30 -38 -55 -153 -92 -345 -111 -1105
-181 -1961 -181 -327 0 -373 2 -385 16 -9 11 -10 20 -2 32 9 15 57 18 484 23
565 8 859 24 1254 70 311 36 551 85 657 134 65 29 102 29 106 -2z m-486 -387
c183 -32 218 -59 218 -173 0 -79 -40 -161 -118 -244 -52 -55 -63 -62 -79 -53
-33 20 -26 44 27 99 78 84 118 188 94 250 -17 44 -138 73 -323 78 -92 2 -116
5 -124 18 -6 9 -7 24 -4 33 10 24 144 21 309 -8z"/>
<path d="M1784 3091 c-94 -43 -148 -153 -124 -252 39 -161 244 -224 363 -111
68 64 89 180 47 261 -52 103 -182 149 -286 102z m156 -69 c107 -53 107 -211 0
-264 -100 -50 -215 22 -213 133 2 111 115 181 213 131z"/>
<path d="M2698 2964 c-40 -21 -48 -43 -48 -139 0 -82 1 -88 29 -116 l29 -29
227 0 c296 0 305 4 305 156 0 73 -1 77 -34 110 l-34 34 -223 0 c-178 -1 -230
-4 -251 -16z m460 -66 c17 -17 16 -123 -2 -137 -9 -8 -77 -11 -222 -9 l-209 3
-3 69 c-2 49 1 72 10 77 22 14 412 11 426 -3z"/>
<path d="M2916 2657 c-14 -11 -16 -34 -14 -196 3 -159 5 -185 20 -194 12 -8
21 -7 32 2 14 11 16 42 16 197 0 169 -1 184 -19 193 -13 7 -23 7 -35 -2z"/>
<path d="M1856 2575 c-3 -9 -6 -92 -6 -185 0 -140 3 -171 16 -184 19 -20 28
-20 43 -2 8 9 11 70 9 197 l-3 184 -26 3 c-17 2 -29 -3 -33 -13z"/>
<path d="M2850 1886 c-92 -20 -144 -62 -138 -112 4 -42 39 -44 67 -5 28 39 78
55 171 54 76 -1 122 -13 151 -39 24 -21 9 -92 -25 -119 -31 -25 -34 -61 -6
-70 67 -21 135 109 107 202 -14 43 -69 77 -151 92 -73 13 -105 13 -176 -3z"/>
<path d="M5270 3120 c-19 -12 -27 -144 -10 -165 10 -12 47 -15 204 -15 136 0
196 4 204 12 7 7 12 41 12 83 0 42 -5 76 -12 83 -15 15 -375 17 -398 2z"/>
</g>
</svg>
